<?xml version="1.0" encoding="utf-8"?>
<!-- Generator: Adobe Illustrator 21.1.0, SVG Export Plug-In . SVG Version: 6.00 Build 0)  -->
<svg version="1.1" id="Layer_1" xmlns="http://www.w3.org/2000/svg" xmlns:xlink="http://www.w3.org/1999/xlink" x="0px" y="0px"
	 viewBox="0 0 512 512" style="enable-background:new 0 0 512 512;" xml:space="preserve">
<style type="text/css">
	.st0{fill:#D6CD1E;}
	.st1{fill:#E56823;}
	.st2{fill:#FE8E46;}
	.st3{fill:#FEFE71;}
	.st4{fill:#463218;}
	.st5{fill:#7DAC51;}
	.st6{fill:#5B7C31;}
	.st7{fill:#FFFFFF;}
</style>
<g>
	<g>
		<g>
			<polygon class="st2" points="256,117.334 135.912,186.667 135.912,325.333 256,394.667 376.089,325.333 376.089,186.667 			"/>
		</g>
	</g>
	<g>
		<g>
			<polygon class="st1" points="135.912,186.667 135.912,325.333 256,394.667 256,117.334 			"/>
		</g>
	</g>
	<g>
		<g>
			<g>
				<g>
					<path class="st4" d="M379.588,180.605L259.5,111.271c-2.166-1.251-4.834-1.251-7,0l-120.088,69.333
						c-2.166,1.25-3.5,3.561-3.5,6.062v138.666c0,2.501,1.334,4.812,3.5,6.062L252.5,400.729c1.083,0.625,2.292,0.938,3.5,0.938
						s2.417-0.312,3.5-0.938l120.088-69.333c2.166-1.25,3.5-3.561,3.5-6.062V186.667
						C383.088,184.166,381.754,181.855,379.588,180.605z M369.088,321.292L256,386.583l-113.088-65.292V190.708L256,125.417
						l113.088,65.292V321.292z"/>
				</g>
			</g>
		</g>
	</g>
	<g>
		<g>
			<polygon class="st5" points="279.087,243.572 297.602,243.572 256,171.516 214.399,243.572 232.914,243.572 214.399,275.64 
				232.914,275.64 214.399,307.708 297.602,307.708 279.087,275.64 297.602,275.64 			"/>
		</g>
	</g>
	<g>
		<g>
			<polygon class="st6" points="214.399,243.571 232.914,243.571 214.399,275.64 232.914,275.64 214.399,307.707 256,307.707 
				256,171.516 			"/>
		</g>
	</g>
	<g>
		<g>
			<g>
				<g>
					<path class="st4" d="M303.665,279.14c1.25-2.166,1.25-4.834,0-7l-12.453-21.568h6.391c2.501,0,4.812-1.334,6.062-3.5
						c1.25-2.166,1.25-4.834,0-7l-41.602-72.056c-1.251-2.166-3.562-3.5-6.062-3.5s-4.812,1.334-6.062,3.5l-41.602,72.056
						c-1.25,2.166-1.25,4.834,0,7s3.561,3.5,6.062,3.5h6.39l-12.452,21.568c-1.25,2.166-1.25,4.834,0,7
						c1.25,2.166,3.561,3.5,6.062,3.5h6.39l-12.452,21.568c-1.25,2.166-1.25,4.834,0,7c1.25,2.166,3.561,3.5,6.062,3.5h83.203
						c2.501,0,4.812-1.334,6.062-3.5c1.25-2.166,1.25-4.834,0-7l-12.453-21.568h6.391
						C300.103,282.64,302.414,281.306,303.665,279.14z M273.025,247.072l12.453,21.568h-6.391c-2.501,0-4.812,1.334-6.062,3.5
						c-1.25,2.166-1.25,4.834,0,7l12.453,21.568h-58.955l12.452-21.568c1.25-2.166,1.25-4.834,0-7s-3.561-3.5-6.062-3.5h-6.39
						l12.452-21.568c1.25-2.166,1.25-4.834,0-7s-3.561-3.5-6.062-3.5h-6.39L256,185.516l29.478,51.056h-6.391
						c-2.501,0-4.812,1.334-6.062,3.5C271.775,242.238,271.775,244.906,273.025,247.072z"/>
				</g>
			</g>
		</g>
	</g>
	<g>
		<g>
			<rect x="344" y="204.971" class="st7" width="14" height="34.641"/>
		</g>
	</g>
</g>
</svg>
