<?xml version="1.0" encoding="utf-8"?>
<!-- Generator: Adobe Illustrator 21.1.0, SVG Export Plug-In . SVG Version: 6.00 Build 0)  -->
<svg version="1.1" id="Layer_1" xmlns="http://www.w3.org/2000/svg" xmlns:xlink="http://www.w3.org/1999/xlink" x="0px" y="0px"
	 viewBox="0 0 512 512" style="enable-background:new 0 0 512 512;" xml:space="preserve">
<style type="text/css">
	.st0{fill:#D6CD1E;}
	.st1{fill:#E56823;}
	.st2{fill:#FE8E46;}
	.st3{fill:#FEFE71;}
	.st4{fill:#463218;}
	.st5{fill:#7DAC51;}
	.st6{fill:#5B7C31;}
	.st7{fill:#FFFFFF;}
</style>
<g>
	<g>
		<g>
			<path class="st5" d="M180.886,379.906c0,18.028,14.614,32.642,32.642,32.642h88.715c18.028,0,32.642-14.614,32.642-32.642
				H180.886z"/>
		</g>
	</g>
	<g>
		<g>
			<path class="st6" d="M230.884,379.906h-49.998c0,18.028,14.614,32.643,32.642,32.643h49.998
				C245.498,412.548,230.884,397.934,230.884,379.906z"/>
		</g>
	</g>
	<g>
		<g>
			<path class="st3" d="M278.035,99.452H231.71c-36.986,0-66.969,29.983-66.969,66.968v93.846c0,49.778,40.353,90.131,90.131,90.131
				s90.131-40.353,90.131-90.131V166.42C345.003,129.435,315.02,99.452,278.035,99.452z"/>
		</g>
	</g>
	<g>
		<g>
			<path class="st0" d="M189.602,260.266V166.42c0-36.985,29.983-66.968,66.969-66.968H231.71
				c-36.986,0-66.969,29.983-66.969,66.968v93.846c0,49.778,40.353,90.131,90.131,90.131c4.218,0,8.366-0.296,12.43-0.857
				C223.408,343.483,189.602,305.826,189.602,260.266z"/>
		</g>
	</g>
	<g>
		<g>
			<path class="st2" d="M159.417,342.028c-17.036,0-30.847,13.811-30.847,30.847v39.673h23.336
				c16.005,0,28.979-12.974,28.979-28.979v-41.541H159.417z"/>
		</g>
	</g>
	<g>
		<g>
			<path class="st0" d="M144.715,222.11c0,11.061,8.966,20.027,20.027,20.027v-40.054
				C153.681,202.083,144.715,211.05,144.715,222.11z"/>
		</g>
	</g>
	<g>
		<g>
			<path class="st0" d="M345.003,202.083v40.054c11.061,0,20.027-8.967,20.027-20.027S356.064,202.083,345.003,202.083z"/>
		</g>
	</g>
	<g>
		<g>
			<g>
				<g>
					<path class="st4" d="M278.034,92.452H231.71c-40.787,0-73.969,33.182-73.969,73.968v93.847
						c0,53.559,43.573,97.131,97.131,97.131s97.131-43.572,97.131-97.131v-93.847C352.003,125.633,318.821,92.452,278.034,92.452z
						 M338.003,260.266c0,45.839-37.292,83.131-83.131,83.131s-83.131-37.292-83.131-83.131v-93.847
						c0-33.066,26.902-59.968,59.969-59.968h46.324c33.067,0,59.969,26.901,59.969,59.968V260.266z"/>
				</g>
			</g>
		</g>
	</g>
	<g>
		<g>
			<g>
				<g>
					<path class="st4" d="M164.741,195.083c-14.903,0-27.027,12.124-27.027,27.027c0,14.902,12.124,27.026,27.027,27.026
						c3.866,0,7-3.134,7-7v-40.054C171.741,198.217,168.608,195.083,164.741,195.083z M157.741,233.092
						c-3.622-2.316-6.027-6.373-6.027-10.981s2.405-8.666,6.027-10.982V233.092z"/>
				</g>
			</g>
		</g>
	</g>
	<g>
		<g>
			<g>
				<g>
					<path class="st4" d="M345.003,195.083c-3.866,0-7,3.134-7,7v40.054c0,3.866,3.134,7,7,7c14.903,0,27.027-12.124,27.027-27.026
						C372.03,207.208,359.906,195.083,345.003,195.083z M352.003,233.092v-21.964c3.622,2.316,6.027,6.374,6.027,10.982
						S355.625,230.776,352.003,233.092z"/>
				</g>
			</g>
		</g>
	</g>
	<g>
		<g>
			<path class="st2" d="M278.035,99.452H231.71c-36.986,0-66.969,29.983-66.969,66.968v35.664c31.41,0,56.872-25.462,56.872-56.872
				c0,31.41,25.463,56.872,56.872,56.872h66.517V166.42C345.003,129.435,315.02,99.452,278.035,99.452z"/>
		</g>
	</g>
	<g>
		<g>
			<path class="st7" d="M299.03,116.704l-5.462,12.891c8.949,3.791,16.214,10.701,20.459,19.457l12.598-6.107
				C320.901,131.137,311.101,121.818,299.03,116.704z"/>
		</g>
	</g>
	<g>
		<g>
			<path class="st1" d="M231.71,99.452c-36.986,0-66.969,29.983-66.969,66.968v35.664c8.916,0,17.35-2.056,24.861-5.713V166.42
				c0-36.985,29.983-66.968,66.969-66.968H231.71z"/>
		</g>
	</g>
	<g>
		<g>
			<g>
				<g>
					<path class="st4" d="M278.034,92.452H231.71c-40.787,0-73.969,33.183-73.969,73.969v35.663c0,3.866,3.134,7,7,7
						c24.761,0,46.278-14.165,56.872-34.815c10.594,20.65,32.111,34.815,56.873,34.815h66.517c3.866,0,7-3.134,7-7V166.42
						C352.003,125.634,318.821,92.452,278.034,92.452z M338.003,195.083h-59.517c-27.5,0-49.873-22.372-49.873-49.872
						c0-3.866-3.134-7-7-7s-7,3.134-7,7c0,25.125-18.674,45.97-42.872,49.383V166.42c0-33.066,26.902-59.969,59.969-59.969h46.324
						c33.067,0,59.969,26.902,59.969,59.969V195.083z"/>
				</g>
			</g>
		</g>
	</g>
	<g>
		<g>
			<path class="st4" d="M312.833,230.388c-5.082-5.081-11.838-7.88-19.025-7.88s-13.943,2.799-19.025,7.88
				c-2.734,2.734-2.734,7.166,0,9.9c2.733,2.732,7.166,2.732,9.899,0c5.032-5.033,13.219-5.033,18.251,0
				c1.367,1.366,3.158,2.05,4.95,2.05s3.583-0.684,4.95-2.05C315.567,237.554,315.567,233.123,312.833,230.388z"/>
		</g>
	</g>
	<g>
		<g>
			<path class="st4" d="M234.961,230.388c-5.082-5.081-11.838-7.88-19.025-7.88s-13.943,2.799-19.025,7.88
				c-2.734,2.734-2.734,7.166,0,9.9c2.733,2.732,7.166,2.732,9.899,0c5.032-5.033,13.219-5.033,18.251,0
				c1.367,1.366,3.158,2.05,4.95,2.05s3.583-0.684,4.95-2.05C237.695,237.554,237.695,233.123,234.961,230.388z"/>
		</g>
	</g>
	<g>
		<g>
			<g>
				<g>
					<path class="st4" d="M180.886,335.029h-21.469c-20.869,0-37.847,16.978-37.847,37.846v39.674c0,3.866,3.134,7,7,7h23.336
						c19.839,0,35.979-16.141,35.979-35.979v-41.54C187.886,338.163,184.752,335.029,180.886,335.029z M173.886,383.569
						c0,12.119-9.86,21.979-21.979,21.979H135.57v-32.674c0-13.148,10.698-23.846,23.847-23.846h14.469V383.569z"/>
				</g>
			</g>
		</g>
	</g>
	<g>
		<g>
			<path class="st4" d="M180.886,356.868h-16.265c-3.866,0-7,3.134-7,7s3.134,7,7,7h16.265c3.866,0,7-3.134,7-7
				S184.752,356.868,180.886,356.868z"/>
		</g>
	</g>
	<g>
		<g>
			<path class="st4" d="M180.886,375.133h-16.265c-3.866,0-7,3.134-7,7s3.134,7,7,7h16.265c3.866,0,7-3.134,7-7
				S184.752,375.133,180.886,375.133z"/>
		</g>
	</g>
	<g>
		<g>
			<path class="st2" d="M352.584,342.028h-21.469v41.541c0,16.005,12.975,28.979,28.979,28.979h23.336v-39.673
				C383.43,355.839,369.62,342.028,352.584,342.028z"/>
		</g>
	</g>
	<g>
		<g>
			<g>
				<g>
					<path class="st4" d="M352.584,335.029h-21.469c-3.866,0-7,3.134-7,7v41.54c0,19.839,16.14,35.979,35.979,35.979h23.336
						c3.866,0,7-3.134,7-7v-39.674C390.43,352.006,373.452,335.029,352.584,335.029z M376.43,405.548h-16.336
						c-12.12,0-21.979-9.86-21.979-21.979v-34.54h14.469c13.149,0,23.846,10.697,23.846,23.846V405.548z"/>
				</g>
			</g>
		</g>
	</g>
	<g>
		<g>
			<path class="st4" d="M347.38,356.868h-16.265c-3.866,0-7,3.134-7,7s3.134,7,7,7h16.265c3.866,0,7-3.134,7-7
				S351.246,356.868,347.38,356.868z"/>
		</g>
	</g>
	<g>
		<g>
			<path class="st4" d="M347.38,375.133h-16.265c-3.866,0-7,3.134-7,7s3.134,7,7,7h16.265c3.866,0,7-3.134,7-7
				S351.246,375.133,347.38,375.133z"/>
		</g>
	</g>
	<g>
		<g>
			<path class="st4" d="M280.625,293.449h-51.506c-3.866,0-7,3.134-7,7s3.134,7,7,7h51.506c3.866,0,7-3.134,7-7
				S284.491,293.449,280.625,293.449z"/>
		</g>
	</g>
	<g>
		<g>
			<g>
				<g>
					<path class="st4" d="M271.525,272.038c-10.256,0-18.601,8.345-18.601,18.602v9.81c0,3.866,3.134,7,7,7h23.202
						c3.866,0,7-3.134,7-7v-9.81C290.126,280.382,281.781,272.038,271.525,272.038z M276.126,293.449h-9.202v-2.81
						c0-2.537,2.064-4.602,4.601-4.602c2.537,0,4.601,2.064,4.601,4.602V293.449z"/>
				</g>
			</g>
		</g>
	</g>
	<g>
		<g>
			<g>
				<g>
					<path class="st4" d="M334.885,372.906h-154c-3.866,0-7,3.134-7,7c0,21.859,17.783,39.643,39.642,39.643h88.715
						c21.859,0,39.642-17.783,39.642-39.643C341.885,376.04,338.752,372.906,334.885,372.906z M302.243,405.548h-88.715
						c-11.713,0-21.617-7.895-24.671-18.643h138.057C323.861,397.654,313.957,405.548,302.243,405.548z"/>
				</g>
			</g>
		</g>
	</g>
	<g>
		<g>
			<g>
				<g>
					<path class="st4" d="M334.885,372.906h-154c-3.866,0-7,3.134-7,7c0,21.859,17.783,39.643,39.642,39.643h88.715
						c21.859,0,39.642-17.783,39.642-39.643C341.885,376.04,338.752,372.906,334.885,372.906z M302.243,405.548h-88.715
						c-11.713,0-21.617-7.895-24.671-18.643h138.057C323.861,397.654,313.957,405.548,302.243,405.548z"/>
				</g>
			</g>
		</g>
	</g>
	<g>
		<g>
			<path class="st2" d="M254.873,331.924c-26.5,0-47.982,21.482-47.982,47.982h95.964
				C302.855,353.406,281.372,331.924,254.873,331.924z"/>
		</g>
	</g>
	<g>
		<g>
			<path class="st1" d="M254.873,331.924c-26.5,0-47.982,21.482-47.982,47.982h25.752c0-22.037,14.862-40.592,35.106-46.22
				C263.65,332.546,259.335,331.924,254.873,331.924z"/>
		</g>
	</g>
	<g>
		<g>
			<g>
				<g>
					<path class="st4" d="M254.873,324.923c-30.317,0-54.982,24.665-54.982,54.982c0,3.866,3.134,7,7,7h95.964c3.866,0,7-3.134,7-7
						C309.855,349.588,285.19,324.923,254.873,324.923z M214.489,372.906c3.331-19.274,20.172-33.982,40.384-33.982
						s37.053,14.708,40.384,33.982H214.489z"/>
				</g>
			</g>
		</g>
	</g>
</g>
</svg>
