<?xml version="1.0" encoding="utf-8"?>
<!-- Generator: Adobe Illustrator 21.1.0, SVG Export Plug-In . SVG Version: 6.00 Build 0)  -->
<svg version="1.1" id="Layer_1" xmlns="http://www.w3.org/2000/svg" xmlns:xlink="http://www.w3.org/1999/xlink" x="0px" y="0px"
	 viewBox="0 0 512 512" style="enable-background:new 0 0 512 512;" xml:space="preserve">
<style type="text/css">
	.st0{fill:#D6CD1E;}
	.st1{fill:#E56823;}
	.st2{fill:#FE8E46;}
	.st3{fill:#FEFE71;}
	.st4{fill:#463218;}
	.st5{fill:#7DAC51;}
	.st6{fill:#5B7C31;}
	.st7{fill:#FFFFFF;}
</style>
<g>
	<g>
		<g>
			<path class="st2" d="M179.2,358.4c-14.138,0-25.6,11.462-25.6,25.6s11.461,25.6,25.6,25.6h179.2v-51.2H179.2z"/>
		</g>
	</g>
	<g>
		<g>
			<path class="st2" d="M179.2,358.4c-14.138,0-25.6,11.462-25.6,25.6s11.461,25.6,25.6,25.6h179.2v-51.2H179.2z"/>
		</g>
	</g>
	<g>
		<g>
			<path class="st1" d="M179.2,378.4c-3.088,0-5.601,2.512-5.601,5.6s2.513,5.6,5.601,5.6h179.2v-11.2H179.2z"/>
		</g>
	</g>
	<g>
		<g>
			<path class="st3" d="M153.6,102.4V384c0-14.138,11.461-25.6,25.6-25.6h179.2v-256H153.6z"/>
		</g>
	</g>
	<g>
		<g>
			<path class="st0" d="M153.6,102.4V384c0-14.138,11.461-25.6,25.6-25.6h25.6v-256H153.6z"/>
		</g>
	</g>
	<g>
		<g>
			<rect x="179.6" y="128.4" class="st2" width="152.801" height="100.101"/>
		</g>
	</g>
	<g>
		<g>
			<polygon class="st1" points="204.8,203.65 204.8,128.4 179.6,128.4 179.6,228.501 332.4,228.501 332.4,203.65 			"/>
		</g>
	</g>
	<g>
		<g>
			<g>
				<g>
					<path class="st4" d="M332.4,121.4H179.6c-3.866,0-7,3.134-7,7v100.101c0,3.866,3.134,7,7,7H332.4c3.866,0,7-3.134,7-7V128.4
						C339.4,124.534,336.267,121.4,332.4,121.4z M325.4,221.501H186.6V135.4H325.4V221.501z"/>
				</g>
			</g>
		</g>
	</g>
	<g>
		<g>
			<g>
				<g>
					<g>
						<path class="st4" d="M358.4,95.4H153.6c-3.866,0-7,3.134-7,7V384c0,3.866,3.134,7,7,7s7-3.134,7-7
							c0-10.256,8.344-18.6,18.601-18.6h179.2c3.866,0,7-3.134,7-7v-256C365.4,98.534,362.267,95.4,358.4,95.4z M351.4,351.4H179.2
							c-6.909,0-13.322,2.16-18.601,5.84V109.4H351.4V351.4z"/>
					</g>
				</g>
			</g>
		</g>
	</g>
	<g>
		<g>
			<g>
				<g>
					<path class="st4" d="M358.4,351.4H179.2c-17.976,0-32.601,14.625-32.601,32.6s14.625,32.6,32.601,32.6h179.2
						c3.866,0,7-3.134,7-7v-51.2C365.4,354.534,362.267,351.4,358.4,351.4z M351.4,402.6H179.2c-10.257,0-18.601-8.344-18.601-18.6
						s8.344-18.6,18.601-18.6h172.2V402.6z"/>
				</g>
			</g>
		</g>
	</g>
	<g>
		<g>
			<path class="st6" d="M290.843,315.563c-5.127-2.71-11.207-4.143-17.584-4.143c-1.028,0-2.046,0.041-3.056,0.115
				c2.819-1.939,5.511-4.18,8.026-6.695c6.31-6.31,10.908-13.74,13.297-21.488c0.153-0.496,0.019-1.035-0.348-1.402
				s-0.906-0.5-1.402-0.348c-7.747,2.389-15.177,6.987-21.488,13.297c-2.034,2.034-3.888,4.185-5.55,6.424
				c1.104-5.044,1.671-10.329,1.671-15.734c0-11.563-2.594-22.581-7.5-31.863c-0.242-0.458-0.719-0.745-1.237-0.745
				c-0.519,0-0.995,0.287-1.237,0.745c-4.907,9.282-7.5,20.3-7.5,31.863c0,4.983,0.483,9.863,1.423,14.548
				c-1.423-1.815-2.973-3.566-4.646-5.239c-6.31-6.31-13.74-10.908-21.487-13.297c-0.495-0.153-1.035-0.019-1.402,0.348
				c-0.367,0.367-0.501,0.906-0.348,1.402c2.389,7.747,6.987,15.178,13.297,21.488c2.514,2.514,5.207,4.755,8.026,6.695
				c-1.01-0.074-2.028-0.115-3.056-0.115c-6.377,0-12.457,1.433-17.584,4.143c-0.458,0.242-0.745,0.719-0.745,1.237
				s0.287,0.995,0.745,1.237c5.127,2.71,11.207,4.143,17.584,4.143c1.762,0,3.5-0.113,5.203-0.329
				c-3.17,2.954-5.554,6.469-6.901,10.19c-0.177,0.488-0.069,1.033,0.28,1.417c0.269,0.296,0.647,0.459,1.036,0.459
				c0.115,0,0.232-0.014,0.347-0.044c3.948-1.012,7.785-3.136,11.097-6.143c1.729-1.569,3.229-3.305,4.468-5.15v9.938
				c0,0.773,0.626,1.399,1.399,1.399s1.399-0.626,1.399-1.399v-10.963c1.351,2.229,3.079,4.318,5.125,6.176h0
				c3.312,3.007,7.15,5.131,11.097,6.143c0.115,0.03,0.232,0.044,0.347,0.044c0.389,0,0.767-0.163,1.036-0.459
				c0.349-0.384,0.456-0.929,0.28-1.417c-1.347-3.721-3.731-7.236-6.901-10.19c1.703,0.215,3.441,0.329,5.203,0.329
				c6.376,0,12.457-1.433,17.584-4.143c0.458-0.242,0.745-0.719,0.745-1.237S291.302,315.806,290.843,315.563z"/>
		</g>
	</g>
	<g>
		<g>
			<rect x="298.408" y="153.426" class="st7" width="14" height="35.458"/>
		</g>
	</g>
</g>
</svg>
