<?xml version="1.0" encoding="utf-8"?>
<!-- Generator: Adobe Illustrator 21.1.0, SVG Export Plug-In . SVG Version: 6.00 Build 0)  -->
<svg version="1.1" id="Layer_1" xmlns="http://www.w3.org/2000/svg" xmlns:xlink="http://www.w3.org/1999/xlink" x="0px" y="0px"
	 viewBox="0 0 512 512" style="enable-background:new 0 0 512 512;" xml:space="preserve">
<style type="text/css">
	.st0{fill:#D6CD1E;}
	.st1{fill:#E56823;}
	.st2{fill:#FE8E46;}
	.st3{fill:#FEFE71;}
	.st4{fill:#463218;}
	.st5{fill:#7DAC51;}
	.st6{fill:#5B7C31;}
	.st7{fill:#FFFFFF;}
</style>
<g>
	<g>
		<g>
			
				<rect x="249.34" y="272.41" transform="matrix(0.7071 -0.7071 0.7071 0.7071 -114.2199 296.2868)" class="st0" width="102.4" height="27.218"/>
		</g>
	</g>
	<g>
		<g>
			<g>
				<g>
					<path class="st4" d="M351.316,254.489l-19.246-19.246c-1.313-1.313-3.094-2.05-4.95-2.05s-3.637,0.738-4.95,2.05
						l-72.407,72.408c-2.733,2.734-2.733,7.166,0,9.899l19.246,19.246c1.313,1.313,3.094,2.05,4.95,2.05s3.637-0.738,4.95-2.05
						l72.407-72.408C354.05,261.654,354.05,257.222,351.316,254.489z M273.959,321.947l-9.347-9.347l62.508-62.508l9.347,9.347
						L273.959,321.947z"/>
				</g>
			</g>
		</g>
	</g>
	<g>
		<g>
			
				<rect x="319.122" y="223.369" transform="matrix(0.7071 -0.7071 0.7071 0.7071 -79.6255 310.6167)" class="st5" width="32.025" height="56.111"/>
		</g>
	</g>
	<g>
		<g>
			<g>
				<g>
					<path class="st4" d="M371.245,254.991l-39.677-39.677c-1.313-1.313-3.094-2.05-4.95-2.05s-3.637,0.738-4.95,2.05
						l-22.645,22.645c-2.733,2.734-2.733,7.166,0,9.899l39.676,39.676c1.367,1.367,3.158,2.05,4.95,2.05
						c1.791,0,3.583-0.684,4.949-2.05l22.646-22.645c1.313-1.313,2.051-3.093,2.051-4.95
						C373.295,258.084,372.558,256.303,371.245,254.991z M343.649,272.686l-29.776-29.777l12.745-12.746l29.777,29.777
						L343.649,272.686z"/>
				</g>
			</g>
		</g>
	</g>
	<g>
		<g>
			<path class="st2" d="M278.694,264.738V102.4h-45.388v162.338c-25.597,9.28-43.887,33.806-43.887,62.608
				c0,36.772,29.809,66.581,66.581,66.581s66.581-29.809,66.581-66.581C322.581,298.544,304.291,274.018,278.694,264.738z"/>
		</g>
	</g>
	<g>
		<g>
			<circle class="st1" cx="256" cy="327.142" r="66.581"/>
		</g>
	</g>
	<g>
		<g>
			<circle class="st2" cx="256" cy="327.142" r="22.27"/>
		</g>
	</g>
	<g>
		<g>
			<path class="st7" d="M222.912,344.894l-12.33,6.63c4.338,8.068,10.768,14.858,18.595,19.637l7.295-11.949
				C230.764,355.726,226.075,350.775,222.912,344.894z"/>
		</g>
	</g>
	<g>
		<g>
			<path class="st7" d="M256,275.602v14c20.699,0,37.54,16.84,37.54,37.54h14C307.54,298.723,284.419,275.602,256,275.602z"/>
		</g>
	</g>
	<g>
		<g>
			<g>
				<g>
					<path class="st4" d="M285.693,260.01V102.4c0-3.866-3.134-7-7-7h-45.387c-3.866,0-7,3.134-7,7v157.61
						c-26.443,11.677-43.888,38.137-43.888,67.336c0,40.573,33.009,73.581,73.581,73.581s73.581-33.008,73.581-73.581
						C329.581,298.147,312.137,271.687,285.693,260.01z M256,386.927c-32.854,0-59.581-26.728-59.581-59.581
						c0-24.995,15.783-47.51,39.273-56.027c2.77-1.004,4.614-3.635,4.614-6.581V109.4h31.387v155.338
						c0,2.946,1.845,5.577,4.614,6.581c23.49,8.517,39.273,31.032,39.273,56.027C315.581,360.199,288.854,386.927,256,386.927z"/>
				</g>
			</g>
		</g>
	</g>
	<g>
		<g>
			<rect x="216.75" y="102.4" class="st3" width="78.5" height="27.151"/>
		</g>
	</g>
	<g>
		<g>
			<rect x="216.75" y="102.4" class="st0" width="27.151" height="27.151"/>
		</g>
	</g>
	<g>
		<g>
			<g>
				<g>
					<path class="st4" d="M295.25,95.4h-78.5c-3.866,0-7,3.134-7,7v27.151c0,3.866,3.134,7,7,7h78.5c3.866,0,7-3.134,7-7V102.4
						C302.25,98.534,299.116,95.4,295.25,95.4z M288.25,122.551h-64.5V109.4h64.5V122.551z"/>
				</g>
			</g>
		</g>
	</g>
</g>
</svg>
