<?xml version="1.0" encoding="utf-8"?>
<!-- Generator: Adobe Illustrator 21.1.0, SVG Export Plug-In . SVG Version: 6.00 Build 0)  -->
<svg version="1.1" id="Layer_1" xmlns="http://www.w3.org/2000/svg" xmlns:xlink="http://www.w3.org/1999/xlink" x="0px" y="0px"
	 viewBox="0 0 512 512" style="enable-background:new 0 0 512 512;" xml:space="preserve">
<style type="text/css">
	.st0{fill:#D6CD1E;}
	.st1{fill:#E56823;}
	.st2{fill:#FE8E46;}
	.st3{fill:#FEFE71;}
	.st4{fill:#463218;}
	.st5{fill:#7DAC51;}
	.st6{fill:#5B7C31;}
	.st7{fill:#FFFFFF;}
</style>
<g>
	<g>
		<g>
			<path class="st5" d="M359.608,290.291c-1.196-29.797-24.826-54.345-54.563-56.585c-10.439-0.786-20.353,1.142-29.12,5.148
				c-7.693,3.515-16.781,1.696-22.761-4.284l-14.038-14.038c1.132-5.144,1.342-10.635,0.319-16.319
				c-3.37-18.736-19.348-32.958-38.352-34.069c-24.887-1.455-45.376,19.031-43.926,43.917c1.202,20.642,17.8,37.46,38.426,38.915
				c11.082,0.782,21.314-2.797,29.17-9.185l14.3,14.3c4.747,4.747,6.416,11.697,4.549,18.145c-0.02,0.069-0.04,0.139-0.06,0.208
				c-1.811,6.345-7.486,10.803-14.084,10.803h-0.325c-43.031,0-77.796,35.39-76.778,78.652
				c0.642,27.283,15.767,51.179,37.917,64.289h77.909c22.596-13.369,37.752-37.983,37.752-66.14l0-0.126
				c-0.006-6.621,4.373-12.455,10.742-14.266C342.23,342.394,360.737,318.418,359.608,290.291z"/>
		</g>
	</g>
	<g>
		<g>
			<path class="st6" d="M216.861,178.886c2.694,0,5.326,0.268,7.875,0.765c-7.034-5.971-16.136-9.58-26.085-9.58
				c-22.279,0-40.339,18.061-40.339,40.339c0,18.879,12.971,34.724,30.487,39.122c-7.901-7.458-12.84-18.02-12.84-29.742
				C175.958,197.199,194.271,178.886,216.861,178.886z"/>
		</g>
	</g>
	<g>
		<g>
			<path class="st6" d="M183.971,364.048c0-36.994,26.159-67.872,60.987-75.164c-5.105-1.069-10.393-1.638-15.815-1.638
				c-42.416,0-76.802,34.385-76.802,76.802c0,28.164,15.169,52.773,37.773,66.14h31.641
				C199.146,416.824,183.971,392.215,183.971,364.048z"/>
		</g>
	</g>
	<g>
		<g>
			<path class="st7" d="M194.191,313.159c-5.504,7.189-9.778,15.159-12.704,23.689l13.242,4.542
				c2.435-7.099,5.994-13.734,10.578-19.721L194.191,313.159z"/>
		</g>
	</g>
	<g>
		<g>
			<circle class="st3" cx="300.266" cy="292.994" r="27.511"/>
		</g>
	</g>
	<g>
		<g>
			<path class="st3" d="M182.209,364.048c0,25.921,21.013,46.934,46.934,46.934c25.921,0,46.934-21.013,46.934-46.934H182.209z"/>
		</g>
	</g>
	<g>
		<g>
			<path class="st0" d="M219.432,364.048h-37.223c0,25.921,21.013,46.934,46.934,46.934c6.614,0,12.904-1.375,18.611-3.843
				C231.094,399.932,219.432,383.355,219.432,364.048z"/>
		</g>
	</g>
	<g>
		<g>
			<g>
				<g>
					<g>
						<path class="st4" d="M276.076,357.048H182.21c-3.866,0-7,3.134-7,7c0,29.739,24.194,53.934,53.933,53.934
							c29.739,0,53.934-24.195,53.934-53.934C283.076,360.182,279.942,357.048,276.076,357.048z M229.143,403.981
							c-19.632,0-36.001-14.239-39.319-32.934h78.638C265.144,389.742,248.775,403.981,229.143,403.981z"/>
					</g>
				</g>
			</g>
		</g>
	</g>
	<g>
		<g>
			<g>
				<g>
					<g>
						<path class="st4" d="M366.602,290.011c-1.347-33.558-27.585-60.765-61.032-63.284c-11.201-0.844-22.459,1.148-32.555,5.761
							c-4.941,2.258-10.929,1.105-14.902-2.867l-11.459-11.459c0.694-5.047,0.588-10.14-0.319-15.187
							c-3.917-21.782-22.772-38.528-44.833-39.818c-13.849-0.81-27.412,4.336-37.197,14.119
							c-9.784,9.782-14.933,23.339-14.126,37.193c1.411,24.227,20.723,43.784,44.922,45.491c10.245,0.722,20.29-1.759,28.883-7.048
							l10.13,10.13c2.885,2.885,3.948,7.195,2.773,11.253l-0.066,0.229c-0.978,3.424-3.933,5.725-7.353,5.725h-0.325
							c-22.757,0-44.048,8.967-59.952,25.25c-15.899,16.278-24.36,37.787-23.824,60.567c0.683,29.005,16.141,55.228,41.35,70.148
							c1.08,0.639,2.311,0.976,3.565,0.976h77.909c1.254,0,2.485-0.337,3.564-0.975c25.406-15.031,41.188-42.684,41.188-72.165
							v-0.133c-0.003-3.483,2.322-6.578,5.655-7.525C348.095,348.004,367.835,320.708,366.602,290.011z M314.77,342.923
							c-9.329,2.652-15.837,11.29-15.827,20.999v0.126c0,23.932-12.49,46.42-32.718,59.14h-73.98
							c-20.077-12.589-32.329-33.929-32.882-57.454c-0.447-18.979,6.601-36.897,19.843-50.455
							c13.248-13.563,30.982-21.032,49.937-21.032h0.325c9.586,0,18.146-6.531,20.809-15.862l0.059-0.202
							c2.593-8.953,0.171-18.549-6.322-25.042l-14.3-14.3c-2.537-2.537-6.582-2.745-9.366-0.481
							c-6.819,5.545-15.429,8.257-24.262,7.633c-17.2-1.213-30.927-15.116-31.93-32.34c-0.575-9.868,3.087-19.519,10.048-26.478
							c6.96-6.959,16.61-10.62,26.481-10.043c15.681,0.917,29.085,12.827,31.871,28.319c0.812,4.515,0.722,9.083-0.266,13.576
							c-0.513,2.332,0.198,4.765,1.887,6.454l14.038,14.038c8.084,8.084,20.39,10.376,30.62,5.701
							c7.952-3.634,16.833-5.201,25.685-4.534c26.356,1.986,47.033,23.432,48.095,49.885
							C353.586,314.785,338.024,336.312,314.77,342.923z"/>
					</g>
				</g>
			</g>
		</g>
	</g>
	<g>
		<g>
			<g>
				<g>
					<g>
						<path class="st4" d="M300.266,258.483c-19.03,0-34.511,15.482-34.511,34.511s15.481,34.511,34.511,34.511
							s34.511-15.482,34.511-34.511S319.296,258.483,300.266,258.483z M300.266,313.505c-11.31,0-20.511-9.201-20.511-20.511
							s9.201-20.511,20.511-20.511s20.511,9.201,20.511,20.511S311.576,313.505,300.266,313.505z"/>
					</g>
				</g>
			</g>
		</g>
	</g>
	<g>
		<g>
			<path class="st4" d="M305.218,288.047c-2.732-2.735-7.165-2.738-9.899-0.005l-71.123,71.053
				c-2.735,2.732-2.737,7.165-0.005,9.899c1.367,1.369,3.159,2.053,4.952,2.053c1.79,0,3.581-0.683,4.947-2.048l71.123-71.053
				C307.948,295.214,307.951,290.782,305.218,288.047z"/>
		</g>
	</g>
	<g>
		<g>
			<path class="st2" d="M239.445,204.212c30.674-47.601,21.527-122.4,21.527-122.4h-31.828c0,55.87-39.629,89.268-39.629,89.268
				c3.352,19.56,20.38,34.45,40.896,34.45c3.122,0,6.159-0.356,9.085-1.01c-0.018-0.106-0.042-0.21-0.061-0.315L239.445,204.212z"/>
		</g>
	</g>
	<g>
		<g>
			<path class="st1" d="M243.722,81.812h-14.578c0,55.87-39.629,89.268-39.629,89.268c1.783,10.405,7.436,19.488,15.426,25.712
				C251.482,149.885,243.722,81.812,243.722,81.812z"/>
		</g>
	</g>
	<g>
		<g>
			<g>
				<g>
					<g>
						<path class="st4" d="M267.92,80.962c-0.429-3.511-3.411-6.15-6.948-6.15h-31.829c-3.866,0-7,3.134-7,7
							c0,51.766-36.779,83.609-37.14,83.916c-1.899,1.6-2.808,4.087-2.388,6.535c3.998,23.333,24.099,40.268,47.796,40.268
							c3.542,0,7.112-0.396,10.611-1.178c2.479-0.554,4.367-2.366,5.119-4.628C276.857,157.555,268.303,84.092,267.92,80.962z
							 M254.708,124.994c-1.334,20.904-5.87,50.281-19.778,73.236c-1.505,0.2-3.017,0.301-4.519,0.301
							c-15.615,0-29.034-10.333-33.186-25.043c9.418-9.172,36.183-39.068,38.724-84.676h18.626
							C255.109,96.156,255.702,109.417,254.708,124.994z"/>
					</g>
				</g>
			</g>
		</g>
	</g>
</g>
</svg>
