<?xml version="1.0" encoding="utf-8"?>
<!-- Generator: Adobe Illustrator 21.1.0, SVG Export Plug-In . SVG Version: 6.00 Build 0)  -->
<svg version="1.1" id="Layer_1" xmlns="http://www.w3.org/2000/svg" xmlns:xlink="http://www.w3.org/1999/xlink" x="0px" y="0px"
	 viewBox="0 0 512 512" style="enable-background:new 0 0 512 512;" xml:space="preserve">
<style type="text/css">
	.st0{fill:#D6CD1E;}
	.st1{fill:#E56823;}
	.st2{fill:#FE8E46;}
	.st3{fill:#FEFE71;}
	.st4{fill:#463218;}
	.st5{fill:#7DAC51;}
	.st6{fill:#5B7C31;}
	.st7{fill:#FFFFFF;}
</style>
<g>
	<g>
		<g>
			<polygon class="st2" points="256,117.333 135.911,186.667 135.911,325.333 256,394.667 376.089,325.333 376.089,186.667 			"/>
		</g>
	</g>
	<g>
		<g>
			<polygon class="st1" points="135.911,186.667 135.911,325.333 256,394.667 256,117.333 			"/>
		</g>
	</g>
	<g>
		<g>
			<g>
				<g>
					<path class="st4" d="M379.589,180.604L259.5,111.271c-2.166-1.25-4.834-1.25-7,0l-120.088,69.333
						c-2.166,1.251-3.5,3.562-3.5,6.062v138.666c0,2.501,1.334,4.812,3.5,6.062L252.5,400.729c1.083,0.625,2.292,0.938,3.5,0.938
						s2.417-0.312,3.5-0.938l120.089-69.333c2.166-1.251,3.5-3.562,3.5-6.062V186.667
						C383.089,184.166,381.755,181.855,379.589,180.604z M369.089,321.292L256,386.583l-113.088-65.291V190.708L256,125.417
						l113.089,65.291V321.292z"/>
				</g>
			</g>
		</g>
	</g>
	<g>
		<g>
			<rect x="344" y="204.972" class="st7" width="14" height="34.64"/>
		</g>
	</g>
	<g>
		<g>
			<path class="st3" d="M303.528,239.611h-95.056v59.839h95.056c16.524,0,29.92-13.396,29.92-29.919
				C333.447,253.007,320.052,239.611,303.528,239.611z"/>
		</g>
	</g>
	<g>
		<g>
			<path class="st0" d="M327.617,251.79c-0.888,15.727-13.918,28.208-29.868,28.208h-89.277v19.453h95.056
				c16.524,0,29.92-13.396,29.92-29.919C333.447,262.889,331.279,256.754,327.617,251.79z"/>
		</g>
	</g>
	<g>
		<g>
			<g>
				<g>
					<path class="st4" d="M303.528,232.611h-95.056c-3.866,0-7,3.134-7,7v59.84c0,3.866,3.134,7,7,7h95.056
						c20.357,0,36.919-16.562,36.919-36.92S323.885,232.611,303.528,232.611z M303.528,292.451h-88.056v-45.84h88.056
						c12.638,0,22.919,10.282,22.919,22.92S316.165,292.451,303.528,292.451z"/>
				</g>
			</g>
		</g>
	</g>
	<g>
		<g>
			<circle class="st0" cx="208.472" cy="269.531" r="29.92"/>
		</g>
	</g>
	<g>
		<g>
			<circle class="st3" cx="208.472" cy="269.531" r="10.467"/>
		</g>
	</g>
	<g>
		<g>
			<g>
				<g>
					<path class="st4" d="M208.472,232.611c-20.357,0-36.919,16.562-36.919,36.92s16.562,36.92,36.919,36.92
						s36.919-16.562,36.919-36.92S228.829,232.611,208.472,232.611z M208.472,292.451c-12.638,0-22.919-10.282-22.919-22.92
						s10.282-22.92,22.919-22.92s22.919,10.282,22.919,22.92S221.11,292.451,208.472,292.451z"/>
				</g>
			</g>
		</g>
	</g>
	<g>
		<g>
			<path class="st3" d="M290.359,196.562h-68.718v43.259h68.718c11.946,0,21.63-9.684,21.63-21.629S302.305,196.562,290.359,196.562
				z"/>
		</g>
	</g>
	<g>
		<g>
			<path class="st0" d="M307.774,205.366c-0.642,11.37-10.062,20.393-21.592,20.393h-64.541v14.063h68.718
				c11.946,0,21.63-9.684,21.63-21.629C311.989,213.39,310.422,208.955,307.774,205.366z"/>
		</g>
	</g>
	<g>
		<g>
			<g>
				<g>
					<path class="st4" d="M290.36,189.562h-68.719c-3.866,0-7,3.134-7,7v43.259c0,3.866,3.134,7,7,7h68.719
						c15.786,0,28.629-12.844,28.629-28.63S306.146,189.562,290.36,189.562z M290.36,232.821h-61.719v-29.259h61.719
						c8.067,0,14.629,6.562,14.629,14.629C304.989,226.259,298.427,232.821,290.36,232.821z"/>
				</g>
			</g>
		</g>
	</g>
	<g>
		<g>
			<circle class="st0" cx="221.641" cy="218.192" r="21.63"/>
		</g>
	</g>
	<g>
		<g>
			<circle class="st3" cx="221.641" cy="218.192" r="7.567"/>
		</g>
	</g>
	<g>
		<g>
			<g>
				<g>
					<path class="st4" d="M221.641,189.562c-15.786,0-28.629,12.843-28.629,28.629s12.843,28.63,28.629,28.63
						c15.787,0,28.63-12.844,28.63-28.63S237.427,189.562,221.641,189.562z M221.641,232.821c-8.067,0-14.629-6.562-14.629-14.63
						c0-8.066,6.562-14.629,14.629-14.629s14.63,6.562,14.63,14.629C236.271,226.259,229.708,232.821,221.641,232.821z"/>
				</g>
			</g>
		</g>
	</g>
	<g>
		<g>
			<path class="st4" d="M280.75,211.191h-37.479c-3.866,0-7,3.134-7,7s3.134,7,7,7h37.479c3.866,0,7-3.134,7-7
				S284.616,211.191,280.75,211.191z"/>
		</g>
	</g>
	<g>
		<g>
			<path class="st4" d="M307.088,262.531h-68.697c-3.866,0-7,3.134-7,7s3.134,7,7,7h68.697c3.866,0,7-3.134,7-7
				S310.954,262.531,307.088,262.531z"/>
		</g>
	</g>
</g>
</svg>
