<?xml version="1.0" encoding="utf-8"?>
<!-- Generator: Adobe Illustrator 21.1.0, SVG Export Plug-In . SVG Version: 6.00 Build 0)  -->
<svg version="1.1" id="Layer_1" xmlns="http://www.w3.org/2000/svg" xmlns:xlink="http://www.w3.org/1999/xlink" x="0px" y="0px"
	 viewBox="0 0 512 512" style="enable-background:new 0 0 512 512;" xml:space="preserve">
<style type="text/css">
	.st0{fill:#D6CD1E;}
	.st1{fill:#E56823;}
	.st2{fill:#FE8E46;}
	.st3{fill:#FEFE71;}
	.st4{fill:#463218;}
	.st5{fill:#7DAC51;}
	.st6{fill:#5B7C31;}
	.st7{fill:#FFFFFF;}
</style>
<g>
	<g>
		<g>
			<path class="st3" d="M301.498,223.272c-10.575-9.838-11.073-26.43-1.242-37.011h0c4.515-4.859,7.025-11.247,7.025-17.881v-65.114
				H204.719v65.114c0,6.633,2.51,13.021,7.025,17.881h0c9.831,10.581,9.333,27.174-1.242,37.011
				c-15.266,14.201-33.57,35.818-33.57,57.828v100.615c0,14.921,12.096,27.018,27.018,27.018h104.102
				c14.921,0,27.018-12.096,27.018-27.018V281.101C335.069,259.091,316.764,237.473,301.498,223.272z"/>
		</g>
	</g>
	<g>
		<g>
			<path class="st0" d="M243.669,186.261L243.669,186.261c-4.515-4.859-7.025-11.247-7.025-17.881v-65.114h-31.925v65.114
				c0,6.633,2.51,13.021,7.025,17.881h0c9.831,10.581,9.333,27.174-1.242,37.011c-15.266,14.201-33.57,35.818-33.57,57.828v100.615
				c0,14.921,12.096,27.018,27.018,27.018h31.925c-14.921,0-27.018-12.096-27.018-27.018V281.101
				c0-22.01,18.305-43.627,33.57-57.828C253.001,213.435,253.5,196.842,243.669,186.261z"/>
		</g>
	</g>
	<g>
		<g>
			<path class="st6" d="M297.499,326.323c-6.107-3.228-13.349-4.934-20.944-4.934c-1.224,0-2.437,0.049-3.639,0.137
				c3.358-2.31,6.565-4.979,9.559-7.974c7.516-7.516,12.992-16.366,15.838-25.593c0.182-0.59,0.023-1.233-0.414-1.67
				c-0.437-0.437-1.079-0.596-1.67-0.414c-9.228,2.845-18.078,8.322-25.594,15.838c-2.422,2.422-4.632,4.984-6.611,7.652
				c1.315-6.008,1.99-12.303,1.99-18.74c0-13.773-3.089-26.896-8.933-37.952c-0.289-0.546-0.856-0.888-1.474-0.888
				s-1.185,0.342-1.474,0.888c-5.844,11.055-8.933,24.179-8.933,37.952c0,5.935,0.575,11.748,1.695,17.328
				c-1.694-2.161-3.542-4.248-5.534-6.24c-7.516-7.516-16.366-12.993-25.593-15.838c-0.59-0.182-1.233-0.023-1.67,0.414
				c-0.437,0.437-0.596,1.08-0.414,1.67c2.845,9.228,8.322,18.078,15.838,25.593c2.995,2.995,6.202,5.664,9.559,7.974
				c-1.202-0.088-2.416-0.137-3.64-0.137c-7.595,0-14.837,1.706-20.944,4.934c-0.546,0.289-0.888,0.856-0.888,1.474
				c0,0.618,0.342,1.185,0.888,1.474c6.107,3.228,13.349,4.934,20.944,4.934c2.099,0,4.169-0.135,6.197-0.392
				c-3.776,3.519-6.615,7.705-8.22,12.137c-0.21,0.581-0.082,1.23,0.333,1.688c0.32,0.353,0.77,0.546,1.234,0.546
				c0.138,0,0.277-0.017,0.414-0.052c4.702-1.205,9.273-3.735,13.218-7.317c2.059-1.869,3.846-3.937,5.322-6.134v11.836
				c0,0.921,0.746,1.667,1.667,1.667c0.921,0,1.667-0.746,1.667-1.667v-13.058c1.609,2.655,3.668,5.144,6.104,7.356h0
				c3.945,3.582,8.516,6.112,13.218,7.317c0.137,0.035,0.276,0.052,0.414,0.052c0.464,0,0.914-0.194,1.234-0.546
				c0.415-0.457,0.544-1.107,0.333-1.688c-1.605-4.432-4.444-8.619-8.22-12.137c2.028,0.257,4.098,0.392,6.197,0.392
				c7.595,0,14.837-1.706,20.944-4.934c0.546-0.289,0.888-0.856,0.888-1.474S298.045,326.612,297.499,326.323z"/>
		</g>
	</g>
	<g>
		<g>
			<g>
				<g>
					<path class="st4" d="M306.266,218.147c-7.714-7.176-8.109-19.342-0.882-27.121c5.737-6.174,8.896-14.217,8.896-22.645v-65.114
						c0-3.866-3.134-7-7-7H204.719c-3.866,0-7,3.134-7,7v65.114c0,8.429,3.16,16.471,8.896,22.646
						c7.228,7.779,6.832,19.945-0.882,27.121c-29.591,27.528-35.802,49.429-35.802,62.954v100.615
						c0,18.757,15.26,34.018,34.018,34.018h104.103c18.757,0,34.018-15.26,34.018-34.018V281.101
						C342.069,267.576,335.857,245.675,306.266,218.147z M328.069,381.716c0,11.038-8.98,20.018-20.018,20.018H203.949
						c-11.038,0-20.018-8.98-20.018-20.018V281.101c0-10.743,5.437-28.608,31.338-52.703c13.363-12.431,14.082-33.471,1.603-46.901
						c-3.322-3.576-5.152-8.234-5.152-13.116v-58.114h88.562v58.114c0,4.882-1.83,9.54-5.152,13.116
						c-12.479,13.431-11.761,34.47,1.602,46.901c25.901,24.095,31.338,41.96,31.338,52.703V381.716z"/>
				</g>
			</g>
		</g>
	</g>
	<g>
		<g>
			<rect x="204.719" y="103.267" class="st2" width="102.562" height="33.448"/>
		</g>
	</g>
	<g>
		<g>
			<rect x="204.719" y="103.267" class="st1" width="33.448" height="33.448"/>
		</g>
	</g>
	<g>
		<g>
			<g>
				<g>
					<path class="st4" d="M307.281,96.267H204.719c-3.866,0-7,3.134-7,7v33.448c0,3.866,3.134,7,7,7h102.562c3.866,0,7-3.134,7-7
						v-33.448C314.281,99.401,311.147,96.267,307.281,96.267z M300.281,129.715h-88.562v-19.448h88.562V129.715z"/>
				</g>
			</g>
		</g>
	</g>
	<g>
		<g>
			<path class="st7" d="M219.346,238.004l-0.184,0.237c-6.128,7.898-16.471,23.183-16.882,36.819l13.994,0.421
				c0.21-6.959,5.424-17.672,13.949-28.657l0.27-0.35L219.346,238.004z"/>
		</g>
	</g>
	<g>
		<g>
			<path class="st5" d="M176.931,369.032v12.684c0,14.921,12.096,27.018,27.018,27.018h104.102
				c14.921,0,27.018-12.096,27.018-27.018v-12.684H176.931z"/>
		</g>
	</g>
	<g>
		<g>
			<path class="st6" d="M208.856,381.716v-12.684h-31.925v12.684c0,14.921,12.096,27.018,27.018,27.018h31.925
				C220.952,408.733,208.856,396.637,208.856,381.716z"/>
		</g>
	</g>
	<g>
		<g>
			<g>
				<g>
					<path class="st4" d="M335.069,362.032H176.931c-3.866,0-7,3.134-7,7v12.684c0,18.757,15.26,34.018,34.018,34.018h104.103
						c18.757,0,34.018-15.26,34.018-34.018v-12.684C342.069,365.166,338.935,362.032,335.069,362.032z M328.069,381.716
						c0,11.038-8.98,20.018-20.018,20.018H203.949c-11.038,0-20.018-8.98-20.018-20.018v-5.684h144.138V381.716z"/>
				</g>
			</g>
		</g>
	</g>
</g>
</svg>
