<?xml version="1.0" encoding="utf-8"?>
<!-- Generator: Adobe Illustrator 21.1.0, SVG Export Plug-In . SVG Version: 6.00 Build 0)  -->
<svg version="1.1" id="Layer_1" xmlns="http://www.w3.org/2000/svg" xmlns:xlink="http://www.w3.org/1999/xlink" x="0px" y="0px"
	 viewBox="0 0 512 512" style="enable-background:new 0 0 512 512;" xml:space="preserve">
<style type="text/css">
	.st0{fill:#D6CD1E;}
	.st1{fill:#E56823;}
	.st2{fill:#FE8E46;}
	.st3{fill:#FEFE71;}
	.st4{fill:#463218;}
	.st5{fill:#7DAC51;}
	.st6{fill:#5B7C31;}
	.st7{fill:#FFFFFF;}
</style>
<g>
	<g>
		<g>
			<rect x="224.933" y="102.4" class="st2" width="62.133" height="82.638"/>
		</g>
	</g>
	<g>
		<g>
			<path class="st1" d="M243.571,102.4v38.455c0,6.864,5.565,12.429,12.429,12.429c6.864,0,12.429-5.565,12.429-12.429V102.4
				H243.571z"/>
		</g>
	</g>
	<g>
		<g>
			<path class="st3" d="M301.947,221.488L301.947,221.488c-4.448-3.267-7.624-7.976-8.987-13.323l-5.894-23.126h-62.133
				l-5.894,23.126c-1.363,5.347-4.539,10.056-8.987,13.323v0c-6.114,4.49-9.725,11.623-9.725,19.209v181.759h111.345V240.697
				C311.672,233.111,308.061,225.978,301.947,221.488z"/>
		</g>
	</g>
	<g>
		<g>
			<path class="st0" d="M224.933,185.039l-5.894,23.126c-1.363,5.348-4.539,10.056-8.987,13.323v0
				c-6.114,4.49-9.725,11.623-9.725,19.209v181.759h36.328V240.697c0-7.586,3.611-14.719,9.725-19.209v0
				c4.448-3.267,7.624-7.975,8.987-13.323l5.894-23.126H224.933z"/>
		</g>
	</g>
	<g>
		<g>
			<g>
				<g>
					<path class="st4" d="M287.066,95.4h-62.133c-3.866,0-7,3.134-7,7v82.639c0,3.866,3.134,7,7,7h62.133c3.866,0,7-3.134,7-7V102.4
						C294.066,98.534,290.933,95.4,287.066,95.4z M280.066,178.039h-48.133V109.4h48.133V178.039z"/>
				</g>
			</g>
		</g>
	</g>
	<g>
		<g>
			<g>
				<g>
					<path class="st4" d="M268.429,95.4h-24.858c-3.866,0-7,3.134-7,7v38.455c0,10.713,8.716,19.429,19.429,19.429
						s19.429-8.716,19.429-19.429V102.4C275.429,98.534,272.295,95.4,268.429,95.4z M261.429,140.855
						c0,2.994-2.436,5.429-5.429,5.429s-5.429-2.436-5.429-5.429V109.4h10.858V140.855z"/>
				</g>
			</g>
		</g>
	</g>
	<g>
		<g>
			<g>
				<g>
					<path class="st4" d="M306.091,215.846c-3.133-2.301-5.387-5.643-6.347-9.41l-5.894-23.126
						c-0.791-3.101-3.583-5.271-6.783-5.271h-62.133c-3.2,0-5.993,2.17-6.783,5.271l-5.894,23.126
						c-0.96,3.767-3.214,7.109-6.348,9.41c-7.878,5.787-12.581,15.077-12.581,24.851v181.759c0,3.866,3.134,7,7,7h111.345
						c3.866,0,7-3.134,7-7V240.697C318.672,230.923,313.969,221.633,306.091,215.846z M304.672,415.456h-97.345V240.697
						c0-5.336,2.568-10.408,6.869-13.567c5.739-4.215,9.868-10.336,11.626-17.236l4.551-17.855h51.253l4.551,17.854
						c1.758,6.9,5.887,13.021,11.626,17.236c4.301,3.159,6.869,8.231,6.869,13.568V415.456z"/>
				</g>
			</g>
		</g>
	</g>
	<g>
		<g>
			<rect x="202.07" y="366.783" class="st5" width="109.602" height="55.672"/>
		</g>
	</g>
	<g>
		<g>
			<rect x="202.07" y="366.783" class="st6" width="34.586" height="55.672"/>
		</g>
	</g>
	<g>
		<g>
			<g>
				<g>
					<path class="st4" d="M311.672,359.783H202.07c-3.866,0-7,3.134-7,7v55.672c0,3.866,3.134,7,7,7h109.603c3.866,0,7-3.134,7-7
						v-55.672C318.672,362.917,315.539,359.783,311.672,359.783z M304.672,415.456H209.07v-41.672h95.603V415.456z"/>
				</g>
			</g>
		</g>
	</g>
	<g>
		<g>
			<path class="st6" d="M288.809,314.369c-4.828-2.552-10.554-3.901-16.558-3.901c-0.968,0-1.927,0.039-2.877,0.108
				c2.655-1.826,5.19-3.937,7.557-6.304c5.942-5.942,10.272-12.939,12.521-20.234c0.144-0.467,0.018-0.975-0.327-1.32
				c-0.345-0.345-0.853-0.471-1.32-0.328c-7.295,2.25-14.292,6.579-20.234,12.521c-1.915,1.915-3.662,3.94-5.226,6.05
				c1.04-4.75,1.574-9.727,1.574-14.816c0-10.889-2.442-21.264-7.063-30.005c-0.228-0.432-0.677-0.702-1.165-0.702
				s-0.937,0.27-1.165,0.702c-4.62,8.74-7.063,19.116-7.063,30.005c0,4.692,0.455,9.288,1.34,13.7
				c-1.34-1.709-2.8-3.358-4.375-4.933c-5.942-5.942-12.939-10.272-20.234-12.521c-0.466-0.144-0.975-0.018-1.32,0.328
				c-0.345,0.345-0.471,0.853-0.327,1.32c2.25,7.295,6.579,14.292,12.521,20.234c2.367,2.367,4.903,4.478,7.558,6.304
				c-0.951-0.069-1.91-0.108-2.877-0.108c-6.005,0-11.73,1.349-16.558,3.901c-0.432,0.228-0.702,0.677-0.702,1.165
				s0.27,0.937,0.702,1.165c4.828,2.552,10.554,3.901,16.558,3.901c1.659,0,3.296-0.107,4.899-0.31
				c-2.985,2.782-5.23,6.092-6.499,9.596c-0.166,0.459-0.065,0.973,0.263,1.334c0.253,0.279,0.609,0.432,0.976,0.432
				c0.109,0,0.219-0.013,0.327-0.041c3.717-0.953,7.331-2.953,10.45-5.785c1.628-1.478,3.041-3.112,4.208-4.85v9.358
				c0,0.728,0.59,1.318,1.318,1.318s1.318-0.59,1.318-1.318v-10.324c1.272,2.099,2.9,4.067,4.826,5.816h0
				c3.119,2.832,6.733,4.832,10.45,5.785c0.108,0.028,0.218,0.041,0.327,0.041c0.367,0,0.723-0.153,0.976-0.432
				c0.328-0.362,0.43-0.875,0.263-1.334c-1.269-3.504-3.514-6.814-6.499-9.596c1.604,0.203,3.24,0.31,4.899,0.31
				c6.005,0,11.73-1.349,16.558-3.901c0.432-0.228,0.702-0.677,0.702-1.165S289.241,314.597,288.809,314.369z"/>
		</g>
	</g>
	<g>
		<g>
			<rect x="222.488" y="387.619" class="st7" width="36.476" height="14"/>
		</g>
	</g>
	<g>
		<g>
			<rect x="275.335" y="387.619" class="st7" width="13.403" height="14"/>
		</g>
	</g>
</g>
</svg>
