<?xml version="1.0" encoding="utf-8"?>
<!-- Generator: Adobe Illustrator 21.1.0, SVG Export Plug-In . SVG Version: 6.00 Build 0)  -->
<svg version="1.1" id="Layer_1" xmlns="http://www.w3.org/2000/svg" xmlns:xlink="http://www.w3.org/1999/xlink" x="0px" y="0px"
	 viewBox="0 0 512 512" style="enable-background:new 0 0 512 512;" xml:space="preserve">
<style type="text/css">
	.st0{fill:#D6CD1E;}
	.st1{fill:#E56823;}
	.st2{fill:#FE8E46;}
	.st3{fill:#FEFE71;}
	.st4{fill:#463218;}
	.st5{fill:#7DAC51;}
	.st6{fill:#5B7C31;}
	.st7{fill:#FFFFFF;}
</style>
<g>
	<g>
		<g>
			<polygon class="st2" points="152.293,119.991 181.823,392.009 330.177,392.009 359.707,119.991 			"/>
		</g>
	</g>
	<g>
		<g>
			<polygon class="st1" points="204.078,119.991 152.293,119.991 181.823,392.009 233.608,392.009 			"/>
		</g>
	</g>
	<g>
		<g>
			<path class="st3" d="M285.908,247.562c-4.401-2.326-9.62-3.556-15.094-3.556c-0.882,0-1.756,0.035-2.623,0.099
				c2.42-1.665,4.731-3.589,6.889-5.747c5.417-5.417,9.363-11.795,11.414-18.445c0.131-0.425,0.016-0.889-0.298-1.203
				c-0.315-0.315-0.778-0.43-1.203-0.299c-6.65,2.051-13.028,5.998-18.445,11.414c-1.746,1.746-3.338,3.592-4.764,5.515
				c0.948-4.33,1.435-8.867,1.435-13.506c0-9.926-2.226-19.384-6.438-27.351c-0.208-0.394-0.617-0.64-1.062-0.64
				s-0.854,0.246-1.062,0.64c-4.212,7.968-6.438,17.426-6.438,27.351c0,4.277,0.414,8.467,1.222,12.488
				c-1.221-1.558-2.552-3.062-3.988-4.497c-5.417-5.417-11.795-9.363-18.445-11.414c-0.425-0.131-0.888-0.016-1.203,0.299
				c-0.315,0.315-0.43,0.778-0.299,1.203c2.051,6.65,5.998,13.029,11.414,18.445c2.158,2.158,4.469,4.082,6.889,5.747
				c-0.866-0.063-1.741-0.099-2.623-0.099c-5.474,0-10.693,1.23-15.094,3.556c-0.394,0.208-0.64,0.617-0.64,1.062
				s0.246,0.854,0.64,1.062c4.401,2.327,9.62,3.556,15.094,3.556c1.512,0,3.004-0.097,4.466-0.282
				c-2.721,2.536-4.767,5.553-5.924,8.747c-0.152,0.419-0.059,0.887,0.24,1.216c0.231,0.254,0.555,0.394,0.89,0.394
				c0.099,0,0.199-0.012,0.298-0.038c3.389-0.868,6.682-2.692,9.526-5.273c1.484-1.347,2.772-2.837,3.836-4.421v8.53
				c0,0.663,0.538,1.201,1.201,1.201c0.664,0,1.201-0.538,1.201-1.201v-9.411c1.159,1.913,2.643,3.707,4.399,5.301
				c2.843,2.581,6.137,4.405,9.526,5.273c0.099,0.025,0.199,0.038,0.298,0.038c0.334,0,0.659-0.14,0.889-0.394
				c0.299-0.33,0.392-0.798,0.24-1.216c-1.156-3.194-3.203-6.211-5.924-8.747c1.462,0.185,2.954,0.282,4.466,0.282
				c5.474,0,10.693-1.23,15.094-3.556c0.394-0.208,0.64-0.617,0.64-1.062S286.302,247.77,285.908,247.562z"/>
		</g>
	</g>
	<g>
		<g>
			<polygon class="st3" points="152.293,119.991 157.118,164.439 354.882,164.439 359.707,119.991 			"/>
		</g>
	</g>
	<g>
		<g>
			<polygon class="st0" points="204.078,119.991 152.293,119.991 157.118,164.439 208.903,164.439 			"/>
		</g>
	</g>
	<g>
		<g>
			<g>
				<g>
					<path class="st4" d="M364.917,115.316c-1.328-1.48-3.222-2.325-5.21-2.325H152.293c-1.988,0-3.882,0.845-5.21,2.325
						s-1.964,3.454-1.749,5.431l29.529,272.018c0.386,3.553,3.385,6.245,6.959,6.245h148.355c3.573,0,6.573-2.692,6.959-6.245
						l29.529-272.018C366.881,118.77,366.245,116.795,364.917,115.316z M323.896,385.009H188.104l-28.009-258.018h191.812
						L323.896,385.009z"/>
				</g>
			</g>
		</g>
	</g>
	<g>
		<g>
			<g>
				<g>
					<path class="st4" d="M364.917,115.316c-1.328-1.48-3.222-2.325-5.21-2.325H152.293c-1.988,0-3.882,0.845-5.21,2.325
						c-1.328,1.48-1.964,3.454-1.749,5.431l4.825,44.448c0.386,3.553,3.385,6.245,6.959,6.245h197.764
						c3.573,0,6.573-2.692,6.959-6.245l4.825-44.448C366.881,118.77,366.245,116.796,364.917,115.316z M348.601,157.439H163.399
						l-3.305-30.448h191.812L348.601,157.439z"/>
				</g>
			</g>
		</g>
	</g>
	<g>
		<g>
			<path class="st1" d="M227.552,279.279c-10.623,0-19.234,8.611-19.234,19.234v93.496h38.468v-93.496
				C246.786,287.891,238.174,279.279,227.552,279.279z"/>
		</g>
	</g>
	<g>
		<g>
			<g>
				<g>
					<path class="st4" d="M227.552,272.279c-14.465,0-26.234,11.769-26.234,26.234v93.496c0,3.866,3.134,7,7,7h38.468
						c3.866,0,7-3.134,7-7v-93.496C253.786,284.048,242.017,272.279,227.552,272.279z M239.786,385.009h-24.468v-86.496
						c0-6.746,5.488-12.234,12.234-12.234s12.234,5.488,12.234,12.234V385.009z"/>
				</g>
			</g>
		</g>
	</g>
	<g>
		<g>
			<path class="st1" d="M287.467,279.279c-10.623,0-19.234,8.611-19.234,19.234v93.496h38.468v-93.496
				C306.701,287.891,298.09,279.279,287.467,279.279z"/>
		</g>
	</g>
	<g>
		<g>
			<g>
				<g>
					<path class="st4" d="M287.468,272.279c-14.466,0-26.234,11.769-26.234,26.234v93.496c0,3.866,3.134,7,7,7h38.468
						c3.866,0,7-3.134,7-7v-93.496C313.701,284.048,301.933,272.279,287.468,272.279z M299.701,385.009h-24.468v-86.496
						c0-6.746,5.488-12.234,12.234-12.234c6.745,0,12.233,5.488,12.233,12.234V385.009z"/>
				</g>
			</g>
		</g>
	</g>
	<g>
		<g>
			
				<rect x="289.852" y="205.46" transform="matrix(0.1156 -0.9933 0.9933 0.1156 66.2666 499.3481)" class="st7" width="47.408" height="14"/>
		</g>
	</g>
</g>
</svg>
