<?xml version="1.0" encoding="utf-8"?>
<!-- Generator: Adobe Illustrator 21.1.0, SVG Export Plug-In . SVG Version: 6.00 Build 0)  -->
<svg version="1.1" id="Layer_1" xmlns="http://www.w3.org/2000/svg" xmlns:xlink="http://www.w3.org/1999/xlink" x="0px" y="0px"
	 viewBox="0 0 512 512" style="enable-background:new 0 0 512 512;" xml:space="preserve">
<style type="text/css">
	.st0{fill:#D6CD1E;}
	.st1{fill:#E56823;}
	.st2{fill:#FE8E46;}
	.st3{fill:#FEFE71;}
	.st4{fill:#463218;}
	.st5{fill:#7DAC51;}
	.st6{fill:#5B7C31;}
	.st7{fill:#FFFFFF;}
</style>
<g>
	<g>
		<g>
			<path class="st3" d="M287.205,283.715h-60.668c-5.571,0-9.48,5.927-8.756,12.998l7.961,77.789
				c0.444,4.34,4.184,7.768,8.365,7.768h45.529c4.181,0,7.92-3.428,8.365-7.768l7.961-77.789
				C296.685,289.642,292.775,283.715,287.205,283.715z"/>
		</g>
	</g>
	<g>
		<g>
			<path class="st0" d="M287.205,283.715h-60.668c-5.571,0-9.48,5.927-8.756,12.998l1.267,12.377
				c1.523-3.126,4.214-5.184,7.49-5.184h60.668c3.275,0,5.967,2.058,7.49,5.184l1.267-12.377
				C296.685,289.642,292.775,283.715,287.205,283.715z"/>
		</g>
	</g>
	<g>
		<g>
			<path class="st2" d="M143.6,129.73c-10.302,0-18.654,8.351-18.654,18.653h37.307C162.254,138.082,153.902,129.73,143.6,129.73z"
				/>
		</g>
	</g>
	<g>
		<g>
			<path class="st3" d="M187.21,148.384H99.991c-9.271,0-16.788,7.516-16.788,16.787c0,9.271,7.516,16.788,16.788,16.788h87.219
				c9.271,0,16.787-7.516,16.787-16.788C203.997,155.9,196.481,148.384,187.21,148.384z"/>
		</g>
	</g>
	<g>
		<g>
			<path class="st0" d="M118.862,165.171c0-9.271,7.516-16.787,16.788-16.787H99.991c-9.271,0-16.788,7.516-16.788,16.787
				c0,9.271,7.516,16.788,16.788,16.788h35.659C126.378,181.959,118.862,174.443,118.862,165.171z"/>
		</g>
	</g>
	<g>
		<g>
			<path class="st1" d="M309.476,219.861c-10.692-11.726-30.628-19.619-53.476-19.619s-42.784,7.893-53.476,19.619h-48.713v20.213
				h40.419c0,0.001,0,0.003,0,0.005c20.67,2.91,37.561,5.438,43.666,24.896c5.726,1.114,11.803,1.717,18.103,1.717
				s12.377-0.604,18.103-1.717c6.106-19.458,22.996-21.987,43.666-24.896c0-0.001,0-0.003,0-0.005h44.099v-20.213H309.476z"/>
		</g>
	</g>
	<g>
		<g>
			<path class="st2" d="M309.476,219.861c-10.692-11.726-30.628-19.619-53.476-19.619s-42.784,7.893-53.476,19.619h-48.713v20.213
				h40.419c0,0.001,0,0.003,0,0.005c7.278,1.024,14.083,2.005,20.118,3.69c10.984-6.391,25.59-10.302,41.651-10.302
				s30.667,3.912,41.651,10.302c6.035-1.686,12.84-2.666,20.118-3.69c0-0.001,0-0.003,0-0.005h44.099v-20.213H309.476z"/>
		</g>
	</g>
	<g>
		<g>
			<g>
				<g>
					<path class="st4" d="M361.868,212.861h-49.44c-12.783-12.335-33.586-19.619-56.428-19.619s-43.645,7.284-56.428,19.619h-45.761
						c-3.866,0-7,3.134-7,7v20.213c0,3.866,3.134,7,7,7h39.894c21.481,3.034,32.929,5.387,37.513,19.997
						c0.77,2.452,2.82,4.285,5.343,4.775c6.298,1.225,12.838,1.846,19.439,1.846s13.142-0.621,19.439-1.846
						c2.522-0.49,4.573-2.324,5.343-4.775c4.584-14.61,16.031-16.963,37.513-19.997h43.573c3.866,0,7-3.134,7-7v-20.213
						C368.868,215.995,365.734,212.861,361.868,212.861z M354.868,233.074H317.77c-0.43,0-0.851,0.039-1.26,0.113
						c-19.252,2.71-39.06,5.592-47.57,25.57c-8.455,1.243-17.424,1.243-25.879,0c-8.51-19.977-28.314-22.859-47.566-25.569
						c-0.41-0.075-0.832-0.114-1.264-0.114h-33.419v-6.213h41.712c1.969,0,3.846-0.829,5.173-2.284
						c9.75-10.693,28.259-17.335,48.304-17.335s38.554,6.643,48.304,17.335c1.327,1.455,3.204,2.284,5.173,2.284h45.392V233.074z"/>
				</g>
			</g>
		</g>
	</g>
	<g>
		<g>
			<g>
				<g>
					<path class="st4" d="M187.21,141.384H99.991c-13.117,0-23.788,10.671-23.788,23.787c0,13.117,10.671,23.788,23.788,23.788
						h87.219c13.116,0,23.787-10.671,23.787-23.788C210.997,152.055,200.326,141.384,187.21,141.384z M187.21,174.959H99.991
						c-5.397,0-9.788-4.391-9.788-9.788c0-5.396,4.391-9.787,9.788-9.787h87.219c5.396,0,9.787,4.391,9.787,9.787
						C196.997,170.568,192.606,174.959,187.21,174.959z"/>
				</g>
			</g>
		</g>
	</g>
	<g>
		<g>
			<g>
				<g>
					<path class="st4" d="M143.6,122.73c-14.146,0-25.653,11.508-25.653,25.654c0,3.866,3.134,7,7,7h37.308c3.866,0,7-3.134,7-7
						C169.254,134.239,157.745,122.73,143.6,122.73z M134.288,141.384c2.129-2.825,5.511-4.654,9.312-4.654
						c3.802,0,7.184,1.829,9.312,4.654H134.288z"/>
				</g>
			</g>
		</g>
	</g>
	<g>
		<g>
			<path class="st5" d="M162.396,181.959h-37.593c-1.011,2.441-1.573,5.12-1.573,7.933c0,11.363,9.12,99.451,20.37,99.451
				c11.25,0,20.37-88.089,20.37-99.451C163.97,187.079,163.407,184.4,162.396,181.959z"/>
		</g>
	</g>
	<g>
		<g>
			<path class="st6" d="M141.884,189.891c0-2.812,0.562-5.491,1.573-7.933h-18.654c-1.011,2.441-1.573,5.12-1.573,7.933
				c0,11.363,9.12,99.451,20.37,99.451c3.361,0,6.532-7.867,9.327-19.199C146.368,243.55,141.884,197.859,141.884,189.891z"/>
		</g>
	</g>
	<g>
		<g>
			<g>
				<g>
					<path class="st4" d="M168.864,179.281c-1.083-2.616-3.636-4.322-6.468-4.322h-37.593c-2.832,0-5.385,1.706-6.468,4.322
						c-1.397,3.375-2.105,6.945-2.105,10.61c0,6.605,2.413,31.94,6.051,55.074c6.757,42.971,12.933,51.377,21.318,51.377
						s14.562-8.407,21.318-51.377c3.639-23.134,6.052-48.469,6.052-55.074C170.97,186.226,170.262,182.656,168.864,179.281z
						 M151.837,237.885c-3.247,21.937-6.208,33.438-8.237,39.37c-2.029-5.932-4.99-17.433-8.236-39.37
						c-3.321-22.441-5.133-43.476-5.133-47.993c0-0.312,0.011-0.624,0.031-0.933h26.677c0.021,0.309,0.031,0.62,0.031,0.933
						C156.97,194.408,155.158,215.443,151.837,237.885z"/>
				</g>
			</g>
		</g>
	</g>
	<g>
		<g>
			<path class="st2" d="M368.4,129.73c-10.302,0-18.654,8.351-18.654,18.653h37.307C387.053,138.082,378.702,129.73,368.4,129.73z"
				/>
		</g>
	</g>
	<g>
		<g>
			<path class="st3" d="M412.01,148.384h-87.219c-9.271,0-16.788,7.516-16.788,16.787c0,9.271,7.516,16.788,16.788,16.788h87.219
				c9.271,0,16.787-7.516,16.787-16.788C428.797,155.9,421.281,148.384,412.01,148.384z"/>
		</g>
	</g>
	<g>
		<g>
			<path class="st0" d="M343.662,165.171c0-9.271,7.516-16.787,16.788-16.787h-35.659c-9.271,0-16.787,7.516-16.787,16.787
				c0,9.271,7.516,16.788,16.787,16.788h35.659C351.178,181.959,343.662,174.443,343.662,165.171z"/>
		</g>
	</g>
	<g>
		<g>
			<g>
				<g>
					<path class="st4" d="M412.01,141.384h-87.219c-13.117,0-23.788,10.671-23.788,23.787c0,13.117,10.671,23.788,23.788,23.788
						h87.219c13.116,0,23.787-10.671,23.787-23.788C435.797,152.055,425.126,141.384,412.01,141.384z M412.01,174.959h-87.219
						c-5.397,0-9.788-4.391-9.788-9.788c0-5.396,4.391-9.787,9.788-9.787h87.219c5.396,0,9.787,4.391,9.787,9.787
						C421.797,170.568,417.406,174.959,412.01,174.959z"/>
				</g>
			</g>
		</g>
	</g>
	<g>
		<g>
			<g>
				<g>
					<path class="st4" d="M368.4,122.73c-14.146,0-25.654,11.508-25.654,25.654c0,3.866,3.134,7,7,7h37.308c3.866,0,7-3.134,7-7
						C394.054,134.239,382.546,122.73,368.4,122.73z M359.088,141.384c2.129-2.825,5.511-4.654,9.312-4.654
						c3.801,0,7.183,1.829,9.312,4.654H359.088z"/>
				</g>
			</g>
		</g>
	</g>
	<g>
		<g>
			<path class="st5" d="M387.196,181.959h-37.593c-1.011,2.441-1.573,5.12-1.573,7.933c0,11.363,9.12,99.451,20.37,99.451
				s20.37-88.089,20.37-99.451C388.77,187.079,388.208,184.4,387.196,181.959z"/>
		</g>
	</g>
	<g>
		<g>
			<path class="st6" d="M366.684,189.891c0-2.812,0.562-5.491,1.573-7.933h-18.654c-1.011,2.441-1.573,5.12-1.573,7.933
				c0,11.363,9.12,99.451,20.37,99.451c3.361,0,6.532-7.867,9.327-19.199C371.168,243.55,366.684,197.859,366.684,189.891z"/>
		</g>
	</g>
	<g>
		<g>
			<g>
				<g>
					<path class="st4" d="M393.664,179.281c-1.083-2.616-3.636-4.322-6.468-4.322h-37.593c-2.832,0-5.385,1.706-6.468,4.322
						c-1.397,3.375-2.105,6.945-2.105,10.61c0,6.605,2.413,31.94,6.052,55.074c6.757,42.97,12.933,51.377,21.318,51.377
						c8.385,0,14.562-8.407,21.318-51.377c3.638-23.134,6.051-48.469,6.051-55.074C395.77,186.226,395.062,182.656,393.664,179.281z
						 M376.637,237.885c-3.246,21.937-6.207,33.437-8.236,39.369c-2.03-5.932-4.99-17.433-8.237-39.369
						c-3.321-22.442-5.133-43.476-5.133-47.993c0-0.312,0.011-0.624,0.031-0.933h26.677c0.021,0.309,0.031,0.62,0.031,0.933
						C381.77,194.408,379.958,215.443,376.637,237.885z"/>
				</g>
			</g>
		</g>
	</g>
	<g>
		<g>
			<path class="st4" d="M199.107,289.481c1.022-15.802,10.603-30.139,24.991-37.052c3.484-1.674,4.952-5.856,3.278-9.341
				c-1.675-3.485-5.855-4.951-9.341-3.278c-20.059,9.637-33.02,30.237-33.02,52.479c0,1.856,0.737,3.637,2.05,4.95l28.155,28.155
				c1.367,1.367,3.159,2.05,4.95,2.05s3.583-0.684,4.95-2.05c2.733-2.733,2.733-7.166,0-9.899L199.107,289.481z"/>
		</g>
	</g>
	<g>
		<g>
			<g>
				<g>
					<path class="st4" d="M295.706,239.81c-3.482-1.673-7.666-0.207-9.341,3.278c-1.674,3.484-0.206,7.667,3.278,9.341
						c14.389,6.913,23.969,21.25,24.991,37.052l-26.015,26.014c-2.733,2.733-2.733,7.166,0,9.899c1.367,1.367,3.159,2.05,4.95,2.05
						s3.583-0.684,4.95-2.05l28.155-28.155c1.312-1.312,2.05-3.093,2.05-4.95C328.726,270.047,315.765,249.447,295.706,239.81z"/>
				</g>
			</g>
		</g>
	</g>
	<g>
		<g>
			<g>
				<g>
					<path class="st4" d="M298.249,281.727c-2.918-3.232-6.84-5.012-11.044-5.012h-60.668c-4.204,0-8.127,1.78-11.046,5.013
						c-3.585,3.972-5.289,9.694-4.674,15.698l7.961,77.789c0.808,7.881,7.54,14.055,15.328,14.055h45.528
						c7.789,0,14.521-6.174,15.329-14.056l7.961-77.789C303.539,291.42,301.835,285.698,298.249,281.727z M288.997,296
						l-7.961,77.789c-0.088,0.859-0.898,1.481-1.401,1.481h-45.528c-0.503,0-1.312-0.622-1.4-1.481l-7.961-77.79
						c-0.247-2.405,0.459-4.138,1.138-4.89c0.356-0.395,0.565-0.395,0.654-0.395h60.668c0.089,0,0.297,0,0.653,0.394
						C288.538,291.861,289.243,293.594,288.997,296z"/>
				</g>
			</g>
		</g>
	</g>
	<g>
		<g>
			<path class="st6" d="M273.832,344.31c-2.624-1.387-5.736-2.12-8.999-2.12c-0.526,0-1.047,0.021-1.564,0.059
				c1.443-0.992,2.821-2.14,4.108-3.427c3.229-3.229,5.583-7.032,6.805-10.997c0.078-0.254,0.01-0.53-0.178-0.718
				c-0.188-0.188-0.464-0.256-0.718-0.178c-3.965,1.223-7.768,3.576-10.997,6.805c-1.041,1.041-1.99,2.142-2.841,3.288
				c0.565-2.582,0.855-5.287,0.855-8.052c0-5.918-1.327-11.557-3.839-16.308c-0.124-0.235-0.368-0.382-0.633-0.382
				s-0.509,0.147-0.633,0.382c-2.511,4.75-3.839,10.39-3.839,16.308c0,2.55,0.247,5.048,0.729,7.446
				c-0.728-0.929-1.522-1.825-2.378-2.681c-3.229-3.229-7.032-5.583-10.997-6.805c-0.253-0.078-0.53-0.01-0.718,0.178
				c-0.188,0.188-0.256,0.464-0.178,0.718c1.223,3.965,3.576,7.768,6.805,10.997c1.287,1.287,2.665,2.434,4.108,3.427
				c-0.517-0.038-1.038-0.059-1.564-0.059c-3.263,0-6.375,0.733-8.999,2.12c-0.235,0.124-0.381,0.368-0.381,0.633
				s0.147,0.509,0.381,0.633c2.624,1.387,5.736,2.12,8.999,2.12c0.902,0,1.791-0.058,2.663-0.168
				c-1.622,1.512-2.843,3.311-3.532,5.215c-0.09,0.25-0.035,0.529,0.143,0.725c0.138,0.151,0.331,0.235,0.53,0.235
				c0.059,0,0.119-0.008,0.178-0.022c2.02-0.518,3.984-1.605,5.679-3.144c0.885-0.803,1.653-1.692,2.287-2.636v5.086
				c0,0.396,0.321,0.716,0.716,0.716s0.716-0.321,0.716-0.716v-5.611c0.691,1.141,1.576,2.21,2.623,3.161
				c1.695,1.539,3.659,2.626,5.679,3.144c0.059,0.015,0.119,0.022,0.178,0.022c0.199,0,0.393-0.083,0.53-0.235
				c0.178-0.197,0.233-0.476,0.143-0.725c-0.689-1.905-1.91-3.703-3.532-5.215c0.871,0.11,1.761,0.168,2.663,0.168
				c3.263,0,6.375-0.733,8.999-2.12c0.235-0.124,0.381-0.368,0.381-0.633C274.213,344.677,274.067,344.434,273.832,344.31z"/>
		</g>
	</g>
	<g>
		<g>
			<path class="st7" d="M255.672,212.677l0.646,13.985c5.157-0.229,20.123,0.459,27.351,6.297l8.797-10.892
				C279.82,211.855,258.107,212.561,255.672,212.677z"/>
		</g>
	</g>
</g>
</svg>
