<?xml version="1.0" encoding="utf-8"?>
<!-- Generator: Adobe Illustrator 21.1.0, SVG Export Plug-In . SVG Version: 6.00 Build 0)  -->
<svg version="1.1" id="Layer_1" xmlns="http://www.w3.org/2000/svg" xmlns:xlink="http://www.w3.org/1999/xlink" x="0px" y="0px"
	 viewBox="0 0 512 512" style="enable-background:new 0 0 512 512;" xml:space="preserve">
<style type="text/css">
	.st0{fill:#D6CD1E;}
	.st1{fill:#E56823;}
	.st2{fill:#FE8E46;}
	.st3{fill:#FEFE71;}
	.st4{fill:#463218;}
	.st5{fill:#7DAC51;}
	.st6{fill:#5B7C31;}
	.st7{fill:#FFFFFF;}
</style>
<g>
	<g>
		<g>
			<polygon class="st2" points="256,117.333 135.912,186.667 135.912,325.333 256,394.667 376.089,325.333 376.089,186.667 			"/>
		</g>
	</g>
	<g>
		<g>
			<polygon class="st1" points="135.912,186.667 135.912,325.333 256,394.667 256,117.333 			"/>
		</g>
	</g>
	<g>
		<g>
			<g>
				<g>
					<path class="st4" d="M379.588,180.604L259.5,111.271c-2.166-1.25-4.834-1.25-7,0l-120.088,69.333
						c-2.166,1.251-3.5,3.562-3.5,6.062v138.666c0,2.501,1.334,4.812,3.5,6.062L252.5,400.729c1.083,0.625,2.292,0.938,3.5,0.938
						s2.417-0.312,3.5-0.938l120.088-69.333c2.166-1.251,3.5-3.562,3.5-6.062V186.667
						C383.088,184.166,381.754,181.855,379.588,180.604z M369.088,321.292L256,386.583l-113.088-65.291V190.708L256,125.417
						l113.088,65.291V321.292z"/>
				</g>
			</g>
		</g>
	</g>
	<g>
		<g>
			<rect x="344" y="204.972" class="st7" width="14" height="34.64"/>
		</g>
	</g>
	<g>
		<g>
			<path class="st0" d="M256.001,191.841c-14.275-2.897-29.662,1.673-40.015,13.361c-10.352,11.689-13.03,27.515-8.43,41.335
				c14.275,2.897,29.662-1.673,40.015-13.361S260.602,205.662,256.001,191.841z"/>
		</g>
	</g>
	<g>
		<g>
			<path class="st0" d="M235.035,245.077c-13.313,4.456-23.958,15.681-26.972,30.425s2.372,29.246,12.868,38.569
				c13.313-4.456,23.958-15.681,26.972-30.424C250.917,268.902,245.531,254.4,235.035,245.077z"/>
		</g>
	</g>
	<g>
		<g>
			<path class="st0" d="M304.526,275.502c-3.014-14.744-13.659-25.969-26.972-30.425c-10.496,9.323-15.882,23.825-12.868,38.569
				c3.014,14.744,13.659,25.969,26.972,30.424C302.154,304.748,307.54,290.246,304.526,275.502z"/>
		</g>
	</g>
	<g>
		<g>
			<g>
				<g>
					<path class="st4" d="M239.683,239.844c-1.874-1.665-4.494-2.203-6.87-1.404c-16.102,5.39-28.214,19.054-31.608,35.66
						c-3.395,16.607,2.382,33.929,15.077,45.205c1.301,1.155,2.961,1.767,4.65,1.767c0.744,0,1.494-0.119,2.221-0.362
						c16.102-5.389,28.213-19.054,31.609-35.66C258.156,268.441,252.378,251.12,239.683,239.844z M241.045,282.244
						c-2.115,10.346-9.023,19.075-18.433,23.604c-6.877-7.858-9.806-18.599-7.69-28.944c2.114-10.345,9.022-19.074,18.432-23.603
						C240.231,261.159,243.16,271.899,241.045,282.244z"/>
				</g>
			</g>
		</g>
	</g>
	<g>
		<g>
			<g>
				<g>
					<path class="st4" d="M311.384,274.101c-3.395-16.607-15.506-30.271-31.608-35.661c-2.377-0.799-4.998-0.261-6.87,1.404
						c-12.695,11.276-18.472,28.598-15.078,45.205c3.395,16.606,15.506,30.271,31.608,35.66c0.727,0.244,1.477,0.362,2.221,0.362
						c1.688,0,3.349-0.611,4.649-1.767C309.001,308.029,314.779,290.708,311.384,274.101z M289.977,305.848
						c-9.41-4.528-16.318-13.258-18.433-23.603c-2.115-10.346,0.813-21.086,7.69-28.944c9.41,4.529,16.318,13.258,18.433,23.603
						C299.783,287.25,296.854,297.99,289.977,305.848z"/>
				</g>
			</g>
		</g>
	</g>
	<g>
		<g>
			<path class="st0" d="M296.394,204.01c-10.694-11.376-26.21-15.488-40.393-12.168c-4.189,13.951-1.042,29.691,9.652,41.067
				s26.21,15.488,40.393,12.168C310.235,231.126,307.089,215.387,296.394,204.01z"/>
		</g>
	</g>
	<g>
		<g>
			<g>
				<g>
					<path class="st4" d="M262.643,189.63c-0.792-2.378-2.794-4.151-5.25-4.649c-17.174-3.482-35.049,2.485-46.646,15.581
						c-11.599,13.097-15.366,31.561-9.831,48.188c0.792,2.378,2.793,4.15,5.249,4.649c3.241,0.657,6.506,0.979,9.75,0.979
						c13.945,0,27.486-5.935,36.896-16.559C264.411,224.723,268.178,206.258,262.643,189.63z M242.331,228.535
						c-7.363,8.313-18.271,12.616-29.219,11.73c-2.198-10.767,0.751-22.107,8.115-30.422c7.363-8.313,18.264-12.608,29.219-11.73
						C252.645,208.88,249.695,220.222,242.331,228.535z"/>
				</g>
			</g>
		</g>
	</g>
	<g>
		<g>
			<path class="st3" d="M256.001,210.852c-18.654,11.975-31.214,34.334-31.214,59.961s12.56,47.986,31.214,59.961
				c18.654-11.975,31.214-34.334,31.214-59.961S274.656,222.827,256.001,210.852z"/>
		</g>
	</g>
	<g>
		<g>
			<g>
				<g>
					<path class="st4" d="M259.783,204.961c-2.305-1.479-5.259-1.479-7.563,0c-21.239,13.634-34.433,38.867-34.433,65.853
						s13.194,52.218,34.433,65.852c1.152,0.739,2.466,1.109,3.781,1.109s2.629-0.37,3.782-1.109
						c21.238-13.634,34.433-38.866,34.433-65.852C294.215,243.827,281.021,218.594,259.783,204.961z M256.001,322.225
						c-15.038-11.55-24.214-30.818-24.214-51.411s9.176-39.862,24.214-51.412c15.039,11.549,24.214,30.819,24.214,51.412
						S271.04,310.676,256.001,322.225z"/>
				</g>
			</g>
		</g>
	</g>
	<g>
		<g>
			<g>
				<g>
					<path class="st4" d="M301.495,199.215c-11.983-12.746-30.028-18.187-47.089-14.189c-2.44,0.57-4.389,2.402-5.109,4.803
						c-5.039,16.784-0.726,35.128,11.256,47.875c9.383,9.98,22.479,15.479,35.914,15.479c3.723,0,7.473-0.422,11.175-1.289
						c2.44-0.57,4.389-2.402,5.109-4.803C317.79,230.306,313.476,211.961,301.495,199.215z M300.307,238.973
						c-10.912,1.203-21.947-2.767-29.554-10.859c-7.606-8.091-10.892-19.341-9.014-30.168c10.924-1.202,21.947,2.768,29.554,10.859
						C298.901,216.896,302.185,228.146,300.307,238.973z"/>
				</g>
			</g>
		</g>
	</g>
	<g>
		<g>
			<path class="st3" d="M256.001,191.841c-12.607,7.296-21.096,20.919-21.096,36.533c0,15.614,8.488,29.237,21.096,36.533
				c12.607-7.296,21.096-20.919,21.096-36.533C277.097,212.76,268.609,199.137,256.001,191.841z"/>
		</g>
	</g>
	<g>
		<g>
			<g>
				<g>
					<path class="st4" d="M259.507,185.782c-2.171-1.256-4.844-1.256-7.013,0c-15.167,8.777-24.589,25.098-24.589,42.592
						s9.422,33.814,24.589,42.592c1.085,0.628,2.295,0.941,3.506,0.941c1.21,0,2.421-0.313,3.506-0.941
						c15.167-8.777,24.59-25.098,24.59-42.592S274.674,194.56,259.507,185.782z M256.001,256.528
						c-8.784-6.602-14.096-17.049-14.096-28.154s5.312-21.553,14.096-28.154c8.785,6.602,14.096,17.049,14.096,28.154
						S264.786,249.927,256.001,256.528z"/>
				</g>
			</g>
		</g>
	</g>
	<g>
		<g>
			<path class="st4" d="M256.001,257.907c-3.866,0-7,3.134-7,7v65.867c0,3.866,3.134,7,7,7c3.866,0,7-3.134,7-7v-65.867
				C263,261.041,259.867,257.907,256.001,257.907z"/>
		</g>
	</g>
	<g>
		<g>
			<path class="st4" d="M274.434,159.196c-14.023,0-25.433,11.409-25.433,25.433v7.212c0,3.866,3.134,7,7,7c3.866,0,7-3.134,7-7
				v-7.212c0-6.304,5.129-11.433,11.433-11.433c3.866,0,7-3.134,7-7S278.3,159.196,274.434,159.196z"/>
		</g>
	</g>
</g>
</svg>
