<?xml version="1.0" encoding="utf-8"?>
<!-- Generator: Adobe Illustrator 21.1.0, SVG Export Plug-In . SVG Version: 6.00 Build 0)  -->
<svg version="1.1" id="Layer_1" xmlns="http://www.w3.org/2000/svg" xmlns:xlink="http://www.w3.org/1999/xlink" x="0px" y="0px"
	 viewBox="0 0 512 512" style="enable-background:new 0 0 512 512;" xml:space="preserve">
<style type="text/css">
	.st0{fill:#D6CD1E;}
	.st1{fill:#E56823;}
	.st2{fill:#FE8E46;}
	.st3{fill:#FEFE71;}
	.st4{fill:#463218;}
	.st5{fill:#7DAC51;}
	.st6{fill:#5B7C31;}
	.st7{fill:#FFFFFF;}
</style>
<g>
	<g>
		<g>
			<rect x="166.362" y="121.544" class="st2" width="179.275" height="268.913"/>
		</g>
	</g>
	<g>
		<g>
			<rect x="166.362" y="121.544" class="st1" width="40.497" height="268.913"/>
		</g>
	</g>
	<g>
		<g>
			<g>
				<g>
					<path class="st4" d="M345.638,114.544H166.362c-3.866,0-7,3.134-7,7v268.913c0,3.866,3.134,7,7,7h179.275c3.866,0,7-3.134,7-7
						V121.544C352.638,117.678,349.504,114.544,345.638,114.544z M338.638,383.456H173.362V128.544h165.275V383.456z"/>
				</g>
			</g>
		</g>
	</g>
	<g>
		<g>
			<g>
				<g>
					<g>
						<path class="st4" d="M243.852,138.057h-55.989c-3.866,0-7,3.134-7,7v55.988c0,3.866,3.134,7,7,7h55.989c3.866,0,7-3.134,7-7
							v-55.988C250.852,141.191,247.718,138.057,243.852,138.057z M236.852,194.046h-41.989v-41.988h41.989V194.046z"/>
					</g>
				</g>
			</g>
		</g>
		<g>
			<g>
				<g>
					<g>
						<path class="st4" d="M324.138,138.057h-55.989c-3.866,0-7,3.134-7,7v55.988c0,3.866,3.134,7,7,7h55.989c3.866,0,7-3.134,7-7
							v-55.988C331.138,141.191,328.004,138.057,324.138,138.057z M317.138,194.046h-41.989v-41.988h41.989V194.046z"/>
					</g>
				</g>
			</g>
		</g>
	</g>
	<g>
		<g>
			<g>
				<g>
					<g>
						<path class="st4" d="M243.852,214.317h-55.989c-3.866,0-7,3.134-7,7v55.988c0,3.866,3.134,7,7,7h55.989c3.866,0,7-3.134,7-7
							v-55.988C250.852,217.451,247.718,214.317,243.852,214.317z M236.852,270.305h-41.989v-41.988h41.989V270.305z"/>
					</g>
				</g>
			</g>
		</g>
		<g>
			<g>
				<g>
					<g>
						<path class="st4" d="M324.138,214.317h-55.989c-3.866,0-7,3.134-7,7v55.988c0,3.866,3.134,7,7,7h55.989c3.866,0,7-3.134,7-7
							v-55.988C331.138,217.451,328.004,214.317,324.138,214.317z M317.138,270.305h-41.989v-41.988h41.989V270.305z"/>
					</g>
				</g>
			</g>
		</g>
	</g>
	<g>
		<g>
			<rect x="187.863" y="145.057" class="st1" width="55.988" height="55.988"/>
		</g>
	</g>
	<g>
		<g>
			<rect x="268.149" y="145.057" class="st1" width="55.988" height="55.988"/>
		</g>
	</g>
	<g>
		<g>
			<rect x="187.863" y="221.317" class="st1" width="55.988" height="55.989"/>
		</g>
	</g>
	<g>
		<g>
			<rect x="268.149" y="221.317" class="st1" width="55.988" height="55.989"/>
		</g>
	</g>
	<g>
		<g>
			<g>
				<g>
					<path class="st4" d="M243.852,138.057h-55.989c-3.866,0-7,3.134-7,7v55.988c0,3.866,3.134,7,7,7h55.989c3.866,0,7-3.134,7-7
						v-55.988C250.852,141.191,247.718,138.057,243.852,138.057z M236.852,194.046h-41.989v-41.988h41.989V194.046z"/>
				</g>
			</g>
		</g>
	</g>
	<g>
		<g>
			<g>
				<g>
					<path class="st4" d="M324.138,138.057h-55.989c-3.866,0-7,3.134-7,7v55.988c0,3.866,3.134,7,7,7h55.989c3.866,0,7-3.134,7-7
						v-55.988C331.138,141.191,328.004,138.057,324.138,138.057z M317.138,194.046h-41.989v-41.988h41.989V194.046z"/>
				</g>
			</g>
		</g>
	</g>
	<g>
		<g>
			<g>
				<g>
					<path class="st4" d="M243.852,214.317h-55.989c-3.866,0-7,3.134-7,7v55.988c0,3.866,3.134,7,7,7h55.989c3.866,0,7-3.134,7-7
						v-55.988C250.852,217.451,247.718,214.317,243.852,214.317z M236.852,270.305h-41.989v-41.988h41.989V270.305z"/>
				</g>
			</g>
		</g>
	</g>
	<g>
		<g>
			<g>
				<g>
					<path class="st4" d="M324.138,214.317h-55.989c-3.866,0-7,3.134-7,7v55.988c0,3.866,3.134,7,7,7h55.989c3.866,0,7-3.134,7-7
						v-55.988C331.138,217.451,328.004,214.317,324.138,214.317z M317.138,270.305h-41.989v-41.988h41.989V270.305z"/>
				</g>
			</g>
		</g>
	</g>
	<g>
		<g>
			<polygon class="st5" points="166.362,311.461 166.362,390.456 345.638,390.456 345.638,229.38 			"/>
		</g>
	</g>
	<g>
		<g>
			<polygon class="st6" points="166.363,311.461 166.363,390.456 206.86,390.456 206.86,292.919 			"/>
		</g>
	</g>
	<g>
		<g>
			<polygon class="st6" points="303.889,247.921 303.889,390.456 344.386,390.456 344.386,229.38 			"/>
		</g>
	</g>
	<g>
		<g>
			<g>
				<g>
					<path class="st4" d="M349.419,223.489c-2.005-1.288-4.528-1.465-6.695-0.474l-179.275,82.081
						c-2.489,1.14-4.086,3.627-4.086,6.365v78.995c0,3.866,3.134,7,7,7h179.275c3.866,0,7-3.134,7-7V229.38
						C352.638,226.996,351.425,224.777,349.419,223.489z M338.638,383.456H173.362v-67.502l165.275-75.671V383.456z"/>
				</g>
			</g>
		</g>
	</g>
	<g>
		<g>
			<path class="st3" d="M286.551,343.735c-4.495-2.376-9.827-3.633-15.418-3.633c-0.901,0-1.794,0.036-2.679,0.101
				c2.472-1.7,4.833-3.666,7.037-5.87c5.533-5.533,9.564-12.048,11.659-18.841c0.134-0.435,0.017-0.908-0.305-1.229
				c-0.322-0.322-0.795-0.439-1.229-0.305c-6.793,2.095-13.308,6.126-18.841,11.659c-1.783,1.783-3.41,3.669-4.866,5.633
				c0.968-4.423,1.465-9.057,1.465-13.796c0-10.139-2.274-19.8-6.576-27.939c-0.213-0.402-0.63-0.654-1.085-0.654
				s-0.872,0.251-1.085,0.654c-4.302,8.139-6.576,17.8-6.576,27.939c0,4.369,0.423,8.648,1.248,12.756
				c-1.248-1.591-2.607-3.127-4.074-4.594c-5.533-5.533-12.048-9.565-18.841-11.659c-0.434-0.134-0.907-0.017-1.229,0.305
				c-0.322,0.322-0.439,0.795-0.305,1.229c2.095,6.793,6.126,13.308,11.659,18.841c2.204,2.205,4.565,4.17,7.037,5.87
				c-0.885-0.065-1.778-0.101-2.679-0.101c-5.591,0-10.923,1.256-15.418,3.633c-0.402,0.213-0.654,0.63-0.654,1.085
				s0.252,0.872,0.654,1.085c4.495,2.376,9.827,3.633,15.418,3.633c1.545,0,3.069-0.099,4.562-0.288
				c-2.78,2.59-4.87,5.672-6.051,8.935c-0.155,0.428-0.06,0.906,0.245,1.242c0.236,0.26,0.567,0.402,0.908,0.402
				c0.101,0,0.204-0.013,0.305-0.038c3.461-0.887,6.826-2.75,9.73-5.386c1.516-1.376,2.831-2.898,3.918-4.516v8.714
				c0,0.678,0.549,1.227,1.227,1.227c0.678,0,1.227-0.549,1.227-1.227v-9.613c1.184,1.954,2.7,3.786,4.494,5.415v0
				c2.904,2.637,6.269,4.499,9.73,5.386c0.101,0.026,0.203,0.038,0.305,0.038c0.341,0,0.673-0.143,0.908-0.402
				c0.306-0.337,0.4-0.815,0.245-1.242c-1.181-3.263-3.272-6.345-6.051-8.935c1.493,0.189,3.017,0.288,4.562,0.288
				c5.591,0,10.923-1.256,15.418-3.632c0.402-0.213,0.654-0.63,0.654-1.085C287.204,344.365,286.953,343.947,286.551,343.735z"/>
		</g>
	</g>
	<g>
		<g>
			<rect x="199.859" y="324.345" class="st7" width="14" height="35.483"/>
		</g>
	</g>
</g>
</svg>
