<?xml version="1.0" encoding="utf-8"?>
<!-- Generator: Adobe Illustrator 21.1.0, SVG Export Plug-In . SVG Version: 6.00 Build 0)  -->
<svg version="1.1" id="Layer_1" xmlns="http://www.w3.org/2000/svg" xmlns:xlink="http://www.w3.org/1999/xlink" x="0px" y="0px"
	 viewBox="0 0 512 512" style="enable-background:new 0 0 512 512;" xml:space="preserve">
<style type="text/css">
	.st0{fill:#D6CD1E;}
	.st1{fill:#E56823;}
	.st2{fill:#FE8E46;}
	.st3{fill:#FEFE71;}
	.st4{fill:#463218;}
	.st5{fill:#7DAC51;}
	.st6{fill:#5B7C31;}
	.st7{fill:#FFFFFF;}
</style>
<g>
	<g>
		<g>
			<path class="st4" d="M368.248,241.898c-3.866,0-7,3.134-7,7v63.16c0,31.275-25.444,56.72-56.72,56.72h-54.77
				c-3.866,0-7,3.134-7,7s3.134,7,7,7h54.77c38.995,0,70.72-31.725,70.72-70.72v-63.16
				C375.248,245.032,372.115,241.898,368.248,241.898z"/>
		</g>
	</g>
	<g>
		<g>
			<circle class="st3" cx="368.249" cy="160.798" r="49.202"/>
		</g>
	</g>
	<g>
		<g>
			<path class="st5" d="M199.213,102.288c-14.25,26.956-22.682,60.33-22.682,96.471c0,36.141,8.432,69.515,22.682,96.471
				c14.25-26.956,22.682-60.33,22.682-96.471C221.895,162.619,213.463,129.245,199.213,102.288z"/>
		</g>
	</g>
	<g>
		<g>
			<path class="st6" d="M199.213,102.288c-14.25,26.956-22.682,60.33-22.682,96.471c0,36.141,8.432,69.515,22.682,96.471
				C200.226,293.315,199.213,102.288,199.213,102.288z"/>
		</g>
	</g>
	<g>
		<g>
			<path class="st5" d="M159.186,230.594c-19.605-19.605-42.283-33.135-64.636-40.027c6.893,22.353,20.423,45.031,40.027,64.636
				c19.605,19.605,42.283,33.135,64.636,40.027C192.32,272.878,178.79,250.199,159.186,230.594z"/>
		</g>
	</g>
	<g>
		<g>
			<path class="st6" d="M199.023,294.649L94.55,190.567c6.893,22.353,20.423,45.031,40.027,64.636
				c19.605,19.605,42.283,33.135,64.636,40.027C199.153,295.037,199.084,294.843,199.023,294.649z"/>
		</g>
	</g>
	<g>
		<g>
			<path class="st5" d="M146.881,282.926c-19.605,0-37.709,4.574-52.332,12.304c14.623,7.73,32.727,12.304,52.332,12.304
				c19.605,0,37.709-4.574,52.332-12.304C184.59,287.5,166.486,282.926,146.881,282.926z"/>
		</g>
	</g>
	<g>
		<g>
			<path class="st6" d="M94.55,295.23c14.623,7.73,32.727,12.304,52.332,12.304c19.605,0,37.709-4.574,52.332-12.304H94.55z"/>
		</g>
	</g>
	<g>
		<g>
			<g>
				<g>
					<path class="st4" d="M205.402,99.017c-1.213-2.294-3.594-3.729-6.188-3.729s-4.976,1.435-6.188,3.729
						c-15.37,29.075-23.494,63.565-23.494,99.742s8.124,70.667,23.494,99.742c1.213,2.294,3.594,3.729,6.188,3.729
						s4.976-1.435,6.188-3.729c15.369-29.074,23.493-63.564,23.493-99.742C228.895,162.581,220.771,128.091,205.402,99.017z
						 M199.213,278.957c-10.292-24.139-15.683-51.569-15.683-80.197s5.391-56.058,15.683-80.197
						c10.29,24.137,15.682,51.57,15.682,80.197S209.503,254.819,199.213,278.957z"/>
				</g>
			</g>
		</g>
	</g>
	<g>
		<g>
			<g>
				<g>
					<path class="st4" d="M205.903,293.167c-7.513-24.362-21.955-47.711-41.768-67.523s-43.161-34.255-67.523-41.767
						c-2.477-0.764-5.178-0.094-7.013,1.74c-1.834,1.835-2.504,4.533-1.739,7.013c7.514,24.364,21.957,47.712,41.768,67.523
						c19.812,19.812,43.16,34.254,67.523,41.767c0.678,0.209,1.373,0.311,2.062,0.311c1.829,0,3.618-0.718,4.951-2.051
						C205.997,298.345,206.667,295.647,205.903,293.167z M139.528,250.253C139.528,250.253,139.528,250.253,139.528,250.253
						c-14.358-14.357-25.629-30.674-33.107-47.816c17.141,7.479,33.457,18.748,47.815,33.107
						c14.359,14.359,25.629,30.675,33.107,47.816C170.201,275.881,153.885,264.611,139.528,250.253z"/>
				</g>
			</g>
		</g>
	</g>
	<g>
		<g>
			<g>
				<g>
					<path class="st4" d="M202.485,289.042c-16.231-8.58-35.459-13.116-55.604-13.116s-39.372,4.535-55.604,13.116
						c-2.294,1.212-3.729,3.594-3.729,6.188s1.435,4.976,3.729,6.188c16.231,8.58,35.459,13.116,55.604,13.116
						s39.372-4.535,55.604-13.116c2.294-1.212,3.729-3.594,3.729-6.188S204.779,290.254,202.485,289.042z M146.881,300.534
						c-12.069,0-23.724-1.812-34.4-5.304c10.677-3.492,22.331-5.304,34.4-5.304s23.724,1.812,34.4,5.304
						C170.605,298.722,158.95,300.534,146.881,300.534z"/>
				</g>
			</g>
		</g>
	</g>
	<g>
		<g>
			<path class="st5" d="M241.27,230.594c-19.605,19.605-33.135,42.283-40.027,64.636c22.353-6.893,45.031-20.423,64.636-40.027
				c19.605-19.605,33.135-42.283,40.028-64.636C283.553,197.459,260.875,210.989,241.27,230.594z"/>
		</g>
	</g>
	<g>
		<g>
			<path class="st6" d="M201.432,294.649c-0.061,0.194-0.13,0.387-0.19,0.581c22.353-6.893,45.031-20.423,64.636-40.027
				c19.605-19.605,33.135-42.283,40.028-64.636L201.432,294.649z"/>
		</g>
	</g>
	<g>
		<g>
			<path class="st5" d="M253.574,282.926c-19.605,0-37.709,4.574-52.332,12.304c14.623,7.73,32.727,12.304,52.332,12.304
				c19.605,0,37.709-4.574,52.332-12.304C291.283,287.5,273.179,282.926,253.574,282.926z"/>
		</g>
	</g>
	<g>
		<g>
			<path class="st6" d="M201.243,295.23c14.623,7.73,32.727,12.304,52.332,12.304c19.605,0,37.709-4.574,52.332-12.304H201.243z"/>
		</g>
	</g>
	<g>
		<g>
			<g>
				<g>
					<path class="st4" d="M310.857,185.617c-1.835-1.834-4.535-2.505-7.013-1.74c-24.362,7.513-47.712,21.955-67.524,41.767
						c-19.812,19.812-34.254,43.161-41.767,67.523c-0.765,2.479-0.095,5.178,1.739,7.012c1.333,1.333,3.122,2.051,4.951,2.051
						c0.688,0,1.384-0.102,2.062-0.311c24.362-7.513,47.712-21.955,67.523-41.767c0.001,0,0.001,0,0.001,0
						c19.812-19.812,34.254-43.161,41.767-67.523C313.361,190.15,312.691,187.451,310.857,185.617z M260.93,250.253
						c-14.359,14.358-30.676,25.628-47.817,33.107c7.479-17.141,18.748-33.457,33.106-47.816
						c14.359-14.358,30.676-25.628,47.817-33.107C286.558,219.578,275.288,235.894,260.93,250.253z"/>
				</g>
			</g>
		</g>
	</g>
	<g>
		<g>
			<g>
				<g>
					<path class="st4" d="M309.178,289.042c-16.231-8.58-35.459-13.116-55.604-13.116s-39.372,4.535-55.604,13.116
						c-2.294,1.212-3.729,3.594-3.729,6.188s1.435,4.976,3.729,6.188c16.231,8.58,35.459,13.116,55.604,13.116
						s39.372-4.535,55.604-13.116c2.294-1.212,3.729-3.594,3.729-6.188S311.472,290.254,309.178,289.042z M253.574,300.534
						c-12.069,0-23.724-1.812-34.4-5.304c10.677-3.492,22.331-5.304,34.4-5.304s23.724,1.812,34.4,5.304
						C277.298,298.722,265.644,300.534,253.574,300.534z"/>
				</g>
			</g>
		</g>
	</g>
	<g>
		<g>
			<polygon class="st2" points="123.428,307.311 150.776,409.711 249.68,409.711 277.028,307.311 			"/>
		</g>
	</g>
	<g>
		<g>
			<polygon class="st1" points="168.558,307.311 123.428,307.311 150.776,409.712 195.906,409.712 			"/>
		</g>
	</g>
	<g>
		<g>
			<g>
				<g>
					<path class="st4" d="M282.579,303.048c-1.325-1.725-3.377-2.736-5.552-2.736h-153.6c-2.175,0-4.227,1.011-5.552,2.736
						c-1.325,1.725-1.772,3.968-1.211,6.07l27.348,102.4c0.817,3.063,3.593,5.194,6.763,5.194h98.904
						c3.17,0,5.945-2.131,6.763-5.194l27.348-102.4C284.352,307.016,283.905,304.773,282.579,303.048z M244.304,402.711h-88.152
						l-23.608-88.4h135.369L244.304,402.711z"/>
				</g>
			</g>
		</g>
	</g>
	<g>
		<g>
			<rect x="107.627" y="307.311" class="st3" width="185.201" height="32.942"/>
		</g>
	</g>
	<g>
		<g>
			<rect x="107.627" y="307.311" class="st0" width="64.729" height="32.942"/>
		</g>
	</g>
	<g>
		<g>
			<g>
				<g>
					<path class="st4" d="M292.828,300.312H107.627c-3.866,0-7,3.134-7,7v32.942c0,3.866,3.134,7,7,7h185.201c3.866,0,7-3.134,7-7
						v-32.942C299.828,303.446,296.695,300.312,292.828,300.312z M285.828,333.253H114.627v-18.942h171.201V333.253z"/>
				</g>
			</g>
		</g>
	</g>
	<g>
		<g>
			<g>
				<g>
					<path class="st4" d="M368.248,104.595c-30.99,0-56.202,25.212-56.202,56.202S337.258,217,368.248,217
						s56.203-25.212,56.203-56.202S399.239,104.595,368.248,104.595z M368.248,203c-23.271,0-42.202-18.932-42.202-42.202
						s18.932-42.202,42.202-42.202s42.203,18.932,42.203,42.202S391.519,203,368.248,203z"/>
				</g>
			</g>
		</g>
	</g>
	<g>
		<g>
			<path class="st6" d="M396.331,175.611c-4.132-2.184-9.033-3.339-14.173-3.339c-0.828,0-1.649,0.033-2.463,0.093
				c2.272-1.563,4.442-3.37,6.469-5.396c5.086-5.086,8.792-11.075,10.718-17.319c0.123-0.4,0.015-0.834-0.28-1.13
				c-0.296-0.296-0.73-0.404-1.13-0.28c-6.244,1.926-12.233,5.632-17.319,10.717c-1.639,1.639-3.134,3.373-4.473,5.178
				c0.89-4.066,1.347-8.326,1.347-12.681c0-9.32-2.09-18.201-6.045-25.682c-0.195-0.37-0.579-0.601-0.997-0.601
				s-0.802,0.231-0.997,0.601c-3.955,7.481-6.045,16.362-6.045,25.682c0,4.016,0.389,7.95,1.147,11.726
				c-1.147-1.463-2.396-2.875-3.745-4.222c-5.086-5.086-11.074-8.792-17.319-10.717c-0.399-0.123-0.834-0.015-1.13,0.28
				c-0.295,0.296-0.403,0.73-0.28,1.13c1.926,6.244,5.632,12.233,10.717,17.319v0c2.026,2.026,4.197,3.833,6.469,5.396
				c-0.813-0.059-1.635-0.093-2.463-0.093c-5.139,0-10.04,1.155-14.172,3.339c-0.37,0.195-0.601,0.579-0.601,0.997
				s0.231,0.802,0.601,0.997c4.132,2.184,9.033,3.339,14.172,3.339c1.42,0,2.821-0.091,4.194-0.265
				c-2.555,2.381-4.477,5.214-5.562,8.213c-0.143,0.393-0.056,0.833,0.225,1.142c0.217,0.239,0.521,0.37,0.835,0.37
				c0.093,0,0.187-0.012,0.28-0.035c3.182-0.815,6.275-2.528,8.944-4.951c1.393-1.265,2.603-2.664,3.602-4.151v8.01
				c0,0.623,0.505,1.128,1.128,1.128s1.128-0.505,1.128-1.128v-8.836c1.089,1.796,2.482,3.481,4.131,4.978h0
				c2.67,2.424,5.762,4.136,8.944,4.951c0.093,0.024,0.187,0.035,0.28,0.035c0.314,0,0.619-0.131,0.835-0.37
				c0.281-0.31,0.368-0.749,0.225-1.142c-1.086-2.999-3.007-5.832-5.562-8.213c1.373,0.174,2.773,0.265,4.194,0.265
				c5.139,0,10.04-1.155,14.173-3.339c0.37-0.195,0.601-0.579,0.601-0.997C396.932,176.19,396.701,175.806,396.331,175.611z"/>
		</g>
	</g>
	<g>
		<g>
			<path class="st4" d="M373.198,243.949c-2.732-2.734-7.165-2.734-9.899,0l-25.994,25.995c-2.733,2.734-2.733,7.166,0.001,9.899
				c1.366,1.367,3.158,2.05,4.949,2.05s3.583-0.683,4.95-2.05l25.994-25.995C375.932,251.115,375.932,246.682,373.198,243.949z"/>
		</g>
	</g>
	<g>
		<g>
			<path class="st4" d="M399.193,269.943l-25.995-25.995c-2.732-2.734-7.165-2.734-9.899,0c-2.733,2.734-2.733,7.166,0.001,9.899
				l25.995,25.995c1.366,1.367,3.158,2.05,4.949,2.05s3.583-0.683,4.95-2.05C401.927,277.109,401.927,272.677,399.193,269.943z"/>
		</g>
	</g>
	<g>
		<g>
			
				<rect x="179.103" y="358.003" transform="matrix(0.9661 -0.258 0.258 0.9661 -89.9454 60.6517)" class="st7" width="13.999" height="30.006"/>
		</g>
	</g>
</g>
</svg>
