<?xml version="1.0" encoding="utf-8"?>
<!-- Generator: Adobe Illustrator 21.1.0, SVG Export Plug-In . SVG Version: 6.00 Build 0)  -->
<svg version="1.1" id="Layer_1" xmlns="http://www.w3.org/2000/svg" xmlns:xlink="http://www.w3.org/1999/xlink" x="0px" y="0px"
	 viewBox="0 0 512 512" style="enable-background:new 0 0 512 512;" xml:space="preserve">
<style type="text/css">
	.st0{fill:#D6CD1E;}
	.st1{fill:#E56823;}
	.st2{fill:#FE8E46;}
	.st3{fill:#FEFE71;}
	.st4{fill:#463218;}
	.st5{fill:#7DAC51;}
	.st6{fill:#5B7C31;}
	.st7{fill:#FFFFFF;}
</style>
<g>
	<g>
		<path class="st5" d="M188.268,276.374c0-4.825,0.558-9.518,1.582-14.033h-85.685v28.067h85.685
			C188.827,285.892,188.268,281.2,188.268,276.374z"/>
	</g>
	<g>
		<path class="st2" d="M251.511,339.618c-34.928,0-63.243-28.315-63.243-63.243s28.315-63.243,63.243-63.243h94.846v126.486H251.511
			z"/>
	</g>
	<g>
		<g>
			<path class="st4" d="M189.85,297.408h-85.685c-3.866,0-7-3.134-7-7v-28.067c0-3.866,3.134-7,7-7h85.685
				c2.128,0,4.141,0.968,5.47,2.631c1.328,1.663,1.828,3.84,1.357,5.916c-0.935,4.125-1.409,8.326-1.409,12.486
				c0,4.16,0.474,8.361,1.409,12.486c0.471,2.076-0.029,4.253-1.357,5.916C193.991,296.439,191.979,297.408,189.85,297.408z
				 M111.165,283.408h70.46c-0.238-2.344-0.357-4.693-0.357-7.033s0.12-4.689,0.357-7.033h-70.46V283.408z"/>
		</g>
	</g>
	<g>
		<path class="st4" d="M346.356,346.618h-94.845c-38.732,0-70.243-31.511-70.243-70.243s31.511-70.243,70.243-70.243h94.845
			c3.866,0,7,3.134,7,7v126.486C353.356,343.484,350.223,346.618,346.356,346.618z M251.511,220.131
			c-31.013,0-56.243,25.23-56.243,56.243s25.23,56.243,56.243,56.243h87.845V220.131H251.511z"/>
	</g>
	<g>
		<path class="st2" d="M346.357,213.131h-94.846c-34.928,0-63.243,28.315-63.243,63.243c0,98.707,94.845,117.567,94.845,117.567
			V276.374L346.357,213.131z"/>
	</g>
	<g>
		<path class="st1" d="M229.348,276.374c0-34.928,28.315-63.243,63.243-63.243h-41.08c-34.928,0-63.243,28.315-63.243,63.243
			c0,98.707,94.845,117.567,94.845,117.567v-17.488C257.489,360.212,229.348,330.141,229.348,276.374z"/>
	</g>
	<g>
		<path class="st4" d="M283.114,400.941c-0.455,0-0.912-0.044-1.365-0.135c-1.029-0.205-25.484-5.215-50.145-22.951
			c-22.963-16.515-50.336-47.527-50.336-101.481c0-38.732,31.511-70.243,70.243-70.243h94.845c2.831,0,5.384,1.706,6.467,4.321
			c1.084,2.616,0.485,5.626-1.517,7.628l-61.192,61.193v114.667c0,2.096-0.939,4.081-2.56,5.411
			C286.293,400.388,284.72,400.941,283.114,400.941z M251.511,220.131c-31.013,0-56.243,25.23-56.243,56.243
			c0,38.366,14.836,68.585,44.098,89.817c13.964,10.133,28.109,15.76,36.749,18.555V276.375c0-1.856,0.737-3.637,2.05-4.95
			l51.293-51.293H251.511z"/>
	</g>
	<g>
		<circle class="st3" cx="346.357" cy="276.374" r="63.243"/>
	</g>
	<g>
		<circle class="st0" cx="346.357" cy="276.374" r="28.067"/>
	</g>
	<g>
		<path class="st4" d="M346.356,311.441c-19.336,0-35.066-15.731-35.066-35.067c0-19.336,15.73-35.067,35.066-35.067
			s35.067,15.731,35.067,35.067C381.424,295.71,365.692,311.441,346.356,311.441z M346.356,255.308
			c-11.616,0-21.066,9.45-21.066,21.067c0,11.616,9.45,21.067,21.066,21.067s21.067-9.45,21.067-21.067
			C367.424,264.758,357.973,255.308,346.356,255.308z"/>
	</g>
	<g>
		<path class="st4" d="M346.356,346.618c-38.731,0-70.242-31.511-70.242-70.243s31.511-70.243,70.242-70.243
			c38.732,0,70.243,31.511,70.243,70.243S385.089,346.618,346.356,346.618z M346.356,220.131c-31.012,0-56.242,25.23-56.242,56.243
			s25.23,56.243,56.242,56.243c31.013,0,56.243-25.23,56.243-56.243S377.369,220.131,346.356,220.131z"/>
	</g>
	<g>
		<path class="st4" d="M374.424,283.375h-28.067c-3.866,0-7-3.134-7-7s3.134-7,7-7h28.067c3.866,0,7,3.134,7,7
			S378.29,283.375,374.424,283.375z"/>
	</g>
	<g>
		<rect x="249" y="281.836" class="st7" width="14" height="28.2"/>
	</g>
</g>
</svg>
