<?xml version="1.0" encoding="utf-8"?>
<!-- Generator: Adobe Illustrator 21.1.0, SVG Export Plug-In . SVG Version: 6.00 Build 0)  -->
<svg version="1.1" id="Layer_1" xmlns="http://www.w3.org/2000/svg" xmlns:xlink="http://www.w3.org/1999/xlink" x="0px" y="0px"
	 viewBox="0 0 512 512" style="enable-background:new 0 0 512 512;" xml:space="preserve">
<style type="text/css">
	.st0{fill:#D6CD1E;}
	.st1{fill:#E56823;}
	.st2{fill:#FE8E46;}
	.st3{fill:#FEFE71;}
	.st4{fill:#463218;}
	.st5{fill:#7DAC51;}
	.st6{fill:#5B7C31;}
	.st7{fill:#FFFFFF;}
</style>
<g>
	<g>
		<g>
			<polygon class="st2" points="360.326,255.383 307.379,256.973 305.79,309.919 375.814,379.943 430.35,325.407 			"/>
		</g>
	</g>
	<g>
		<g>
			<polygon class="st1" points="307.379,256.973 305.79,309.919 375.814,379.943 405.298,350.459 			"/>
		</g>
	</g>
	<g>
		<g>
			<g>
				<g>
					<path class="st4" d="M435.3,320.457l-70.024-70.024c-1.364-1.364-3.24-2.094-5.16-2.047l-52.946,1.59
						c-3.701,0.111-6.676,3.086-6.787,6.787l-1.589,52.946c-0.058,1.929,0.683,3.795,2.047,5.16l70.024,70.024
						c1.312,1.312,3.093,2.05,4.95,2.05s3.637-0.737,4.95-2.05l54.536-54.536C438.034,327.623,438.034,323.191,435.3,320.457z
						 M375.814,370.044l-62.937-62.937l1.301-43.336l43.335-1.301l62.937,62.937L375.814,370.044z"/>
				</g>
			</g>
		</g>
	</g>
	<g>
		<g>
			<path class="st4" d="M312.329,252.022l-30.297-30.297c-2.733-2.732-7.166-2.732-9.899,0c-2.734,2.734-2.734,7.166,0,9.9
				l30.297,30.297c1.367,1.366,3.158,2.05,4.95,2.05s3.583-0.684,4.95-2.05C315.063,259.188,315.063,254.757,312.329,252.022z"/>
		</g>
	</g>
	<g>
		<g>
			<path class="st5" d="M186.48,103.421c-14.272,26.999-22.718,60.426-22.718,96.625c0,36.198,8.446,69.625,22.718,96.624
				c14.272-26.999,22.718-60.426,22.718-96.624C209.198,163.848,200.752,130.42,186.48,103.421z"/>
		</g>
	</g>
	<g>
		<g>
			<path class="st6" d="M186.48,103.421c-14.272,26.999-22.718,60.426-22.718,96.625c0,36.198,8.446,69.625,22.718,96.624
				C187.494,294.751,186.48,103.421,186.48,103.421z"/>
		</g>
	</g>
	<g>
		<g>
			<path class="st5" d="M146.389,231.931c-19.636-19.636-42.351-33.188-64.739-40.091c6.904,22.388,20.455,45.103,40.091,64.739
				c19.636,19.636,42.351,33.188,64.739,40.091C179.576,274.282,166.025,251.567,146.389,231.931z"/>
		</g>
	</g>
	<g>
		<g>
			<path class="st6" d="M186.29,296.088L81.65,191.84c6.904,22.388,20.455,45.103,40.091,64.739
				c19.636,19.636,42.351,33.188,64.739,40.091C186.42,296.476,186.351,296.282,186.29,296.088z"/>
		</g>
	</g>
	<g>
		<g>
			<g>
				<g>
					<path class="st4" d="M192.668,100.15c-1.212-2.294-3.594-3.729-6.188-3.729s-4.976,1.435-6.188,3.729
						c-15.394,29.119-23.53,63.663-23.53,99.896s8.136,70.776,23.53,99.896c1.212,2.294,3.594,3.729,6.188,3.729
						s4.976-1.435,6.188-3.729c15.394-29.119,23.53-63.663,23.53-99.896S208.062,129.27,192.668,100.15z M186.48,280.398
						c-10.314-24.184-15.718-51.669-15.718-80.353s5.404-56.169,15.718-80.353c10.314,24.184,15.718,51.669,15.718,80.353
						S196.794,256.215,186.48,280.398z"/>
				</g>
			</g>
		</g>
	</g>
	<g>
		<g>
			<g>
				<g>
					<path class="st4" d="M193.169,294.607c-7.524-24.4-21.989-47.784-41.831-67.625c-19.84-19.842-43.225-34.307-67.625-41.832
						c-2.479-0.763-5.178-0.095-7.013,1.739c-1.834,1.835-2.504,4.533-1.74,7.013c7.524,24.4,21.988,47.785,41.831,67.627
						c19.843,19.842,43.228,34.307,67.626,41.83c0.678,0.209,1.373,0.311,2.062,0.311c1.829,0,3.618-0.718,4.95-2.051
						C193.264,299.785,193.933,297.086,193.169,294.607z M126.691,251.629c-14.39-14.39-25.682-30.741-33.173-47.921
						c17.181,7.491,33.533,18.784,47.921,33.174c14.39,14.389,25.682,30.74,33.173,47.921
						C157.434,277.312,141.08,266.019,126.691,251.629z"/>
				</g>
			</g>
		</g>
	</g>
	<g>
		<g>
			<path class="st5" d="M228.604,231.931c-19.636,19.636-33.187,42.351-40.091,64.739c22.388-6.903,45.103-20.455,64.739-40.091
				c19.636-19.636,33.187-42.351,40.091-64.739C270.954,198.744,248.24,212.295,228.604,231.931z"/>
		</g>
	</g>
	<g>
		<g>
			<path class="st6" d="M188.703,296.088c-0.061,0.194-0.13,0.388-0.19,0.582c22.388-6.903,45.103-20.455,64.739-40.091
				c19.636-19.636,33.187-42.351,40.091-64.739L188.703,296.088z"/>
		</g>
	</g>
	<g>
		<g>
			<g>
				<g>
					<path class="st4" d="M298.292,186.89c-1.834-1.834-4.534-2.503-7.013-1.739c-24.4,7.525-47.785,21.99-67.625,41.831
						c-19.842,19.842-34.307,43.227-41.83,67.626c-0.765,2.479-0.095,5.178,1.739,7.013c1.333,1.332,3.121,2.05,4.951,2.05
						c0.688,0,1.383-0.102,2.062-0.311c24.398-7.523,47.783-21.988,67.626-41.83c19.842-19.842,34.306-43.227,41.83-67.627
						C300.796,191.423,300.127,188.725,298.292,186.89z M248.302,251.629c-14.391,14.391-30.742,25.683-47.922,33.174
						c7.491-17.181,18.783-33.531,33.173-47.922c14.39-14.39,30.741-25.682,47.921-33.173
						C273.984,220.888,262.692,237.239,248.302,251.629z"/>
				</g>
			</g>
		</g>
	</g>
	<g>
		<g>
			<polygon class="st2" points="117.135,292.341 142.552,408.578 234.474,408.578 259.891,292.341 			"/>
		</g>
	</g>
	<g>
		<g>
			<polygon class="st1" points="159.078,292.341 117.135,292.341 142.552,408.578 184.496,408.578 			"/>
		</g>
	</g>
	<g>
		<g>
			<g>
				<g>
					<path class="st4" d="M265.344,287.951c-1.329-1.65-3.333-2.61-5.453-2.61H117.135c-2.119,0-4.124,0.96-5.453,2.61
						c-1.329,1.651-1.838,3.814-1.386,5.885l25.417,116.237c0.703,3.214,3.549,5.505,6.838,5.505h91.921
						c3.29,0,6.136-2.291,6.838-5.505l25.417-116.237C267.182,291.766,266.673,289.603,265.344,287.951z M228.839,401.578h-80.652
						l-22.356-102.237h125.364L228.839,401.578z"/>
				</g>
			</g>
		</g>
	</g>
	<g>
		<g>
			<rect x="102.45" y="292.341" class="st3" width="172.126" height="30.616"/>
		</g>
	</g>
	<g>
		<g>
			<rect x="102.45" y="292.341" class="st0" width="60.159" height="30.616"/>
		</g>
	</g>
	<g>
		<g>
			<g>
				<g>
					<path class="st4" d="M274.576,285.341H102.45c-3.866,0-7,3.134-7,7v30.616c0,3.866,3.134,7,7,7h172.126c3.866,0,7-3.134,7-7
						v-30.616C281.576,288.475,278.442,285.341,274.576,285.341z M267.576,315.957H109.45v-16.616h158.126V315.957z"/>
				</g>
			</g>
		</g>
	</g>
	<g>
		<g>
			
				<rect x="204.337" y="352.708" transform="matrix(0.2095 -0.9778 0.9778 0.2095 -179.2299 497.7092)" class="st7" width="27.761" height="14"/>
		</g>
	</g>
	<g>
		<g>
			<path class="st7" d="M380.199,300.327c-5.745-5.745-15.094-5.745-20.839,0l-6.585,6.585c-1.925,1.925-5.059,1.925-6.984,0
				c-1.925-1.925-1.925-5.059,0-6.984l13.541-13.541l-6.928-6.927L338.863,293c-5.745,5.746-5.745,15.094,0,20.839
				c5.746,5.746,15.094,5.746,20.84,0l6.585-6.585c1.925-1.925,5.059-1.925,6.984,0c1.926,1.925,1.926,5.059,0,6.984l-15.192,15.192
				l6.928,6.927l15.192-15.192C385.944,315.421,385.944,306.072,380.199,300.327z"/>
		</g>
	</g>
	<g>
		<g>
			
				<rect x="354.284" y="272.325" transform="matrix(0.7071 -0.7071 0.7071 0.7071 -111.6919 343.825)" class="st7" width="9.797" height="68.82"/>
		</g>
	</g>
</g>
</svg>
