<?xml version="1.0" encoding="utf-8"?>
<!-- Generator: Adobe Illustrator 22.0.0, SVG Export Plug-In . SVG Version: 6.00 Build 0)  -->
<svg version="1.1" id="Layer_1" xmlns="http://www.w3.org/2000/svg" xmlns:xlink="http://www.w3.org/1999/xlink" x="0px" y="0px"
	 viewBox="0 0 512 512" style="enable-background:new 0 0 512 512;" xml:space="preserve">
<style type="text/css">
	.st0{fill:#D6CD1E;}
	.st1{fill:#E56823;}
	.st2{fill:#FE8E46;}
	.st3{fill:#FEFE71;}
	.st4{fill:#463218;}
	.st5{fill:#7DAC51;}
	.st6{fill:#5B7C31;}
	.st7{fill:#FFFFFF;}
</style>
<g>
	<g>
		<circle class="st3" cx="178.94" cy="144.643" r="30.901"/>
	</g>
	<g>
		<circle class="st3" cx="245.4" cy="116.113" r="20.505"/>
	</g>
	<g>
		<circle class="st3" cx="283.75" cy="113.634" r="16.515"/>
	</g>
	<g>
		<circle class="st3" cx="319.69" cy="122.814" r="14.666"/>
	</g>
	<g>
		<circle class="st3" cx="350.248" cy="136.902" r="12.963"/>
	</g>
	<g>
		<path class="st2" d="M363.212,232.82c0-44.553-36.117-80.671-80.67-80.671s-80.67,36.117-80.67,80.671
			c0,19.714,7.081,37.768,18.826,51.781l-0.004,0.006c35.943,40.659,36.017,68.864,36.017,68.864h0.002
			c-0.049,0.941-0.077,1.887-0.077,2.841c0,29.431,23.858,53.289,53.288,53.289c26.959,0,53.288-19.997,53.288-45.958l0,0V238.665
			h-0.234C363.117,236.732,363.212,234.788,363.212,232.82z"/>
	</g>
	<g>
		<path class="st1" d="M337.38,386.464c-29.43,0-53.288-23.858-53.288-53.289c0-0.953,0.027-1.899,0.077-2.84h-0.002
			c0,0-0.074-28.206-36.017-68.864l0.004-0.006c-11.745-14.013-18.826-32.067-18.826-51.781c0-18.237,6.058-35.055,16.262-48.566
			c-25.959,13.406-43.718,40.472-43.718,71.702c0,19.713,7.081,37.767,18.826,51.781l-0.004,0.006
			c35.943,40.659,36.017,68.864,36.017,68.864h0.002c-0.049,0.941-0.077,1.887-0.077,2.841c0,29.43,23.858,53.288,53.288,53.288
			c19.651,0,36.8-10.645,46.035-26.476C350.173,385.278,343.916,386.464,337.38,386.464z"/>
	</g>
	<g>
		<path class="st1" d="M363.212,288.507v-5.845c0,1.968-0.095,3.912-0.234,5.845H363.212z"/>
	</g>
	<g>
		<path class="st4" d="M178.94,182.544c-20.899,0-37.901-17.003-37.901-37.902s17.002-37.901,37.901-37.901
			s37.901,17.002,37.901,37.901S199.839,182.544,178.94,182.544z M178.94,120.741c-13.179,0-23.901,10.722-23.901,23.901
			c0,13.18,10.722,23.902,23.901,23.902s23.901-10.722,23.901-23.902C202.841,131.463,192.119,120.741,178.94,120.741z"/>
	</g>
	<g>
		<path class="st4" d="M245.348,143.621c-6.24,0-12.25-2.106-17.183-6.073c-5.726-4.604-9.316-11.162-10.109-18.466
			c-0.793-7.304,1.305-14.479,5.909-20.205c4.604-5.725,11.162-9.315,18.465-10.108c7.305-0.794,14.48,1.305,20.205,5.909
			c5.726,4.604,9.315,11.162,10.108,18.465l0,0c1.638,15.078-9.297,28.677-24.374,30.314
			C247.359,143.566,246.35,143.621,245.348,143.621z M245.426,102.606c-0.493,0-0.987,0.027-1.484,0.081
			c-3.586,0.39-6.807,2.152-9.067,4.963s-3.291,6.334-2.901,9.92c0.39,3.586,2.152,6.807,4.963,9.067
			c2.812,2.261,6.337,3.291,9.921,2.901c7.403-0.804,12.771-7.481,11.968-14.884l0,0c-0.39-3.586-2.152-6.806-4.963-9.066
			C251.441,103.641,248.49,102.606,245.426,102.606z"/>
	</g>
	<g>
		<path class="st4" d="M283.734,137.15c-12.148,0-22.473-9.384-23.429-21.696c-0.485-6.262,1.496-12.339,5.58-17.111
			c4.085-4.771,9.783-7.667,16.045-8.153c6.263-0.489,12.338,1.496,17.11,5.58c4.771,4.084,7.668,9.782,8.154,16.044
			c0.485,6.262-1.496,12.339-5.58,17.111c-4.085,4.771-9.783,7.667-16.045,8.153C284.955,137.126,284.342,137.15,283.734,137.15z
			 M283.767,104.119c-0.25,0-0.501,0.01-0.752,0.029c-2.534,0.197-4.84,1.369-6.493,3.299c-1.652,1.931-2.454,4.389-2.258,6.923
			c0.407,5.23,4.977,9.157,10.224,8.75c2.533-0.197,4.839-1.369,6.492-3.299c1.652-1.931,2.454-4.389,2.258-6.923l0,0
			c-0.197-2.534-1.369-4.84-3.3-6.493C288.198,104.917,286.03,104.119,283.767,104.119z"/>
	</g>
	<g>
		<path class="st4" d="M319.675,144.481c-11.192,0-20.705-8.647-21.585-19.99c-0.448-5.77,1.377-11.369,5.141-15.766
			c3.763-4.397,9.014-7.065,14.783-7.513c11.911-0.925,22.354,8.014,23.277,19.924c0.925,11.911-8.013,22.353-19.924,23.278
			C320.799,144.459,320.234,144.481,319.675,144.481z M319.695,115.147c-0.198,0-0.397,0.008-0.599,0.023
			c-2.041,0.159-3.898,1.103-5.23,2.658c-1.331,1.556-1.978,3.537-1.818,5.578c0.158,2.042,1.102,3.899,2.657,5.231
			c1.556,1.331,3.541,1.974,5.578,1.819c4.215-0.327,7.378-4.022,7.05-8.236C327.021,118.208,323.655,115.147,319.695,115.147z"/>
	</g>
	<g>
		<path class="st4" d="M350.233,156.866c-10.312,0-19.077-7.967-19.889-18.418c-0.852-10.976,7.384-20.597,18.358-21.449
			c10.989-0.847,20.596,7.384,21.448,18.358c0,0,0.001,0.001,0.001,0.001c0.412,5.316-1.271,10.475-4.738,14.526
			c-3.468,4.051-8.306,6.509-13.622,6.921C351.27,156.846,350.749,156.866,350.233,156.866z M350.253,130.938
			c-0.154,0-0.31,0.006-0.466,0.018c-3.278,0.254-5.739,3.129-5.484,6.407c0.254,3.277,3.124,5.735,6.406,5.483
			c1.589-0.123,3.033-0.857,4.069-2.068c1.036-1.21,1.539-2.751,1.415-4.339C355.951,133.318,353.333,130.938,350.253,130.938z"/>
	</g>
	<g>
		<polygon class="st3" points="309.998,284.091 255.716,284.091 255.716,200.443 282.857,179.992 309.998,200.443 		"/>
	</g>
	<g>
		<polygon class="st0" points="274.909,262.372 274.909,185.98 255.716,200.443 255.716,284.091 309.998,284.091 309.998,262.372 		
			"/>
	</g>
	<g>
		<path class="st4" d="M309.998,291.091h-54.282c-3.866,0-7-3.134-7-7v-83.648c0-2.198,1.032-4.268,2.788-5.59l27.14-20.451
			c2.494-1.88,5.932-1.879,8.426,0l27.142,20.451c1.755,1.323,2.787,3.393,2.787,5.591v83.648
			C316.998,287.958,313.864,291.091,309.998,291.091z M262.716,277.091h40.282v-73.158l-20.142-15.176l-20.141,15.176V277.091z"/>
	</g>
	<g>
		<path class="st4" d="M282.856,186.992c-3.866,0-7-3.134-7-7v-27.843c0-3.866,3.134-7,7-7s7,3.134,7,7v27.843
			C289.856,183.858,286.723,186.992,282.856,186.992z"/>
	</g>
	<g>
		<path class="st7" d="M309.998,390.021v-14c11.895,0,21.572-9.677,21.572-21.572h14
			C345.57,374.063,329.612,390.021,309.998,390.021z"/>
	</g>
	<g>
		<path class="st4" d="M309.924,416.6c-33.243,0-60.288-27.045-60.288-60.289c0-0.947,0.024-1.922,0.071-2.903
			c-0.037-0.782-0.447-7.2-4.436-17.605c-3.961-10.332-12.35-26.795-29.823-46.561c-0.115-0.13-0.224-0.263-0.328-0.399
			c-13.06-15.703-20.249-35.585-20.249-56.023c0-48.342,39.329-87.67,87.671-87.67s87.67,39.329,87.67,87.67
			c0,1.416-0.043,2.872-0.132,4.484c0.086,0.44,0.132,0.896,0.132,1.361v124.977c0,14.386-6.772,27.918-19.069,38.105
			C339.748,411.187,324.725,416.6,309.924,416.6z M263.703,353.114c0.013,0.241,0.013,0.483-0.001,0.727
			c-0.044,0.838-0.066,1.669-0.066,2.47c0,25.523,20.765,46.289,46.288,46.289c21.894,0,46.288-16,46.288-38.958V240.458
			c-0.196-0.74-0.271-1.514-0.216-2.293c0.147-2.048,0.216-3.747,0.216-5.344c0-40.622-33.048-73.67-73.67-73.67
			s-73.671,33.048-73.671,73.67c0,17.266,6.105,34.058,17.19,47.284c0.03,0.035,0.059,0.071,0.087,0.106
			C261.549,320.361,263.589,349.497,263.703,353.114z"/>
	</g>
</g>
</svg>
