<?xml version="1.0" encoding="utf-8"?>
<!-- Generator: Adobe Illustrator 21.1.0, SVG Export Plug-In . SVG Version: 6.00 Build 0)  -->
<svg version="1.1" id="Layer_1" xmlns="http://www.w3.org/2000/svg" xmlns:xlink="http://www.w3.org/1999/xlink" x="0px" y="0px"
	 viewBox="0 0 512 512" style="enable-background:new 0 0 512 512;" xml:space="preserve">
<style type="text/css">
	.st0{fill:#D6CD1E;}
	.st1{fill:#E56823;}
	.st2{fill:#FE8E46;}
	.st3{fill:#FEFE71;}
	.st4{fill:#463218;}
	.st5{fill:#7DAC51;}
	.st6{fill:#5B7C31;}
	.st7{fill:#FFFFFF;}
</style>
<g>
	<g>
		<g>
			<path class="st4" d="M368.101,237.245c-3.866,0-7,3.134-7,7v63.16c0,31.275-25.444,56.72-56.72,56.72h-54.77
				c-3.866,0-7,3.134-7,7s3.134,7,7,7h54.77c38.995,0,70.72-31.725,70.72-70.72v-63.16
				C375.101,240.379,371.967,237.245,368.101,237.245z"/>
		</g>
	</g>
	<g>
		<g>
			<circle class="st3" cx="368.101" cy="156.144" r="49.202"/>
		</g>
	</g>
	<g>
		<g>
			<g>
				<g>
					<path class="st4" d="M368.101,99.942c-30.99,0-56.202,25.212-56.202,56.202s25.212,56.202,56.202,56.202
						s56.203-25.212,56.203-56.202S399.091,99.942,368.101,99.942z M368.101,198.347c-23.271,0-42.202-18.932-42.202-42.202
						s18.932-42.202,42.202-42.202s42.203,18.932,42.203,42.202S391.372,198.347,368.101,198.347z"/>
				</g>
			</g>
		</g>
	</g>
	<g>
		<g>
			<path class="st6" d="M396.184,170.958c-4.132-2.184-9.033-3.339-14.173-3.339c-0.828,0-1.649,0.033-2.463,0.093
				c2.272-1.563,4.442-3.37,6.469-5.396c5.086-5.086,8.792-11.075,10.718-17.319c0.123-0.4,0.015-0.834-0.28-1.13
				c-0.296-0.296-0.73-0.404-1.13-0.28c-6.244,1.926-12.233,5.632-17.319,10.717c-1.639,1.639-3.134,3.373-4.473,5.178
				c0.89-4.066,1.347-8.326,1.347-12.681c0-9.32-2.09-18.201-6.045-25.682c-0.195-0.37-0.579-0.601-0.997-0.601
				s-0.802,0.231-0.997,0.601c-3.955,7.481-6.045,16.362-6.045,25.682c0,4.016,0.389,7.95,1.147,11.726
				c-1.147-1.463-2.396-2.875-3.744-4.222c-5.086-5.086-11.075-8.792-17.319-10.717c-0.399-0.123-0.834-0.015-1.13,0.28
				c-0.296,0.296-0.403,0.73-0.28,1.13c1.926,6.244,5.632,12.233,10.718,17.319v0c2.026,2.026,4.196,3.833,6.469,5.396
				c-0.813-0.059-1.635-0.093-2.463-0.093c-5.14,0-10.041,1.155-14.173,3.339c-0.37,0.195-0.601,0.579-0.601,0.997
				s0.231,0.802,0.601,0.997c4.132,2.184,9.033,3.339,14.173,3.339c1.42,0,2.821-0.091,4.193-0.265
				c-2.555,2.381-4.477,5.214-5.562,8.213c-0.142,0.393-0.056,0.833,0.225,1.142c0.217,0.239,0.521,0.37,0.835,0.37
				c0.093,0,0.187-0.012,0.28-0.035c3.182-0.815,6.274-2.528,8.944-4.951c1.393-1.265,2.603-2.664,3.601-4.151v8.01
				c0,0.623,0.505,1.128,1.128,1.128s1.128-0.505,1.128-1.128v-8.836c1.089,1.796,2.482,3.481,4.131,4.978
				c2.67,2.424,5.763,4.136,8.944,4.951c0.093,0.024,0.187,0.035,0.28,0.035c0.314,0,0.618-0.131,0.835-0.37
				c0.281-0.31,0.368-0.749,0.226-1.142c-1.086-2.999-3.008-5.832-5.562-8.213c1.372,0.174,2.773,0.265,4.193,0.265
				c5.14,0,10.04-1.155,14.173-3.339c0.37-0.195,0.601-0.579,0.601-0.997C396.785,171.537,396.553,171.153,396.184,170.958z"/>
		</g>
	</g>
	<g>
		<g>
			<path class="st4" d="M373.05,239.295c-2.732-2.734-7.165-2.734-9.899,0l-25.994,25.995c-2.733,2.734-2.733,7.166,0.001,9.899
				c1.366,1.367,3.158,2.05,4.949,2.05s3.583-0.683,4.95-2.05l25.994-25.995C375.785,246.461,375.785,242.029,373.05,239.295z"/>
		</g>
	</g>
	<g>
		<g>
			<path class="st4" d="M399.045,265.29l-25.995-25.995c-2.732-2.734-7.165-2.734-9.899,0c-2.733,2.734-2.733,7.166,0.001,9.899
				l25.995,25.995c1.366,1.367,3.158,2.05,4.949,2.05s3.583-0.683,4.95-2.05C401.78,272.456,401.78,268.023,399.045,265.29z"/>
		</g>
	</g>
	<g>
		<g>
			<path class="st4" d="M127.229,234.551h-17.254c-3.866,0-7,3.134-7,7s3.134,7,7,7h17.254c10.241,0,18.573,8.332,18.573,18.573
				c0,3.866,3.134,7,7,7s7-3.134,7-7C159.802,249.163,145.19,234.551,127.229,234.551z"/>
		</g>
	</g>
	<g>
		<g>
			<path class="st4" d="M111.95,289.014H94.696c-3.866,0-7,3.134-7,7s3.134,7,7,7h17.254c10.241,0,18.572,8.332,18.572,18.573
				c0,3.866,3.134,7,7,7s7-3.134,7-7C144.522,303.626,129.91,289.014,111.95,289.014z"/>
		</g>
	</g>
	<g>
		<g>
			<path class="st4" d="M287.537,234.551h-17.254c-17.96,0-32.572,14.612-32.572,32.573c0,3.866,3.134,7,7,7s7-3.134,7-7
				c0-10.241,8.331-18.573,18.572-18.573h17.254c3.866,0,7-3.134,7-7S291.403,234.551,287.537,234.551z"/>
		</g>
	</g>
	<g>
		<g>
			<path class="st4" d="M302.816,289.014h-17.254c-17.96,0-32.572,14.612-32.572,32.573c0,3.866,3.134,7,7,7s7-3.134,7-7
				c0-10.241,8.331-18.573,18.572-18.573h17.254c3.866,0,7-3.134,7-7S306.682,289.014,302.816,289.014z"/>
		</g>
	</g>
	<g>
		<g>
			<path class="st1" d="M212.806,215.73c-27.834-11.402-59.641,1.919-71.043,29.754c-11.402,27.834-51.122,124.801-0.724,145.445
				c50.398,20.645,90.119-76.322,101.521-104.156C253.961,258.939,240.64,227.131,212.806,215.73z"/>
		</g>
	</g>
	<g>
		<g>
			<path class="st1" d="M255.75,245.483c-11.402-27.834-43.209-41.155-71.043-29.754c-27.834,11.402-41.155,43.209-29.754,71.043
				c11.402,27.834,51.122,124.801,101.521,104.156C306.872,370.284,267.151,273.318,255.75,245.483z"/>
		</g>
	</g>
	<g>
		<g>
			<g>
				<g>
					<path class="st4" d="M248.853,242.385c-6.343-15.143-18.202-26.91-33.395-33.133c-31.361-12.848-67.326,2.216-80.175,33.58
						c-5.619,13.719-18.779,45.845-23.963,76.92c-2.996,17.954-2.934,33.227,0.186,45.394c4.037,15.754,13.081,26.608,26.879,32.26
						c5.543,2.271,11.128,3.405,16.73,3.405c8.343,0,16.724-2.515,25.057-7.537c10.758-6.483,21.518-17.323,31.979-32.22
						c18.108-25.785,31.267-57.91,36.886-71.627C255.26,274.234,255.195,257.528,248.853,242.385z M236.082,284.119L236.082,284.119
						c-5.441,13.283-18.183,44.389-35.388,68.888c-15.751,22.43-31.09,33.718-45.753,33.716c-3.796,0-7.549-0.757-11.249-2.273
						c-17.994-7.371-24.239-28.364-18.562-62.395c4.926-29.526,17.668-60.634,23.11-73.92c7.517-18.35,25.279-29.472,43.981-29.472
						c5.981,0,12.062,1.139,17.931,3.543c11.732,4.806,20.891,13.892,25.788,25.586S240.887,272.387,236.082,284.119z"/>
				</g>
			</g>
		</g>
	</g>
	<g>
		<g>
			<g>
				<g>
					<path class="st4" d="M286.191,319.753c-5.184-31.075-18.344-63.202-23.964-76.923c-6.223-15.192-17.989-27.052-33.133-33.394
						c-15.144-6.343-31.851-6.407-47.041-0.184c-31.361,12.846-46.425,48.812-33.578,80.174
						c5.619,13.718,18.777,45.843,36.886,71.627c10.461,14.897,21.221,25.737,31.979,32.22c8.334,5.022,16.713,7.538,25.057,7.537
						c5.602,0,11.188-1.134,16.73-3.405c13.798-5.652,22.842-16.506,26.879-32.26C289.125,352.98,289.187,337.707,286.191,319.753z
						 M253.82,384.451c-17.995,7.371-37.174-3.208-57.002-31.444c-17.205-24.499-29.946-55.605-35.388-68.888
						c-9.92-24.218,1.712-51.992,25.93-61.912c5.808-2.379,11.901-3.568,17.994-3.568c6.214,0,12.428,1.237,18.332,3.71
						c11.693,4.897,20.78,14.055,25.587,25.79c5.441,13.284,18.184,44.392,23.109,73.917
						C278.059,356.087,271.814,377.08,253.82,384.451z"/>
				</g>
			</g>
		</g>
	</g>
	<g>
		<g>
			<circle class="st2" cx="198.756" cy="187.088" r="54.463"/>
		</g>
	</g>
	<g>
		<g>
			<path class="st1" d="M222.697,221.83c-24.633,0-44.602-19.969-44.602-44.602c0-20.698,14.101-38.098,33.218-43.131
				c-4.033-0.952-8.234-1.471-12.557-1.471c-30.079,0-54.463,24.384-54.463,54.463c0,30.079,24.384,54.463,54.463,54.463
				c19.52,0,36.632-10.275,46.247-25.706C238.44,219.644,230.826,221.83,222.697,221.83z"/>
		</g>
	</g>
	<g>
		<g>
			<g>
				<g>
					<path class="st4" d="M198.756,125.625c-33.891,0-61.463,27.572-61.463,61.463s27.572,61.463,61.463,61.463
						s61.463-27.572,61.463-61.463S232.647,125.625,198.756,125.625z M198.756,234.551c-26.171,0-47.463-21.292-47.463-47.463
						s21.292-47.463,47.463-47.463s47.463,21.292,47.463,47.463S224.927,234.551,198.756,234.551z"/>
				</g>
			</g>
		</g>
	</g>
	<g>
		<g>
			<path class="st5" d="M198.756,215.73c-30.079,0-54.463,24.384-54.463,54.463c0,30.079,0,134.865,54.463,134.865
				c54.463,0,54.463-104.786,54.463-134.865C253.219,240.114,228.835,215.73,198.756,215.73z"/>
		</g>
	</g>
	<g>
		<g>
			<path class="st6" d="M181.374,249.624c0-12.677,4.343-24.332,11.606-33.586c-27.363,2.885-48.687,26.028-48.687,54.155
				c0,30.079,0,134.865,54.463,134.865c15.24,0,26.214-8.209,34.118-20.686C181.38,380.625,181.374,279.146,181.374,249.624z"/>
		</g>
	</g>
	<g>
		<g>
			<g>
				<g>
					<path class="st4" d="M198.756,208.73c-33.891,0-61.463,27.572-61.463,61.463c0,14.825,0,49.541,6.981,80.263
						c4.034,17.751,9.882,31.861,17.379,41.938c9.709,13.048,22.191,19.664,37.103,19.664s27.394-6.616,37.102-19.664
						c7.498-10.077,13.345-24.187,17.379-41.938c6.982-30.724,6.982-65.439,6.982-80.264
						C260.219,236.302,232.647,208.73,198.756,208.73z M239.585,347.354c-7.646,33.645-21.384,50.704-40.829,50.704
						c-19.446,0-33.183-17.059-40.829-50.704c-6.634-29.191-6.634-62.807-6.634-77.161c0-26.171,21.292-47.463,47.463-47.463
						s47.463,21.292,47.463,47.463C246.219,284.547,246.219,318.162,239.585,347.354z"/>
				</g>
			</g>
		</g>
	</g>
	<g>
		<g>
			<path class="st4" d="M246.638,99.942c-3.866,0-7,3.134-7,7c0,10.302-8.382,18.683-18.684,18.683h-22.198c-3.866,0-7,3.134-7,7
				s3.134,7,7,7h22.198c18.021,0,32.684-14.662,32.684-32.683C253.638,103.076,250.504,99.942,246.638,99.942z"/>
		</g>
	</g>
	<g>
		<g>
			<path class="st4" d="M198.756,125.625h-22.199c-10.302,0-18.684-8.381-18.684-18.683c0-3.866-3.134-7-7-7s-7,3.134-7,7
				c0,18.021,14.662,32.683,32.684,32.683h22.199c3.866,0,7-3.134,7-7S202.623,125.625,198.756,125.625z"/>
		</g>
	</g>
	<g>
		<g>
			<path class="st7" d="M219.417,288.427c-0.214,7.589-0.607,14.834-1.169,21.536l13.951,1.169
				c0.583-6.958,0.991-14.465,1.212-22.311L219.417,288.427z"/>
		</g>
	</g>
	<g>
		<g>
			<path class="st7" d="M198.756,235.323v14c11.507,0,20.869,9.362,20.869,20.87h14
				C233.625,250.965,217.983,235.323,198.756,235.323z"/>
		</g>
	</g>
</g>
</svg>
