<?xml version="1.0" encoding="utf-8"?>
<!-- Generator: Adobe Illustrator 21.1.0, SVG Export Plug-In . SVG Version: 6.00 Build 0)  -->
<svg version="1.1" id="Layer_1" xmlns="http://www.w3.org/2000/svg" xmlns:xlink="http://www.w3.org/1999/xlink" x="0px" y="0px"
	 viewBox="0 0 512 512" style="enable-background:new 0 0 512 512;" xml:space="preserve">
<style type="text/css">
	.st0{fill:#D6CD1E;}
	.st1{fill:#E56823;}
	.st2{fill:#FE8E46;}
	.st3{fill:#FEFE71;}
	.st4{fill:#463218;}
	.st5{fill:#7DAC51;}
	.st6{fill:#5B7C31;}
	.st7{fill:#FFFFFF;}
</style>
<g>
	<g>
		<g>
			<path class="st3" d="M279.162,98.2h-46.325c-36.986,0-66.969,29.983-66.969,66.968v93.846c0,49.778,40.353,90.131,90.131,90.131
				s90.131-40.353,90.131-90.131v-93.846C346.131,128.183,316.148,98.2,279.162,98.2z"/>
		</g>
	</g>
	<g>
		<g>
			<path class="st0" d="M190.73,259.014v-93.846c0-36.985,29.983-66.968,66.969-66.968h-24.861
				c-36.986,0-66.969,29.983-66.969,66.968v93.846c0,49.778,40.353,90.131,90.131,90.131c4.218,0,8.366-0.296,12.43-0.857
				C224.536,342.231,190.73,304.574,190.73,259.014z"/>
		</g>
	</g>
	<g>
		<g>
			<path class="st2" d="M213.503,336.042c-17.036,0-30.847,13.811-30.847,30.846v39.673h23.336
				c16.005,0,28.979-12.975,28.979-28.979v-41.54H213.503z"/>
		</g>
	</g>
	<g>
		<g>
			<path class="st0" d="M145.842,220.858c0,11.061,8.966,20.027,20.027,20.027v-40.054
				C154.809,200.832,145.842,209.798,145.842,220.858z"/>
		</g>
	</g>
	<g>
		<g>
			<path class="st0" d="M346.131,200.832v40.054c11.061,0,20.027-8.967,20.027-20.027S357.191,200.832,346.131,200.832z"/>
		</g>
	</g>
	<g>
		<g>
			<g>
				<g>
					<path class="st4" d="M279.162,91.2h-46.324c-40.786,0-73.969,33.182-73.969,73.968v93.847
						c0,53.559,43.572,97.131,97.131,97.131s97.131-43.572,97.131-97.131v-93.847C353.131,124.381,319.948,91.2,279.162,91.2z
						 M339.131,259.014c0,45.839-37.292,83.131-83.131,83.131s-83.131-37.292-83.131-83.131v-93.847
						c0-33.066,26.902-59.968,59.969-59.968h46.324c33.066,0,59.969,26.901,59.969,59.968V259.014z"/>
				</g>
			</g>
		</g>
	</g>
	<g>
		<g>
			<g>
				<g>
					<path class="st4" d="M165.869,193.832c-14.902,0-27.026,12.124-27.026,27.027c0,14.902,12.124,27.026,27.026,27.026
						c3.866,0,7-3.134,7-7v-40.054C172.869,196.965,169.735,193.832,165.869,193.832z M158.869,231.84
						c-3.621-2.316-6.026-6.373-6.026-10.981s2.405-8.666,6.026-10.982V231.84z"/>
				</g>
			</g>
		</g>
	</g>
	<g>
		<g>
			<g>
				<g>
					<path class="st4" d="M346.131,193.832c-3.866,0-7,3.134-7,7v40.054c0,3.866,3.134,7,7,7c14.902,0,27.026-12.124,27.026-27.026
						C373.157,205.956,361.033,193.832,346.131,193.832z M353.131,231.84v-21.964c3.621,2.316,6.026,6.374,6.026,10.982
						S356.752,229.524,353.131,231.84z"/>
				</g>
			</g>
		</g>
	</g>
	<g>
		<g>
			<path class="st4" d="M274.694,287.855c-1.523-3.554-5.638-5.199-9.192-3.673c-6.705,2.874-14.412,2.916-21.145,0.114
				l-0.345-0.144c-3.571-1.486-7.666,0.203-9.153,3.771c-1.486,3.569,0.202,7.667,3.771,9.153l0.346,0.145
				c5.033,2.095,10.425,3.142,15.815,3.142c5.54,0,11.081-1.106,16.23-3.315C274.574,295.524,276.219,291.408,274.694,287.855z"/>
		</g>
	</g>
	<g>
		<g>
			<path class="st2" d="M279.162,98.2h-46.325c-36.986,0-66.969,29.983-66.969,66.968v35.664c31.41,0,56.872-25.462,56.872-56.872
				c0,31.41,25.463,56.872,56.872,56.872h66.517v-35.664C346.131,128.183,316.148,98.2,279.162,98.2z"/>
		</g>
	</g>
	<g>
		<g>
			<path class="st7" d="M300.157,115.452l-5.461,12.891c8.948,3.791,16.214,10.701,20.459,19.457l12.598-6.107
				C322.028,129.885,312.229,120.566,300.157,115.452z"/>
		</g>
	</g>
	<g>
		<g>
			<path class="st1" d="M232.838,98.2c-36.986,0-66.969,29.983-66.969,66.968v35.664c8.916,0,17.35-2.056,24.861-5.713v-29.951
				c0-36.985,29.983-66.968,66.969-66.968H232.838z"/>
		</g>
	</g>
	<g>
		<g>
			<g>
				<g>
					<path class="st4" d="M279.162,91.2h-46.324c-40.786,0-73.969,33.183-73.969,73.969v35.663c0,3.866,3.134,7,7,7
						c24.762,0,46.277-14.165,56.872-34.815c10.595,20.65,32.11,34.815,56.872,34.815h66.518c3.866,0,7-3.134,7-7v-35.663
						C353.131,124.382,319.948,91.2,279.162,91.2z M339.131,193.832h-59.518c-27.5,0-49.872-22.372-49.872-49.872
						c0-3.866-3.134-7-7-7s-7,3.134-7,7c0,25.125-18.674,45.97-42.872,49.383v-28.174c0-33.066,26.902-59.969,59.969-59.969h46.324
						c33.066,0,59.969,26.902,59.969,59.969V193.832z"/>
				</g>
			</g>
		</g>
	</g>
	<g>
		<g>
			<path class="st4" d="M236.089,223.306c-2.734-2.732-7.166-2.732-9.9,0c-5.031,5.033-13.219,5.033-18.25,0
				c-2.734-2.732-7.166-2.732-9.9,0c-2.733,2.734-2.733,7.166,0,9.9c5.082,5.081,11.839,7.88,19.025,7.88s13.943-2.799,19.025-7.88
				C238.822,230.472,238.822,226.041,236.089,223.306z"/>
		</g>
	</g>
	<g>
		<g>
			<path class="st4" d="M313.962,223.306c-2.734-2.732-7.166-2.732-9.9,0c-5.031,5.033-13.219,5.033-18.25,0
				c-2.734-2.732-7.166-2.732-9.9,0c-2.733,2.734-2.733,7.166,0,9.9c5.082,5.081,11.839,7.88,19.025,7.88s13.943-2.799,19.025-7.88
				C316.695,230.472,316.695,226.041,313.962,223.306z"/>
		</g>
	</g>
	<g>
		<g>
			<g>
				<g>
					<path class="st4" d="M234.973,329.042h-21.469c-20.869,0-37.847,16.978-37.847,37.847v39.673c0,3.866,3.134,7,7,7h23.336
						c19.839,0,35.979-16.14,35.979-35.979v-41.541C241.973,332.175,238.839,329.042,234.973,329.042z M227.973,377.583
						c0,12.119-9.86,21.979-21.979,21.979h-16.336v-32.673c0-13.149,10.697-23.847,23.847-23.847h14.469V377.583z"/>
				</g>
			</g>
		</g>
	</g>
	<g>
		<g>
			<path class="st4" d="M234.973,350.88h-16.266c-3.866,0-7,3.134-7,7s3.134,7,7,7h16.266c3.866,0,7-3.134,7-7
				S238.839,350.88,234.973,350.88z"/>
		</g>
	</g>
	<g>
		<g>
			<path class="st4" d="M234.973,369.147h-16.266c-3.866,0-7,3.134-7,7s3.134,7,7,7h16.266c3.866,0,7-3.134,7-7
				S238.839,369.147,234.973,369.147z"/>
		</g>
	</g>
	<g>
		<g>
			<path class="st2" d="M297.59,336.042h-21.469v41.54c0,16.005,12.975,28.979,28.979,28.979h23.336v-39.673
				C328.437,349.853,314.626,336.042,297.59,336.042z"/>
		</g>
	</g>
	<g>
		<g>
			<g>
				<g>
					<path class="st4" d="M297.59,329.042h-21.469c-3.866,0-7,3.134-7,7v41.541c0,19.839,16.141,35.979,35.979,35.979h23.336
						c3.866,0,7-3.134,7-7v-39.673C335.437,346.019,318.459,329.042,297.59,329.042z M321.437,399.561h-16.336
						c-12.119,0-21.979-9.859-21.979-21.979v-34.541h14.469c13.149,0,23.847,10.697,23.847,23.847V399.561z"/>
				</g>
			</g>
		</g>
	</g>
	<g>
		<g>
			<path class="st4" d="M292.386,350.88h-16.265c-3.866,0-7,3.134-7,7s3.134,7,7,7h16.265c3.866,0,7-3.134,7-7
				S296.252,350.88,292.386,350.88z"/>
		</g>
	</g>
	<g>
		<g>
			<path class="st4" d="M292.386,369.147h-16.265c-3.866,0-7,3.134-7,7s3.134,7,7,7h16.265c3.866,0,7-3.134,7-7
				S296.252,369.147,292.386,369.147z"/>
		</g>
	</g>
	<g>
		<g>
			<rect x="235.878" y="321.364" class="st5" width="40.243" height="92.436"/>
		</g>
	</g>
	<g>
		<g>
			<rect x="235.878" y="321.364" class="st6" width="20.121" height="92.436"/>
		</g>
	</g>
	<g>
		<g>
			<g>
				<g>
					<path class="st4" d="M276.121,314.364h-40.243c-3.866,0-7,3.134-7,7V413.8c0,3.866,3.134,7,7,7h40.243c3.866,0,7-3.134,7-7
						v-92.437C283.121,317.498,279.987,314.364,276.121,314.364z M269.121,406.8h-26.243v-78.437h26.243V406.8z"/>
				</g>
			</g>
		</g>
	</g>
	<g>
		<g>
			<path class="st4" d="M256.002,286.35c-3.866,0-7,3.134-7,7v28.014c0,3.866,3.134,7,7,7s7-3.134,7-7V293.35
				C263.002,289.484,259.868,286.35,256.002,286.35z"/>
		</g>
	</g>
</g>
</svg>
