<?xml version="1.0" encoding="utf-8"?>
<!-- Generator: Adobe Illustrator 21.1.0, SVG Export Plug-In . SVG Version: 6.00 Build 0)  -->
<svg version="1.1" id="Layer_1" xmlns="http://www.w3.org/2000/svg" xmlns:xlink="http://www.w3.org/1999/xlink" x="0px" y="0px"
	 viewBox="0 0 512 512" style="enable-background:new 0 0 512 512;" xml:space="preserve">
<style type="text/css">
	.st0{fill:#D6CD1E;}
	.st1{fill:#E56823;}
	.st2{fill:#FE8E46;}
	.st3{fill:#FEFE71;}
	.st4{fill:#463218;}
	.st5{fill:#7DAC51;}
	.st6{fill:#5B7C31;}
	.st7{fill:#FFFFFF;}
</style>
<g>
	<g>
		<g>
			<rect x="234.728" y="116.178" class="st3" width="42.544" height="32.187"/>
		</g>
	</g>
	<g>
		<g>
			<rect x="234.728" y="116.178" class="st0" width="18.237" height="32.187"/>
		</g>
	</g>
	<g>
		<g>
			<path class="st2" d="M315.611,218.596l-18.008-19.985c-2.779-3.084-6.736-4.845-10.888-4.845h-8.721l9.221-27.805
				c2.873-8.663-3.577-17.597-12.704-17.597h-37.017c-9.127,0-15.577,8.934-12.704,17.597l9.221,27.805h-8.727
				c-4.152,0-8.109,1.761-10.888,4.845l-18.008,19.985c-11.807,13.102-18.341,30.112-18.341,47.75v106.558
				c0,12.657,10.261,22.919,22.918,22.919h110.066c12.657,0,22.918-10.262,22.918-22.919V266.346
				C333.951,248.708,327.417,231.697,315.611,218.596z"/>
		</g>
	</g>
	<g>
		<g>
			<path class="st2" d="M315.611,218.596l-18.008-19.985c-2.779-3.084-6.736-4.845-10.888-4.845h-8.721l9.221-27.805
				c2.873-8.663-3.577-17.597-12.704-17.597h-37.017c-9.127,0-15.577,8.934-12.704,17.597l9.221,27.805h-8.727
				c-4.152,0-8.109,1.761-10.888,4.845l-18.008,19.985c-11.807,13.102-18.341,30.112-18.341,47.75v106.558
				c0,12.657,10.261,22.919,22.918,22.919h110.066c12.657,0,22.918-10.262,22.918-22.919V266.346
				C333.951,248.708,327.417,231.697,315.611,218.596z"/>
		</g>
	</g>
	<g>
		<g>
			<path class="st1" d="M209.597,372.903v-96.994v-9.563c0-17.638,6.534-34.648,18.341-47.75l16.729-18.564h-31.549l-16.729,18.564
				c-11.807,13.102-18.341,30.112-18.341,47.75v9.563v96.994c0,12.657,10.261,22.919,22.918,22.919h31.549
				C219.858,395.822,209.597,385.561,209.597,372.903z"/>
		</g>
	</g>
	<g>
		<g>
			<g>
				<g>
					<path class="st4" d="M320.811,213.91l-18.008-19.984c-3.883-4.311-9.349-6.879-15.12-7.139l6.177-18.623
						c2.085-6.287,1.058-12.975-2.821-18.348c-3.878-5.371-9.902-8.453-16.527-8.453h-37.017c-6.625,0-12.649,3.082-16.528,8.453
						c-3.878,5.373-4.906,12.061-2.82,18.348l6.176,18.623c-5.773,0.258-11.242,2.826-15.126,7.139l-18.008,19.984
						c-12.987,14.412-20.14,33.033-20.14,52.436v106.557c0,16.498,13.421,29.92,29.918,29.92h110.066
						c16.497,0,29.919-13.422,29.919-29.92V266.346C340.952,246.943,333.8,228.322,320.811,213.91z M326.952,372.902
						c0,8.777-7.142,15.92-15.919,15.92H200.967c-8.777,0-15.918-7.143-15.918-15.92V266.346c0-15.934,5.874-31.229,16.541-43.064
						l18.008-19.984c1.45-1.607,3.523-2.531,5.688-2.531h8.728c2.248,0,4.36-1.08,5.676-2.902s1.676-4.166,0.968-6.301
						l-9.222-27.805c-0.653-1.969-0.331-4.064,0.883-5.746c1.215-1.684,3.102-2.648,5.177-2.648h37.017
						c2.075,0,3.962,0.965,5.177,2.648c1.215,1.682,1.536,3.777,0.883,5.746l-9.222,27.805c-0.707,2.135-0.347,4.479,0.969,6.301
						c1.316,1.822,3.428,2.902,5.676,2.902h8.721c2.166,0,4.238,0.922,5.688,2.531l18.009,19.984l0,0
						c10.667,11.836,16.541,27.131,16.541,43.064V372.902z"/>
				</g>
			</g>
		</g>
	</g>
	<g>
		<g>
			<path class="st5" d="M333.65,259.804H178.349c-0.199,2.167-0.301,4.35-0.301,6.542v69.131h155.903v-69.131
				C333.951,264.153,333.85,261.971,333.65,259.804z"/>
		</g>
	</g>
	<g>
		<g>
			<path class="st6" d="M209.536,259.804h-31.427c-0.041,2.167-0.061,4.35-0.061,6.542v9.563v59.567h31.549v-61.973v-7.158
				C209.597,264.153,209.576,261.971,209.536,259.804z"/>
		</g>
	</g>
	<g>
		<g>
			<g>
				<g>
					<path class="st4" d="M340.621,259.162c-0.331-3.602-3.354-6.357-6.971-6.357H178.349c-3.617,0-6.638,2.756-6.97,6.357
						c-0.22,2.381-0.331,4.797-0.331,7.184v69.131c0,3.867,3.134,7,7,7h155.904c3.866,0,7-3.133,7-7v-69.131
						C340.952,263.969,340.841,261.553,340.621,259.162z M326.952,328.477H185.048v-61.672h141.904V328.477z"/>
				</g>
			</g>
		</g>
	</g>
	<g>
		<g>
			<g>
				<g>
					<path class="st4" d="M277.272,109.178h-42.544c-3.866,0-7,3.135-7,7v32.186c0,3.867,3.134,7,7,7h42.544c3.866,0,7-3.133,7-7
						v-32.186C284.272,112.312,281.138,109.178,277.272,109.178z M270.272,141.363h-28.544v-18.186h28.544V141.363z"/>
				</g>
			</g>
		</g>
	</g>
	<g>
		<g>
			<rect x="306.626" y="277.828" class="st7" width="14" height="25.447"/>
		</g>
	</g>
</g>
</svg>
