<?xml version="1.0" encoding="utf-8"?>
<!-- Generator: Adobe Illustrator 21.1.0, SVG Export Plug-In . SVG Version: 6.00 Build 0)  -->
<svg version="1.1" id="Layer_1" xmlns="http://www.w3.org/2000/svg" xmlns:xlink="http://www.w3.org/1999/xlink" x="0px" y="0px"
	 viewBox="0 0 512 512" style="enable-background:new 0 0 512 512;" xml:space="preserve">
<style type="text/css">
	.st0{fill:#D6CD1E;}
	.st1{fill:#E56823;}
	.st2{fill:#FE8E46;}
	.st3{fill:#FEFE71;}
	.st4{fill:#463218;}
	.st5{fill:#7DAC51;}
	.st6{fill:#5B7C31;}
	.st7{fill:#FFFFFF;}
</style>
<g>
	<g>
		<g>
			<polygon class="st2" points="256,117.334 135.912,186.667 135.912,325.333 256,394.667 376.089,325.333 376.089,186.667 			"/>
		</g>
	</g>
	<g>
		<g>
			<polygon class="st1" points="135.912,186.667 135.912,325.333 256,394.667 256,117.334 			"/>
		</g>
	</g>
	<g>
		<g>
			<g>
				<g>
					<path class="st4" d="M379.588,180.605L259.5,111.271c-2.166-1.251-4.834-1.251-7,0l-120.089,69.333
						c-2.166,1.25-3.5,3.561-3.5,6.062v138.666c0,2.501,1.334,4.812,3.5,6.062L252.5,400.729c1.083,0.625,2.291,0.938,3.5,0.938
						s2.417-0.312,3.5-0.938l120.088-69.333c2.166-1.25,3.5-3.561,3.5-6.062V186.667
						C383.088,184.166,381.754,181.855,379.588,180.605z M369.088,321.292L256,386.583l-113.089-65.292V190.708L256,125.417
						l113.088,65.292V321.292z"/>
				</g>
			</g>
		</g>
	</g>
	<g>
		<g>
			<path class="st5" d="M256,177.767c-16.158,8.772-27.129,25.887-27.129,45.565s10.971,36.794,27.129,45.565
				c16.158-8.771,27.129-25.887,27.129-45.565S272.159,186.539,256,177.767z"/>
		</g>
	</g>
	<g>
		<g>
			<g>
				<g>
					<path class="st4" d="M259.34,171.615c-2.084-1.131-4.596-1.131-6.68,0c-18.991,10.31-30.789,30.126-30.789,51.717
						c0,21.59,11.798,41.407,30.789,51.717c1.042,0.565,2.19,0.848,3.34,0.848s2.298-0.283,3.34-0.848
						c18.991-10.31,30.788-30.126,30.788-51.717C290.128,201.741,278.331,181.924,259.34,171.615z M256,260.742
						c-12.506-8.259-20.129-22.263-20.129-37.41c0-15.147,7.623-29.15,20.129-37.41c12.505,8.259,20.128,22.262,20.128,37.41
						S268.506,252.482,256,260.742z"/>
				</g>
			</g>
		</g>
	</g>
	<g>
		<g>
			<path class="st4" d="M256,261.897c-3.866,0-7,3.134-7,7v62.144c0,3.866,3.134,7,7,7s7-3.134,7-7v-62.144
				C263,265.031,259.867,261.897,256,261.897z"/>
		</g>
	</g>
	<g>
		<g>
			<path class="st4" d="M268.614,210.751c-3.281-2.045-7.598-1.043-9.644,2.238l-8.91,14.295c-0.692,1.111-1.06,2.394-1.06,3.703
				v37.91c0,3.866,3.134,7,7,7s7-3.134,7-7V232.99l7.851-12.596C272.896,217.114,271.894,212.796,268.614,210.751z"/>
		</g>
	</g>
	<g>
		<g>
			<path class="st5" d="M209.675,253.631c-14.934-5.661-31.079-2.259-42.384,7.481c2.009,14.786,11.842,28.035,26.776,33.696
				c14.934,5.661,31.079,2.259,42.384-7.48C234.442,272.541,224.609,259.292,209.675,253.631z"/>
		</g>
	</g>
	<g>
		<g>
			<g>
				<g>
					<path class="st4" d="M243.387,286.385c-2.427-17.858-14.394-32.917-31.231-39.299c-16.84-6.382-35.781-3.042-49.435,8.723
						c-1.795,1.547-2.686,3.897-2.367,6.246c2.427,17.858,14.394,32.917,31.231,39.299c5.653,2.143,11.542,3.189,17.39,3.189
						c11.569,0,22.975-4.098,32.044-11.912C242.815,291.084,243.706,288.733,243.387,286.385z M196.548,288.262
						c-10.803-4.094-18.8-13.187-21.578-24.24c9.405-6.433,21.419-7.942,32.223-3.846c10.803,4.095,18.8,13.187,21.578,24.24
						C219.364,290.85,207.347,292.356,196.548,288.262z"/>
				</g>
			</g>
		</g>
	</g>
	<g>
		<g>
			<path class="st4" d="M258.482,288.192l-19.55-7.41c-3.616-1.369-7.657,0.448-9.027,4.064c-1.37,3.615,0.45,7.656,4.064,9.026
				l19.55,7.41c0.817,0.31,1.655,0.457,2.48,0.457c2.824,0,5.486-1.723,6.547-4.521
				C263.917,293.604,262.096,289.562,258.482,288.192z"/>
		</g>
	</g>
	<g>
		<g>
			<path class="st4" d="M238.932,280.782l-26.898-10.196l-7.072-9.282c-2.343-3.075-6.736-3.667-9.81-1.325
				c-3.075,2.343-3.669,6.735-1.325,9.811l8.286,10.875c0.793,1.041,1.862,1.839,3.086,2.303l28.771,10.906
				c0.817,0.31,1.655,0.457,2.48,0.457c2.824,0,5.485-1.723,6.547-4.521C244.367,286.193,242.546,282.152,238.932,280.782z"/>
		</g>
	</g>
	<g>
		<g>
			<path class="st5" d="M302.326,253.631c-14.934,5.661-24.767,18.91-26.776,33.696c11.305,9.739,27.45,13.142,42.384,7.48
				c14.934-5.661,24.767-18.91,26.776-33.696C333.405,251.372,317.26,247.97,302.326,253.631z"/>
		</g>
	</g>
	<g>
		<g>
			<g>
				<g>
					<path class="st4" d="M349.279,255.809c-13.655-11.764-32.596-15.105-49.435-8.723c-16.839,6.383-28.806,21.442-31.23,39.3
						c-0.318,2.348,0.572,4.698,2.367,6.245c9.07,7.814,20.474,11.912,32.044,11.912c5.847,0,11.738-1.047,17.391-3.189
						c16.839-6.383,28.806-21.441,31.23-39.299C351.964,259.706,351.074,257.355,349.279,255.809z M315.453,288.262
						c-10.799,4.094-22.815,2.588-32.223-3.846c2.777-11.052,10.774-20.145,21.577-24.24c10.802-4.095,22.818-2.587,32.223,3.847
						C334.252,275.075,326.255,284.167,315.453,288.262z"/>
				</g>
			</g>
		</g>
	</g>
	<g>
		<g>
			<path class="st4" d="M282.096,284.846c-1.371-3.615-5.407-5.434-9.027-4.064l-19.55,7.41c-3.614,1.37-5.435,5.412-4.064,9.026
				c1.062,2.798,3.722,4.521,6.547,4.521c0.824,0,1.663-0.147,2.48-0.457l19.55-7.41
				C281.646,292.502,283.466,288.461,282.096,284.846z"/>
		</g>
	</g>
	<g>
		<g>
			<path class="st4" d="M316.848,259.979c-3.071-2.343-7.466-1.75-9.81,1.325l-7.072,9.282l-26.897,10.196
				c-3.615,1.37-5.435,5.412-4.064,9.027c1.062,2.798,3.722,4.521,6.547,4.521c0.824,0,1.664-0.147,2.48-0.457l28.77-10.906
				c1.224-0.464,2.293-1.262,3.086-2.303l8.286-10.875C320.517,266.714,319.923,262.322,316.848,259.979z"/>
		</g>
	</g>
	<g>
		<g>
			<rect x="344" y="204.971" class="st7" width="14" height="34.641"/>
		</g>
	</g>
</g>
</svg>
