<?xml version="1.0" encoding="utf-8"?>
<!-- Generator: Adobe Illustrator 22.0.0, SVG Export Plug-In . SVG Version: 6.00 Build 0)  -->
<svg version="1.1" id="Layer_1" xmlns="http://www.w3.org/2000/svg" xmlns:xlink="http://www.w3.org/1999/xlink" x="0px" y="0px"
	 viewBox="0 0 512 512" style="enable-background:new 0 0 512 512;" xml:space="preserve">
<style type="text/css">
	.st0{fill:#D6CD1E;}
	.st1{fill:#E56823;}
	.st2{fill:#FE8E46;}
	.st3{fill:#FEFE71;}
	.st4{fill:#463218;}
	.st5{fill:#7DAC51;}
	.st6{fill:#5B7C31;}
	.st7{fill:#FFFFFF;}
</style>
<g>
	<g>
		<path class="st3" d="M256,109.093h-38.906h-91.768v151.573c0,76.124,57.018,138.924,130.674,148.039v-0.005l0.001,0.005
			c73.657-9.115,130.674-71.915,130.674-148.039V109.093H256z"/>
	</g>
	<g>
		<path class="st0" d="M190.663,275.629V109.093h-65.337v151.573c0,76.124,57.018,138.924,130.674,148.039v-0.005l0.001,0.005
			c1.248-0.155,2.49-0.328,3.728-0.512C217.972,378.945,190.663,330.481,190.663,275.629z"/>
	</g>
	<g>
		<path class="st4" d="M256,415.705c-0.297,0-0.593-0.019-0.885-0.056c-77.983-9.664-136.79-76.287-136.79-154.982V109.094
			c0-3.866,3.134-7,7-7h261.35c3.866,0,7,3.134,7,7v151.573c0,78.705-58.817,145.334-136.815,154.985
			C256.572,415.688,256.285,415.705,256,415.705z M132.325,116.094v144.573c0,71.361,53.105,131.817,123.675,140.982
			c70.569-9.165,123.675-69.621,123.675-140.982V116.094H132.325z"/>
	</g>
	<g>
		<rect x="152.239" y="125.229" class="st7" width="30.026" height="14"/>
	</g>
	<g>
		<g>
			<path class="st4" d="M168.146,227.61c-3.866,0-7-3.134-7-7v-63.335c0-3.866,3.134-7,7-7h43.927c3.866,0,7,3.134,7,7s-3.134,7-7,7
				h-36.927v56.335C175.146,224.477,172.012,227.61,168.146,227.61z"/>
		</g>
		<g>
			<path class="st4" d="M343.854,227.612c-2.899,0-5.61-1.814-6.613-4.708l-15.351-44.264l-15.35,44.263
				c-1.267,3.653-5.254,5.59-8.906,4.32c-3.653-1.267-5.587-5.254-4.32-8.906l21.963-63.335c0.977-2.817,3.631-4.707,6.613-4.707
				s5.637,1.889,6.613,4.706l21.964,63.335c1.267,3.653-0.667,7.641-4.319,8.907C345.389,227.487,344.615,227.612,343.854,227.612z"
				/>
		</g>
		<g>
			<path class="st4" d="M212.072,199.985h-43.419c-3.866,0-7-3.134-7-7s3.134-7,7-7h43.419c3.866,0,7,3.134,7,7
				S215.938,199.985,212.072,199.985z"/>
		</g>
		<g>
			<path class="st4" d="M246.296,227.61h-12.26c-3.866,0-7-3.134-7-7v-63.335c0-3.866,3.134-7,7-7h12.26
				c21.321,0,38.668,17.347,38.668,38.668S267.617,227.61,246.296,227.61z M241.036,213.61h5.26
				c13.602,0,24.668-11.065,24.668-24.667s-11.066-24.668-24.668-24.668h-5.26V213.61z"/>
		</g>
	</g>
	<g>
		<path class="st4" d="M334.274,199.985h-24.768c-3.866,0-7-3.134-7-7s3.134-7,7-7h24.768c3.866,0,7,3.134,7,7
			S338.141,199.985,334.274,199.985z"/>
	</g>
	<g>
		<path class="st6" d="M303.421,325.695c-6.978-3.689-15.253-5.638-23.932-5.638c-1.398,0-2.785,0.056-4.159,0.156
			c3.837-2.639,7.501-5.69,10.923-9.112c8.588-8.588,14.846-18.701,18.097-29.245c0.208-0.675,0.026-1.409-0.473-1.908
			c-0.499-0.499-1.233-0.681-1.908-0.473c-10.544,3.251-20.657,9.509-29.245,18.097c-2.768,2.768-5.292,5.695-7.554,8.744
			c1.503-6.866,2.274-14.059,2.274-21.414c0-15.738-3.53-30.618-10.208-43.251c-0.33-0.624-0.978-1.015-1.684-1.015
			c-0.706,0-1.354,0.39-1.684,1.015c-6.678,12.633-10.208,27.513-10.208,43.251c0,6.781,0.657,13.424,1.937,19.8
			c-1.936-2.47-4.047-4.854-6.323-7.13c-8.588-8.588-18.701-14.846-29.245-18.097c-0.674-0.208-1.409-0.026-1.908,0.473
			c-0.499,0.499-0.681,1.233-0.473,1.908c3.251,10.544,9.509,20.657,18.097,29.245v0c3.422,3.422,7.086,6.472,10.923,9.112
			c-1.374-0.1-2.76-0.156-4.159-0.156c-8.679,0-16.954,1.95-23.932,5.638c-0.624,0.33-1.014,0.978-1.014,1.684
			s0.39,1.354,1.014,1.684c6.978,3.689,15.253,5.638,23.932,5.638c2.398,0,4.763-0.154,7.081-0.448
			c-4.314,4.021-7.559,8.805-9.393,13.869c-0.24,0.664-0.094,1.406,0.381,1.929c0.366,0.403,0.88,0.624,1.41,0.624
			c0.157,0,0.316-0.02,0.473-0.06c5.373-1.377,10.595-4.268,15.103-8.361c2.353-2.136,4.395-4.498,6.081-7.009v13.525
			c0,1.052,0.853,1.905,1.905,1.905s1.905-0.853,1.905-1.905v-13.46c1.838,3.033,4.191,4.416,6.975,6.944l0,0
			c4.508,4.093,9.731,6.984,15.103,8.361c0.157,0.04,0.315,0.06,0.473,0.06c0.53,0,1.044-0.221,1.41-0.624
			c0.475-0.523,0.621-1.265,0.381-1.929c-1.834-5.065-5.078-9.848-9.393-13.869c2.318,0.293,4.683,0.448,7.081,0.448
			c8.679,0,16.954-1.95,23.932-5.638c0.624-0.33,1.015-0.978,1.015-1.684S304.045,326.025,303.421,325.695z"/>
	</g>
</g>
</svg>
