<?xml version="1.0" encoding="utf-8"?>
<!-- Generator: Adobe Illustrator 21.1.0, SVG Export Plug-In . SVG Version: 6.00 Build 0)  -->
<svg version="1.1" id="Layer_1" xmlns="http://www.w3.org/2000/svg" xmlns:xlink="http://www.w3.org/1999/xlink" x="0px" y="0px"
	 viewBox="0 0 512 512" style="enable-background:new 0 0 512 512;" xml:space="preserve">
<style type="text/css">
	.st0{fill:#D6CD1E;}
	.st1{fill:#E56823;}
	.st2{fill:#FE8E46;}
	.st3{fill:#FEFE71;}
	.st4{fill:#463218;}
	.st5{fill:#7DAC51;}
	.st6{fill:#5B7C31;}
	.st7{fill:#FFFFFF;}
</style>
<g>
	<g>
		<g>
			<path class="st2" d="M88.106,293.738v59.767c0,15.088,12.231,27.319,27.32,27.319h281.149c15.088,0,27.32-12.231,27.32-27.319
				v-59.767H88.106z"/>
		</g>
	</g>
	<g>
		<g>
			<path class="st1" d="M88.106,328.734v24.771c0,15.088,12.231,27.32,27.32,27.32h281.149c11.159,0,20.749-6.694,24.991-16.283
				v-35.807H88.106z"/>
		</g>
	</g>
	<g>
		<g>
			<g>
				<g>
					<path class="st4" d="M423.894,286.738H88.106c-3.866,0-7,3.134-7,7v59.767c0,18.924,15.396,34.32,34.319,34.32h281.149
						c18.924,0,34.319-15.396,34.319-34.32v-59.767C430.894,289.871,427.76,286.738,423.894,286.738z M416.894,353.504
						c0,11.205-9.115,20.32-20.319,20.32H115.425c-11.204,0-20.319-9.115-20.319-20.32v-52.767h321.788V353.504z"/>
				</g>
			</g>
		</g>
	</g>
	<g>
		<g>
			<path class="st4" d="M88.106,286.738H51.2c-3.866,0-7,3.134-7,7s3.134,7,7,7h36.906c3.866,0,7-3.134,7-7
				S91.972,286.738,88.106,286.738z"/>
		</g>
	</g>
	<g>
		<g>
			<path class="st4" d="M460.8,286.738h-36.906c-3.866,0-7,3.134-7,7s3.134,7,7,7H460.8c3.866,0,7-3.134,7-7
				S464.666,286.738,460.8,286.738z"/>
		</g>
	</g>
	<g>
		<g>
			<path class="st5" d="M339.176,131.176c-12.011,22.72-19.118,50.85-19.118,81.311s7.107,58.591,19.118,81.311
				c12.011-22.72,19.118-50.85,19.118-81.311S351.186,153.896,339.176,131.176z"/>
		</g>
	</g>
	<g>
		<g>
			<path class="st6" d="M339.176,131.176c-12.011,22.72-19.118,50.85-19.118,81.311c0,30.461,7.107,58.591,19.118,81.312
				C340.029,292.184,339.176,131.176,339.176,131.176z"/>
		</g>
	</g>
	<g>
		<g>
			<path class="st5" d="M305.438,239.32c-16.524-16.524-35.639-27.928-54.479-33.738c5.81,18.84,17.213,37.955,33.737,54.479
				c16.524,16.524,35.639,27.928,54.479,33.738C333.366,274.959,321.963,255.844,305.438,239.32z"/>
		</g>
	</g>
	<g>
		<g>
			<path class="st6" d="M339.016,293.309l-88.057-87.727c5.81,18.84,17.213,37.955,33.737,54.479
				c16.524,16.524,35.639,27.928,54.479,33.738C339.126,293.636,339.067,293.472,339.016,293.309z"/>
		</g>
	</g>
	<g>
		<g>
			<g>
				<g>
					<path class="st4" d="M345.364,127.905c-1.212-2.293-3.594-3.729-6.188-3.729s-4.976,1.435-6.188,3.729
						c-13.038,24.664-19.929,53.913-19.929,84.583s6.892,59.918,19.929,84.583c1.212,2.293,3.594,3.729,6.188,3.729
						s4.976-1.435,6.188-3.729c13.038-24.664,19.93-53.912,19.93-84.583S358.402,152.568,345.364,127.905z M339.176,277.219
						c-7.957-19.612-12.118-41.708-12.118-64.731c0-23.024,4.161-45.12,12.118-64.731c7.957,19.612,12.118,41.708,12.118,64.731
						S347.133,257.607,339.176,277.219z"/>
				</g>
			</g>
		</g>
	</g>
	<g>
		<g>
			<g>
				<g>
					<path class="st4" d="M345.865,291.736c-6.384-20.704-18.652-40.541-35.477-57.366c-16.825-16.825-36.662-29.092-57.366-35.477
						c-2.477-0.765-5.177-0.095-7.012,1.739c-1.834,1.834-2.504,4.533-1.739,7.012c6.384,20.705,18.652,40.542,35.477,57.366
						c16.825,16.825,36.662,29.092,57.366,35.477c0.678,0.209,1.373,0.311,2.062,0.311c1.829,0,3.618-0.718,4.95-2.05
						C345.96,296.914,346.629,294.215,345.865,291.736z M289.646,255.112c-11.266-11.266-20.255-23.968-26.483-37.326
						c13.357,6.228,26.06,15.217,37.326,26.483s20.255,23.968,26.483,37.326C313.615,275.366,300.913,266.378,289.646,255.112z"/>
				</g>
			</g>
		</g>
	</g>
	<g>
		<g>
			<path class="st5" d="M374.624,239.32c-16.524,16.524-27.928,35.639-33.738,54.479c18.84-5.81,37.955-17.213,54.479-33.738
				c16.524-16.524,27.928-35.639,33.737-54.479C410.263,211.392,391.148,222.796,374.624,239.32z"/>
		</g>
	</g>
	<g>
		<g>
			<path class="st6" d="M341.047,293.309c-0.051,0.163-0.11,0.327-0.16,0.49c18.84-5.81,37.955-17.213,54.479-33.738
				s27.928-35.639,33.737-54.479L341.047,293.309z"/>
		</g>
	</g>
	<g>
		<g>
			<g>
				<g>
					<path class="st4" d="M434.053,200.633c-1.834-1.834-4.534-2.504-7.012-1.739c-20.704,6.384-40.541,18.652-57.366,35.477
						c-16.825,16.825-29.092,36.662-35.477,57.366c-0.765,2.479-0.095,5.178,1.739,7.012c1.333,1.333,3.121,2.05,4.95,2.05
						c0.689,0,1.384-0.102,2.062-0.311c20.704-6.384,40.541-18.652,57.366-35.477c16.825-16.825,29.092-36.662,35.477-57.366
						C436.557,205.166,435.887,202.467,434.053,200.633z M390.416,255.112c-11.266,11.266-23.968,20.255-37.326,26.483
						c6.229-13.357,15.217-26.06,26.483-37.326s23.968-20.255,37.326-26.483C410.671,231.143,401.682,243.845,390.416,255.112z"/>
				</g>
			</g>
		</g>
	</g>
	<g>
		<g>
			<path class="st5" d="M161.647,184.58c-8.066,15.259-12.84,34.151-12.84,54.609c0,20.458,4.773,39.35,12.84,54.609
				c8.066-15.259,12.84-34.151,12.84-54.609C174.487,218.731,169.713,199.839,161.647,184.58z"/>
		</g>
	</g>
	<g>
		<g>
			<path class="st6" d="M161.647,184.58c-8.066,15.259-12.84,34.151-12.84,54.609c0,20.458,4.773,39.35,12.84,54.609
				C162.22,292.714,161.647,184.58,161.647,184.58z"/>
		</g>
	</g>
	<g>
		<g>
			<path class="st5" d="M138.989,257.21c-11.098-11.098-23.935-18.757-36.589-22.658c3.902,12.653,11.561,25.491,22.658,36.589
				c11.098,11.098,23.935,18.757,36.589,22.658C157.745,281.146,150.086,268.308,138.989,257.21z"/>
		</g>
	</g>
	<g>
		<g>
			<path class="st6" d="M161.54,293.47l-59.14-58.918c3.902,12.653,11.561,25.491,22.658,36.589
				c11.098,11.098,23.935,18.757,36.589,22.658C161.613,293.689,161.574,293.58,161.54,293.47z"/>
		</g>
	</g>
	<g>
		<g>
			<g>
				<g>
					<path class="st4" d="M167.835,181.308c-1.212-2.293-3.594-3.729-6.188-3.729s-4.976,1.435-6.188,3.729
						c-8.931,16.895-13.651,36.909-13.651,57.881c0,20.972,4.721,40.987,13.651,57.881c1.212,2.293,3.594,3.729,6.188,3.729
						s4.976-1.435,6.188-3.729c8.931-16.894,13.651-36.909,13.651-57.881C181.487,218.218,176.766,198.203,167.835,181.308z
						 M161.647,276.053c-3.843-11.408-5.84-23.909-5.84-36.864s1.997-25.456,5.84-36.864c3.843,11.408,5.84,23.908,5.84,36.864
						S165.49,264.646,161.647,276.053z"/>
				</g>
			</g>
		</g>
	</g>
	<g>
		<g>
			<g>
				<g>
					<path class="st4" d="M168.336,291.736c-4.398-14.262-12.834-27.912-24.397-39.475c-11.564-11.564-25.215-20-39.476-24.398
						c-2.478-0.763-5.177-0.095-7.012,1.74c-1.834,1.834-2.504,4.533-1.739,7.013c4.398,14.262,12.835,27.913,24.398,39.475
						c11.564,11.564,25.214,20,39.476,24.398c0.678,0.209,1.373,0.311,2.062,0.311c1.829,0,3.618-0.718,4.95-2.05
						C168.431,296.914,169.101,294.215,168.336,291.736z M130.008,266.191c-5.545-5.545-10.247-11.617-13.967-17.998
						c6.38,3.721,12.452,8.421,17.998,13.967c5.545,5.545,10.246,11.617,13.967,17.998
						C141.625,276.437,135.554,271.737,130.008,266.191z"/>
				</g>
			</g>
		</g>
	</g>
	<g>
		<g>
			<path class="st5" d="M185.454,257.21c-11.098,11.098-18.757,23.935-22.658,36.589c12.653-3.902,25.491-11.561,36.589-22.658
				c11.098-11.098,18.757-23.935,22.658-36.589C209.39,238.454,196.552,246.112,185.454,257.21z"/>
		</g>
	</g>
	<g>
		<g>
			<path class="st6" d="M162.903,293.47c-0.034,0.11-0.074,0.219-0.107,0.329c12.653-3.902,25.491-11.561,36.589-22.658
				c11.098-11.098,18.757-23.935,22.658-36.589L162.903,293.47z"/>
		</g>
	</g>
	<g>
		<g>
			<g>
				<g>
					<path class="st4" d="M226.993,229.602c-1.834-1.834-4.533-2.503-7.012-1.74c-14.261,4.397-27.912,12.834-39.476,24.398
						c-11.563,11.563-20,25.213-24.397,39.475c-0.765,2.479-0.095,5.178,1.739,7.013c1.333,1.333,3.121,2.05,4.95,2.05
						c0.689,0,1.384-0.102,2.062-0.311c14.261-4.397,27.912-12.834,39.476-24.398c11.563-11.562,20-25.213,24.398-39.475
						C229.497,234.135,228.827,231.437,226.993,229.602z M194.435,266.191c-5.546,5.546-11.617,10.247-17.998,13.967
						c3.721-6.38,8.421-12.453,13.967-17.998c5.546-5.546,11.618-10.246,17.998-13.967
						C204.681,254.573,199.98,260.645,194.435,266.191z"/>
				</g>
			</g>
		</g>
	</g>
	<g>
		<g>
			<path class="st4" d="M161.647,286.799c-3.866,0-7,3.134-7,7v44.292L140,352.737c-2.734,2.733-2.734,7.166,0,9.899
				c1.367,1.367,3.158,2.05,4.95,2.05s3.583-0.684,4.95-2.05l16.697-16.697c1.313-1.312,2.05-3.093,2.05-4.95v-47.191
				C168.647,289.932,165.513,286.799,161.647,286.799z"/>
		</g>
	</g>
	<g>
		<g>
			<path class="st4" d="M193.913,333.531l-27.061-27.061c-2.733-2.733-7.166-2.733-9.899,0c-2.734,2.733-2.734,7.166,0,9.899
				l27.061,27.061c1.367,1.367,3.158,2.05,4.95,2.05s3.583-0.684,4.95-2.05C196.646,340.698,196.646,336.265,193.913,333.531z"/>
		</g>
	</g>
	<g>
		<g>
			<path class="st4" d="M339.144,286.799c-3.866,0-7,3.134-7,7v44.292l-14.647,14.647c-2.734,2.733-2.734,7.166,0,9.899
				c1.367,1.367,3.158,2.05,4.95,2.05s3.583-0.684,4.95-2.05l16.697-16.697c1.313-1.312,2.05-3.093,2.05-4.95v-47.191
				C346.144,289.932,343.01,286.799,339.144,286.799z"/>
		</g>
	</g>
	<g>
		<g>
			<path class="st4" d="M371.409,333.531l-27.061-27.061c-2.733-2.733-7.166-2.733-9.899,0c-2.734,2.733-2.734,7.166,0,9.899
				l27.061,27.061c1.367,1.367,3.158,2.05,4.95,2.05s3.583-0.684,4.95-2.05C374.143,340.698,374.143,336.265,371.409,333.531z"/>
		</g>
	</g>
	<g>
		<g>
			<rect x="370.842" y="307.127" class="st7" width="31.938" height="14"/>
		</g>
	</g>
</g>
</svg>
