<?xml version="1.0" encoding="utf-8"?>
<!-- Generator: Adobe Illustrator 21.1.0, SVG Export Plug-In . SVG Version: 6.00 Build 0)  -->
<svg version="1.1" id="Layer_1" xmlns="http://www.w3.org/2000/svg" xmlns:xlink="http://www.w3.org/1999/xlink" x="0px" y="0px"
	 viewBox="0 0 512 512" style="enable-background:new 0 0 512 512;" xml:space="preserve">
<style type="text/css">
	.st0{fill:#D6CD1E;}
	.st1{fill:#E56823;}
	.st2{fill:#FE8E46;}
	.st3{fill:#FEFE71;}
	.st4{fill:#463218;}
	.st5{fill:#7DAC51;}
	.st6{fill:#5B7C31;}
	.st7{fill:#FFFFFF;}
</style>
<g>
	<g>
		<g>
			<rect x="336.516" y="264.995" class="st2" width="32.549" height="122.232"/>
		</g>
	</g>
	<g>
		<g>
			<rect x="336.516" y="264.995" class="st1" width="16.274" height="122.232"/>
		</g>
	</g>
	<g>
		<g>
			<g>
				<g>
					<path class="st4" d="M369.065,257.995h-32.549c-3.866,0-7,3.134-7,7v122.231c0,3.866,3.134,7,7,7h32.549c3.866,0,7-3.134,7-7
						V264.995C376.065,261.129,372.931,257.995,369.065,257.995z M362.065,380.226h-18.549V271.995h18.549V380.226z"/>
				</g>
			</g>
		</g>
	</g>
	<g>
		<g>
			<polygon class="st5" points="430.112,314.117 383.003,232.523 415,232.523 352.79,124.774 290.581,232.523 322.578,232.523 
				275.469,314.117 			"/>
		</g>
	</g>
	<g>
		<g>
			<polygon class="st6" points="370.048,154.664 352.79,124.774 290.581,232.523 322.578,232.523 275.469,314.117 309.983,314.117 
				357.092,232.523 325.095,232.523 			"/>
		</g>
	</g>
	<g>
		<g>
			<g>
				<g>
					<path class="st4" d="M436.174,310.617l-41.046-71.094H415c2.501,0,4.812-1.334,6.062-3.5s1.25-4.834,0-7l-62.209-107.75
						c-1.25-2.166-3.561-3.5-6.062-3.5s-4.812,1.334-6.062,3.5l-62.209,107.75c-1.25,2.166-1.25,4.834,0,7s3.561,3.5,6.062,3.5
						h19.872l-41.046,71.094c-1.25,2.166-1.25,4.834,0,7s3.561,3.5,6.062,3.5h154.643c2.501,0,4.812-1.334,6.062-3.5
						S437.424,312.783,436.174,310.617z M287.594,307.117l41.046-71.094c1.25-2.166,1.25-4.834,0-7s-3.561-3.5-6.062-3.5h-19.872
						l50.085-86.75l50.085,86.75h-19.872c-2.501,0-4.812,1.334-6.062,3.5s-1.25,4.834,0,7l41.046,71.094H287.594z"/>
				</g>
			</g>
		</g>
	</g>
	<g>
		<g>
			<rect x="134.583" y="264.995" class="st2" width="32.549" height="122.232"/>
		</g>
	</g>
	<g>
		<g>
			<rect x="134.583" y="264.995" class="st1" width="16.274" height="122.232"/>
		</g>
	</g>
	<g>
		<g>
			<g>
				<g>
					<path class="st4" d="M167.131,257.995h-32.549c-3.866,0-7,3.134-7,7v122.231c0,3.866,3.134,7,7,7h32.549c3.866,0,7-3.134,7-7
						V264.995C174.131,261.129,170.997,257.995,167.131,257.995z M160.131,380.226h-18.549V271.995h18.549V380.226z"/>
				</g>
			</g>
		</g>
	</g>
	<g>
		<g>
			<path class="st5" d="M219.825,193.742c0-38.09-30.878-68.969-68.968-68.969c-38.09,0-68.968,30.878-68.968,68.969
				c0,21.773,10.1,41.177,25.859,53.817c-3.054,6.303-4.769,13.376-4.769,20.85c0,26.442,21.436,47.879,47.878,47.879
				c26.442,0,47.878-21.436,47.878-47.879c0-7.474-1.715-14.547-4.769-20.85C209.725,234.919,219.825,215.515,219.825,193.742z"/>
		</g>
	</g>
	<g>
		<g>
			<path class="st6" d="M130.842,268.409c0-7.474,1.715-14.546,4.769-20.85c-15.759-12.64-25.859-32.044-25.859-53.817
				c0-33.318,23.625-61.116,55.037-67.56c-4.5-0.923-9.159-1.409-13.932-1.409c-38.09,0-68.968,30.878-68.968,68.969
				c0,21.773,10.1,41.177,25.859,53.817c-3.054,6.303-4.769,13.376-4.769,20.85c0,26.442,21.436,47.879,47.878,47.879
				c4.847,0,9.522-0.727,13.932-2.066C145.142,308.255,130.842,290.004,130.842,268.409z"/>
		</g>
	</g>
	<g>
		<g>
			<g>
				<g>
					<path class="st4" d="M226.826,193.742c0-41.889-34.08-75.968-75.969-75.968s-75.968,34.079-75.968,75.968
						c0,21.366,8.838,41.413,24.423,55.789c-2.214,6.021-3.333,12.351-3.333,18.878c0,30.26,24.618,54.878,54.878,54.878
						c30.26,0,54.878-24.618,54.878-54.878c0-6.528-1.119-12.857-3.333-18.879C217.987,235.155,226.826,215.108,226.826,193.742z
						 M187.667,250.612c2.699,5.57,4.068,11.558,4.068,17.797c0,22.541-18.338,40.878-40.878,40.878
						c-22.54,0-40.878-18.338-40.878-40.878c0-6.239,1.369-12.227,4.068-17.798c1.424-2.938,0.627-6.47-1.919-8.513
						c-14.769-11.845-23.239-29.471-23.239-48.356c0-34.169,27.799-61.968,61.968-61.968c34.17,0,61.969,27.799,61.969,61.968
						c0,18.886-8.47,36.511-23.239,48.356C187.04,244.141,186.243,247.673,187.667,250.612z"/>
				</g>
			</g>
		</g>
	</g>
	<g>
		<g>
			<path class="st7" d="M150.857,142.753v14c20.474,0,37.131,16.657,37.131,37.13h14
				C201.988,165.69,179.051,142.753,150.857,142.753z"/>
		</g>
	</g>
	<g>
		<g>
			<path class="st5" d="M249.51,141.797c-12.36,23.381-19.674,52.329-19.674,83.677c0,31.348,7.314,60.296,19.674,83.677
				c12.36-23.381,19.674-52.329,19.674-83.677C269.184,194.126,261.87,165.178,249.51,141.797z"/>
		</g>
	</g>
	<g>
		<g>
			<path class="st6" d="M249.51,141.797c-12.36,23.381-19.674,52.329-19.674,83.677c0,31.348,7.314,60.296,19.674,83.677
				C250.388,307.489,249.51,141.797,249.51,141.797z"/>
		</g>
	</g>
	<g>
		<g>
			<path class="st5" d="M214.791,253.086c-17.005-17.005-36.676-28.74-56.064-34.719c5.979,19.388,17.714,39.059,34.719,56.064
				c17.005,17.005,36.676,28.74,56.064,34.719C243.532,289.762,231.796,270.091,214.791,253.086z"/>
		</g>
	</g>
	<g>
		<g>
			<path class="st6" d="M249.346,308.646l-90.618-90.279c5.979,19.388,17.714,39.059,34.719,56.064
				c17.005,17.005,36.676,28.74,56.064,34.719C249.458,308.982,249.398,308.814,249.346,308.646z"/>
		</g>
	</g>
	<g>
		<g>
			<g>
				<g>
					<path class="st4" d="M255.699,138.525c-1.212-2.293-3.594-3.729-6.188-3.729s-4.976,1.435-6.188,3.729
						c-13.402,25.352-20.485,55.418-20.485,86.948c0,31.53,7.083,61.596,20.485,86.948c1.212,2.293,3.594,3.729,6.188,3.729
						s4.976-1.435,6.188-3.729c13.402-25.352,20.486-55.418,20.486-86.948C276.184,193.944,269.1,163.878,255.699,138.525z
						 M249.51,292.627c-8.321-20.321-12.674-43.252-12.674-67.153s4.353-46.833,12.674-67.153
						c8.321,20.321,12.674,43.253,12.674,67.153S257.831,272.305,249.51,292.627z"/>
				</g>
			</g>
		</g>
	</g>
	<g>
		<g>
			<g>
				<g>
					<path class="st4" d="M256.199,307.087c-6.561-21.275-19.167-41.66-36.458-58.951s-37.676-29.898-58.951-36.458
						c-2.477-0.763-5.177-0.095-7.012,1.74c-1.834,1.834-2.504,4.533-1.739,7.012c6.56,21.274,19.167,41.659,36.458,58.951
						c17.29,17.291,37.675,29.898,58.951,36.458c0.678,0.209,1.373,0.311,2.062,0.311c1.829,0,3.618-0.718,4.95-2.05
						C256.294,312.265,256.964,309.566,256.199,307.087z M198.396,269.481c-11.752-11.752-21.101-25.022-27.528-38.973
						c13.952,6.427,27.222,15.776,38.974,27.528c11.751,11.751,21.101,25.022,27.528,38.973
						C223.418,290.582,210.148,281.233,198.396,269.481z"/>
				</g>
			</g>
		</g>
	</g>
	<g>
		<g>
			<path class="st5" d="M285.99,253.086c-17.005,17.005-28.74,36.676-34.719,56.064c19.388-5.979,39.059-17.714,56.064-34.719
				c17.005-17.005,28.74-36.676,34.719-56.064C322.665,224.346,302.994,236.081,285.99,253.086z"/>
		</g>
	</g>
	<g>
		<g>
			<path class="st6" d="M251.435,308.646c-0.053,0.168-0.113,0.336-0.165,0.504c19.388-5.979,39.059-17.714,56.064-34.719
				c17.005-17.005,28.74-36.676,34.719-56.064L251.435,308.646z"/>
		</g>
	</g>
	<g>
		<g>
			<g>
				<g>
					<path class="st4" d="M347.003,213.418c-1.835-1.834-4.534-2.504-7.012-1.74c-21.275,6.561-41.661,19.168-58.951,36.458
						s-29.897,37.675-36.458,58.951c-0.765,2.479-0.095,5.178,1.739,7.012c1.333,1.333,3.121,2.05,4.95,2.05
						c0.689,0,1.384-0.102,2.062-0.311c21.276-6.561,41.661-19.168,58.951-36.458c17.292-17.292,29.898-37.676,36.458-58.951
						C349.507,217.951,348.838,215.252,347.003,213.418z M302.385,269.481c-11.751,11.751-25.021,21.101-38.973,27.528
						c6.427-13.951,15.776-27.222,27.528-38.973c11.752-11.751,25.022-21.101,38.974-27.528
						C323.486,244.459,314.137,257.729,302.385,269.481z"/>
				</g>
			</g>
		</g>
	</g>
	<g>
		<g>
			<polygon class="st2" points="203.129,309.15 220.201,387.226 281.945,387.226 299.018,309.15 			"/>
		</g>
	</g>
	<g>
		<g>
			<polygon class="st1" points="231.302,309.15 203.129,309.15 220.201,387.226 248.375,387.226 			"/>
		</g>
	</g>
	<g>
		<g>
			<g>
				<g>
					<path class="st4" d="M304.471,304.76c-1.329-1.651-3.333-2.611-5.453-2.611h-95.889c-2.119,0-4.124,0.96-5.453,2.611
						c-1.329,1.65-1.838,3.814-1.386,5.884l17.073,78.077c0.703,3.214,3.549,5.505,6.838,5.505h61.744
						c3.29,0,6.136-2.291,6.838-5.505l17.073-78.077C306.309,308.575,305.8,306.411,304.471,304.76z M276.31,380.226h-50.474
						l-14.011-64.077h78.497L276.31,380.226z"/>
				</g>
			</g>
		</g>
	</g>
	<g>
		<g>
			<rect x="193.265" y="309.15" class="st3" width="115.617" height="20.565"/>
		</g>
	</g>
	<g>
		<g>
			<rect x="193.265" y="309.15" class="st0" width="40.409" height="20.565"/>
		</g>
	</g>
	<g>
		<g>
			<g>
				<g>
					<path class="st4" d="M308.882,302.15H193.264c-3.866,0-7,3.134-7,7v20.565c0,3.866,3.134,7,7,7h115.617c3.866,0,7-3.134,7-7
						V309.15C315.882,305.283,312.748,302.15,308.882,302.15z M301.882,322.715H200.264v-6.565h101.617V322.715z"/>
				</g>
			</g>
		</g>
	</g>
	<g>
		<g>
			<path class="st4" d="M403.991,380.053H96.79c-3.866,0-7,3.134-7,7s3.134,7,7,7h307.2c3.866,0,7-3.134,7-7
				S407.857,380.053,403.991,380.053z"/>
		</g>
	</g>
</g>
</svg>
