<?xml version="1.0" encoding="utf-8"?>
<!-- Generator: Adobe Illustrator 21.1.0, SVG Export Plug-In . SVG Version: 6.00 Build 0)  -->
<svg version="1.1" id="Layer_1" xmlns="http://www.w3.org/2000/svg" xmlns:xlink="http://www.w3.org/1999/xlink" x="0px" y="0px"
	 viewBox="0 0 512 512" style="enable-background:new 0 0 512 512;" xml:space="preserve">
<style type="text/css">
	.st0{fill:#D6CD1E;}
	.st1{fill:#E56823;}
	.st2{fill:#FE8E46;}
	.st3{fill:#FEFE71;}
	.st4{fill:#463218;}
	.st5{fill:#7DAC51;}
	.st6{fill:#5B7C31;}
	.st7{fill:#FFFFFF;}
</style>
<g>
	<g>
		<g>
			<rect x="116.81" y="163.855" class="st5" width="76.26" height="53.133"/>
		</g>
	</g>
	<g>
		<g>
			<rect x="116.81" y="163.855" class="st6" width="32.125" height="53.133"/>
		</g>
	</g>
	<g>
		<g>
			<rect x="247.037" y="211.635" class="st5" width="65.888" height="26.364"/>
		</g>
	</g>
	<g>
		<g>
			<rect x="247.037" y="211.635" class="st6" width="26.364" height="26.364"/>
		</g>
	</g>
	<g>
		<g>
			<path class="st2" d="M154.94,237.999v66.062h188.598c36.485,0,66.062-29.577,66.062-66.062v0H154.94z"/>
		</g>
	</g>
	<g>
		<g>
			<path class="st1" d="M400.74,237.999c-11.424,19.74-32.754,33.031-57.202,33.031H154.939v33.031h188.599
				c36.485,0,66.062-29.577,66.062-66.062H400.74z"/>
		</g>
	</g>
	<g>
		<g>
			<g>
				<g>
					<path class="st4" d="M193.069,156.855h-76.26c-3.866,0-7,3.134-7,7v53.133c0,3.866,3.134,7,7,7h76.26c3.866,0,7-3.134,7-7
						v-53.133C200.069,159.989,196.936,156.855,193.069,156.855z M186.069,209.988h-62.26v-39.133h62.26V209.988z"/>
				</g>
			</g>
		</g>
	</g>
	<g>
		<g>
			<g>
				<g>
					<path class="st4" d="M409.6,230.999h-254.66c-3.866,0-7,3.134-7,7v66.062c0,3.866,3.134,7,7,7h188.599
						c40.286,0,73.062-32.775,73.062-73.062C416.6,234.133,413.466,230.999,409.6,230.999z M343.538,297.061H161.939v-52.062
						h240.248C398.715,274.28,373.737,297.061,343.538,297.061z"/>
				</g>
			</g>
		</g>
	</g>
	<g>
		<g>
			<circle class="st3" cx="154.94" cy="271.03" r="77.115"/>
		</g>
	</g>
	<g>
		<g>
			<path class="st0" d="M231.335,260.621c-4.357,27.507-28.171,48.539-56.903,48.539c-31.824,0-57.622-25.798-57.622-57.622
				c0-28.732,21.032-52.546,48.539-56.903c-3.406-0.46-6.876-0.719-10.409-0.719c-42.589,0-77.114,34.525-77.114,77.115
				c0,42.589,34.525,77.115,77.114,77.115c42.589,0,77.115-34.525,77.115-77.115C232.054,267.498,231.795,264.027,231.335,260.621z"
				/>
		</g>
	</g>
	<g>
		<g>
			<g>
				<g>
					<path class="st4" d="M154.939,186.916c-46.381,0-84.114,37.734-84.114,84.115s37.733,84.115,84.114,84.115
						s84.115-37.734,84.115-84.115S201.32,186.916,154.939,186.916z M154.939,341.145c-38.661,0-70.114-31.453-70.114-70.115
						s31.453-70.115,70.114-70.115c38.662,0,70.115,31.453,70.115,70.115S193.602,341.145,154.939,341.145z"/>
				</g>
			</g>
		</g>
	</g>
	<g>
		<g>
			<path class="st6" d="M190.215,293.419c-5.191-2.744-11.347-4.194-17.803-4.194c-1.04,0-2.072,0.042-3.094,0.116
				c2.854-1.963,5.58-4.233,8.125-6.778c6.389-6.389,11.044-13.911,13.463-21.755c0.155-0.502,0.019-1.048-0.352-1.419
				c-0.371-0.371-0.918-0.507-1.419-0.352c-7.844,2.419-15.366,7.074-21.755,13.463c-2.059,2.059-3.937,4.237-5.619,6.504
				c1.118-5.107,1.692-10.458,1.692-15.93c0-11.707-2.626-22.863-7.594-32.26c-0.245-0.464-0.728-0.755-1.253-0.755
				s-1.007,0.29-1.253,0.755c-4.968,9.397-7.594,20.553-7.594,32.26c0,5.045,0.489,9.986,1.441,14.729
				c-1.44-1.837-3.01-3.611-4.704-5.304c-6.389-6.389-13.911-11.044-21.755-13.463c-0.501-0.155-1.048-0.019-1.419,0.352
				c-0.371,0.371-0.507,0.918-0.352,1.419c2.419,7.844,7.074,15.367,13.463,21.755v0c2.546,2.546,5.271,4.815,8.126,6.778
				c-1.022-0.075-2.053-0.116-3.094-0.116c-6.456,0-12.612,1.45-17.803,4.194c-0.464,0.245-0.755,0.727-0.755,1.253
				c0,0.525,0.291,1.007,0.755,1.253c5.191,2.744,11.347,4.194,17.803,4.194c1.784,0,3.544-0.115,5.268-0.333
				c-3.209,2.991-5.623,6.55-6.987,10.317c-0.179,0.494-0.07,1.046,0.283,1.435c0.272,0.3,0.655,0.464,1.049,0.464
				c0.117,0,0.235-0.015,0.352-0.044c3.997-1.024,7.882-3.175,11.235-6.22c1.75-1.589,3.269-3.346,4.524-5.214v10.061
				c0,0.782,0.634,1.417,1.417,1.417c0.783,0,1.417-0.634,1.417-1.417v-11.1c1.367,2.257,3.118,4.372,5.189,6.253h0
				c3.354,3.045,7.239,5.195,11.235,6.22c0.116,0.03,0.235,0.044,0.352,0.044c0.394,0,0.777-0.165,1.049-0.464
				c0.353-0.389,0.462-0.941,0.283-1.435c-1.364-3.768-3.778-7.326-6.987-10.317c1.724,0.218,3.484,0.333,5.268,0.333
				c6.456,0,12.612-1.45,17.803-4.194c0.464-0.245,0.755-0.727,0.755-1.253S190.68,293.664,190.215,293.419z"/>
		</g>
	</g>
	<g>
		<g>
			<g>
				<g>
					<path class="st4" d="M312.925,204.635h-65.888c-3.866,0-7,3.134-7,7v26.364c0,3.866,3.134,7,7,7h65.888c3.866,0,7-3.134,7-7
						v-26.364C319.925,207.769,316.791,204.635,312.925,204.635z M305.925,230.999h-51.888v-12.364h51.888V230.999z"/>
				</g>
			</g>
		</g>
	</g>
	<g>
		<g>
			<rect x="260.492" y="264.03" class="st7" width="38.978" height="14"/>
		</g>
	</g>
	<g>
		<g>
			<rect x="327.643" y="264.03" class="st7" width="19.488" height="14"/>
		</g>
	</g>
</g>
</svg>
