<?xml version="1.0" encoding="utf-8"?>
<!-- Generator: Adobe Illustrator 21.1.0, SVG Export Plug-In . SVG Version: 6.00 Build 0)  -->
<svg version="1.1" id="Layer_1" xmlns="http://www.w3.org/2000/svg" xmlns:xlink="http://www.w3.org/1999/xlink" x="0px" y="0px"
	 viewBox="0 0 512 512" style="enable-background:new 0 0 512 512;" xml:space="preserve">
<style type="text/css">
	.st0{fill:#D6CD1E;}
	.st1{fill:#E56823;}
	.st2{fill:#FE8E46;}
	.st3{fill:#FEFE71;}
	.st4{fill:#463218;}
	.st5{fill:#7DAC51;}
	.st6{fill:#5B7C31;}
	.st7{fill:#FFFFFF;}
</style>
<g>
	<g>
		<g>
			<path class="st2" d="M324.201,183.88l-56.719,114.005c23.219-5.29,43.965-20.565,55.4-43.55
				C334.318,231.352,333.988,205.59,324.201,183.88z"/>
		</g>
	</g>
	<g>
		<g>
			<g>
				<g>
					<path class="st4" d="M335.937,90.416c-18.822-9.364-41.751-1.67-51.115,17.151v0c-9.363,18.821-1.669,41.751,17.152,51.115
						c5.439,2.706,11.221,3.987,16.92,3.987c14.021,0,27.537-7.757,34.195-21.139C362.453,122.709,354.759,99.779,335.937,90.416z
						 M340.554,135.294c-5.924,11.909-20.436,16.779-32.344,10.854c-11.91-5.925-16.778-20.435-10.854-32.345v0
						c5.925-11.909,20.437-16.778,32.344-10.854C341.611,108.875,346.479,123.385,340.554,135.294z"/>
				</g>
			</g>
		</g>
	</g>
	<g>
		<g>
			<g>
				<g>
					<path class="st4" d="M330.583,181.003c-1.111-2.465-3.544-4.07-6.248-4.122c-2.721-0.057-5.196,1.459-6.401,3.88
						l-56.719,114.005c-1.204,2.422-0.906,5.32,0.766,7.446c1.345,1.709,3.384,2.672,5.502,2.672c0.517,0,1.038-0.058,1.555-0.175
						c26.234-5.977,48.146-23.201,60.113-47.256S341.64,205.533,330.583,181.003z M316.615,251.218
						c-7.639,15.355-20.087,27.41-35.284,34.547l41.556-83.528C326.363,218.664,324.256,235.861,316.615,251.218z"/>
				</g>
			</g>
		</g>
	</g>
	<g>
		<g>
			<path class="st4" d="M349.94,132.146c-3.465-1.724-7.662-0.311-9.386,3.149l-22.621,45.467c-1.722,3.461-0.312,7.663,3.149,9.385
				c1.002,0.499,2.065,0.734,3.112,0.734c2.573,0,5.049-1.424,6.273-3.883l22.621-45.467
				C354.811,138.069,353.401,133.868,349.94,132.146z"/>
		</g>
	</g>
	<g>
		<g>
			<path class="st2" d="M257.68,189.133c-22.984,11.435-38.26,32.181-43.55,55.4l114.005-56.719
				C306.426,178.028,280.665,177.698,257.68,189.133z"/>
		</g>
	</g>
	<g>
		<g>
			<g>
				<g>
					<path class="st4" d="M421.6,176.079c-4.536-9.118-12.351-15.923-22.005-19.162c-9.654-3.24-19.992-2.527-29.11,2.01
						c-9.117,4.536-15.922,12.351-19.162,22.005c-3.239,9.654-2.525,19.993,2.011,29.109c4.536,9.118,12.351,15.923,22.006,19.163
						c3.982,1.336,8.081,2,12.163,2c5.812,0,11.59-1.346,16.946-4.011c9.117-4.536,15.922-12.351,19.162-22.005
						C426.85,195.534,426.136,185.195,421.6,176.079z M410.338,200.734c-2.05,6.109-6.355,11.054-12.125,13.925
						c-5.771,2.871-12.313,3.322-18.42,1.272c-6.109-2.05-11.054-6.356-13.924-12.125c-2.871-5.769-3.322-12.311-1.272-18.42
						c2.05-6.109,6.355-11.054,12.125-13.925c3.389-1.686,7.045-2.538,10.723-2.538c2.583,0,5.177,0.42,7.697,1.266
						c6.109,2.05,11.054,6.356,13.924,12.125C411.936,188.083,412.387,194.625,410.338,200.734z"/>
				</g>
			</g>
		</g>
	</g>
	<g>
		<g>
			<g>
				<g>
					<path class="st4" d="M331.012,181.433c-24.529-11.059-52.394-10.535-76.45,1.433c-24.057,11.968-41.281,33.878-47.257,60.112
						c-0.601,2.637,0.371,5.384,2.497,7.056c1.259,0.99,2.788,1.499,4.329,1.499c1.062,0,2.129-0.241,3.117-0.733l114.005-56.719
						c2.421-1.205,3.933-3.696,3.881-6.4S333.478,182.544,331.012,181.433z M226.251,230.685
						c7.137-15.197,19.192-27.645,34.548-35.284c10.569-5.259,22.012-7.896,33.475-7.896c5.189,0,10.387,0.541,15.506,1.624
						L226.251,230.685z"/>
				</g>
			</g>
		</g>
	</g>
	<g>
		<g>
			<path class="st4" d="M379.871,162.076c-1.724-3.461-5.922-4.874-9.386-3.149l-45.468,22.621
				c-3.461,1.722-4.871,5.924-3.149,9.385c1.225,2.46,3.7,3.883,6.273,3.883c1.047,0,2.11-0.236,3.112-0.734l45.468-22.621
				C380.182,169.739,381.593,165.537,379.871,162.076z"/>
		</g>
	</g>
	<g>
		<g>
			<path class="st5" d="M172.791,187.438c-10.81,20.45-17.208,45.769-17.208,73.186c0,27.417,6.397,52.736,17.208,73.186
				c10.81-20.45,17.208-45.769,17.208-73.186C189.998,233.207,183.601,207.888,172.791,187.438z"/>
		</g>
	</g>
	<g>
		<g>
			<path class="st6" d="M172.791,187.438c-10.81,20.45-17.208,45.769-17.208,73.186c0,27.417,6.397,52.736,17.208,73.186
				C173.559,332.357,172.791,187.438,172.791,187.438z"/>
		</g>
	</g>
	<g>
		<g>
			<path class="st5" d="M142.425,284.775c-14.873-14.873-32.078-25.137-49.035-30.366c5.229,16.958,15.493,34.162,30.366,49.035
				c14.873,14.873,32.078,25.137,49.035,30.366C167.562,316.853,157.297,299.648,142.425,284.775z"/>
		</g>
	</g>
	<g>
		<g>
			<path class="st6" d="M172.647,333.37l-79.257-78.96c5.229,16.958,15.493,34.162,30.366,49.035
				c14.873,14.873,32.078,25.137,49.035,30.366C172.745,333.664,172.693,333.517,172.647,333.37z"/>
		</g>
	</g>
	<g>
		<g>
			<g>
				<g>
					<path class="st4" d="M178.979,184.167c-1.213-2.293-3.594-3.729-6.188-3.729s-4.976,1.435-6.188,3.729
						c-11.788,22.3-18.02,48.738-18.02,76.458s6.231,54.158,18.02,76.458c1.213,2.293,3.594,3.729,6.188,3.729
						s4.976-1.435,6.188-3.729c11.788-22.298,18.019-48.737,18.019-76.458S190.767,206.465,178.979,184.167z M172.791,316.997
						c-6.706-17.16-10.208-36.374-10.208-56.373s3.502-39.212,10.208-56.373c6.706,17.159,10.207,36.373,10.207,56.373
						S179.497,299.838,172.791,316.997z"/>
				</g>
			</g>
		</g>
	</g>
	<g>
		<g>
			<g>
				<g>
					<path class="st4" d="M179.48,331.748c-5.781-18.745-16.883-36.699-32.105-51.922c-15.225-15.224-33.179-26.326-51.923-32.105
						c-2.48-0.766-5.178-0.095-7.013,1.739c-1.834,1.834-2.504,4.533-1.739,7.013c5.781,18.745,16.883,36.699,32.105,51.922
						c15.225,15.224,33.179,26.326,51.923,32.105c0.679,0.209,1.373,0.311,2.062,0.311c1.829,0,3.618-0.718,4.951-2.05
						C179.575,336.926,180.245,334.227,179.48,331.748z M128.706,298.495c-9.58-9.58-17.321-20.32-22.848-31.617
						c11.296,5.527,22.036,13.267,31.616,22.848c9.58,9.58,17.321,20.32,22.848,31.617
						C149.026,315.815,138.286,308.075,128.706,298.495z"/>
				</g>
			</g>
		</g>
	</g>
	<g>
		<g>
			<path class="st5" d="M204.697,284.775c-14.873,14.873-25.137,32.078-30.366,49.035c16.957-5.229,34.162-15.493,49.035-30.366
				c14.873-14.873,25.137-32.077,30.366-49.035C236.774,259.638,219.57,269.902,204.697,284.775z"/>
		</g>
	</g>
	<g>
		<g>
			<path class="st6" d="M174.474,333.37c-0.046,0.147-0.099,0.294-0.144,0.441c16.957-5.229,34.162-15.493,49.035-30.366
				c14.873-14.873,25.137-32.077,30.366-49.035L174.474,333.37z"/>
		</g>
	</g>
	<g>
		<g>
			<g>
				<g>
					<path class="st4" d="M258.68,249.459c-1.834-1.834-4.534-2.506-7.012-1.739c-18.745,5.78-36.699,16.882-51.922,32.105
						c-15.225,15.225-26.326,33.179-32.105,51.922c-0.765,2.479-0.095,5.178,1.74,7.012c1.332,1.333,3.121,2.05,4.95,2.05
						c0.688,0,1.384-0.102,2.062-0.311c18.744-5.78,36.699-16.882,51.923-32.105c15.224-15.225,26.325-33.18,32.104-51.922
						C261.185,253.993,260.515,251.294,258.68,249.459z M218.416,298.495c-9.58,9.581-20.32,17.321-31.617,22.848
						c5.526-11.296,13.268-22.036,22.849-31.617c9.58-9.581,20.318-17.321,31.616-22.848
						C235.737,278.174,227.997,288.914,218.416,298.495z"/>
				</g>
			</g>
		</g>
	</g>
	<g>
		<g>
			<polygon class="st2" points="120.267,330.531 139.518,418.572 209.143,418.572 228.394,330.531 			"/>
		</g>
	</g>
	<g>
		<g>
			<polygon class="st1" points="152.036,330.531 120.267,330.531 139.519,418.573 171.288,418.573 			"/>
		</g>
	</g>
	<g>
		<g>
			<g>
				<g>
					<path class="st4" d="M233.847,326.142c-1.329-1.651-3.334-2.611-5.453-2.611H120.266c-2.119,0-4.124,0.96-5.453,2.611
						c-1.328,1.65-1.838,3.814-1.386,5.884l19.252,88.042c0.703,3.213,3.549,5.504,6.839,5.504h69.624
						c3.29,0,6.136-2.291,6.839-5.504l19.252-88.042C235.685,329.957,235.176,327.792,233.847,326.142z M203.508,411.572h-58.354
						l-16.19-74.041h90.735L203.508,411.572z"/>
				</g>
			</g>
		</g>
	</g>
	<g>
		<g>
			<rect x="109.144" y="330.531" class="st3" width="130.374" height="23.189"/>
		</g>
	</g>
	<g>
		<g>
			<rect x="109.144" y="330.531" class="st0" width="45.567" height="23.189"/>
		</g>
	</g>
	<g>
		<g>
			<g>
				<g>
					<path class="st4" d="M239.517,323.531H109.143c-3.866,0-7,3.134-7,7v23.189c0,3.866,3.134,7,7,7h130.374c3.866,0,7-3.134,7-7
						v-23.189C246.517,326.665,243.384,323.531,239.517,323.531z M232.517,346.721H116.143v-9.189h116.374V346.721z"/>
				</g>
			</g>
		</g>
	</g>
	<g>
		<g>
			
				<rect x="181.827" y="377.819" transform="matrix(0.2261 -0.9741 0.9741 0.2261 -223.6834 488.0915)" class="st7" width="27.013" height="13.999"/>
		</g>
	</g>
</g>
</svg>
