<?xml version="1.0" encoding="utf-8"?>
<!-- Generator: Adobe Illustrator 21.1.0, SVG Export Plug-In . SVG Version: 6.00 Build 0)  -->
<svg version="1.1" id="Layer_1" xmlns="http://www.w3.org/2000/svg" xmlns:xlink="http://www.w3.org/1999/xlink" x="0px" y="0px"
	 viewBox="0 0 512 512" style="enable-background:new 0 0 512 512;" xml:space="preserve">
<style type="text/css">
	.st0{fill:#D6CD1E;}
	.st1{fill:#E56823;}
	.st2{fill:#FE8E46;}
	.st3{fill:#FEFE71;}
	.st4{fill:#463218;}
	.st5{fill:#7DAC51;}
	.st6{fill:#5B7C31;}
	.st7{fill:#FFFFFF;}
</style>
<g>
	<g>
		<g>
			<path class="st3" d="M207.574,90.215c0,7.148,2.731,14.02,7.618,19.237c1.748,1.866,2.818,4.375,2.818,7.133v19.188h22.659
				v-19.188c0-2.759,1.07-5.267,2.818-7.133c4.887-5.217,7.618-12.089,7.618-19.237H207.574z"/>
		</g>
	</g>
	<g>
		<g>
			<path class="st2" d="M161.556,136.316L161.556,136.316c0,15.397,12.482,27.879,27.879,27.879h79.81
				c15.397,0,27.879-12.482,27.879-27.879v0H161.556z"/>
		</g>
	</g>
	<g>
		<g>
			<path class="st1" d="M161.556,136.316L161.556,136.316c0,15.397,12.482,27.879,27.879,27.879h39.905v-27.879H161.556z"/>
		</g>
	</g>
	<g>
		<g>
			<path class="st5" d="M251.515,205.451c-2.74-2.925-4.417-6.857-4.417-11.18v-30.076h-35.516v30.076
				c0,4.324-1.678,8.256-4.417,11.18c-7.66,8.177-11.94,18.948-11.94,30.152v0h68.231v0
				C263.455,224.399,259.175,213.628,251.515,205.451z"/>
		</g>
	</g>
	<g>
		<g>
			<path class="st6" d="M211.581,164.195v30.076c0,4.324-1.678,8.256-4.417,11.18c-7.66,8.177-11.94,18.948-11.94,30.152h34.115
				v-71.408H211.581z"/>
		</g>
	</g>
	<g>
		<g>
			<g>
				<g>
					<path class="st4" d="M256.624,200.665c-1.629-1.739-2.526-4.01-2.526-6.395v-30.076c0-3.866-3.134-7-7-7h-35.517
						c-3.866,0-7,3.134-7,7v30.076c0,2.385-0.897,4.656-2.526,6.395c-8.919,9.521-13.831,21.929-13.831,34.938c0,3.866,3.134,7,7,7
						h68.23c3.866,0,7-3.134,7-7C270.455,222.594,265.543,210.186,256.624,200.665z M202.888,228.603
						c1.311-6.831,4.531-13.185,9.384-18.366c4.068-4.343,6.309-10.013,6.309-15.966v-23.076h21.517v23.076
						c0,5.953,2.241,11.624,6.309,15.966c4.854,5.181,8.074,11.536,9.384,18.366H202.888z"/>
				</g>
			</g>
		</g>
	</g>
	<g>
		<g>
			<path class="st4" d="M345.057,276.536c-7.988-7.988-18.608-12.387-29.904-12.387s-21.917,4.399-29.904,12.387l-10.224,10.224
				c-2.734,2.734-2.734,7.166,0,9.899c2.733,2.734,7.166,2.734,9.899,0l10.224-10.224c5.343-5.344,12.448-8.286,20.005-8.286
				c7.557,0,14.661,2.943,20.005,8.286s8.287,12.448,8.287,20.005s-2.943,14.661-8.287,20.005c-0.207,0.206-0.4,0.426-0.579,0.656
				l-16.427,21.15c-5.979,7.698-14.999,12.113-24.745,12.113h-4.057c-3.866,0-7,3.134-7,7s3.134,7,7,7h4.057
				c14.102,0,27.151-6.388,35.802-17.526l16.17-20.82c7.785-7.95,12.065-18.435,12.065-29.579
				C357.444,295.144,353.045,284.524,345.057,276.536z"/>
		</g>
	</g>
	<g>
		<g>
			
				<rect x="248.14" y="295.434" transform="matrix(0.7071 -0.7071 0.7071 0.7071 -137.4097 278.625)" class="st2" width="38.97" height="19.493"/>
		</g>
	</g>
	<g>
		<g>
			<g>
				<g>
					<path class="st4" d="M293.245,293.345l-13.784-13.784c-2.733-2.733-7.165-2.734-9.899,0l-27.556,27.556
						c-1.313,1.313-2.05,3.093-2.05,4.95s0.737,3.637,2.05,4.95l13.784,13.784c1.367,1.367,3.158,2.05,4.95,2.05
						c1.791,0,3.583-0.684,4.95-2.05l27.556-27.556c1.313-1.313,2.05-3.093,2.05-4.95S294.558,294.658,293.245,293.345z
						 M260.739,315.951l-3.884-3.884l17.657-17.656l3.884,3.884L260.739,315.951z"/>
				</g>
			</g>
		</g>
	</g>
	<g>
		<g>
			<path class="st5" d="M251.105,300.322v-64.719h-43.531v64.719c-7.212,6.155-11.79,15.304-11.79,25.529
				c0,18.532,15.023,33.556,33.556,33.556s33.556-15.023,33.556-33.556C262.895,315.626,258.317,306.477,251.105,300.322z"/>
		</g>
	</g>
	<g>
		<g>
			<path class="st6" d="M208.072,235.105v64.719c-7.212,6.155-11.79,15.304-11.79,25.529c0,9.668,4.094,18.375,10.637,24.498h22.919
				V235.105H208.072z"/>
		</g>
	</g>
	<g>
		<g>
			<g>
				<g>
					<path class="st4" d="M258.105,297.273v-61.67c0-3.866-3.134-7-7-7h-43.531c-3.866,0-7,3.134-7,7v61.67
						c-7.53,7.576-11.79,17.815-11.79,28.577c0,22.363,18.193,40.556,40.556,40.556s40.556-18.193,40.556-40.556
						C269.895,315.089,265.635,304.849,258.105,297.273z M229.34,352.406c-14.643,0-26.556-11.913-26.556-26.556
						c0-7.778,3.402-15.142,9.334-20.204c1.559-1.33,2.456-3.276,2.456-5.325v-57.719h29.531v57.719
						c0,2.049,0.897,3.995,2.456,5.325c5.932,5.062,9.334,12.426,9.334,20.204C255.895,340.493,243.983,352.406,229.34,352.406z"/>
				</g>
			</g>
		</g>
	</g>
	<g>
		<g>
			<path class="st2" d="M229.34,325.85c-35.408,0-64.111,28.704-64.111,64.111c0,11.586,3.089,22.443,8.464,31.823h111.294
				c5.375-9.379,8.464-20.237,8.464-31.823C293.451,354.554,264.747,325.85,229.34,325.85z"/>
		</g>
	</g>
	<g>
		<g>
			<path class="st1" d="M244.338,327.632c-4.813-1.154-9.831-1.782-14.998-1.782c-35.408,0-64.111,28.704-64.111,64.111
				c0,11.586,3.089,22.443,8.464,31.823h29.996c-5.375-9.379-8.464-20.237-8.464-31.823
				C195.224,359.721,216.168,334.387,244.338,327.632z"/>
		</g>
	</g>
	<g>
		<g>
			<g>
				<g>
					<path class="st4" d="M229.34,318.85c-39.211,0-71.111,31.9-71.111,71.111c0,12.375,3.247,24.583,9.391,35.303
						c1.247,2.177,3.564,3.52,6.073,3.52h111.295c2.509,0,4.826-1.343,6.073-3.519c6.144-10.719,9.391-22.927,9.391-35.303
						C300.451,350.751,268.551,318.85,229.34,318.85z M280.769,414.785H177.91c-3.727-7.713-5.682-16.217-5.682-24.823
						c0-31.491,25.62-57.111,57.111-57.111s57.111,25.62,57.111,57.111C286.451,398.568,284.496,407.072,280.769,414.785z"/>
				</g>
			</g>
		</g>
	</g>
	<g>
		<g>
			<g>
				<g>
					<path class="st4" d="M251.105,83.215h-43.531c-3.866,0-7,3.134-7,7c0,8.946,3.377,17.477,9.509,24.023
						c0.598,0.638,0.927,1.472,0.927,2.347v19.188c0,3.866,3.134,7,7,7h22.659c3.866,0,7-3.134,7-7v-19.188
						c0-0.876,0.329-1.709,0.927-2.347c6.132-6.546,9.509-15.077,9.509-24.023C258.105,86.349,254.971,83.215,251.105,83.215z
						 M238.379,104.667c-3.037,3.242-4.71,7.475-4.71,11.919v12.188h-8.659v-12.188c0-4.444-1.673-8.677-4.71-11.919
						c-2.037-2.174-3.569-4.711-4.533-7.451h27.146C241.948,99.956,240.416,102.493,238.379,104.667z"/>
				</g>
			</g>
		</g>
	</g>
	<g>
		<g>
			<g>
				<g>
					<path class="st4" d="M302.073,131.366c-1.312-1.313-3.093-2.05-4.95-2.05l-135.567,0c-3.866,0-7,3.134-7,7
						c0,19.232,15.646,34.879,34.879,34.879h79.81c19.232,0,34.879-15.647,34.879-34.879
						C304.123,134.459,303.386,132.679,302.073,131.366z M269.244,157.195h-79.81c-9.058,0-16.788-5.799-19.672-13.879l119.153,0
						C286.032,151.396,278.302,157.195,269.244,157.195z"/>
				</g>
			</g>
		</g>
	</g>
	<g>
		<g>
			<path class="st4" d="M203.182,308.317l-14.897-14.898c-2.733-2.733-7.166-2.734-9.899,0s-2.734,7.166,0,9.899l14.897,14.898
				c1.367,1.367,3.158,2.05,4.95,2.05c1.791,0,3.583-0.684,4.95-2.05C205.916,315.483,205.916,311.05,203.182,308.317z"/>
		</g>
	</g>
	<g>
		<g>
			<path class="st7" d="M239.287,342.897l-2.807,13.716c15.852,3.244,27.357,17.364,27.357,33.575h14
				C277.838,367.357,261.625,347.468,239.287,342.897z"/>
		</g>
	</g>
</g>
</svg>
