<?xml version="1.0" encoding="utf-8"?>
<!-- Generator: Adobe Illustrator 21.1.0, SVG Export Plug-In . SVG Version: 6.00 Build 0)  -->
<svg version="1.1" id="Layer_1" xmlns="http://www.w3.org/2000/svg" xmlns:xlink="http://www.w3.org/1999/xlink" x="0px" y="0px"
	 viewBox="0 0 512 512" style="enable-background:new 0 0 512 512;" xml:space="preserve">
<style type="text/css">
	.st0{fill:#D6CD1E;}
	.st1{fill:#E56823;}
	.st2{fill:#FE8E46;}
	.st3{fill:#FEFE71;}
	.st4{fill:#463218;}
	.st5{fill:#7DAC51;}
	.st6{fill:#5B7C31;}
	.st7{fill:#FFFFFF;}
</style>
<g>
	<g>
		<g>
			<path class="st2" d="M139.306,291.456v101.068c0,15.088,12.231,27.32,27.32,27.32h178.749c15.088,0,27.32-12.231,27.32-27.32
				V291.456H139.306z"/>
		</g>
	</g>
	<g>
		<g>
			<g>
				<g>
					<path class="st4" d="M372.694,284.457H139.306c-3.866,0-7,3.134-7,7v101.067c0,18.924,15.396,34.32,34.32,34.32h178.749
						c18.924,0,34.32-15.396,34.32-34.32V291.457C379.694,287.59,376.561,284.457,372.694,284.457z M365.694,392.524
						c0,11.205-9.115,20.32-20.32,20.32H166.625c-11.205,0-20.32-9.115-20.32-20.32v-94.067h219.389V392.524z"/>
				</g>
			</g>
		</g>
	</g>
	<g>
		<g>
			<path class="st5" d="M254.951,92.156c-14.719,27.844-23.43,62.318-23.43,99.65c0,37.332,8.71,71.805,23.43,99.65
				c14.719-27.844,23.43-62.318,23.43-99.65C278.381,154.475,269.671,120.001,254.951,92.156z"/>
		</g>
	</g>
	<g>
		<g>
			<path class="st6" d="M254.951,92.156c-14.719,27.844-23.43,62.319-23.43,99.65c0,37.332,8.71,71.806,23.43,99.65
				C255.997,289.478,254.951,92.156,254.951,92.156z"/>
		</g>
	</g>
	<g>
		<g>
			<path class="st5" d="M213.605,224.69c-20.251-20.251-43.677-34.227-66.766-41.347c7.12,23.089,21.096,46.515,41.346,66.766
				c20.251,20.251,43.677,34.227,66.766,41.346C247.832,268.367,233.856,244.941,213.605,224.69z"/>
		</g>
	</g>
	<g>
		<g>
			<path class="st6" d="M254.755,290.856L146.839,183.344c7.12,23.089,21.096,46.515,41.347,66.766
				c20.251,20.251,43.677,34.227,66.766,41.346C254.89,291.256,254.818,291.056,254.755,290.856z"/>
		</g>
	</g>
	<g>
		<g>
			<g>
				<g>
					<path class="st4" d="M261.14,88.885c-1.212-2.293-3.594-3.729-6.188-3.729s-4.976,1.435-6.188,3.729
						c-15.859,30-24.242,65.589-24.242,102.921s8.383,72.922,24.242,102.922c1.212,2.293,3.594,3.729,6.188,3.729
						s4.976-1.435,6.188-3.729c15.859-30,24.241-65.59,24.241-102.922S276.999,118.885,261.14,88.885z M254.952,275.233
						c-10.781-25.083-16.43-53.628-16.43-83.427c0-29.798,5.649-58.343,16.43-83.426c10.78,25.083,16.43,53.628,16.43,83.426
						S265.732,250.15,254.952,275.233z"/>
				</g>
			</g>
		</g>
	</g>
	<g>
		<g>
			<g>
				<g>
					<path class="st4" d="M261.641,289.394c-7.749-25.129-22.648-49.215-43.086-69.653s-44.523-35.337-69.653-43.086
						c-2.479-0.765-5.178-0.095-7.013,1.739c-1.834,1.834-2.504,4.533-1.739,7.013c7.749,25.129,22.648,49.215,43.086,69.653
						s44.523,35.337,69.653,43.086c0.679,0.209,1.373,0.311,2.062,0.311c1.829,0,3.618-0.718,4.95-2.05
						C261.736,294.572,262.405,291.873,261.641,289.394z M193.135,245.16c-15.002-15.002-26.744-32.07-34.479-49.999
						c17.929,7.735,34.997,19.478,49.999,34.479c15.001,15.002,26.744,32.07,34.479,49.999
						C225.205,271.904,208.137,260.162,193.135,245.16z"/>
				</g>
			</g>
		</g>
	</g>
	<g>
		<g>
			<path class="st5" d="M298.395,224.69c-20.251,20.251-34.227,43.677-41.347,66.766c23.089-7.12,46.515-21.095,66.766-41.346
				c20.251-20.251,34.227-43.677,41.346-66.766C342.071,190.464,318.646,204.439,298.395,224.69z"/>
		</g>
	</g>
	<g>
		<g>
			<path class="st6" d="M257.244,290.856c-0.063,0.2-0.134,0.4-0.196,0.6c23.089-7.12,46.515-21.095,66.766-41.346
				c20.251-20.251,34.227-43.677,41.347-66.766L257.244,290.856z"/>
		</g>
	</g>
	<g>
		<g>
			<g>
				<g>
					<path class="st4" d="M370.11,178.394c-1.834-1.834-4.534-2.505-7.013-1.739c-25.129,7.749-49.215,22.648-69.653,43.086
						c-20.438,20.438-35.337,44.524-43.086,69.653c-0.764,2.479-0.095,5.178,1.74,7.012c1.333,1.333,3.121,2.05,4.95,2.05
						c0.689,0,1.384-0.102,2.062-0.311c25.129-7.749,49.214-22.648,69.652-43.086c20.439-20.438,35.338-44.524,43.086-69.653
						C372.614,182.927,371.945,180.229,370.11,178.394z M318.864,245.16c-15.002,15.001-32.07,26.744-49.999,34.479
						c7.734-17.929,19.477-34.997,34.479-49.999c15.002-15.001,32.07-26.744,49.999-34.479
						C345.609,213.09,333.867,230.158,318.864,245.16z"/>
				</g>
			</g>
		</g>
	</g>
	<g>
		<g>
			<path class="st4" d="M139.306,284.457H102.4c-3.866,0-7,3.134-7,7s3.134,7,7,7h36.906c3.866,0,7-3.134,7-7
				S143.172,284.457,139.306,284.457z"/>
		</g>
	</g>
	<g>
		<g>
			<path class="st4" d="M409.6,284.457h-36.906c-3.866,0-7,3.134-7,7s3.134,7,7,7H409.6c3.866,0,7-3.134,7-7
				S413.466,284.457,409.6,284.457z"/>
		</g>
	</g>
	<g>
		<g>
			<path class="st3" d="M370.901,336.686c-10.576,10.576-27.724,10.576-38.3,0c-10.576-10.576-27.724-10.576-38.3,0
				c-10.576,10.576-27.724,10.576-38.3,0c-10.576-10.576-27.724-10.576-38.3,0c-10.576,10.576-27.724,10.576-38.3,0
				c-10.576-10.576-27.724-10.576-38.3,0c-0.578,0.578-1.179,1.118-1.794,1.633v54.205c0,15.088,12.231,27.32,27.32,27.32h178.749
				c15.088,0,27.319-12.231,27.319-27.32v-57.471C372.079,335.568,371.479,336.108,370.901,336.686z"/>
		</g>
	</g>
	<g>
		<g>
			<g>
				<g>
					<path class="st4" d="M375.656,328.71c-2.462-1.15-5.371-0.77-7.455,0.976c-0.826,0.691-1.562,1.363-2.25,2.051
						c-7.83,7.83-20.571,7.83-28.401,0c-13.288-13.288-34.91-13.289-48.2,0c-7.83,7.83-20.57,7.83-28.401,0
						c-13.288-13.288-34.91-13.289-48.2,0c-7.83,7.83-20.571,7.83-28.401,0c-6.437-6.438-14.996-9.982-24.1-9.982
						s-17.663,3.545-24.098,9.98c-0.399,0.399-0.837,0.796-1.337,1.215c-1.59,1.33-2.509,3.296-2.509,5.369v54.205
						c0,18.924,15.396,34.319,34.32,34.319h178.749c18.924,0,34.32-15.396,34.32-34.319v-57.471
						C379.694,332.334,378.12,329.861,375.656,328.71z M365.694,392.524c0,11.204-9.115,20.319-20.32,20.319H166.625
						c-11.205,0-20.32-9.115-20.32-20.319v-51.14c7.85-7.576,20.399-7.493,28.144,0.252c13.289,13.289,34.912,13.289,48.2,0
						c7.83-7.83,20.57-7.83,28.401,0c13.289,13.288,34.911,13.289,48.2,0c3.793-3.793,8.836-5.882,14.201-5.882
						c5.364,0,10.407,2.089,14.2,5.882c10.268,10.268,25.512,12.602,38.043,7V392.524z"/>
				</g>
			</g>
		</g>
	</g>
	<g>
		<g>
			<path class="st0" d="M370.901,376.748c-10.576,10.576-27.724,10.576-38.3,0c-10.576-10.576-27.724-10.576-38.3,0
				c-10.576,10.576-27.724,10.576-38.3,0c-10.576-10.576-27.724-10.576-38.3,0c-10.576,10.576-27.724,10.576-38.3,0
				c-10.576-10.576-27.724-10.576-38.3,0c-0.578,0.578-1.179,1.118-1.794,1.633v14.143c0,15.088,12.231,27.32,27.32,27.32h178.749
				c15.088,0,27.319-12.231,27.319-27.32v-17.409C372.079,375.629,371.479,376.17,370.901,376.748z"/>
		</g>
	</g>
	<g>
		<g>
			<g>
				<g>
					<path class="st4" d="M375.658,368.773c-2.464-1.15-5.369-0.771-7.455,0.973c-0.823,0.688-1.561,1.361-2.252,2.053
						c-7.83,7.83-20.571,7.83-28.401,0c-6.437-6.438-14.996-9.983-24.1-9.983c-9.104,0-17.663,3.545-24.1,9.983
						c-7.83,7.83-20.57,7.83-28.401,0c-6.437-6.438-14.996-9.983-24.1-9.983c-9.104,0-17.663,3.545-24.1,9.983
						c-7.831,7.83-20.571,7.83-28.401,0c-6.437-6.438-14.996-9.983-24.1-9.983s-17.663,3.545-24.098,9.981
						c-0.399,0.399-0.837,0.796-1.337,1.215c-1.59,1.33-2.509,3.296-2.509,5.369v14.144c0,18.924,15.396,34.319,34.32,34.319
						h178.749c18.924,0,34.32-15.396,34.32-34.319v-17.41C379.694,372.396,378.121,369.924,375.658,368.773z M365.694,392.524
						c0,11.204-9.115,20.319-20.32,20.319H166.625c-11.205,0-20.32-9.115-20.32-20.319v-11.079c3.762-3.634,8.7-5.63,13.944-5.63
						c5.364,0,10.407,2.089,14.2,5.882c13.289,13.289,34.911,13.288,48.2,0c3.793-3.793,8.836-5.882,14.201-5.882
						s10.407,2.089,14.2,5.882c13.288,13.288,34.911,13.288,48.2,0c3.793-3.793,8.836-5.882,14.201-5.882
						c5.364,0,10.407,2.089,14.2,5.882c10.268,10.268,25.512,12.602,38.043,7V392.524z"/>
				</g>
			</g>
		</g>
	</g>
	<g>
		<g>
			<rect x="330.624" y="305.317" class="st7" width="22.501" height="14"/>
		</g>
	</g>
</g>
</svg>
