<?xml version="1.0" encoding="utf-8"?>
<!-- Generator: Adobe Illustrator 21.1.0, SVG Export Plug-In . SVG Version: 6.00 Build 0)  -->
<svg version="1.1" id="Layer_1" xmlns="http://www.w3.org/2000/svg" xmlns:xlink="http://www.w3.org/1999/xlink" x="0px" y="0px"
	 viewBox="0 0 512 512" style="enable-background:new 0 0 512 512;" xml:space="preserve">
<style type="text/css">
	.st0{fill:#D6CD1E;}
	.st1{fill:#E56823;}
	.st2{fill:#FE8E46;}
	.st3{fill:#FEFE71;}
	.st4{fill:#463218;}
	.st5{fill:#7DAC51;}
	.st6{fill:#5B7C31;}
	.st7{fill:#FFFFFF;}
</style>
<g>
	<g>
		<g>
			<path class="st5" d="M154.305,329.501l23.182,7.738c-30.863,0.397-58.38,6.713-76.603,16.316
				c18.464,9.131,46.134,14.737,76.997,14.34l-22.975,8.331c0,0,90.992,0.453,99.578-24.647
				C245.256,326.707,154.305,329.501,154.305,329.501z"/>
		</g>
	</g>
	<g>
		<g>
			<path class="st6" d="M100.884,353.554c18.464,9.131,46.134,14.737,76.997,14.34l-22.975,8.331c0,0,90.992,0.453,99.578-24.647
				L100.884,353.554z"/>
		</g>
	</g>
	<g>
		<g>
			<path class="st5" d="M178.873,248.108l9.43,19.905c-20.229-18.111-42.541-29.584-61.204-32.931
				c5.382,18.181,19.242,39.094,39.471,57.205l-20.822-7.181c0,0,58.475,54.669,82.026,40.112l0,0l0,0
				C239.649,300.207,178.873,248.108,178.873,248.108z"/>
		</g>
	</g>
	<g>
		<g>
			<path class="st6" d="M227.774,325.218l-100.675-90.136c5.382,18.181,19.242,39.094,39.471,57.205l-20.822-7.181
				C145.747,285.107,204.223,339.776,227.774,325.218L227.774,325.218L227.774,325.218z"/>
		</g>
	</g>
	<g>
		<g>
			<g>
				<g>
					<path class="st4" d="M213.113,272.754c-13.909-16.386-29.047-29.414-29.685-29.961c-2.508-2.15-6.179-2.253-8.805-0.248
						c-1.385,1.058-2.28,2.551-2.61,4.163c-14.652-9.533-29.821-16.031-43.679-18.517c-2.39-0.427-4.832,0.412-6.451,2.221
						s-2.186,4.328-1.497,6.656c3.997,13.501,12.125,27.862,23.214,41.375c-1.566,0.505-2.951,1.559-3.85,3.052
						c-1.704,2.831-1.197,6.468,1.216,8.724c0.614,0.574,15.229,14.185,33.047,26.205c18.136,12.234,32.728,18.305,44.137,18.305
						c5.047,0,9.472-1.188,13.303-3.557c1.146-0.709,2.064-1.734,2.643-2.952C240.397,314.953,233.533,296.81,213.113,272.754z
						 M222.12,320.156c-7.604,2.404-21.991-3.022-40.151-15.254c-3.68-2.478-7.238-5.05-10.557-7.559
						c0.457-0.438,0.86-0.943,1.193-1.51c1.688-2.873,1.116-6.538-1.366-8.761c-14.326-12.826-25.725-27.483-32.586-41.646
						c14.833,5.26,30.656,14.976,44.981,27.802c2.483,2.223,6.188,2.387,8.858,0.393c0.527-0.394,0.985-0.851,1.37-1.353
						c2.859,3.022,5.807,6.276,8.675,9.66C216.695,298.632,223.672,312.332,222.12,320.156z"/>
				</g>
			</g>
		</g>
	</g>
	<g>
		<g>
			<g>
				<g>
					<path class="st4" d="M261.047,349.143c-4.903-13.213-24.336-21.356-59.41-24.895c-24.073-2.429-46.6-1.773-47.546-1.744
						c-3.391,0.104-6.218,2.624-6.711,5.98c-0.205,1.393,0.018,2.764,0.578,3.967c-19.418,2.726-36.955,7.858-50.337,14.91
						c-2.327,1.226-3.77,3.653-3.736,6.283s1.539,5.019,3.896,6.185c13.56,6.706,31.22,11.385,50.704,13.61
						c-0.529,1.218-0.716,2.594-0.476,3.981c0.579,3.342,3.471,5.789,6.863,5.806c0.063,0,0.222,0.001,0.471,0.001
						c3.487,0,24.613-0.124,47.015-2.968c34.972-4.44,54.189-13.08,58.75-26.415C261.629,352.317,261.608,350.656,261.047,349.143z
						 M200.718,366.354c-5.407,0.689-10.777,1.213-15.836,1.611c0.004-0.438-0.033-0.882-0.114-1.326
						c-0.607-3.33-3.508-5.744-6.885-5.744c-0.03,0-0.061,0-0.091,0c-21.418,0.281-41.864-2.427-58.44-7.578
						c16.438-5.575,36.802-8.804,58.226-9.079c3.416-0.044,6.3-2.546,6.827-5.921c0.07-0.447,0.095-0.892,0.08-1.33
						c5.026,0.266,10.364,0.648,15.749,1.191c32.125,3.241,42.703,9.668,46.178,13.504
						C243.039,355.6,232.653,362.286,200.718,366.354z"/>
				</g>
			</g>
		</g>
	</g>
	<g>
		<g>
			<path class="st5" d="M411.116,353.554c-18.222-9.603-45.74-15.919-76.603-16.316l23.182-7.738c0,0-90.951-2.794-100.179,22.078
				c8.585,25.1,99.578,24.647,99.578,24.647l-22.975-8.331C364.982,368.291,392.653,362.685,411.116,353.554z"/>
		</g>
	</g>
	<g>
		<g>
			<path class="st6" d="M411.116,353.554l-153.6-1.976c8.585,25.1,99.578,24.647,99.578,24.647l-22.975-8.331
				C364.982,368.291,392.653,362.685,411.116,353.554z"/>
		</g>
	</g>
	<g>
		<g>
			<path class="st5" d="M384.901,235.082c-18.663,3.347-40.975,14.819-61.204,32.931l9.43-19.905c0,0-60.777,52.099-48.901,77.11
				l0,0l0,0c23.551,14.558,82.026-40.112,82.026-40.112l-20.822,7.181C365.659,274.176,379.519,253.263,384.901,235.082z"/>
		</g>
	</g>
	<g>
		<g>
			<path class="st6" d="M384.901,235.082l-100.675,90.136h0l0,0c23.551,14.558,82.026-40.112,82.026-40.112l-20.822,7.181
				C365.659,274.176,379.519,253.263,384.901,235.082z"/>
		</g>
	</g>
	<g>
		<g>
			<g>
				<g>
					<path class="st4" d="M390.117,230.413c-1.62-1.809-4.06-2.648-6.451-2.221c-13.858,2.486-29.027,8.984-43.679,18.517
						c-0.33-1.613-1.225-3.105-2.61-4.163c-2.625-2.005-6.296-1.902-8.805,0.248c-0.638,0.547-15.776,13.574-29.685,29.961
						c-20.419,24.056-27.284,42.199-20.984,55.467c0.578,1.218,1.496,2.243,2.643,2.952c3.833,2.369,8.255,3.557,13.303,3.557
						c11.409-0.001,26.003-6.072,44.137-18.305c17.818-12.02,32.434-25.631,33.047-26.205c2.414-2.256,2.92-5.893,1.216-8.724
						c-0.899-1.493-2.284-2.547-3.85-3.052c11.088-13.514,19.217-27.874,23.214-41.375
						C392.303,234.741,391.736,232.222,390.117,230.413z M340.761,287.072c-2.482,2.223-3.054,5.887-1.366,8.761
						c0.333,0.568,0.737,1.074,1.194,1.511c-3.28,2.479-6.794,5.02-10.433,7.474c-18.223,12.293-32.655,17.748-40.276,15.338
						c-1.552-7.825,5.425-21.525,19.583-38.228c2.868-3.384,5.816-6.638,8.675-9.66c0.385,0.502,0.843,0.959,1.37,1.353
						c2.67,1.994,6.375,1.83,8.858-0.393c14.325-12.826,30.148-22.542,44.981-27.802
						C366.486,259.589,355.087,274.246,340.761,287.072z"/>
				</g>
			</g>
		</g>
	</g>
	<g>
		<g>
			<g>
				<g>
					<path class="st4" d="M414.379,347.362c-13.382-7.052-30.918-12.185-50.337-14.91c0.561-1.204,0.783-2.574,0.578-3.967
						c-0.493-3.356-3.32-5.876-6.711-5.98c-0.947-0.029-23.475-0.685-47.546,1.744c-35.074,3.539-54.507,11.682-59.41,24.895
						c-0.561,1.513-0.583,3.174-0.061,4.7c4.561,13.335,23.778,21.975,58.75,26.415c22.403,2.844,43.53,2.968,47.015,2.968
						c0.249,0,0.408,0,0.471-0.001c3.392-0.017,6.284-2.463,6.863-5.806c0.24-1.387,0.053-2.763-0.476-3.981
						c19.482-2.225,37.145-6.904,50.704-13.61c2.357-1.166,3.863-3.555,3.896-6.185S416.707,348.588,414.379,347.362z
						 M334.208,360.895c-3.419-0.03-6.364,2.384-6.976,5.744c-0.082,0.445-0.118,0.889-0.114,1.327
						c-5.018-0.395-10.344-0.914-15.712-1.596c-32.031-4.067-42.439-10.764-45.815-14.688c3.47-3.83,14.024-10.246,46.053-13.492
						c5.423-0.55,10.805-0.935,15.873-1.203c-0.016,0.438,0.01,0.883,0.08,1.329c0.526,3.375,3.411,5.877,6.827,5.921
						c21.424,0.275,41.788,3.504,58.226,9.079C376.074,358.468,355.633,361.175,334.208,360.895z"/>
				</g>
			</g>
		</g>
	</g>
	<g>
		<g>
			<path class="st5" d="M301.179,174.953l-16.059,38.181h0c0-51.061-11.915-96.713-30.636-127.061
				c-18.722,30.347-30.636,75.999-30.636,127.061l-16.059-38.181c0,0-3.244,150.506,46.695,165.242l0,0v0
				C304.423,325.459,301.179,174.953,301.179,174.953z"/>
		</g>
	</g>
	<g>
		<g>
			<path class="st6" d="M223.848,213.134l-16.059-38.181c0,0-3.244,150.506,46.695,165.241V86.074
				C235.762,116.421,223.848,162.073,223.848,213.134z"/>
		</g>
	</g>
	<g>
		<g>
			<g>
				<g>
					<path class="st4" d="M308.178,174.802c-0.071-3.303-2.442-6.107-5.688-6.725c-3.244-0.62-6.482,1.116-7.763,4.162l-4.093,9.732
						c-3.716-38.556-14.269-73.76-30.192-99.573c-1.275-2.066-3.529-3.325-5.958-3.325s-4.683,1.258-5.958,3.325
						c-15.924,25.812-26.476,61.016-30.192,99.573l-4.093-9.732c-1.281-3.046-4.518-4.78-7.763-4.162
						c-3.246,0.618-5.617,3.422-5.688,6.725c-0.034,1.559-0.76,38.636,4.684,78.2c7.617,55.351,23.439,86.946,47.028,93.906
						c0.646,0.191,1.313,0.286,1.981,0.286c0.667,0,1.334-0.095,1.981-0.286c23.589-6.96,39.412-38.555,47.029-93.906
						C308.938,213.439,308.211,176.361,308.178,174.802z M289.624,251.094c-6.353,46.168-18.786,74.995-35.14,81.69
						c-16.334-6.688-28.76-35.462-35.119-81.539c-1.917-13.893-3.048-27.631-3.709-39.533l1.74,4.136
						c1.292,3.072,4.572,4.808,7.837,4.148c3.267-0.659,5.616-3.53,5.616-6.862c0-42.612,8.527-82.888,23.636-112.724
						c15.11,29.836,23.637,70.112,23.637,112.724c0,3.332,2.349,6.203,5.616,6.862c3.269,0.659,6.545-1.077,7.837-4.148l1.742-4.142
						C292.656,223.56,291.53,237.241,289.624,251.094z"/>
				</g>
			</g>
		</g>
	</g>
	<g>
		<g>
			<path class="st6" d="M250.777,366.131c-15.234,1.439-28.851,7.69-38.398,18.891s-13.563,25.636-12.571,40.905
				c15.234-1.439,28.851-7.69,38.398-18.891C247.753,395.835,251.768,381.4,250.777,366.131z"/>
		</g>
	</g>
	<g>
		<g>
			<g>
				<g>
					<path class="st4" d="M257.762,365.677c-0.123-1.888-1.004-3.646-2.444-4.874c-1.44-1.227-3.32-1.819-5.199-1.642
						c-17.713,1.673-32.605,9.045-43.067,21.319c-10.462,12.273-15.382,28.145-14.229,45.899c0.123,1.888,1.004,3.646,2.444,4.874
						c1.272,1.084,2.884,1.673,4.541,1.673c0.219,0,0.439-0.01,0.659-0.031c17.713-1.673,32.605-9.045,43.067-21.319v0
						C253.995,399.303,258.915,383.431,257.762,365.677z M232.879,402.495L232.879,402.495
						c-6.543,7.676-15.471,12.874-26.107,15.262c0.674-10.88,4.392-20.519,10.935-28.195c6.543-7.676,15.471-12.873,26.107-15.262
						C243.14,385.18,239.421,394.819,232.879,402.495z"/>
				</g>
			</g>
		</g>
	</g>
	<g>
		<g>
			<path class="st6" d="M296.589,385.021c-9.547-11.2-23.164-17.452-38.398-18.891c-0.992,15.269,3.024,29.704,12.571,40.905
				c9.547,11.201,23.164,17.452,38.398,18.891C310.152,410.657,306.136,396.222,296.589,385.021z"/>
		</g>
	</g>
	<g>
		<g>
			<g>
				<g>
					<path class="st4" d="M301.917,380.48c-10.462-12.273-25.354-19.645-43.067-21.318c-1.88-0.178-3.759,0.414-5.199,1.642
						c-1.44,1.228-2.322,2.986-2.444,4.874c-1.153,17.754,3.767,33.626,14.229,45.899v0c10.462,12.274,25.354,19.646,43.067,21.319
						c0.22,0.021,0.439,0.031,0.659,0.031c1.657,0,3.269-0.589,4.541-1.673c1.44-1.228,2.322-2.986,2.444-4.874
						C317.298,408.626,312.378,392.754,301.917,380.48z M276.089,402.495L276.089,402.495c-6.542-7.676-10.261-17.314-10.935-28.195
						c10.636,2.389,19.564,7.586,26.107,15.262c6.542,7.676,10.261,17.315,10.935,28.195
						C291.561,415.368,282.633,410.171,276.089,402.495z"/>
				</g>
			</g>
		</g>
	</g>
	<g>
		<g>
			<rect x="247.484" y="256.829" class="st7" width="14" height="42.307"/>
		</g>
	</g>
	<g>
		<g>
			<rect x="247.484" y="231.939" class="st7" width="14" height="17.682"/>
		</g>
	</g>
</g>
</svg>
