<?xml version="1.0" encoding="utf-8"?>
<!-- Generator: Adobe Illustrator 21.1.0, SVG Export Plug-In . SVG Version: 6.00 Build 0)  -->
<svg version="1.1" id="Layer_1" xmlns="http://www.w3.org/2000/svg" xmlns:xlink="http://www.w3.org/1999/xlink" x="0px" y="0px"
	 viewBox="0 0 512 512" style="enable-background:new 0 0 512 512;" xml:space="preserve">
<style type="text/css">
	.st0{fill:#D6CD1E;}
	.st1{fill:#E56823;}
	.st2{fill:#FE8E46;}
	.st3{fill:#FEFE71;}
	.st4{fill:#463218;}
	.st5{fill:#7DAC51;}
	.st6{fill:#5B7C31;}
	.st7{fill:#FFFFFF;}
</style>
<g>
	<g>
		<g>
			<polygon class="st1" points="255.967,84.41 131.407,208.97 131.407,430.776 382.638,430.776 382.638,208.97 			"/>
		</g>
	</g>
	<g>
		<g>
			<path class="st5" d="M256.281,190.29c-10.416,19.705-16.58,44.101-16.58,70.519c0,26.418,6.164,50.814,16.58,70.519
				c10.417-19.705,16.581-44.101,16.581-70.519C272.861,234.39,266.697,209.994,256.281,190.29z"/>
		</g>
	</g>
	<g>
		<g>
			<path class="st6" d="M256.281,190.29c-10.416,19.705-16.58,44.101-16.58,70.519c0,26.418,6.164,50.814,16.58,70.519
				C257.021,329.927,256.281,190.29,256.281,190.29z"/>
		</g>
	</g>
	<g>
		<g>
			<path class="st5" d="M227.021,284.079c-14.331-14.331-30.909-24.221-47.248-29.26c5.038,16.34,14.929,32.917,29.26,47.248
				s30.909,24.221,47.248,29.26C251.242,314.988,241.352,298.41,227.021,284.079z"/>
		</g>
	</g>
	<g>
		<g>
			<path class="st6" d="M256.142,330.903l-76.369-76.083c5.038,16.34,14.929,32.917,29.26,47.248s30.909,24.221,47.248,29.26
				C256.237,331.186,256.186,331.044,256.142,330.903z"/>
		</g>
	</g>
	<g>
		<g>
			<g>
				<g>
					<path class="st4" d="M262.469,187.018c-1.213-2.293-3.594-3.729-6.188-3.729s-4.977,1.435-6.188,3.729
						c-11.378,21.524-17.392,47.04-17.392,73.791s6.014,52.267,17.392,73.791c1.212,2.293,3.594,3.729,6.188,3.729
						s4.976-1.435,6.188-3.729c11.378-21.523,17.393-47.04,17.393-73.791S273.847,208.541,262.469,187.018z M256.28,314.422
						c-6.295-16.35-9.58-34.611-9.58-53.613s3.285-37.263,9.58-53.613c6.296,16.349,9.581,34.611,9.581,53.613
						S262.576,298.072,256.28,314.422z"/>
				</g>
			</g>
		</g>
	</g>
	<g>
		<g>
			<g>
				<g>
					<path class="st4" d="M262.97,329.265c-5.581-18.1-16.301-35.437-30.999-50.135c-14.697-14.698-32.034-25.417-50.136-30.999
						c-2.477-0.766-5.178-0.095-7.013,1.739c-1.834,1.834-2.504,4.533-1.739,7.013c5.583,18.101,16.302,35.438,30.999,50.135
						c14.698,14.698,32.035,25.417,50.136,30.999c0.678,0.209,1.373,0.311,2.062,0.311c1.829,0,3.618-0.718,4.95-2.05
						C263.064,334.443,263.734,331.744,262.97,329.265z M213.982,297.118c-9.021-9.021-16.345-19.108-21.634-29.723
						c10.614,5.29,20.701,12.613,29.723,21.634c9.021,9.021,16.345,19.11,21.634,29.723
						C233.091,313.463,223.003,306.139,213.982,297.118z"/>
				</g>
			</g>
		</g>
	</g>
	<g>
		<g>
			<path class="st5" d="M287.024,284.079c-14.331,14.331-24.221,30.909-29.26,47.248c16.339-5.039,32.917-14.929,47.248-29.26
				c14.331-14.331,24.221-30.909,29.26-47.248C317.933,259.858,301.355,269.749,287.024,284.079z"/>
		</g>
	</g>
	<g>
		<g>
			<path class="st6" d="M257.903,330.903c-0.044,0.141-0.095,0.283-0.139,0.425c16.339-5.039,32.917-14.929,47.248-29.26
				c14.331-14.331,24.221-30.909,29.26-47.248L257.903,330.903z"/>
		</g>
	</g>
	<g>
		<g>
			<g>
				<g>
					<path class="st4" d="M339.223,249.87c-1.834-1.834-4.534-2.506-7.013-1.739c-18.102,5.582-35.438,16.301-50.135,30.999
						c-14.699,14.698-25.419,32.035-31,50.135c-0.765,2.479-0.095,5.178,1.74,7.012c1.332,1.333,3.12,2.05,4.95,2.05
						c0.688,0,1.384-0.102,2.062-0.311c18.101-5.582,35.438-16.301,50.136-30.999c14.697-14.697,25.416-32.034,30.999-50.135
						C341.727,254.403,341.057,251.705,339.223,249.87z M300.062,297.118c-9.021,9.021-19.108,16.344-29.723,21.634
						c5.289-10.613,12.613-20.702,21.635-29.723c9.021-9.021,19.107-16.344,29.722-21.634
						C316.407,278.01,309.084,288.097,300.062,297.118z"/>
				</g>
			</g>
		</g>
	</g>
	<g>
		<g>
			<polygon class="st3" points="205.671,328.168 224.221,397.626 291.308,397.626 309.858,328.168 			"/>
		</g>
	</g>
	<g>
		<g>
			<polygon class="st0" points="236.282,328.168 205.671,328.168 224.221,397.626 254.833,397.626 			"/>
		</g>
	</g>
	<g>
		<g>
			<g>
				<g>
					<path class="st4" d="M315.41,323.904c-1.325-1.725-3.377-2.736-5.552-2.736H205.671c-2.175,0-4.227,1.011-5.552,2.736
						s-1.772,3.968-1.211,6.07l18.55,69.458c0.817,3.063,3.593,5.194,6.763,5.194h67.087c3.17,0,5.945-2.131,6.763-5.194
						l18.551-69.458C317.183,327.873,316.735,325.63,315.41,323.904z M285.932,390.626h-56.335l-14.811-55.458h85.957
						L285.932,390.626z"/>
				</g>
			</g>
		</g>
	</g>
	<g>
		<g>
			<rect x="194.953" y="328.168" class="st3" width="125.623" height="22.344"/>
		</g>
	</g>
	<g>
		<g>
			<rect x="194.953" y="328.168" class="st0" width="43.906" height="22.344"/>
		</g>
	</g>
	<g>
		<g>
			<g>
				<g>
					<path class="st4" d="M320.575,321.168H194.953c-3.866,0-7,3.134-7,7v22.344c0,3.866,3.134,7,7,7h125.622c3.866,0,7-3.134,7-7
						v-22.344C327.575,324.302,324.441,321.168,320.575,321.168z M313.575,343.512H201.953v-8.344h111.622V343.512z"/>
				</g>
			</g>
		</g>
	</g>
	<g>
		<g>
			<g>
				<g>
					<path class="st4" d="M387.546,203.979l-126.67-124.56c-2.739-2.694-7.141-2.676-9.858,0.042L126.457,204.02
						c-1.312,1.312-2.05,3.093-2.05,4.95v221.806c0,3.866,3.134,7,7,7h251.23c3.866,0,7-3.134,7-7V208.97
						C389.638,207.093,388.884,205.295,387.546,203.979z M375.638,423.776h-237.23V211.869L256.009,94.268l119.629,117.636V423.776z
						"/>
				</g>
			</g>
		</g>
	</g>
	<g>
		<g>
			<polygon class="st3" points="256.023,77.78 256.004,77.799 255.977,77.772 81.575,252.173 100.717,271.315 255.996,116.036 
				411.283,271.323 430.425,252.182 			"/>
		</g>
	</g>
	<g>
		<g>
			<polygon class="st0" points="256.023,84.41 256.004,84.429 255.977,84.401 81.575,258.803 100.717,277.945 255.996,122.666 
				256.61,123.279 256.61,84.996 			"/>
		</g>
	</g>
	<g>
		<g>
			<g>
				<g>
					<path class="st4" d="M435.375,247.232L260.974,72.83c-0.884-0.883-1.947-1.479-3.074-1.789
						c-0.62-0.177-1.267-0.269-1.923-0.269c-1.856,0-3.637,0.738-4.95,2.05L76.625,247.224c-2.733,2.733-2.733,7.166,0,9.899
						l19.142,19.142c2.734,2.733,7.166,2.733,9.9,0l150.329-150.33l150.337,150.338c1.313,1.313,3.094,2.05,4.95,2.05
						s3.637-0.737,4.95-2.05l19.142-19.142C438.108,254.398,438.108,249.965,435.375,247.232z M411.283,261.424L260.946,111.086
						c-1.313-1.313-3.094-2.05-4.95-2.05s-3.637,0.738-4.95,2.05l-150.329,150.33l-9.242-9.242L255.996,87.652l164.529,164.53
						L411.283,261.424z"/>
				</g>
			</g>
		</g>
	</g>
	<g>
		<g>
			<rect x="131.407" y="397.626" class="st5" width="251.231" height="36.602"/>
		</g>
	</g>
	<g>
		<g>
			<g>
				<g>
					<path class="st4" d="M382.638,390.626h-251.23c-3.866,0-7,3.134-7,7v36.602c0,3.866,3.134,7,7,7h251.23c3.866,0,7-3.134,7-7
						v-36.602C389.638,393.76,386.504,390.626,382.638,390.626z M375.638,427.228h-237.23v-22.602h237.23V427.228z"/>
				</g>
			</g>
		</g>
	</g>
	<g>
		<g>
			<rect x="345.428" y="287.897" class="st7" width="14" height="36.522"/>
		</g>
	</g>
	<g>
		<g>
			<rect x="345.428" y="335.726" class="st7" width="14" height="22.305"/>
		</g>
	</g>
</g>
</svg>
