<?xml version="1.0" encoding="utf-8"?>
<!-- Generator: Adobe Illustrator 21.1.0, SVG Export Plug-In . SVG Version: 6.00 Build 0)  -->
<svg version="1.1" id="Layer_1" xmlns="http://www.w3.org/2000/svg" xmlns:xlink="http://www.w3.org/1999/xlink" x="0px" y="0px"
	 viewBox="0 0 512 512" style="enable-background:new 0 0 512 512;" xml:space="preserve">
<style type="text/css">
	.st0{fill:#D6CD1E;}
	.st1{fill:#E56823;}
	.st2{fill:#FE8E46;}
	.st3{fill:#FEFE71;}
	.st4{fill:#463218;}
	.st5{fill:#7DAC51;}
	.st6{fill:#5B7C31;}
	.st7{fill:#FFFFFF;}
</style>
<g>
	<g>
		<g>
			<path class="st5" d="M365.036,256.141L255.859,146.964c-29.992-29.992-78.619-29.992-108.612,0l-0.282,0.283
				c-29.992,29.992-29.992,78.62,0,108.612l109.177,109.177c29.992,29.992,78.619,29.992,108.612,0l0.282-0.283
				C395.028,334.761,395.028,286.134,365.036,256.141z"/>
		</g>
	</g>
	<g>
		<g>
			<path class="st3" d="M335.295,261.082l-36.298-36.298c-9.971-9.971-26.138-9.971-36.11,0l-0.094,0.094
				c-9.971,9.971-9.971,26.138,0,36.11l36.298,36.298c9.971,9.971,26.138,9.971,36.11,0l0.094-0.094
				C345.266,287.221,345.266,271.054,335.295,261.082z"/>
		</g>
	</g>
	<g>
		<g>
			<path class="st6" d="M282.222,338.955L173.045,229.778c-25.546-25.546-29.316-64.604-11.345-94.158
				c-5.144,3.128-10.007,6.898-14.454,11.345l-0.282,0.283c-29.992,29.992-29.992,78.619,0,108.612l109.177,109.177
				c29.992,29.992,78.619,29.992,108.612,0l0.282-0.283c4.446-4.446,8.217-9.31,11.345-14.454
				C346.826,368.271,307.768,364.501,282.222,338.955z"/>
		</g>
	</g>
	<g>
		<g>
			<g>
				<g>
					<path class="st4" d="M369.986,251.192L260.809,142.015c-15.828-15.828-36.872-24.545-59.256-24.545
						s-43.428,8.717-59.249,24.538l-0.29,0.289c-32.673,32.674-32.673,85.838,0,118.511l109.178,109.177
						c15.828,15.828,36.872,24.545,59.256,24.545s43.428-8.717,59.249-24.538l0.283-0.282c0.002-0.002,0.004-0.004,0.007-0.006
						C402.659,337.029,402.659,283.865,369.986,251.192z M360.091,359.799l-0.288,0.287c-13.183,13.184-30.711,20.444-49.355,20.444
						s-36.173-7.26-49.355-20.444L151.914,250.909c-27.216-27.215-27.216-71.497-0.007-98.706l0.29-0.289
						c13.183-13.184,30.711-20.444,49.355-20.444s36.173,7.26,49.355,20.444l109.178,109.177
						C387.3,288.304,387.301,332.583,360.091,359.799z"/>
				</g>
			</g>
		</g>
	</g>
	<g>
		<g>
			<path class="st7" d="M202.695,141.745c-16.228,0-31.483,6.319-42.965,17.8l-0.197,0.198l9.912,9.887l0.19-0.192
				c8.831-8.83,20.572-13.693,33.06-13.693c12.488,0,24.229,4.863,33.059,13.693l9.9-9.899
				C234.18,148.065,218.923,141.745,202.695,141.745z"/>
		</g>
	</g>
</g>
</svg>
