<?xml version="1.0" encoding="utf-8"?>
<!-- Generator: Adobe Illustrator 22.0.0, SVG Export Plug-In . SVG Version: 6.00 Build 0)  -->
<svg version="1.1" id="Layer_1" xmlns="http://www.w3.org/2000/svg" xmlns:xlink="http://www.w3.org/1999/xlink" x="0px" y="0px"
	 viewBox="0 0 512 512" style="enable-background:new 0 0 512 512;" xml:space="preserve">
<style type="text/css">
	.st0{fill:#D6CD1E;}
	.st1{fill:#E56823;}
	.st2{fill:#FE8E46;}
	.st3{fill:#FEFE71;}
	.st4{fill:#463218;}
	.st5{fill:#7DAC51;}
	.st6{fill:#5B7C31;}
	.st7{fill:#FFFFFF;}
</style>
<g>
	<g>
		<path class="st3" d="M330.381,297.197c0-6.249-5.066-11.315-11.315-11.315h-18.533c-6.249,0-11.314,5.066-11.314,11.315
			s5.066,11.315,11.314,11.315h18.533C325.315,308.512,330.381,303.446,330.381,297.197z"/>
	</g>
	<g>
		<path class="st3" d="M297.225,377.242c4.419-4.419,4.419-11.583,0-16.001l-13.105-13.105c-4.418-4.418-11.582-4.418-16.001,0
			c-4.419,4.419-4.419,11.583,0,16.001l13.105,13.105C285.643,381.661,292.807,381.66,297.225,377.242z"/>
	</g>
	<g>
		<path class="st4" d="M319.066,315.512h-18.533c-10.099,0-18.314-8.216-18.314-18.314s8.216-18.314,18.314-18.314h18.533
			c10.099,0,18.314,8.216,18.314,18.314S329.165,315.512,319.066,315.512z M300.533,292.883c-2.379,0-4.314,1.936-4.314,4.314
			s1.936,4.314,4.314,4.314h18.533c2.379,0,4.314-1.936,4.314-4.314s-1.936-4.314-4.314-4.314H300.533z"/>
	</g>
	<g>
		<path class="st4" d="M289.225,387.547c-4.691,0-9.38-1.784-12.951-5.354l-13.104-13.104c-7.14-7.143-7.139-18.762,0.001-25.902
			c7.143-7.14,18.762-7.14,25.9,0l13.105,13.104c7.14,7.141,7.14,18.76,0,25.901l-0.001,0.001
			C298.604,385.762,293.914,387.547,289.225,387.547z M297.226,377.242h0.01H297.226z M276.12,351.824
			c-1.104,0-2.209,0.42-3.05,1.262c-1.683,1.682-1.684,4.42-0.001,6.103l13.104,13.104c1.681,1.683,4.419,1.684,6.102,0
			c1.683-1.683,1.683-4.42,0-6.102l-13.104-13.104C278.33,352.244,277.226,351.824,276.12,351.824z"/>
	</g>
	<g>
		<path class="st3" d="M297.225,217.153c-4.419-4.419-11.583-4.419-16.001,0l-13.105,13.105c-4.418,4.418-4.418,11.582,0,16.001
			c4.419,4.419,11.583,4.419,16.001,0l13.105-13.105C301.644,228.736,301.644,221.572,297.225,217.153z"/>
	</g>
	<g>
		<path class="st4" d="M276.12,256.573c-4.893,0-9.491-1.905-12.95-5.365c-7.141-7.141-7.141-18.76-0.001-25.9l13.104-13.104
			c7.143-7.141,18.76-7.141,25.902,0c7.141,7.142,7.141,18.76,0,25.901l-13.104,13.104
			C285.611,254.668,281.013,256.573,276.12,256.573z M289.225,220.841c-1.105,0-2.21,0.421-3.051,1.263l-13.104,13.104
			c-1.683,1.682-1.682,4.419,0.001,6.101c0.814,0.815,1.897,1.265,3.05,1.265s2.236-0.449,3.051-1.265l13.104-13.104
			c1.683-1.682,1.683-4.419,0-6.101C291.435,221.262,290.33,220.841,289.225,220.841z"/>
	</g>
	<g>
		<circle class="st2" cx="217.181" cy="297.197" r="92.619"/>
	</g>
	<g>
		<path class="st1" d="M243.141,351.748c-40.64,0-73.585-32.945-73.585-73.585c0-36.484,26.557-66.748,61.391-72.56
			c-4.492-0.669-9.088-1.024-13.766-1.024c-51.152,0-92.619,41.467-92.619,92.619s41.467,92.619,92.619,92.619
			c46.249,0,84.574-33.901,91.497-78.207C296.497,335.429,271.733,351.748,243.141,351.748z"/>
	</g>
	<g>
		<path class="st7" d="M171.901,315.862c-6.113-11.531-9.345-24.567-9.345-37.699h14c0,10.854,2.667,21.623,7.714,31.143
			L171.901,315.862z"/>
	</g>
	<g>
		<path class="st4" d="M217.182,396.816c-54.93,0-99.619-44.689-99.619-99.619s44.689-99.619,99.619-99.619
			s99.618,44.689,99.618,99.619S272.111,396.816,217.182,396.816z M217.182,211.578c-47.211,0-85.619,38.408-85.619,85.619
			s38.408,85.619,85.619,85.619c47.21,0,85.618-38.408,85.618-85.619S264.392,211.578,217.182,211.578z"/>
	</g>
	<g>
		<circle class="st3" cx="234.045" cy="282.196" r="28.179"/>
	</g>
	<g>
		<path class="st4" d="M234.045,317.376c-19.397,0-35.179-15.781-35.179-35.18c0-19.397,15.781-35.179,35.179-35.179
			c19.398,0,35.18,15.781,35.18,35.179C269.225,301.595,253.443,317.376,234.045,317.376z M234.045,261.018
			c-11.678,0-21.179,9.501-21.179,21.179c0,11.679,9.501,21.18,21.179,21.18c11.679,0,21.18-9.501,21.18-21.18
			C255.225,270.519,245.724,261.018,234.045,261.018z"/>
	</g>
	<g>
		<path class="st3" d="M217.181,183.998c-6.249,0-11.315,5.066-11.315,11.315v18.533c0,6.249,5.066,11.314,11.315,11.314
			s11.315-5.066,11.315-11.314v-18.533C228.496,189.063,223.43,183.998,217.181,183.998z"/>
	</g>
	<g>
		<path class="st3" d="M217.181,369.236c-6.249,0-11.315,5.066-11.315,11.315v18.533c0,6.249,5.066,11.314,11.315,11.314
			s11.315-5.066,11.315-11.314V380.55C228.496,374.301,223.43,369.236,217.181,369.236z"/>
	</g>
	<g>
		<path class="st3" d="M145.143,297.197c0-6.249-5.066-11.315-11.315-11.315h-18.533c-6.249,0-11.314,5.066-11.314,11.315
			s5.066,11.315,11.314,11.315h18.533C140.077,308.512,145.143,303.446,145.143,297.197z"/>
	</g>
	<g>
		<path class="st3" d="M166.242,348.136c-4.419-4.419-11.583-4.419-16.001,0l-13.105,13.105c-4.418,4.418-4.418,11.582,0,16.001
			c4.419,4.419,11.583,4.419,16.001,0l13.105-13.105C170.661,359.719,170.661,352.555,166.242,348.136z"/>
	</g>
	<g>
		<path class="st3" d="M166.242,246.259c4.419-4.419,4.419-11.583,0-16.001l-13.105-13.105c-4.418-4.418-11.582-4.418-16.001,0
			c-4.419,4.419-4.419,11.583,0,16.001l13.105,13.105C154.66,250.677,161.824,250.677,166.242,246.259z"/>
	</g>
	<g>
		<path class="st4" d="M217.181,232.159c-10.099,0-18.314-8.216-18.314-18.314v-18.532c0-10.1,8.216-18.315,18.314-18.315
			c10.1,0,18.315,8.216,18.315,18.315v18.532C235.496,223.943,227.28,232.159,217.181,232.159z M217.181,190.997
			c-2.379,0-4.314,1.936-4.314,4.315v18.532c0,2.379,1.936,4.314,4.314,4.314c2.38,0,4.315-1.936,4.315-4.314v-18.532
			C221.496,192.933,219.561,190.997,217.181,190.997z"/>
	</g>
	<g>
		<path class="st4" d="M217.181,417.397c-10.099,0-18.314-8.216-18.314-18.314v-18.532c0-10.1,8.216-18.315,18.314-18.315
			c10.1,0,18.315,8.216,18.315,18.315v18.532C235.496,409.182,227.28,417.397,217.181,417.397z M217.181,376.235
			c-2.379,0-4.314,1.936-4.314,4.315v18.532c0,2.379,1.936,4.314,4.314,4.314c2.38,0,4.315-1.936,4.315-4.314v-18.532
			C221.496,378.171,219.561,376.235,217.181,376.235z"/>
	</g>
	<g>
		<path class="st4" d="M133.828,315.512h-18.533c-10.098,0-18.313-8.216-18.313-18.314s8.216-18.314,18.313-18.314h18.533
			c10.099,0,18.314,8.216,18.314,18.314S143.927,315.512,133.828,315.512z M115.295,292.883c-2.379,0-4.313,1.936-4.313,4.314
			s1.935,4.314,4.313,4.314h18.533c2.379,0,4.314-1.936,4.314-4.314s-1.936-4.314-4.314-4.314H115.295z"/>
	</g>
	<g>
		<path class="st4" d="M145.137,387.548c-4.689,0-9.379-1.785-12.95-5.355c-7.141-7.142-7.141-18.761-0.001-25.901l13.105-13.105
			c7.142-7.14,18.761-7.14,25.9,0c0,0,0,0,0.001,0c7.141,7.142,7.141,18.761,0,25.902l-13.104,13.104
			C154.517,385.763,149.827,387.548,145.137,387.548z M158.241,351.824c-1.104,0-2.209,0.42-3.05,1.262l-13.105,13.105
			c-1.683,1.682-1.682,4.419,0.001,6.101c1.683,1.685,4.42,1.683,6.101,0l13.104-13.104c1.683-1.682,1.683-4.42,0-6.102
			C160.451,352.245,159.346,351.824,158.241,351.824z"/>
	</g>
	<g>
		<path class="st4" d="M158.241,256.573c-4.893,0-9.491-1.905-12.95-5.365l-13.104-13.104c-7.142-7.143-7.141-18.762,0.001-25.901
			c7.141-7.142,18.759-7.141,25.899-0.001l13.105,13.104c7.141,7.142,7.141,18.761,0,25.902
			C167.732,254.668,163.134,256.573,158.241,256.573z M145.138,220.841c-1.105,0-2.21,0.421-3.051,1.262
			c-1.684,1.683-1.683,4.42-0.001,6.103l13.104,13.104c0.815,0.815,1.898,1.265,3.051,1.265s2.236-0.449,3.051-1.265
			c1.683-1.682,1.683-4.42,0-6.102l-13.104-13.104C147.347,221.262,146.242,220.841,145.138,220.841z"/>
	</g>
	<g>
		<circle class="st2" cx="361.709" cy="147.912" r="46.31"/>
	</g>
	<g>
		<path class="st1" d="M374.689,175.187c-20.32,0-36.792-16.472-36.792-36.792c0-18.242,13.279-33.374,30.696-36.28
			c-2.246-0.335-4.544-0.512-6.883-0.512c-25.576,0-46.31,20.733-46.31,46.309s20.733,46.309,46.31,46.309
			c23.125,0,42.287-16.95,45.749-39.104C401.367,167.028,388.985,175.187,374.689,175.187z"/>
	</g>
	<g>
		<path class="st4" d="M361.709,201.222c-29.395,0-53.31-23.915-53.31-53.31s23.915-53.31,53.31-53.31s53.31,23.915,53.31,53.31
			S391.104,201.222,361.709,201.222z M361.709,108.603c-21.676,0-39.31,17.634-39.31,39.31s17.634,39.31,39.31,39.31
			s39.31-17.634,39.31-39.31S383.385,108.603,361.709,108.603z"/>
	</g>
	<g>
		<circle class="st3" cx="370.141" cy="140.412" r="14.09"/>
	</g>
	<g>
		<path class="st4" d="M370.142,161.501c-11.629,0-21.09-9.46-21.09-21.089s9.461-21.09,21.09-21.09s21.09,9.461,21.09,21.09
			S381.771,161.501,370.142,161.501z M370.142,133.322c-3.909,0-7.09,3.181-7.09,7.09s3.181,7.089,7.09,7.089s7.09-3.18,7.09-7.089
			S374.051,133.322,370.142,133.322z"/>
	</g>
	<g>
		<g>
			<path class="st4" d="M321.068,258.015c-1.217,0-2.449-0.317-3.571-0.984c-3.323-1.977-4.414-6.272-2.438-9.595l12.533-21.073
				h-6.517c-3.866,0-7-3.134-7-7s3.134-7,7-7h18.824c2.517,0,4.84,1.352,6.085,3.539c1.244,2.188,1.218,4.876-0.068,7.039
				l-18.824,31.651C325.782,256.793,323.456,258.015,321.068,258.015z"/>
		</g>
		<g>
			<path class="st4" d="M347.416,242.19c-2.619,0-5.131-1.477-6.329-4l-7.512-15.826c-1.657-3.493-0.17-7.668,3.322-9.326
				c3.494-1.657,7.668-0.171,9.326,3.322l7.512,15.826c1.657,3.493,0.17,7.668-3.322,9.326
				C349.443,241.973,348.422,242.19,347.416,242.19z"/>
		</g>
	</g>
	<g>
		<g>
			<path class="st4" d="M293.971,201.222c-0.134,0-0.27-0.004-0.405-0.012c-3.86-0.221-6.81-3.528-6.589-7.388l0.372-6.507
				l-21.755,11.31c-3.432,1.781-7.657,0.446-9.439-2.982c-1.783-3.43-0.448-7.656,2.982-9.439l32.675-16.986
				c2.232-1.161,4.917-1.034,7.031,0.334c2.113,1.367,3.33,3.764,3.186,6.276l-1.075,18.794
				C300.74,198.345,297.654,201.222,293.971,201.222z"/>
		</g>
		<g>
			<path class="st4" d="M295.034,182.429c-1.135,0-2.286-0.276-3.352-0.858l-15.371-8.402c-3.393-1.854-4.639-6.107-2.785-9.5
				c1.855-3.393,6.108-4.639,9.5-2.785l15.371,8.402c3.393,1.854,4.639,6.107,2.785,9.5
				C299.91,181.111,297.511,182.429,295.034,182.429z"/>
		</g>
	</g>
</g>
</svg>
