<?xml version="1.0" encoding="utf-8"?>
<!-- Generator: Adobe Illustrator 21.1.0, SVG Export Plug-In . SVG Version: 6.00 Build 0)  -->
<svg version="1.1" id="Layer_1" xmlns="http://www.w3.org/2000/svg" xmlns:xlink="http://www.w3.org/1999/xlink" x="0px" y="0px"
	 viewBox="0 0 512 512" style="enable-background:new 0 0 512 512;" xml:space="preserve">
<style type="text/css">
	.st0{fill:#D6CD1E;}
	.st1{fill:#E56823;}
	.st2{fill:#FE8E46;}
	.st3{fill:#FEFE71;}
	.st4{fill:#463218;}
	.st5{fill:#7DAC51;}
	.st6{fill:#5B7C31;}
	.st7{fill:#FFFFFF;}
</style>
<g>
	<g>
		<g>
			<path class="st2" d="M97.949,151.929c0,23.714,0,47.43,0,71.144c105.367,42.515,210.735-47.804,316.102-5.29v-71.144
				C308.684,104.124,203.316,194.442,97.949,151.929z"/>
		</g>
	</g>
	<g>
		<g>
			<path class="st7" d="M334.542,154.713l0.967,13.967c16.018-1.111,30.474-0.539,44.189,1.744l2.299-13.811
				C367.189,154.15,351.667,153.527,334.542,154.713z"/>
		</g>
	</g>
	<g>
		<g>
			<path class="st1" d="M97.949,151.929c0,23.714,0,47.43,0,71.144c22.709,9.162,45.418,12.156,68.127,11.638v-71.145
				C143.367,164.084,120.658,161.09,97.949,151.929z"/>
		</g>
	</g>
	<g>
		<g>
			<path class="st3" d="M97.949,223.072c0,23.714,0,47.429,0,71.146c105.367,42.514,210.735-47.805,316.102-5.291v-71.145
				C308.684,175.269,203.316,265.587,97.949,223.072z"/>
		</g>
	</g>
	<g>
		<g>
			<path class="st5" d="M97.949,294.218c0,23.716,0,47.431,0,71.145c105.367,42.515,210.735-47.804,316.102-5.29v-71.146
				C308.684,246.413,203.316,336.731,97.949,294.218z"/>
		</g>
	</g>
	<g>
		<g>
			<path class="st0" d="M97.949,223.072c0,23.714,0,47.429,0,71.146c22.709,9.162,45.418,12.156,68.127,11.637V234.71
				C143.367,235.229,120.658,232.236,97.949,223.072z"/>
		</g>
	</g>
	<g>
		<g>
			<path class="st2" d="M97.949,294.218c0,23.716,0,47.431,0,71.145c22.709,9.162,45.418,12.155,68.127,11.637v-71.145
				C143.367,306.374,120.658,303.38,97.949,294.218z"/>
		</g>
	</g>
	<g>
		<g>
			<path class="st6" d="M97.949,294.218c0,23.716,0,47.431,0,71.145c22.709,9.162,45.418,12.155,68.127,11.637
				c0-23.715,0-47.43,0-71.145C143.367,306.374,120.658,303.38,97.949,294.218z"/>
		</g>
	</g>
	<g>
		<g>
			<g>
				<g>
					<path class="st4" d="M416.67,140.147c-54.716-22.078-109.365-9.68-162.219,2.31c-53.087,12.044-103.23,23.418-153.883,2.98
						c-2.159-0.871-4.607-0.612-6.535,0.688c-1.928,1.302-3.084,3.477-3.084,5.803v213.434c0,2.854,1.733,5.423,4.381,6.491
						c21.994,8.875,43.97,12.179,65.831,12.178c32.522-0.001,64.782-7.316,96.39-14.486c53.087-12.043,103.229-23.416,153.881-2.981
						c2.159,0.872,4.607,0.612,6.535-0.688c1.928-1.302,3.084-3.477,3.084-5.803V146.639
						C421.051,143.784,419.317,141.215,416.67,140.147z M407.051,350.048c-51.498-17.094-102.845-5.444-152.598,5.844
						c-51.56,11.694-100.337,22.764-149.504,4.669V161.954c18.783,6.234,37.536,8.645,56.21,8.644
						c32.522-0.002,64.782-7.317,96.39-14.487c51.559-11.696,100.335-22.761,149.502-4.67V350.048z"/>
				</g>
			</g>
		</g>
	</g>
	<g>
		<g>
			<path class="st4" d="M322.908,289.358c-9.845-5.204-21.522-7.955-33.767-7.955c-1.973,0-3.929,0.079-5.868,0.221
				c5.413-3.724,10.584-8.028,15.412-12.856c12.117-12.117,20.947-26.386,25.535-41.263c0.293-0.952,0.037-1.988-0.668-2.692
				s-1.74-0.961-2.692-0.668c-14.877,4.588-29.146,13.418-41.263,25.535c-3.906,3.905-7.468,8.036-10.658,12.337
				c2.121-9.688,3.209-19.836,3.209-30.214c0-22.205-4.98-43.201-14.403-61.025c-0.466-0.88-1.38-1.431-2.376-1.431
				c-0.996,0-1.911,0.551-2.376,1.432c-9.422,17.824-14.403,38.819-14.403,61.024c0,9.568,0.927,18.94,2.733,27.938
				c-2.732-3.485-5.71-6.85-8.921-10.061c-12.117-12.117-26.386-20.947-41.263-25.535c-0.951-0.293-1.988-0.036-2.692,0.668
				c-0.704,0.704-0.961,1.74-0.668,2.692c4.588,14.878,13.417,29.146,25.534,41.263c4.828,4.828,9.999,9.133,15.412,12.856
				c-1.938-0.142-3.895-0.221-5.868-0.221c-12.245,0-23.922,2.751-33.767,7.955c-0.881,0.466-1.431,1.38-1.431,2.376
				s0.551,1.91,1.431,2.376c9.845,5.205,21.522,7.956,33.767,7.956c3.383,0,6.721-0.218,9.991-0.632
				c-6.087,5.673-10.665,12.423-13.252,19.568c-0.339,0.937-0.132,1.983,0.537,2.722c0.516,0.568,1.242,0.881,1.99,0.881
				c0.222,0,0.446-0.027,0.667-0.084c7.581-1.943,14.949-6.022,21.31-11.797c3.319-3.014,6.201-6.348,8.581-9.891v19.084
				c0,1.484,1.203,2.688,2.688,2.688c1.484,0,2.687-1.203,2.687-2.688v-18.991c2.594,4.28,5.913,6.23,9.842,9.798h0
				c6.361,5.774,13.729,9.854,21.31,11.797c0.221,0.057,0.445,0.084,0.667,0.084c0.748,0,1.474-0.312,1.99-0.881
				c0.669-0.738,0.876-1.785,0.537-2.722c-2.587-7.146-7.165-13.896-13.253-19.568c3.27,0.414,6.608,0.632,9.991,0.632
				c12.245,0,23.921-2.751,33.767-7.956c0.88-0.466,1.431-1.38,1.431-2.376S323.789,289.824,322.908,289.358z"/>
		</g>
	</g>
</g>
</svg>
