<?xml version="1.0" encoding="utf-8"?>
<!-- Generator: Adobe Illustrator 21.1.0, SVG Export Plug-In . SVG Version: 6.00 Build 0)  -->
<svg version="1.1" id="Layer_1" xmlns="http://www.w3.org/2000/svg" xmlns:xlink="http://www.w3.org/1999/xlink" x="0px" y="0px"
	 viewBox="0 0 512 512" style="enable-background:new 0 0 512 512;" xml:space="preserve">
<style type="text/css">
	.st0{fill:#D6CD1E;}
	.st1{fill:#E56823;}
	.st2{fill:#FE8E46;}
	.st3{fill:#FEFE71;}
	.st4{fill:#463218;}
	.st5{fill:#7DAC51;}
	.st6{fill:#5B7C31;}
	.st7{fill:#FFFFFF;}
</style>
<g>
	<g>
		<g>
			<path class="st5" d="M300.276,377h-88.552c-21.785,0-39.444,17.659-39.444,39.444H339.72C339.72,394.659,322.06,377,300.276,377z
				"/>
		</g>
	</g>
	<g>
		<g>
			<path class="st6" d="M211.724,377c-21.785,0-39.444,17.659-39.444,39.444h51.2c0-21.785,17.66-39.444,39.444-39.444H211.724z"/>
		</g>
	</g>
	<g>
		<g>
			<path class="st1" d="M278.248,195.532l15.157-62.504h-74.81l15.157,62.504c12.583,51.891,11.502,106.156-3.139,157.504
				L223.78,377h64.439l-6.833-23.964C266.746,301.688,265.664,247.423,278.248,195.532z"/>
		</g>
	</g>
	<g>
		<g>
			<g>
				<g>
					<path class="st4" d="M300.208,134.678c0.506-2.086,0.027-4.289-1.301-5.977c-1.327-1.688-3.355-2.673-5.502-2.673h-74.81
						c-2.147,0-4.175,0.985-5.502,2.673s-1.807,3.891-1.301,5.977l15.157,62.504c12.274,50.617,11.214,103.848-3.068,153.935v0.001
						l-6.833,23.964c-0.602,2.111-0.178,4.383,1.145,6.136S221.584,384,223.78,384h64.439c2.196,0,4.265-1.03,5.587-2.783
						s1.747-4.024,1.145-6.136l-6.833-23.965c-14.282-50.087-15.342-103.317-3.068-153.935L300.208,134.678z M271.445,193.883
						c-12.844,52.964-11.734,108.662,3.21,161.072l4.29,15.045h-45.889l4.29-15.044c14.944-52.411,16.054-108.109,3.21-161.073
						l-13.06-53.854h57.009L271.445,193.883z"/>
				</g>
			</g>
		</g>
	</g>
	<g>
		<g>
			<path class="st5" d="M285,99.371c-19.251-2.532-38.75-2.532-58,0l-99,13.023v10.532l99,13.022c19.251,2.532,38.75,2.532,58,0
				l99-13.022v-10.532L285,99.371z"/>
		</g>
	</g>
	<g>
		<g>
			<g>
				<g>
					<path class="st4" d="M384.913,105.454l-99-13.023c-19.85-2.611-39.977-2.611-59.826,0l-99,13.023
						c-3.483,0.458-6.087,3.428-6.087,6.94v10.531c0,3.513,2.604,6.482,6.087,6.94l99,13.022c9.925,1.306,19.919,1.958,29.913,1.958
						s19.988-0.652,29.913-1.958l99-13.022c3.483-0.458,6.087-3.428,6.087-6.94v-10.531
						C391,108.882,388.396,105.912,384.913,105.454z M284.087,129.008c-18.637,2.451-37.537,2.451-56.174,0l-86.27-11.348
						l86.27-11.349c18.637-2.451,37.537-2.451,56.174,0l86.27,11.349L284.087,129.008z"/>
				</g>
			</g>
		</g>
	</g>
	<g>
		<g>
			<path class="st2" d="M67.275,274.698c0,22.358,18.125,40.483,40.483,40.483h40.483c22.358,0,40.483-18.125,40.483-40.483H67.275z
				"/>
		</g>
	</g>
	<g>
		<g>
			<path class="st1" d="M107.882,274.698H67.275c0,22.358,18.125,40.483,40.483,40.483h40.483c0.021,0,0.041-0.002,0.062-0.002
				C125.974,315.146,107.882,297.035,107.882,274.698z"/>
		</g>
	</g>
	<g>
		<g>
			<g>
				<g>
					<path class="st4" d="M188.725,267.698H67.275c-3.866,0-7,3.134-7,7c0,26.183,21.301,47.483,47.483,47.483h40.483
						c26.182,0,47.483-21.301,47.483-47.483C195.725,270.832,192.591,267.698,188.725,267.698z M148.242,308.182h-40.483
						c-16.062,0-29.52-11.37-32.747-26.483h105.978C177.761,296.812,164.304,308.182,148.242,308.182z"/>
				</g>
			</g>
		</g>
	</g>
	<g>
		<g>
			<path class="st4" d="M194.986,271.567l-60.725-121.449c-1.186-2.371-3.61-3.869-6.261-3.869s-5.075,1.498-6.261,3.869
				L61.014,271.567c-1.729,3.458-0.327,7.663,3.131,9.392c3.457,1.729,7.663,0.327,9.391-3.13L128,168.901l54.464,108.928
				c1.226,2.453,3.698,3.871,6.266,3.871c1.052-0.001,2.12-0.238,3.125-0.741C195.313,279.23,196.714,275.025,194.986,271.567z"/>
		</g>
	</g>
	<g>
		<g>
			<path class="st2" d="M323.275,274.698c0,22.358,18.125,40.483,40.483,40.483h40.483c22.358,0,40.483-18.125,40.483-40.483
				H323.275z"/>
		</g>
	</g>
	<g>
		<g>
			<path class="st1" d="M363.882,274.698h-40.607c0,22.358,18.125,40.483,40.483,40.483h40.483c0.021,0,0.041-0.002,0.062-0.002
				C381.974,315.146,363.882,297.035,363.882,274.698z"/>
		</g>
	</g>
	<g>
		<g>
			<g>
				<g>
					<path class="st4" d="M444.725,267.698H323.275c-3.866,0-7,3.134-7,7c0,26.183,21.301,47.483,47.483,47.483h40.483
						c26.182,0,47.483-21.301,47.483-47.483C451.725,270.832,448.591,267.698,444.725,267.698z M404.242,308.182h-40.483
						c-16.062,0-29.52-11.37-32.747-26.483h105.978C433.761,296.812,420.304,308.182,404.242,308.182z"/>
				</g>
			</g>
		</g>
	</g>
	<g>
		<g>
			<path class="st4" d="M450.986,271.567l-60.725-121.449c-1.186-2.371-3.61-3.869-6.261-3.869s-5.075,1.498-6.261,3.869
				l-60.725,121.449c-1.729,3.458-0.327,7.663,3.131,9.392c3.458,1.729,7.662,0.327,9.391-3.13L384,168.901l54.464,108.928
				c1.226,2.453,3.698,3.871,6.266,3.871c1.052-0.001,2.12-0.238,3.125-0.741C451.313,279.23,452.714,275.025,450.986,271.567z"/>
		</g>
	</g>
	<g>
		<g>
			<circle class="st3" cx="128" cy="120.999" r="25.443"/>
		</g>
	</g>
	<g>
		<g>
			<g>
				<g>
					<path class="st4" d="M128,88.556c-17.889,0-32.443,14.554-32.443,32.443s14.554,32.443,32.443,32.443
						s32.443-14.554,32.443-32.443S145.889,88.556,128,88.556z M128,139.442c-10.17,0-18.443-8.273-18.443-18.443
						s8.273-18.443,18.443-18.443s18.443,8.273,18.443,18.443S138.17,139.442,128,139.442z"/>
				</g>
			</g>
		</g>
	</g>
	<g>
		<g>
			<circle class="st3" cx="384" cy="120.999" r="25.443"/>
		</g>
	</g>
	<g>
		<g>
			<g>
				<g>
					<path class="st4" d="M384,88.556c-17.889,0-32.443,14.554-32.443,32.443s14.554,32.443,32.443,32.443
						s32.443-14.554,32.443-32.443S401.889,88.556,384,88.556z M384,139.442c-10.17,0-18.443-8.273-18.443-18.443
						s8.273-18.443,18.443-18.443s18.443,8.273,18.443,18.443S394.17,139.442,384,139.442z"/>
				</g>
			</g>
		</g>
	</g>
	<g>
		<g>
			<g>
				<g>
					<path class="st4" d="M300.276,370h-88.552c-25.61,0-46.445,20.835-46.445,46.444c0,3.866,3.134,7,7,7H339.72
						c3.866,0,7-3.134,7-7C346.72,390.835,325.885,370,300.276,370z M180.04,409.444C183.249,394.907,196.236,384,211.724,384
						h88.552c15.488,0,28.475,10.907,31.684,25.444H180.04z"/>
				</g>
			</g>
		</g>
	</g>
	<g>
		<g>
			<polygon class="st3" points="256,163.815 203.403,194.183 203.403,254.916 256,285.283 308.597,254.916 308.597,194.183 			"/>
		</g>
	</g>
	<g>
		<g>
			<g>
				<g>
					<path class="st4" d="M312.097,188.12L259.5,157.753c-2.166-1.25-4.834-1.25-7,0l-52.597,30.367
						c-2.166,1.251-3.5,3.562-3.5,6.062v60.733c0,2.501,1.334,4.812,3.5,6.062l52.597,30.367c1.083,0.625,2.292,0.938,3.5,0.938
						s2.417-0.312,3.5-0.938l52.598-30.367c2.166-1.251,3.5-3.562,3.5-6.062v-60.733
						C315.597,191.682,314.263,189.371,312.097,188.12z M301.597,250.875L256,277.2l-45.597-26.325v-52.651L256,171.898
						l45.598,26.325V250.875z"/>
				</g>
			</g>
		</g>
	</g>
	<g>
		<g>
			<path class="st6" d="M286.027,239.196c-4.418-2.336-9.658-3.57-15.154-3.57c-0.885,0-1.763,0.035-2.633,0.099
				c2.429-1.671,4.75-3.603,6.917-5.77c5.438-5.438,9.401-11.841,11.459-18.518c0.132-0.428,0.016-0.893-0.3-1.208
				c-0.316-0.316-0.781-0.432-1.208-0.3c-6.677,2.059-13.08,6.021-18.518,11.459c-1.753,1.753-3.351,3.606-4.783,5.537
				c0.952-4.348,1.44-8.902,1.44-13.56c0-9.966-2.235-19.461-6.464-27.46c-0.209-0.396-0.619-0.643-1.066-0.643
				s-0.857,0.247-1.066,0.643c-4.229,7.999-6.464,17.494-6.464,27.46c0,4.294,0.416,8.5,1.227,12.537
				c-1.226-1.563-2.562-3.073-4.004-4.515c-5.438-5.438-11.841-9.4-18.518-11.459c-0.427-0.132-0.892-0.017-1.208,0.3
				c-0.316,0.315-0.431,0.78-0.3,1.208c2.059,6.677,6.021,13.08,11.459,18.518c2.167,2.167,4.487,4.099,6.917,5.77
				c-0.87-0.063-1.748-0.099-2.633-0.099c-5.495,0-10.735,1.234-15.154,3.57c-0.395,0.209-0.642,0.619-0.642,1.065
				c0,0.447,0.247,0.857,0.642,1.066c4.418,2.336,9.658,3.57,15.154,3.57c1.518,0,3.016-0.098,4.484-0.283
				c-2.732,2.546-4.786,5.575-5.947,8.782c-0.152,0.42-0.059,0.89,0.241,1.221c0.232,0.255,0.557,0.396,0.893,0.396
				c0.1,0,0.2-0.013,0.299-0.038c3.402-0.871,6.709-2.702,9.563-5.294c1.49-1.353,2.783-2.849,3.851-4.438v8.564
				c0,0.666,0.54,1.206,1.206,1.206c0.666,0,1.206-0.54,1.206-1.206v-9.448c1.164,1.921,2.654,3.722,4.417,5.322h0
				c2.855,2.592,6.162,4.423,9.564,5.294c0.099,0.025,0.2,0.038,0.299,0.038c0.336,0,0.661-0.141,0.893-0.396
				c0.301-0.331,0.393-0.801,0.241-1.221c-1.161-3.207-3.216-6.236-5.948-8.782c1.468,0.186,2.965,0.283,4.484,0.283
				c5.495,0,10.735-1.234,15.154-3.57c0.395-0.209,0.642-0.619,0.642-1.066C286.669,239.815,286.422,239.405,286.027,239.196z"/>
		</g>
	</g>
	<g>
		<g>
			<rect x="382.172" y="287.939" class="st7" width="25.229" height="14"/>
		</g>
	</g>
</g>
</svg>
