<?xml version="1.0" encoding="utf-8"?>
<!-- Generator: Adobe Illustrator 21.1.0, SVG Export Plug-In . SVG Version: 6.00 Build 0)  -->
<svg version="1.1" id="Layer_1" xmlns="http://www.w3.org/2000/svg" xmlns:xlink="http://www.w3.org/1999/xlink" x="0px" y="0px"
	 viewBox="0 0 512 512" style="enable-background:new 0 0 512 512;" xml:space="preserve">
<style type="text/css">
	.st0{fill:#D6CD1E;}
	.st1{fill:#E56823;}
	.st2{fill:#FE8E46;}
	.st3{fill:#FEFE71;}
	.st4{fill:#463218;}
	.st5{fill:#7DAC51;}
	.st6{fill:#5B7C31;}
	.st7{fill:#FFFFFF;}
</style>
<g>
	<g>
		<g>
			<polygon class="st3" points="289.28,231.613 222.72,231.613 153.6,409.6 358.4,409.6 			"/>
		</g>
	</g>
	<g>
		<g>
			<rect x="222.72" y="231.613" class="st0" width="66.559" height="177.987"/>
		</g>
	</g>
	<g>
		<g>
			<g>
				<g>
					<path class="st4" d="M364.926,407.066l-69.121-177.987c-1.046-2.692-3.637-4.466-6.525-4.466H222.72
						c-2.888,0-5.479,1.774-6.525,4.466l-69.121,177.987c-0.836,2.154-0.556,4.581,0.749,6.488c1.305,1.906,3.466,3.046,5.776,3.046
						h204.8c2.31,0,4.472-1.14,5.776-3.046C365.482,411.647,365.761,409.22,364.926,407.066z M163.827,402.6l63.684-163.987h56.977
						L348.173,402.6H163.827z"/>
				</g>
			</g>
		</g>
	</g>
	<g>
		<g>
			<circle class="st5" cx="256" cy="231.613" r="33.28"/>
		</g>
	</g>
	<g>
		<g>
			<g>
				<g>
					<path class="st4" d="M256,191.333c-22.21,0-40.28,18.069-40.28,40.279c0,22.21,18.069,40.28,40.28,40.28
						c22.21,0,40.279-18.069,40.279-40.28C296.28,209.403,278.21,191.333,256,191.333z M256,257.893
						c-14.491,0-26.28-11.789-26.28-26.28c0-14.49,11.789-26.279,26.28-26.279c14.49,0,26.279,11.789,26.279,26.279
						C282.28,246.104,270.49,257.893,256,257.893z"/>
				</g>
			</g>
		</g>
	</g>
	<g>
		<g>
			<path class="st2" d="M256,153.6c-43.085,0-78.013,34.927-78.013,78.013h156.026C334.013,188.528,299.086,153.6,256,153.6z"/>
		</g>
	</g>
	<g>
		<g>
			<path class="st1" d="M256,153.6c-43.085,0-78.013,34.927-78.013,78.013h33.279c0-37.372,26.286-68.59,61.373-76.216
				C267.276,154.231,261.713,153.6,256,153.6z"/>
		</g>
	</g>
	<g>
		<g>
			<g>
				<g>
					<path class="st4" d="M256,146.6c-46.876,0-85.013,38.137-85.013,85.013c0,3.866,3.134,7,7,7h156.026c3.866,0,7-3.134,7-7
						C341.013,184.737,302.877,146.6,256,146.6z M185.329,224.613C188.856,188.729,219.205,160.6,256,160.6
						s67.145,28.129,70.671,64.013H185.329z"/>
				</g>
			</g>
		</g>
	</g>
	<g>
		<g>
			<path class="st7" d="M256,169.449v14c12.865,0,24.959,5.01,34.057,14.107l9.899-9.899
				C288.215,175.916,272.605,169.449,256,169.449z"/>
		</g>
	</g>
	<g>
		<g>
			<path class="st4" d="M256,95.4c-3.866,0-7,3.134-7,7v51.2c0,3.866,3.134,7,7,7s7-3.134,7-7v-51.2
				C263,98.534,259.866,95.4,256,95.4z"/>
		</g>
	</g>
</g>
</svg>
