<?xml version="1.0" encoding="utf-8"?>
<!-- Generator: Adobe Illustrator 21.1.0, SVG Export Plug-In . SVG Version: 6.00 Build 0)  -->
<svg version="1.1" id="Layer_1" xmlns="http://www.w3.org/2000/svg" xmlns:xlink="http://www.w3.org/1999/xlink" x="0px" y="0px"
	 viewBox="0 0 512 512" style="enable-background:new 0 0 512 512;" xml:space="preserve">
<style type="text/css">
	.st0{fill:#D6CD1E;}
	.st1{fill:#E56823;}
	.st2{fill:#FE8E46;}
	.st3{fill:#FEFE71;}
	.st4{fill:#463218;}
	.st5{fill:#7DAC51;}
	.st6{fill:#5B7C31;}
	.st7{fill:#FFFFFF;}
</style>
<g>
	<g>
		<g>
			<polygon class="st2" points="256,117.333 135.912,186.667 135.912,325.333 256,394.667 376.089,325.333 376.089,186.667 			"/>
		</g>
	</g>
	<g>
		<g>
			<polygon class="st1" points="135.912,186.667 135.912,325.333 256,394.667 256,117.333 			"/>
		</g>
	</g>
	<g>
		<g>
			<g>
				<g>
					<path class="st4" d="M379.588,180.604L259.5,111.271c-2.166-1.25-4.834-1.25-7,0l-120.089,69.333
						c-2.166,1.251-3.5,3.562-3.5,6.062v138.666c0,2.501,1.334,4.812,3.5,6.062L252.5,400.729c1.083,0.625,2.291,0.938,3.5,0.938
						s2.417-0.312,3.5-0.938l120.088-69.333c2.166-1.251,3.5-3.562,3.5-6.062V186.667
						C383.088,184.166,381.754,181.855,379.588,180.604z M369.088,321.292L256,386.583l-113.089-65.291V190.708L256,125.417
						l113.088,65.291V321.292z"/>
				</g>
			</g>
		</g>
	</g>
	<g>
		<g>
			<rect x="344" y="204.972" class="st7" width="14" height="34.64"/>
		</g>
	</g>
	<g>
		<g>
			<circle class="st3" cx="256" cy="256" r="65.273"/>
		</g>
	</g>
	<g>
		<g>
			<g>
				<g>
					<path class="st4" d="M256,183.728c-39.852,0-72.273,32.421-72.273,72.272s32.422,72.272,72.273,72.272
						s72.272-32.421,72.272-72.272S295.852,183.728,256,183.728z M256,314.272c-32.132,0-58.273-26.141-58.273-58.272
						s26.142-58.272,58.273-58.272s58.272,26.141,58.272,58.272S288.132,314.272,256,314.272z"/>
				</g>
			</g>
		</g>
	</g>
	<g>
		<g>
			<path class="st1" d="M221.042,223.953c-7.741,8.44-12.466,19.691-12.466,32.047h40.507v0c0-1.802,0.695-3.438,1.824-4.668
				L221.042,223.953z"/>
		</g>
	</g>
	<g>
		<g>
			<path class="st1" d="M252.542,261.99c-1.56-0.901-2.63-2.321-3.131-3.914l-38.643,12.175c3.439,10.924,10.82,20.642,21.52,26.819
				L252.542,261.99L252.542,261.99z"/>
		</g>
	</g>
	<g>
		<g>
			<path class="st1" d="M259.458,261.99L259.458,261.99c-1.561,0.901-3.325,1.117-4.955,0.755l-8.777,39.553
				c11.18,2.484,23.286,0.95,33.986-5.228L259.458,261.99z"/>
		</g>
	</g>
	<g>
		<g>
			<path class="st1" d="M262.917,256L262.917,256c0,1.802-0.695,3.438-1.824,4.669l29.865,27.378
				c7.741-8.44,12.466-19.691,12.466-32.047H262.917z"/>
		</g>
	</g>
	<g>
		<g>
			<path class="st1" d="M279.712,214.93l-20.254,35.081h0c1.56,0.901,2.63,2.321,3.131,3.914l38.643-12.175
				C297.794,230.825,290.412,221.107,279.712,214.93z"/>
		</g>
	</g>
	<g>
		<g>
			<path class="st1" d="M232.288,214.93l20.254,35.081l0,0c1.56-0.901,3.324-1.117,4.955-0.754l8.777-39.553
				C255.095,207.218,242.989,208.752,232.288,214.93z"/>
		</g>
	</g>
</g>
</svg>
