<?xml version="1.0" encoding="utf-8"?>
<!-- Generator: Adobe Illustrator 21.1.0, SVG Export Plug-In . SVG Version: 6.00 Build 0)  -->
<svg version="1.1" id="Layer_1" xmlns="http://www.w3.org/2000/svg" xmlns:xlink="http://www.w3.org/1999/xlink" x="0px" y="0px"
	 viewBox="0 0 512 512" style="enable-background:new 0 0 512 512;" xml:space="preserve">
<style type="text/css">
	.st0{fill:#D6CD1E;}
	.st1{fill:#E56823;}
	.st2{fill:#FE8E46;}
	.st3{fill:#FEFE71;}
	.st4{fill:#463218;}
	.st5{fill:#7DAC51;}
	.st6{fill:#5B7C31;}
	.st7{fill:#FFFFFF;}
</style>
<g>
	<g>
		<g>
			<polygon class="st2" points="256,117.333 135.911,186.667 135.911,325.333 256,394.667 376.089,325.333 376.089,186.667 			"/>
		</g>
	</g>
	<g>
		<g>
			<polygon class="st1" points="135.911,186.667 135.911,325.333 256,394.667 256,117.333 			"/>
		</g>
	</g>
	<g>
		<g>
			<g>
				<g>
					<path class="st4" d="M379.589,180.604L259.5,111.271c-2.166-1.25-4.834-1.25-7,0l-120.088,69.333
						c-2.166,1.251-3.5,3.562-3.5,6.062v138.666c0,2.501,1.334,4.812,3.5,6.062L252.5,400.729c1.083,0.625,2.292,0.938,3.5,0.938
						s2.417-0.312,3.5-0.938l120.089-69.333c2.166-1.251,3.5-3.562,3.5-6.062V186.667
						C383.089,184.166,381.755,181.855,379.589,180.604z M369.089,321.292L256,386.583l-113.088-65.291V190.708L256,125.417
						l113.089,65.291V321.292z"/>
				</g>
			</g>
		</g>
	</g>
	<g>
		<g>
			<rect x="344" y="204.972" class="st7" width="14" height="34.64"/>
		</g>
	</g>
	<g>
		<g>
			<path class="st3" d="M256,169.954c-9.594,5.552-16.053,15.919-16.053,27.801s6.459,22.249,16.053,27.801
				c9.594-5.552,16.053-15.919,16.053-27.801S265.594,175.506,256,169.954z"/>
		</g>
	</g>
	<g>
		<g>
			<path class="st3" d="M236.841,210.817c-10.908-4.71-22.987-2.89-31.887,3.717c1.294,11.009,8.251,21.049,19.159,25.759
				c10.908,4.71,22.986,2.89,31.887-3.717C254.706,225.567,247.75,215.527,236.841,210.817z"/>
		</g>
	</g>
	<g>
		<g>
			<path class="st3" d="M275.16,210.817c-10.908,4.71-17.865,14.75-19.159,25.759c8.9,6.607,20.978,8.428,31.887,3.717
				c10.908-4.71,17.865-14.75,19.159-25.759C298.146,207.928,286.068,206.107,275.16,210.817z"/>
		</g>
	</g>
	<g>
		<g>
			<path class="st3" d="M236.841,245.566c-10.908-4.71-22.987-2.89-31.887,3.718c1.294,11.009,8.251,21.048,19.159,25.759
				c10.908,4.71,22.986,2.889,31.887-3.718C254.706,260.316,247.75,250.276,236.841,245.566z"/>
		</g>
	</g>
	<g>
		<g>
			<path class="st3" d="M275.16,245.566c-10.908,4.71-17.865,14.75-19.159,25.759c8.9,6.607,20.978,8.428,31.887,3.718
				c10.908-4.71,17.865-14.75,19.159-25.759C298.146,242.676,286.068,240.856,275.16,245.566z"/>
		</g>
	</g>
	<g>
		<g>
			<path class="st3" d="M236.841,280.314c-10.908-4.71-22.987-2.889-31.887,3.718c1.294,11.009,8.251,21.049,19.159,25.759
				c10.908,4.71,22.986,2.89,31.887-3.718C254.706,295.064,247.75,285.025,236.841,280.314z"/>
		</g>
	</g>
	<g>
		<g>
			<path class="st3" d="M275.16,280.314c-10.908,4.71-17.865,14.75-19.159,25.759c8.9,6.607,20.978,8.428,31.887,3.718
				c10.908-4.71,17.865-14.75,19.159-25.759C298.146,277.425,286.068,275.604,275.16,280.314z"/>
		</g>
	</g>
	<g>
		<g>
			<g>
				<g>
					<path class="st4" d="M259.506,163.896c-2.169-1.256-4.844-1.256-7.012,0c-12.057,6.978-19.547,19.951-19.547,33.859
						c0,13.907,7.49,26.881,19.547,33.859c1.084,0.628,2.295,0.941,3.506,0.941s2.422-0.313,3.506-0.941
						c12.057-6.979,19.547-19.952,19.547-33.859C279.054,183.847,271.564,170.872,259.506,163.896z M256,217.046
						c-5.666-4.731-9.053-11.801-9.053-19.291s3.387-14.561,9.053-19.291c5.666,4.73,9.054,11.801,9.054,19.291
						S261.667,212.314,256,217.046z"/>
				</g>
			</g>
		</g>
	</g>
	<g>
		<g>
			<g>
				<g>
					<path class="st4" d="M262.952,235.759c-1.626-13.835-10.568-25.854-23.336-31.368c-12.768-5.513-27.649-3.78-38.834,4.524
						c-2.012,1.493-3.072,3.948-2.78,6.438c1.626,13.836,10.568,25.855,23.336,31.368c4.947,2.136,10.209,3.184,15.453,3.184
						c8.29,0,16.53-2.621,23.381-7.708C262.185,240.703,263.245,238.248,262.952,235.759z M226.888,233.867
						c-6.876-2.969-12.025-8.882-14.122-15.959c6.588-3.325,14.422-3.634,21.299-0.664c6.876,2.969,12.025,8.882,14.122,15.959
						C241.599,236.529,233.766,236.837,226.888,233.867z"/>
				</g>
			</g>
		</g>
	</g>
	<g>
		<g>
			<g>
				<g>
					<path class="st4" d="M311.219,208.915c-11.185-8.303-26.064-10.038-38.834-4.524c-12.768,5.514-21.71,17.533-23.336,31.368
						c-0.292,2.489,0.768,4.944,2.78,6.438c6.852,5.087,15.09,7.708,23.381,7.708c5.243,0,10.507-1.048,15.453-3.184
						c12.768-5.513,21.71-17.532,23.337-31.368C314.291,212.864,313.231,210.408,311.219,208.915z M285.112,233.867
						c-6.876,2.972-14.71,2.662-21.299-0.664c2.097-7.077,7.245-12.99,14.122-15.959c6.877-2.968,14.711-2.661,21.299,0.664
						C297.137,224.985,291.989,230.898,285.112,233.867z"/>
				</g>
			</g>
		</g>
	</g>
	<g>
		<g>
			<g>
				<g>
					<path class="st4" d="M262.952,270.508c-1.626-13.835-10.568-25.854-23.336-31.368c-12.769-5.513-27.648-3.78-38.834,4.522
						c-2.012,1.494-3.072,3.949-2.78,6.438c1.626,13.836,10.568,25.855,23.336,31.368c4.947,2.136,10.21,3.185,15.454,3.185
						c8.29,0,16.528-2.621,23.381-7.707C262.185,275.452,263.245,272.997,262.952,270.508z M226.888,268.615
						c-6.876-2.969-12.025-8.882-14.121-15.958c6.588-3.327,14.423-3.634,21.299-0.664c6.877,2.969,12.025,8.882,14.122,15.958
						C241.598,271.278,233.765,271.585,226.888,268.615z"/>
				</g>
			</g>
		</g>
	</g>
	<g>
		<g>
			<g>
				<g>
					<path class="st4" d="M311.219,243.662c-11.186-8.302-26.066-10.035-38.834-4.522c-12.769,5.514-21.71,17.533-23.336,31.368
						c-0.292,2.489,0.768,4.944,2.78,6.438c6.853,5.086,15.09,7.707,23.38,7.707c5.243,0,10.507-1.049,15.453-3.185
						c12.768-5.513,21.71-17.532,23.337-31.368C314.291,247.611,313.231,245.156,311.219,243.662z M285.112,268.615
						c-6.876,2.971-14.71,2.663-21.298-0.664c2.096-7.076,7.245-12.989,14.122-15.958c6.877-2.971,14.71-2.663,21.299,0.664
						C297.137,259.734,291.989,265.646,285.112,268.615z"/>
				</g>
			</g>
		</g>
	</g>
	<g>
		<g>
			<g>
				<g>
					<path class="st4" d="M262.952,305.256c-1.626-13.835-10.568-25.854-23.336-31.368c-12.768-5.513-27.649-3.78-38.834,4.524
						c-2.012,1.493-3.072,3.948-2.78,6.438c1.626,13.836,10.568,25.855,23.336,31.368c4.947,2.136,10.209,3.184,15.453,3.184
						c8.29,0,16.53-2.621,23.381-7.708C262.185,310.2,263.245,307.745,262.952,305.256z M226.888,303.364
						c-6.876-2.969-12.025-8.882-14.122-15.959c6.588-3.326,14.422-3.634,21.299-0.664c6.876,2.969,12.025,8.882,14.122,15.959
						C241.599,306.025,233.766,306.334,226.888,303.364z"/>
				</g>
			</g>
		</g>
	</g>
	<g>
		<g>
			<g>
				<g>
					<path class="st4" d="M311.219,278.412c-11.185-8.304-26.064-10.037-38.834-4.524c-12.768,5.514-21.71,17.533-23.336,31.368
						c-0.292,2.489,0.768,4.944,2.78,6.438c6.852,5.087,15.09,7.708,23.381,7.708c5.243,0,10.507-1.048,15.453-3.184
						c12.768-5.513,21.71-17.532,23.337-31.368C314.291,282.361,313.231,279.905,311.219,278.412z M285.112,303.364
						c-6.876,2.972-14.71,2.662-21.299-0.664c2.097-7.077,7.245-12.99,14.122-15.959c6.877-2.969,14.711-2.662,21.299,0.664
						C297.137,294.482,291.989,300.396,285.112,303.364z"/>
				</g>
			</g>
		</g>
	</g>
	<g>
		<g>
			<path class="st4" d="M256,313.404c-3.866,0-7,3.134-7,7v22.386c0,3.866,3.134,7,7,7s7-3.134,7-7v-22.386
				C263,316.538,259.866,313.404,256,313.404z"/>
		</g>
	</g>
</g>
</svg>
