<?xml version="1.0" encoding="utf-8"?>
<!-- Generator: Adobe Illustrator 21.1.0, SVG Export Plug-In . SVG Version: 6.00 Build 0)  -->
<svg version="1.1" id="Layer_1" xmlns="http://www.w3.org/2000/svg" xmlns:xlink="http://www.w3.org/1999/xlink" x="0px" y="0px"
	 viewBox="0 0 512 512" style="enable-background:new 0 0 512 512;" xml:space="preserve">
<style type="text/css">
	.st0{fill:#D6CD1E;}
	.st1{fill:#E56823;}
	.st2{fill:#FE8E46;}
	.st3{fill:#FEFE71;}
	.st4{fill:#463218;}
	.st5{fill:#7DAC51;}
	.st6{fill:#5B7C31;}
	.st7{fill:#FFFFFF;}
</style>
<g>
	<g>
		<g>
			<path class="st5" d="M254.985,120.692c-14.25,26.956-22.682,60.33-22.682,96.471c0,36.141,8.432,69.515,22.682,96.471
				c14.25-26.956,22.682-60.33,22.682-96.471C277.667,181.022,269.235,147.648,254.985,120.692z"/>
		</g>
	</g>
	<g>
		<g>
			<path class="st6" d="M254.985,120.692c-14.25,26.956-22.682,60.33-22.682,96.471c0,36.141,8.432,69.515,22.682,96.471
				C255.998,311.719,254.985,120.692,254.985,120.692z"/>
		</g>
	</g>
	<g>
		<g>
			<path class="st5" d="M214.958,248.998c-19.605-19.605-42.283-33.135-64.636-40.027c6.893,22.353,20.423,45.031,40.027,64.636
				c19.605,19.605,42.283,33.135,64.636,40.027C248.092,291.281,234.563,268.603,214.958,248.998z"/>
		</g>
	</g>
	<g>
		<g>
			<path class="st6" d="M254.795,313.053L150.322,208.97c6.893,22.353,20.423,45.031,40.027,64.636
				c19.605,19.605,42.283,33.135,64.636,40.027C254.925,313.44,254.856,313.247,254.795,313.053z"/>
		</g>
	</g>
	<g>
		<g>
			<path class="st5" d="M202.653,301.33c-19.605,0-37.709,4.574-52.332,12.304c14.623,7.73,32.727,12.304,52.332,12.304
				c19.605,0,37.709-4.574,52.332-12.304C240.362,305.904,222.258,301.33,202.653,301.33z"/>
		</g>
	</g>
	<g>
		<g>
			<path class="st6" d="M150.322,313.634c14.623,7.73,32.727,12.304,52.332,12.304c19.605,0,37.709-4.574,52.332-12.304H150.322z"/>
		</g>
	</g>
	<g>
		<g>
			<g>
				<g>
					<path class="st4" d="M261.174,117.421c-1.212-2.293-3.594-3.729-6.188-3.729s-4.976,1.435-6.188,3.729
						c-15.37,29.075-23.494,63.565-23.494,99.742s8.124,70.667,23.494,99.742c1.212,2.293,3.594,3.729,6.188,3.729
						s4.976-1.435,6.188-3.729c15.37-29.075,23.494-63.565,23.494-99.742S276.543,146.496,261.174,117.421z M254.985,297.36
						c-10.292-24.139-15.683-51.568-15.683-80.197s5.391-56.058,15.683-80.197c10.292,24.139,15.682,51.569,15.682,80.197
						S265.277,273.221,254.985,297.36z"/>
				</g>
			</g>
		</g>
	</g>
	<g>
		<g>
			<g>
				<g>
					<path class="st4" d="M261.674,311.571c-7.513-24.362-21.956-47.711-41.767-67.522s-43.161-34.254-67.522-41.767
						c-2.478-0.765-5.178-0.095-7.013,1.739c-1.834,1.834-2.504,4.533-1.739,7.012c7.512,24.362,21.955,47.711,41.767,67.523
						s43.161,34.255,67.523,41.767c0.678,0.209,1.373,0.311,2.062,0.311c1.83,0,3.618-0.718,4.951-2.05
						C261.77,316.749,262.439,314.05,261.674,311.571z M195.299,268.657c-14.358-14.359-25.628-30.675-33.107-47.816
						c17.141,7.479,33.458,18.749,47.816,33.107s25.628,30.674,33.107,47.816C225.974,294.285,209.657,283.015,195.299,268.657z"/>
				</g>
			</g>
		</g>
	</g>
	<g>
		<g>
			<g>
				<g>
					<path class="st4" d="M258.257,307.445c-16.232-8.581-35.459-13.116-55.604-13.116s-39.372,4.535-55.603,13.116
						c-2.293,1.212-3.729,3.594-3.729,6.188s1.435,4.976,3.729,6.188c16.231,8.581,35.458,13.116,55.603,13.116
						s39.372-4.535,55.604-13.116c2.293-1.212,3.729-3.594,3.729-6.188S260.55,308.658,258.257,307.445z M202.653,318.938
						c-12.069,0-23.724-1.812-34.4-5.304c10.676-3.492,22.331-5.304,34.4-5.304s23.724,1.812,34.4,5.304
						C226.377,317.126,214.723,318.938,202.653,318.938z"/>
				</g>
			</g>
		</g>
	</g>
	<g>
		<g>
			<path class="st5" d="M297.042,248.998c-19.605,19.605-33.135,42.283-40.027,64.636c22.353-6.893,45.031-20.422,64.636-40.027
				c19.605-19.605,33.135-42.283,40.027-64.636C339.326,215.863,316.647,229.393,297.042,248.998z"/>
		</g>
	</g>
	<g>
		<g>
			<path class="st6" d="M257.205,313.053c-0.061,0.194-0.13,0.387-0.19,0.581c22.353-6.893,45.031-20.422,64.636-40.027
				c19.605-19.605,33.135-42.283,40.027-64.636L257.205,313.053z"/>
		</g>
	</g>
	<g>
		<g>
			<path class="st5" d="M309.347,301.33c-19.605,0-37.709,4.574-52.332,12.304c14.623,7.73,32.727,12.304,52.332,12.304
				c19.605,0,37.709-4.574,52.332-12.304C347.056,305.904,328.951,301.33,309.347,301.33z"/>
		</g>
	</g>
	<g>
		<g>
			<path class="st6" d="M257.015,313.634c14.623,7.73,32.727,12.304,52.332,12.304c19.605,0,37.709-4.574,52.332-12.304H257.015z"/>
		</g>
	</g>
	<g>
		<g>
			<g>
				<g>
					<path class="st4" d="M366.628,204.021c-1.834-1.834-4.534-2.504-7.013-1.739c-24.362,7.513-47.711,21.956-67.522,41.767
						s-34.254,43.161-41.767,67.522c-0.765,2.479-0.095,5.178,1.739,7.013c1.333,1.333,3.121,2.05,4.951,2.05
						c0.688,0,1.383-0.102,2.062-0.311c24.362-7.512,47.711-21.955,67.523-41.767s34.255-43.161,41.767-67.523
						C369.132,208.554,368.462,205.855,366.628,204.021z M316.701,268.657c-14.358,14.358-30.675,25.628-47.816,33.107
						c7.479-17.142,18.749-33.458,33.107-47.816s30.675-25.628,47.816-33.107C342.33,237.982,331.06,254.298,316.701,268.657z"/>
				</g>
			</g>
		</g>
	</g>
	<g>
		<g>
			<g>
				<g>
					<path class="st4" d="M364.95,307.445c-16.231-8.581-35.458-13.116-55.603-13.116s-39.372,4.535-55.604,13.116
						c-2.293,1.212-3.729,3.594-3.729,6.188s1.435,4.976,3.729,6.188c16.232,8.581,35.459,13.116,55.604,13.116
						s39.372-4.535,55.603-13.116c2.293-1.212,3.729-3.594,3.729-6.188S367.243,308.658,364.95,307.445z M309.347,318.938
						c-12.069,0-23.724-1.812-34.4-5.304c10.676-3.492,22.331-5.304,34.4-5.304s23.724,1.812,34.4,5.304
						C333.07,317.126,321.416,318.938,309.347,318.938z"/>
				</g>
			</g>
		</g>
	</g>
	<g>
		<g>
			<polygon class="st2" points="179.2,325.715 206.548,428.115 305.452,428.115 332.8,325.715 			"/>
		</g>
	</g>
	<g>
		<g>
			<polygon class="st1" points="224.33,325.715 179.2,325.715 206.548,428.115 251.678,428.115 			"/>
		</g>
	</g>
	<g>
		<g>
			<g>
				<g>
					<path class="st4" d="M338.352,321.452c-1.325-1.725-3.376-2.736-5.552-2.736H179.2c-2.175,0-4.227,1.011-5.552,2.736
						s-1.772,3.968-1.211,6.07l27.348,102.4c0.818,3.063,3.593,5.194,6.763,5.194h98.904c3.17,0,5.945-2.131,6.763-5.194
						l27.348-102.4C340.124,325.42,339.676,323.177,338.352,321.452z M300.076,421.115h-88.152l-23.609-88.4h135.37L300.076,421.115
						z"/>
				</g>
			</g>
		</g>
	</g>
	<g>
		<g>
			<rect x="163.399" y="325.715" class="st3" width="185.201" height="32.942"/>
		</g>
	</g>
	<g>
		<g>
			<rect x="163.399" y="325.715" class="st0" width="64.729" height="32.942"/>
		</g>
	</g>
	<g>
		<g>
			<g>
				<g>
					<path class="st4" d="M348.601,318.715H163.399c-3.866,0-7,3.134-7,7v32.941c0,3.866,3.134,7,7,7h185.201c3.866,0,7-3.134,7-7
						v-32.941C355.601,321.849,352.467,318.715,348.601,318.715z M341.601,351.657H170.399v-18.941h171.201V351.657z"/>
				</g>
			</g>
		</g>
	</g>
	<g>
		<g>
			
				<rect x="234.875" y="376.407" transform="matrix(0.9661 -0.258 0.258 0.9661 -92.7999 75.6599)" class="st7" width="14" height="30.007"/>
		</g>
	</g>
	<g>
		<g>
			<circle class="st3" cx="102.4" cy="149.599" r="38.188"/>
		</g>
	</g>
	<g>
		<g>
			<circle class="st0" cx="102.4" cy="149.599" r="15.976"/>
		</g>
	</g>
	<g>
		<g>
			<g>
				<g>
					<path class="st4" d="M102.4,104.411c-24.917,0-45.188,20.271-45.188,45.188s20.271,45.188,45.188,45.188
						s45.188-20.271,45.188-45.188S127.317,104.411,102.4,104.411z M102.4,180.787c-17.197,0-31.188-13.991-31.188-31.188
						s13.991-31.188,31.188-31.188s31.188,13.991,31.188,31.188S119.597,180.787,102.4,180.787z"/>
				</g>
			</g>
		</g>
	</g>
	<g>
		<g>
			<path class="st4" d="M173.064,78.935c-2.733-2.733-7.166-2.733-9.899,0l-38.514,38.514c-2.734,2.733-2.734,7.166,0,9.899
				c1.367,1.367,3.158,2.05,4.95,2.05s3.583-0.684,4.95-2.05l38.514-38.514C175.798,86.101,175.798,81.668,173.064,78.935z"/>
		</g>
	</g>
	<g>
		<g>
			<path class="st4" d="M168.114,76.885h-33.588c-3.866,0-7,3.134-7,7s3.134,7,7,7h33.588c3.866,0,7-3.134,7-7
				S171.98,76.885,168.114,76.885z"/>
		</g>
	</g>
	<g>
		<g>
			<path class="st4" d="M168.114,76.885c-3.866,0-7,3.134-7,7v33.588c0,3.866,3.134,7,7,7s7-3.134,7-7V83.885
				C175.114,80.019,171.98,76.885,168.114,76.885z"/>
		</g>
	</g>
	<g>
		<g>
			<circle class="st3" cx="409.6" cy="149.599" r="38.188"/>
		</g>
	</g>
	<g>
		<g>
			<g>
				<g>
					<path class="st4" d="M409.6,104.411c-24.917,0-45.188,20.271-45.188,45.188s20.271,45.188,45.188,45.188
						s45.188-20.271,45.188-45.188S434.517,104.411,409.6,104.411z M409.6,180.787c-17.197,0-31.188-13.991-31.188-31.188
						s13.991-31.188,31.188-31.188s31.188,13.991,31.188,31.188S426.797,180.787,409.6,180.787z"/>
				</g>
			</g>
		</g>
	</g>
	<g>
		<g>
			<path class="st4" d="M409.6,180.787c-3.866,0-7,3.134-7,7v64.212c0,3.866,3.134,7,7,7s7-3.134,7-7v-64.212
				C416.6,183.921,413.466,180.787,409.6,180.787z"/>
		</g>
	</g>
	<g>
		<g>
			<path class="st4" d="M430.957,223.292h-42.805c-3.866,0-7,3.134-7,7s3.134,7,7,7h42.805c3.866,0,7-3.134,7-7
				S434.823,223.292,430.957,223.292z"/>
		</g>
	</g>
	<g>
		<g>
			<circle class="st0" cx="409.6" cy="149.599" r="15.976"/>
		</g>
	</g>
</g>
</svg>
