<?xml version="1.0" encoding="utf-8"?>
<!-- Generator: Adobe Illustrator 21.1.0, SVG Export Plug-In . SVG Version: 6.00 Build 0)  -->
<svg version="1.1" id="Layer_1" xmlns="http://www.w3.org/2000/svg" xmlns:xlink="http://www.w3.org/1999/xlink" x="0px" y="0px"
	 viewBox="0 0 512 512" style="enable-background:new 0 0 512 512;" xml:space="preserve">
<style type="text/css">
	.st0{fill:#D6CD1E;}
	.st1{fill:#E56823;}
	.st2{fill:#FE8E46;}
	.st3{fill:#FEFE71;}
	.st4{fill:#463218;}
	.st5{fill:#7DAC51;}
	.st6{fill:#5B7C31;}
	.st7{fill:#FFFFFF;}
</style>
<g>
	<g>
		<g>
			<path class="st3" d="M256,154.862c-72.635,0-135.682,41.013-167.275,101.138c31.594,60.124,94.64,101.138,167.275,101.138
				S391.682,316.124,423.275,256C391.682,195.875,328.635,154.862,256,154.862z"/>
		</g>
	</g>
	<g>
		<g>
			<path class="st0" d="M419.667,249.465C387.04,299.156,325.976,332.614,256,332.614s-131.04-33.458-163.668-83.149
				c-1.242,2.152-2.449,4.329-3.608,6.535c31.594,60.124,94.64,101.138,167.275,101.138S391.682,316.124,423.275,256
				C422.116,253.794,420.91,251.617,419.667,249.465z"/>
		</g>
	</g>
	<g>
		<g>
			<g>
				<g>
					<path class="st4" d="M429.472,252.744C395.478,188.051,329.007,147.862,256,147.862S116.522,188.051,82.528,252.744
						c-1.071,2.038-1.071,4.474,0,6.512C116.523,323.949,182.994,364.138,256,364.138s139.477-40.188,173.472-104.882
						C430.543,257.218,430.543,254.782,429.472,252.744z M256,350.138c-66.556,0-127.263-35.974-159.326-94.138
						c32.062-58.165,92.77-94.138,159.326-94.138S383.264,197.835,415.326,256C383.263,314.164,322.556,350.138,256,350.138z"/>
				</g>
			</g>
		</g>
	</g>
	<g>
		<g>
			<circle class="st2" cx="256" cy="248.096" r="70.208"/>
		</g>
	</g>
	<g>
		<g>
			<path class="st1" d="M271.709,289.598c-32.1,0-58.121-26.021-58.121-58.121c0-23.723,14.219-44.111,34.593-53.146
				c-35.093,3.891-62.389,33.634-62.389,69.765c0,38.774,31.433,70.208,70.208,70.208c37.467,0,68.073-29.351,70.095-66.313
				C317.802,273.965,296.586,289.598,271.709,289.598z"/>
		</g>
	</g>
	<g>
		<g>
			<g>
				<g>
					<path class="st4" d="M256,170.888c-42.573,0-77.208,34.636-77.208,77.208s34.635,77.208,77.208,77.208
						s77.208-34.636,77.208-77.208S298.573,170.888,256,170.888z M256,311.304c-34.853,0-63.208-28.355-63.208-63.208
						s28.355-63.208,63.208-63.208s63.208,28.355,63.208,63.208S290.853,311.304,256,311.304z"/>
				</g>
			</g>
		</g>
	</g>
	<g>
		<g>
			<path class="st7" d="M288.235,209.486l-8.978,10.742c8.286,6.925,13.039,17.082,13.039,27.867h14
				C306.296,233.151,299.713,219.078,288.235,209.486z"/>
		</g>
	</g>
	<g>
		<g>
			<path class="st5" d="M233.552,181.575c-20.711,6.987-37.086,23.362-44.073,44.072c5.45,10.46,16.385,17.607,28.996,17.607
				c18.051,0,32.683-14.634,32.683-32.684C251.159,197.96,244.012,187.025,233.552,181.575z"/>
		</g>
	</g>
	<g>
		<g>
			<path class="st6" d="M237.836,184.267c-1.352-0.997-2.774-1.903-4.274-2.686c-0.083,0.028-0.166,0.055-0.249,0.082
				c-2.502,0.854-4.943,1.84-7.308,2.96c-0.009,0.004-0.018,0.009-0.027,0.013c-1.143,0.542-2.265,1.118-3.373,1.719
				c-0.153,0.082-0.305,0.167-0.457,0.251c-1.04,0.573-2.064,1.17-3.071,1.794c-0.081,0.051-0.164,0.099-0.244,0.149
				c-2.235,1.397-4.387,2.917-6.444,4.55c-0.042,0.033-0.082,0.067-0.123,0.101c-0.971,0.774-1.92,1.576-2.849,2.4
				c-0.081,0.072-0.163,0.144-0.244,0.216c-2.94,2.636-5.659,5.513-8.119,8.604c-0.016,0.02-0.032,0.04-0.047,0.061
				c-4.981,6.271-8.912,13.415-11.527,21.167c4.903,9.41,14.251,16.12,25.26,17.376c-0.752-3.732-1.151-7.593-1.151-11.547
				C213.588,212.021,223.156,194.812,237.836,184.267z"/>
		</g>
	</g>
	<g>
		<g>
			<g>
				<g>
					<path class="st4" d="M236.787,175.367c-1.691-0.881-3.667-1.032-5.472-0.425c-22.692,7.656-40.812,25.774-48.468,48.467
						c-0.609,1.807-0.456,3.782,0.425,5.473c6.869,13.184,20.358,21.373,35.204,21.373c21.882,0,39.684-17.802,39.684-39.684
						C258.159,195.726,249.97,182.236,236.787,175.367z M218.475,236.255c-8.62,0-16.536-4.271-21.285-11.315
						c6.403-16.222,19.433-29.251,35.654-35.654c7.045,4.749,11.315,12.665,11.315,21.286
						C244.159,224.733,232.637,236.255,218.475,236.255z"/>
				</g>
			</g>
		</g>
	</g>
	<g>
		<g>
			<path class="st4" d="M186.237,249h-20.983l-19.546-22.246c-2.551-2.903-6.974-3.19-9.879-0.639
				c-2.904,2.552-3.19,6.975-0.639,9.879l21.637,24.626c1.329,1.513,3.245,2.38,5.259,2.38h24.151c3.866,0,7-3.134,7-7
				S190.104,249,186.237,249z"/>
		</g>
	</g>
	<g>
		<g>
			<path class="st4" d="M155.838,238.305c-2.733-2.732-7.166-2.732-9.899,0l-22.075,22.075c-2.734,2.734-2.734,7.166,0,9.9
				c1.367,1.366,3.158,2.05,4.95,2.05s3.583-0.684,4.95-2.05l22.075-22.075C158.572,245.471,158.572,241.039,155.838,238.305z"/>
		</g>
	</g>
	<g>
		<g>
			<path class="st4" d="M382.07,265.76l-18.72-18.72c-1.313-1.312-3.093-2.05-4.95-2.05h-32.305c-3.866,0-7,3.134-7,7s3.134,7,7,7
				H355.5l16.67,16.67c1.367,1.366,3.158,2.05,4.95,2.05s3.583-0.684,4.95-2.051C384.804,272.926,384.804,268.494,382.07,265.76z"/>
		</g>
	</g>
	<g>
		<g>
			<path class="st4" d="M387.542,241.568c-2.733-2.732-7.166-2.733-9.899,0.001l-14.832,14.832c-2.734,2.733-2.734,7.165,0,9.899
				c1.367,1.366,3.158,2.05,4.95,2.05s3.583-0.684,4.95-2.051l14.832-14.832C390.275,248.734,390.275,244.303,387.542,241.568z"/>
		</g>
	</g>
	<g>
		<g>
			<path class="st4" d="M331.044,304.849l-16.432-16.433c-2.733-2.733-7.166-2.733-9.899-0.001c-2.734,2.734-2.734,7.166,0,9.899
				l16.432,16.433c1.367,1.367,3.158,2.051,4.95,2.051c1.791,0,3.583-0.684,4.95-2.05
				C333.778,312.014,333.778,307.582,331.044,304.849z"/>
		</g>
	</g>
	<g>
		<g>
			<path class="st4" d="M199.615,277.177c-2.734-2.732-7.166-2.733-9.899,0.001l-9.83,9.83c-2.734,2.733-2.734,7.165,0,9.899
				c1.367,1.366,3.158,2.05,4.95,2.05s3.583-0.684,4.95-2.051l9.83-9.83C202.349,284.343,202.349,279.911,199.615,277.177z"/>
		</g>
	</g>
</g>
</svg>
