<?xml version="1.0" encoding="utf-8"?>
<!-- Generator: Adobe Illustrator 21.1.0, SVG Export Plug-In . SVG Version: 6.00 Build 0)  -->
<svg version="1.1" id="Layer_1" xmlns="http://www.w3.org/2000/svg" xmlns:xlink="http://www.w3.org/1999/xlink" x="0px" y="0px"
	 viewBox="0 0 512 512" style="enable-background:new 0 0 512 512;" xml:space="preserve">
<style type="text/css">
	.st0{fill:#D6CD1E;}
	.st1{fill:#E56823;}
	.st2{fill:#FE8E46;}
	.st3{fill:#FEFE71;}
	.st4{fill:#463218;}
	.st5{fill:#7DAC51;}
	.st6{fill:#5B7C31;}
	.st7{fill:#FFFFFF;}
</style>
<g>
	<g>
		<g>
			<path class="st2" d="M276.887,357.584h-128.04c-21.197,0-38.38,17.184-38.38,38.381v15.678h204.8v-15.678
				C315.267,374.768,298.084,357.584,276.887,357.584z"/>
		</g>
	</g>
	<g>
		<g>
			<path class="st1" d="M276.887,357.585h-128.04c-21.197,0-38.38,17.183-38.38,38.38v15.679h0.348
				c2.498-18.781,18.567-33.274,38.032-33.274h128.04c19.464,0,35.533,14.493,38.032,33.274h0.348v-15.679
				C315.267,374.768,298.084,357.585,276.887,357.585z"/>
		</g>
	</g>
	<g>
		<g>
			<g>
				<g>
					<path class="st4" d="M276.887,350.585h-128.04c-25.023,0-45.38,20.357-45.38,45.38v15.679c0,3.866,3.134,7,7,7h204.8
						c3.866,0,7-3.134,7-7v-15.679C322.268,370.942,301.91,350.585,276.887,350.585z M308.268,404.644h-190.8v-8.679
						c0-17.303,14.077-31.38,31.38-31.38h128.04c17.303,0,31.38,14.077,31.38,31.38V404.644z"/>
				</g>
			</g>
		</g>
	</g>
	<g>
		<g>
			
				<rect x="330.853" y="204.505" transform="matrix(0.7071 -0.7071 0.7071 0.7071 -94.2722 323.1153)" class="st5" width="24.11" height="141.704"/>
		</g>
	</g>
	<g>
		<g>
			
				<rect x="312.932" y="97.884" transform="matrix(0.7071 -0.7071 0.7071 0.7071 1.9673 266.9302)" class="st5" width="20.518" height="66.413"/>
		</g>
	</g>
	<g>
		<g>
			
				<rect x="185.612" y="225.203" transform="matrix(0.7071 -0.7071 0.7071 0.7071 -125.3543 214.1926)" class="st5" width="20.518" height="66.413"/>
		</g>
	</g>
	<g>
		<g>
			<polygon class="st2" points="292.456,114.864 263.734,126.763 327.518,190.547 339.417,161.825 			"/>
		</g>
	</g>
	<g>
		<g>
			<polygon class="st1" points="292.456,114.864 263.735,126.763 280.141,143.168 308.862,131.27 			"/>
		</g>
	</g>
	<g>
		<g>
			<polygon class="st2" points="191.544,198.953 179.645,227.675 226.606,274.636 255.328,262.737 			"/>
		</g>
	</g>
	<g>
		<g>
			<polygon class="st1" points="191.544,198.953 179.645,227.676 196.051,244.081 207.95,215.359 			"/>
		</g>
	</g>
	<g>
		<g>
			
				<rect x="208.485" y="149.648" transform="matrix(0.7071 -0.7071 0.7071 0.7071 -61.694 240.5577)" class="st3" width="102.093" height="90.204"/>
		</g>
	</g>
	<g>
		<g>
			
				<rect x="184.796" y="159.46" transform="matrix(0.7071 -0.7071 0.7071 0.7071 -51.8818 216.8686)" class="st0" width="102.093" height="23.202"/>
		</g>
	</g>
	<g>
		<g>
			<g>
				<g>
					<path class="st4" d="M406.482,311.983l-100.2-100.2c-1.312-1.312-3.093-2.05-4.95-2.05s-3.637,0.737-4.95,2.051l-17.048,17.049
						c-2.734,2.733-2.734,7.165,0,9.899l100.2,100.199c1.367,1.366,3.158,2.05,4.95,2.05c1.791,0,3.583-0.684,4.95-2.05
						l17.048-17.048c1.313-1.313,2.05-3.094,2.05-4.95S407.795,313.297,406.482,311.983z M384.484,324.082l-90.301-90.3l7.149-7.149
						l90.301,90.301L384.484,324.082z"/>
				</g>
			</g>
		</g>
	</g>
	<g>
		<g>
			<g>
				<g>
					<path class="st4" d="M332.468,185.598l-63.784-63.784c-2.733-2.731-7.165-2.731-9.899,0l-72.19,72.189
						c-1.313,1.313-2.05,3.094-2.05,4.95s0.737,3.637,2.05,4.95l63.784,63.784c1.367,1.366,3.158,2.05,4.95,2.05
						c1.791,0,3.583-0.684,4.95-2.05l72.19-72.189c1.313-1.313,2.05-3.094,2.05-4.95S333.781,186.911,332.468,185.598z
						 M255.328,252.838l-53.885-53.885l62.291-62.29l53.885,53.885L255.328,252.838z"/>
				</g>
			</g>
		</g>
	</g>
	<g>
		<g>
			<g>
				<g>
					<path class="st4" d="M344.367,156.875l-46.961-46.961c-2.002-2.002-5.014-2.603-7.629-1.517l-28.722,11.9
						c-2.16,0.895-3.73,2.809-4.187,5.102s0.263,4.662,1.916,6.315l63.784,63.784c1.326,1.325,3.111,2.05,4.95,2.05
						c0.454,0,0.911-0.044,1.365-0.135c2.293-0.456,4.207-2.026,5.102-4.187l11.899-28.723
						C346.968,161.889,346.369,158.878,344.367,156.875z M325.061,178.19l-48.97-48.969l14.723-6.101l40.346,40.347L325.061,178.19z
						"/>
				</g>
			</g>
		</g>
	</g>
	<g>
		<g>
			<g>
				<g>
					<path class="st4" d="M358.875,142.367l-46.961-46.961c-2.733-2.731-7.165-2.732-9.899,0l-14.508,14.508
						c-1.313,1.313-2.05,3.094-2.05,4.951c0,1.856,0.737,3.637,2.05,4.95l46.961,46.961c1.367,1.366,3.158,2.05,4.95,2.05
						c1.791,0,3.583-0.684,4.95-2.05l14.508-14.508c1.312-1.313,2.05-3.094,2.05-4.95S360.188,143.681,358.875,142.367z
						 M339.417,151.926l-37.062-37.062l4.609-4.609l37.062,37.062L339.417,151.926z"/>
				</g>
			</g>
		</g>
	</g>
	<g>
		<g>
			<g>
				<g>
					<path class="st4" d="M260.278,257.787l-63.784-63.784c-1.653-1.653-4.021-2.375-6.315-1.915
						c-2.293,0.456-4.207,2.026-5.102,4.187l-11.899,28.723c-1.084,2.615-0.485,5.626,1.517,7.629l46.961,46.961
						c1.339,1.339,3.129,2.05,4.951,2.05c0.902,0,1.812-0.174,2.678-0.533l28.722-11.899c2.16-0.895,3.73-2.809,4.187-5.102
						S261.931,259.44,260.278,257.787z M228.249,266.38l-40.346-40.347l6.099-14.723l48.97,48.97L228.249,266.38z"/>
				</g>
			</g>
		</g>
	</g>
	<g>
		<g>
			<g>
				<g>
					<path class="st4" d="M231.556,269.687l-46.961-46.961c-2.734-2.731-7.166-2.731-9.899,0l-14.508,14.508
						c-1.312,1.313-2.05,3.094-2.05,4.95s0.737,3.637,2.05,4.949l46.961,46.962c1.312,1.313,3.093,2.051,4.95,2.051
						s3.637-0.737,4.95-2.05l14.509-14.509c1.313-1.313,2.05-3.094,2.05-4.95S232.869,271,231.556,269.687z M212.098,279.246
						l-37.062-37.062l4.609-4.608l37.062,37.062L212.098,279.246z"/>
				</g>
			</g>
		</g>
	</g>
	<g>
		<g>
			<path class="st6" d="M283.401,204.173c-4.996-2.641-10.924-4.037-17.143-4.037c-2.005,0-3.979,0.146-5.901,0.431
				c3.03-1.941,5.914-4.267,8.578-6.93c5.699-5.699,9.851-12.408,12.007-19.4c0.107-0.346,0.013-0.722-0.242-0.978
				c-0.256-0.255-0.632-0.349-0.977-0.242c-6.993,2.156-13.701,6.309-19.4,12.008c-2.456,2.455-4.623,5.099-6.468,7.871
				c0.193-1.596,0.292-3.224,0.292-4.872c0-6.22-1.396-12.147-4.037-17.143c-0.169-0.319-0.501-0.52-0.862-0.52
				c-0.362,0-0.693,0.199-0.862,0.52c-2.641,4.995-4.037,10.924-4.037,17.143h0c0,2.479,0.222,4.91,0.656,7.255
				c-0.461-0.533-0.943-1.056-1.449-1.562c-3.143-3.143-6.845-5.433-10.708-6.624c-0.345-0.106-0.721-0.014-0.977,0.242
				s-0.349,0.632-0.242,0.978c1.191,3.862,3.482,7.565,6.624,10.708c0.868,0.868,1.781,1.669,2.726,2.401
				c-3.018-0.106-5.925,0.451-8.423,1.621c-0.327,0.153-0.543,0.476-0.56,0.837c-0.013,0.278,0.093,0.545,0.285,0.736
				c0.057,0.057,0.122,0.107,0.193,0.149c2.444,1.447,5.382,2.291,8.497,2.441c1.625,0.079,3.22-0.037,4.74-0.336l-4.898,4.897
				c-0.381,0.381-0.381,0.999,0,1.38c0.381,0.381,0.998,0.381,1.379,0l5.403-5.403c-0.433,1.764-0.611,3.646-0.518,5.569
				c0.15,3.114,0.995,6.053,2.442,8.497c0.042,0.071,0.093,0.136,0.15,0.192c0.192,0.192,0.458,0.298,0.737,0.285
				c0.361-0.018,0.683-0.233,0.836-0.561c1.17-2.498,1.727-5.405,1.621-8.424c0.733,0.945,1.534,1.858,2.402,2.727
				c3.143,3.143,6.845,5.434,10.708,6.624c0.345,0.106,0.721,0.014,0.977-0.242c0.256-0.256,0.349-0.632,0.242-0.978
				c-1.191-3.862-3.482-7.564-6.624-10.707c-0.506-0.507-1.029-0.988-1.563-1.449c2.345,0.434,4.777,0.655,7.255,0.655
				c6.22,0,12.148-1.396,17.143-4.036c0.32-0.169,0.52-0.501,0.52-0.862S283.72,204.342,283.401,204.173z"/>
		</g>
	</g>
	<g>
		<g>
			<path class="st4" d="M212.867,304.352c-3.866,0-7,3.134-7,7v23.022c0,3.866,3.134,7,7,7s7-3.134,7-7v-23.022
				C219.867,307.485,216.733,304.352,212.867,304.352z"/>
		</g>
	</g>
	<g>
		<g>
			<path class="st4" d="M185.162,330.065l-34.953-44.76c-2.379-3.047-6.778-3.589-9.825-1.209c-3.047,2.38-3.588,6.779-1.209,9.826
				l34.953,44.76c1.38,1.768,3.44,2.691,5.522,2.691c1.506,0,3.024-0.483,4.303-1.482C187,337.512,187.542,333.112,185.162,330.065z
				"/>
		</g>
	</g>
	<g>
		<g>
			<path class="st4" d="M282.117,284.097c-3.046-2.379-7.445-1.837-9.825,1.209l-34.953,44.76c-2.379,3.047-1.838,7.446,1.209,9.826
				c1.279,0.999,2.796,1.482,4.303,1.482c2.082,0,4.142-0.924,5.522-2.691l34.953-44.76
				C285.705,290.876,285.164,286.477,282.117,284.097z"/>
		</g>
	</g>
	<g>
		<g>
			<rect x="242.686" y="371.369" class="st7" width="34.201" height="14"/>
		</g>
	</g>
</g>
</svg>
