<?xml version="1.0" encoding="utf-8"?>
<!-- Generator: Adobe Illustrator 21.1.0, SVG Export Plug-In . SVG Version: 6.00 Build 0)  -->
<svg version="1.1" id="Layer_1" xmlns="http://www.w3.org/2000/svg" xmlns:xlink="http://www.w3.org/1999/xlink" x="0px" y="0px"
	 viewBox="0 0 512 512" style="enable-background:new 0 0 512 512;" xml:space="preserve">
<style type="text/css">
	.st0{fill:#D6CD1E;}
	.st1{fill:#E56823;}
	.st2{fill:#FE8E46;}
	.st3{fill:#FEFE71;}
	.st4{fill:#463218;}
	.st5{fill:#7DAC51;}
	.st6{fill:#5B7C31;}
	.st7{fill:#FFFFFF;}
</style>
<g>
	<g>
		<g>
			<path class="st5" d="M109.468,241.466v60.363c0,66.676,54.051,120.727,120.726,120.727h0
				c66.675,0,120.727-54.051,120.727-120.727v-60.363H109.468z"/>
		</g>
	</g>
	<g>
		<g>
			<path class="st6" d="M155.24,301.829v-60.363h-45.772v60.363c0,66.676,54.051,120.728,120.727,120.728
				c7.826,0,15.475-0.754,22.886-2.176C197.351,409.685,155.24,360.679,155.24,301.829z"/>
		</g>
	</g>
	<g>
		<g>
			<g>
				<g>
					<path class="st4" d="M350.921,234.466H109.468c-3.866,0-7,3.134-7,7v60.363c0,70.429,57.298,127.727,127.728,127.727
						c70.428,0,127.726-57.298,127.726-127.727v-60.363C357.921,237.6,354.787,234.466,350.921,234.466z M343.921,301.829
						c0,62.709-51.017,113.727-113.726,113.727h-0.001c-62.709,0-113.727-51.018-113.727-113.727v-53.363h227.453V301.829z"/>
				</g>
			</g>
		</g>
	</g>
	<g>
		<g>
			<rect x="269.73" y="275.657" class="st3" width="41.656" height="49.987"/>
		</g>
	</g>
	<g>
		<g>
			<g>
				<g>
					<path class="st4" d="M311.386,268.656H269.73c-3.866,0-7,3.134-7,7v49.987c0,3.866,3.134,7,7,7h41.655c3.866,0,7-3.134,7-7
						v-49.987C318.386,271.79,315.252,268.656,311.386,268.656z M304.386,318.644H276.73v-35.987h27.655V318.644z"/>
				</g>
			</g>
		</g>
	</g>
	<g>
		<g>
			<path class="st4" d="M290.558,234.466c-3.866,0-7,3.134-7,7v34.19c0,3.866,3.134,7,7,7s7-3.134,7-7v-34.19
				C297.558,237.6,294.424,234.466,290.558,234.466z"/>
		</g>
	</g>
	<g>
		<g>
			<g>
				<g>
					<path class="st4" d="M362.776,257.171h-11.855c-3.866,0-7,3.134-7,7v37.658c0,20.091-5.312,39.84-15.362,57.11
						c-1.261,2.165-1.268,4.839-0.019,7.01c1.249,2.172,3.563,3.511,6.068,3.511h28.168c25.781,0,46.756-20.975,46.756-46.755
						v-18.778C409.532,278.146,388.558,257.171,362.776,257.171z M395.532,322.705c0,18.062-14.694,32.755-32.756,32.755h-16.64
						c7.736-16.728,11.784-35.05,11.784-53.631v-30.658h4.855c18.062,0,32.756,14.694,32.756,32.756V322.705z"/>
				</g>
			</g>
		</g>
	</g>
	<g>
		<g>
			<path class="st3" d="M244.087,330.865c-5.464-2.888-11.944-4.415-18.74-4.415c-1.095,0-2.181,0.044-3.256,0.123
				c3.004-2.067,5.874-4.456,8.553-7.135c6.725-6.725,11.625-14.644,14.171-22.9c0.163-0.528,0.02-1.103-0.37-1.494
				c-0.391-0.391-0.966-0.533-1.494-0.37c-8.256,2.546-16.175,7.446-22.9,14.171c-2.167,2.167-4.144,4.46-5.915,6.847
				c1.177-5.376,1.781-11.009,1.781-16.768c0-12.323-2.764-24.066-7.993-33.958c-0.258-0.488-0.766-0.794-1.318-0.794
				s-1.06,0.306-1.319,0.794c-5.229,9.892-7.993,21.635-7.993,33.958c0,5.31,0.515,10.512,1.517,15.504
				c-1.516-1.934-3.169-3.801-4.951-5.583c-6.725-6.725-14.643-11.625-22.9-14.171c-0.528-0.163-1.103-0.021-1.494,0.37
				c-0.391,0.392-0.533,0.966-0.371,1.494c2.546,8.257,7.446,16.176,14.171,22.9c2.679,2.679,5.549,5.067,8.553,7.135
				c-1.076-0.079-2.161-0.123-3.256-0.123c-6.796,0-13.276,1.527-18.74,4.415c-0.489,0.259-0.794,0.766-0.794,1.318
				s0.306,1.061,0.794,1.319c5.464,2.888,11.944,4.415,18.74,4.415c1.878,0,3.73-0.121,5.545-0.351
				c-3.378,3.148-5.919,6.894-7.355,10.859c-0.188,0.521-0.073,1.102,0.298,1.511c0.287,0.315,0.689,0.488,1.104,0.488
				c0.123,0,0.247-0.015,0.37-0.046c4.207-1.078,8.297-3.343,11.826-6.547c1.842-1.673,3.441-3.522,4.762-5.489v10.591
				c0,0.824,0.668,1.491,1.491,1.491s1.491-0.667,1.491-1.491v-11.684c1.439,2.375,3.281,4.603,5.462,6.582h0
				c3.53,3.204,7.62,5.469,11.827,6.547c0.123,0.031,0.247,0.046,0.37,0.046c0.415,0,0.818-0.173,1.104-0.488
				c0.372-0.409,0.486-0.99,0.298-1.511c-1.436-3.966-3.977-7.711-7.355-10.859c1.815,0.229,3.667,0.351,5.545,0.351
				c6.796,0,13.276-1.527,18.74-4.415c0.489-0.259,0.794-0.767,0.794-1.319S244.575,331.124,244.087,330.865z"/>
		</g>
	</g>
	<g>
		<g>
			<rect x="129.793" y="264.171" class="st7" width="14" height="28.81"/>
		</g>
	</g>
	<g>
		<g>
			<path class="st4" d="M235.145,129.649c-9.72-9.721-9.72-25.536,0-35.256c2.733-2.733,2.733-7.166-0.001-9.899
				c-2.732-2.732-7.165-2.733-9.899,0.001c-15.177,15.178-15.177,39.875,0.001,55.054c4.708,4.708,7.302,10.968,7.302,17.627
				s-2.594,12.919-7.302,17.627c-2.734,2.733-2.734,7.166-0.001,9.899c1.367,1.367,3.158,2.051,4.95,2.051
				c1.791,0,3.583-0.684,4.949-2.05c7.354-7.353,11.403-17.129,11.403-27.527S242.497,137.001,235.145,129.649z"/>
		</g>
	</g>
	<g>
		<g>
			<path class="st4" d="M175.119,194.974c0-3.88,1.511-7.527,4.254-10.271c5.388-5.388,8.355-12.551,8.355-20.171
				c0-7.619-2.968-14.782-8.355-20.17c-2.732-2.732-7.165-2.733-9.899,0.001c-2.733,2.733-2.733,7.166,0.001,9.899
				c2.743,2.743,4.254,6.391,4.254,10.27c0,3.88-1.511,7.527-4.255,10.271c-5.388,5.389-8.354,12.552-8.354,20.171
				c0,7.62,2.968,14.783,8.355,20.171c1.366,1.366,3.158,2.05,4.949,2.05s3.583-0.684,4.95-2.051
				c2.733-2.733,2.733-7.166-0.001-9.899C176.63,202.501,175.119,198.854,175.119,194.974z"/>
		</g>
	</g>
	<g>
		<g>
			<path class="st4" d="M295.507,184.703c5.388-5.388,8.355-12.551,8.355-20.171c0-7.619-2.968-14.782-8.355-20.17
				c-2.732-2.732-7.165-2.733-9.899,0.001c-2.733,2.733-2.733,7.166,0.001,9.899c2.743,2.743,4.254,6.391,4.254,10.27
				c0,3.88-1.511,7.527-4.255,10.271c-11.121,11.122-11.121,29.219,0,40.341c1.367,1.366,3.159,2.05,4.95,2.05
				s3.583-0.684,4.95-2.05c2.733-2.734,2.733-7.166,0-9.9C289.845,199.581,289.845,190.366,295.507,184.703z"/>
		</g>
	</g>
</g>
</svg>
