<?xml version="1.0" encoding="utf-8"?>
<!-- Generator: Adobe Illustrator 21.1.0, SVG Export Plug-In . SVG Version: 6.00 Build 0)  -->
<svg version="1.1" id="Layer_1" xmlns="http://www.w3.org/2000/svg" xmlns:xlink="http://www.w3.org/1999/xlink" x="0px" y="0px"
	 viewBox="0 0 512 512" style="enable-background:new 0 0 512 512;" xml:space="preserve">
<style type="text/css">
	.st0{fill:#D6CD1E;}
	.st1{fill:#E56823;}
	.st2{fill:#FE8E46;}
	.st3{fill:#FEFE71;}
	.st4{fill:#463218;}
	.st5{fill:#7DAC51;}
	.st6{fill:#5B7C31;}
	.st7{fill:#FFFFFF;}
</style>
<g>
	<g>
		<g>
			<polygon class="st5" points="375.519,304.555 136.481,304.555 102.4,372.943 409.6,372.943 			"/>
		</g>
	</g>
	<g>
		<g>
			<polygon class="st6" points="136.481,304.555 102.4,372.943 172.374,372.943 206.455,304.555 			"/>
		</g>
	</g>
	<g>
		<g>
			<polygon class="st6" points="136.481,304.555 102.4,372.943 172.374,372.943 206.455,304.555 			"/>
		</g>
	</g>
	<g>
		<g>
			<rect x="169.081" y="277.749" class="st5" width="22.076" height="26.75"/>
		</g>
	</g>
	<g>
		<g>
			<rect x="320.844" y="277.749" class="st5" width="22.076" height="26.75"/>
		</g>
	</g>
	<g>
		<g>
			<rect x="153.6" y="139.057" class="st3" width="204.8" height="94.816"/>
		</g>
	</g>
	<g>
		<g>
			<rect x="153.6" y="139.057" class="st0" width="52.302" height="94.816"/>
		</g>
	</g>
	<g>
		<g>
			<path class="st2" d="M92.608,233.874c0,24.231,19.644,43.875,43.875,43.875h239.034c24.231,0,43.875-19.644,43.875-43.875H92.608
				z"/>
		</g>
	</g>
	<g>
		<g>
			<path class="st1" d="M177.137,233.874H92.608c0,24.231,19.644,43.875,43.875,43.875h84.528
				C196.78,277.749,177.137,258.105,177.137,233.874z"/>
		</g>
	</g>
	<g>
		<g>
			<g>
				<g>
					<path class="st4" d="M415.864,369.821l-34.081-68.388c-1.184-2.376-3.61-3.878-6.265-3.878H136.481
						c-2.654,0-5.081,1.502-6.265,3.878l-34.081,68.388c-1.082,2.17-0.964,4.745,0.312,6.806s3.527,3.316,5.952,3.316H409.6
						c2.425,0,4.676-1.254,5.952-3.316S416.946,371.991,415.864,369.821z M113.71,365.943l27.104-54.388h230.371l27.104,54.388
						H113.71z"/>
				</g>
			</g>
		</g>
	</g>
	<g>
		<g>
			<g>
				<g>
					<path class="st4" d="M191.156,270.749h-22.075c-3.866,0-7,3.134-7,7v26.75c0,3.866,3.134,7,7,7h22.075c3.866,0,7-3.134,7-7
						v-26.75C198.156,273.882,195.022,270.749,191.156,270.749z M184.156,297.499h-8.075v-12.75h8.075V297.499z"/>
				</g>
			</g>
		</g>
	</g>
	<g>
		<g>
			<g>
				<g>
					<path class="st4" d="M342.919,270.749h-22.075c-3.866,0-7,3.134-7,7v26.75c0,3.866,3.134,7,7,7h22.075c3.866,0,7-3.134,7-7
						v-26.75C349.919,273.882,346.785,270.749,342.919,270.749z M335.919,297.499h-8.075v-12.75h8.075V297.499z"/>
				</g>
			</g>
		</g>
	</g>
	<g>
		<g>
			<rect x="295.244" y="324.702" class="st3" width="51.2" height="26.201"/>
		</g>
	</g>
	<g>
		<g>
			<g>
				<g>
					<path class="st4" d="M346.443,317.702h-51.199c-3.866,0-7,3.134-7,7v26.201c0,3.866,3.134,7,7,7h51.199c3.866,0,7-3.134,7-7
						v-26.201C353.443,320.835,350.31,317.702,346.443,317.702z M339.443,343.902h-37.199v-12.201h37.199V343.902z"/>
				</g>
			</g>
		</g>
	</g>
	<g>
		<g>
			<g>
				<g>
					<path class="st4" d="M419.392,226.874H92.608c-3.866,0-7,3.134-7,7c0,28.053,22.822,50.875,50.875,50.875h239.033
						c28.053,0,50.875-22.822,50.875-50.875C426.392,230.007,423.258,226.874,419.392,226.874z M375.517,270.749H136.483
						c-17.94,0-32.93-12.878-36.209-29.875h311.451C408.446,257.871,393.457,270.749,375.517,270.749z"/>
				</g>
			</g>
		</g>
	</g>
	<g>
		<g>
			<g>
				<g>
					<path class="st4" d="M358.4,132.057H153.6c-3.866,0-7,3.134-7,7v94.816c0,3.866,3.134,7,7,7H358.4c3.866,0,7-3.134,7-7v-94.816
						C365.4,135.191,362.267,132.057,358.4,132.057z M351.4,226.874H160.6v-80.816H351.4V226.874z"/>
				</g>
			</g>
		</g>
	</g>
	<g>
		<g>
			<path class="st6" d="M284.304,204.34c-4.165-2.202-9.104-3.365-14.284-3.365c-0.835,0-1.662,0.033-2.482,0.093
				c2.29-1.575,4.477-3.396,6.52-5.438c5.126-5.126,8.861-11.162,10.802-17.456c0.124-0.403,0.015-0.841-0.283-1.139
				c-0.298-0.298-0.736-0.406-1.139-0.282c-6.294,1.941-12.33,5.676-17.456,10.802c-1.652,1.652-3.159,3.399-4.509,5.219
				c0.897-4.098,1.357-8.391,1.357-12.781c0-9.394-2.107-18.344-6.093-25.884c-0.197-0.373-0.584-0.605-1.005-0.605
				c-0.421,0-0.808,0.233-1.005,0.605c-3.986,7.54-6.093,16.491-6.093,25.884c0,4.048,0.392,8.013,1.156,11.819
				c-1.156-1.474-2.416-2.897-3.774-4.256c-5.126-5.126-11.162-8.861-17.456-10.802c-0.402-0.124-0.841-0.016-1.139,0.282
				c-0.298,0.298-0.407,0.736-0.283,1.139c1.941,6.293,5.676,12.33,10.802,17.456c2.042,2.042,4.23,3.863,6.52,5.438
				c-0.82-0.06-1.647-0.093-2.482-0.093c-5.18,0-10.12,1.164-14.284,3.365c-0.373,0.197-0.605,0.584-0.605,1.005
				s0.233,0.808,0.605,1.005c4.165,2.202,9.104,3.365,14.284,3.365c1.431,0,2.843-0.092,4.227-0.267
				c-2.575,2.4-4.512,5.255-5.606,8.278c-0.144,0.396-0.056,0.839,0.227,1.151c0.219,0.241,0.526,0.373,0.842,0.373
				c0.094,0,0.189-0.012,0.282-0.036c3.207-0.822,6.324-2.547,9.015-4.99c1.404-1.275,2.623-2.685,3.63-4.184v8.073
				c0,0.628,0.509,1.137,1.137,1.137c0.628,0,1.137-0.509,1.137-1.137v-8.906c1.097,1.811,2.501,3.508,4.163,5.017
				c2.691,2.443,5.808,4.169,9.015,4.99c0.094,0.024,0.188,0.036,0.282,0.036c0.316,0,0.623-0.132,0.842-0.373
				c0.283-0.312,0.371-0.755,0.227-1.151c-1.094-3.023-3.031-5.878-5.606-8.278c1.383,0.175,2.795,0.267,4.227,0.267
				c5.18,0,10.119-1.164,14.284-3.365c0.373-0.197,0.605-0.584,0.605-1.005S284.676,204.537,284.304,204.34z"/>
		</g>
	</g>
	<g>
		<g>
			<rect x="145.575" y="319.72" class="st7" width="34.176" height="14"/>
		</g>
	</g>
</g>
</svg>
