<?xml version="1.0" encoding="utf-8"?>
<!-- Generator: Adobe Illustrator 22.0.0, SVG Export Plug-In . SVG Version: 6.00 Build 0)  -->
<svg version="1.1" id="Layer_1" xmlns="http://www.w3.org/2000/svg" xmlns:xlink="http://www.w3.org/1999/xlink" x="0px" y="0px"
	 viewBox="0 0 512 512" style="enable-background:new 0 0 512 512;" xml:space="preserve">
<style type="text/css">
	.st0{fill:#D6CD1E;}
	.st1{fill:#E56823;}
	.st2{fill:#FE8E46;}
	.st3{fill:#FEFE71;}
	.st4{fill:#463218;}
	.st5{fill:#7DAC51;}
	.st6{fill:#5B7C31;}
	.st7{fill:#FFFFFF;}
</style>
<g>
	<g>
		<polygon class="st5" points="342.337,134.167 446.731,134.167 403.851,196.478 299.457,196.478 		"/>
	</g>
	<g>
		<polygon class="st2" points="201.684,134.167 65.269,134.167 108.149,196.478 244.565,196.478 		"/>
	</g>
	<g>
		<polygon class="st1" points="65.269,134.166 108.149,196.479 154.013,196.479 111.133,134.166 		"/>
	</g>
	<g>
		<rect x="108.149" y="196.479" class="st3" width="295.254" height="181.355"/>
	</g>
	<g>
		<polygon class="st0" points="403.403,211.877 215.606,211.877 269.486,290.173 403.403,290.173 		"/>
	</g>
	<g>
		<rect x="108.149" y="196.479" class="st0" width="136.416" height="181.355"/>
	</g>
	<g>
		<path class="st4" d="M403.403,384.834H108.149c-3.866,0-7-3.134-7-7V196.479c0-3.866,3.134-7,7-7h295.254c3.866,0,7,3.134,7,7
			v181.355C410.403,381.7,407.27,384.834,403.403,384.834z M115.149,370.834h281.254V203.479H115.149V370.834z"/>
	</g>
	<g>
		<path class="st4" d="M244.565,384.834H108.149c-3.866,0-7-3.134-7-7V196.479c0-3.866,3.134-7,7-7h136.416c3.866,0,7,3.134,7,7
			v181.355C251.565,381.7,248.431,384.834,244.565,384.834z M115.149,370.834h122.416V203.479H115.149V370.834z"/>
	</g>
	<g>
		<path class="st4" d="M196.784,234.635h-45.425c-3.866,0-7-3.134-7-7v-31.156c0-3.866,3.134-7,7-7h45.425c3.866,0,7,3.134,7,7
			v31.156C203.784,231.501,200.65,234.635,196.784,234.635z M158.359,220.635h31.425v-17.156h-31.425V220.635z"/>
	</g>
	<g>
		<path class="st4" d="M244.565,203.479H108.149c-2.304,0-4.46-1.134-5.767-3.031l-42.881-62.312
			c-1.474-2.143-1.639-4.925-0.429-7.227c1.21-2.301,3.596-3.742,6.196-3.742h136.416c2.304,0,4.46,1.134,5.767,3.031l42.88,62.312
			c1.474,2.143,1.639,4.925,0.429,7.227C249.551,202.037,247.165,203.479,244.565,203.479z M111.83,189.479H231.25l-33.246-48.312
			H78.583L111.83,189.479z"/>
	</g>
	<g>
		<path class="st4" d="M403.851,203.479H299.457c-2.6,0-4.986-1.441-6.196-3.742c-1.21-2.302-1.045-5.084,0.429-7.227l42.88-62.312
			c1.306-1.897,3.463-3.031,5.767-3.031h104.394c2.6,0,4.986,1.441,6.196,3.742c1.21,2.302,1.045,5.084-0.429,7.227l-42.881,62.312
			C408.311,202.345,406.154,203.479,403.851,203.479z M312.771,189.479h87.399l33.247-48.312h-87.399L312.771,189.479z"/>
	</g>
	<g>
		<polygon class="st2" points="403.403,196.479 244.565,196.479 287.445,258.791 446.284,258.791 		"/>
	</g>
	<g>
		<polygon class="st1" points="244.565,196.478 287.445,258.791 342.337,258.791 299.457,196.478 		"/>
	</g>
	<g>
		<path class="st4" d="M446.284,265.791H287.445c-2.304,0-4.46-1.134-5.767-3.032l-42.88-62.312
			c-1.474-2.142-1.639-4.924-0.429-7.226c1.21-2.301,3.596-3.742,6.196-3.742h158.838c2.304,0,4.46,1.134,5.767,3.032l42.88,62.312
			c1.474,2.142,1.639,4.924,0.429,7.226C451.27,264.35,448.884,265.791,446.284,265.791z M291.125,251.791h141.844l-33.246-48.312
			H257.879L291.125,251.791z"/>
	</g>
	<g>
		<path class="st6" d="M211.478,308.595c-5.504-2.91-12.032-4.448-18.878-4.448c-1.103,0-2.197,0.044-3.28,0.123
			c3.027-2.082,5.917-4.488,8.616-7.188c6.775-6.775,11.711-14.752,14.276-23.069c0.164-0.532,0.02-1.111-0.373-1.505
			c-0.394-0.394-0.973-0.537-1.505-0.373c-8.318,2.565-16.295,7.501-23.069,14.276c-2.184,2.184-4.175,4.493-5.959,6.897
			c1.186-5.416,1.794-11.09,1.794-16.892c0-12.415-2.784-24.244-8.052-34.209c-0.26-0.492-0.771-0.8-1.328-0.8
			s-1.068,0.308-1.328,0.8c-5.268,9.965-8.052,21.794-8.052,34.209c0,5.349,0.518,10.589,1.528,15.619
			c-1.527-1.948-3.192-3.829-4.988-5.625c-6.775-6.775-14.752-11.711-23.069-14.276c-0.532-0.164-1.111-0.021-1.505,0.373
			c-0.394,0.394-0.537,0.973-0.373,1.505c2.565,8.318,7.501,16.295,14.276,23.069v0c2.699,2.699,5.59,5.106,8.617,7.188
			c-1.084-0.079-2.177-0.123-3.281-0.123c-6.846,0-13.374,1.538-18.878,4.448c-0.492,0.26-0.8,0.771-0.8,1.328
			s0.308,1.068,0.8,1.328c5.504,2.91,12.032,4.448,18.878,4.448c1.892,0,3.758-0.122,5.586-0.353
			c-3.403,3.172-5.963,6.945-7.409,10.94c-0.19,0.524-0.074,1.109,0.3,1.521c0.289,0.318,0.694,0.493,1.112,0.493
			c0.124,0,0.249-0.015,0.373-0.047c4.238-1.086,8.358-3.367,11.914-6.595c1.856-1.685,3.467-3.549,4.797-5.529v10.669
			c0,0.83,0.673,1.502,1.502,1.502s1.502-0.673,1.502-1.502v-11.77c1.45,2.393,3.306,4.636,5.502,6.63l0,0
			c3.556,3.229,7.676,5.509,11.914,6.595c0.124,0.032,0.249,0.047,0.373,0.047c0.418,0,0.824-0.175,1.112-0.493
			c0.374-0.412,0.49-0.998,0.3-1.521c-1.446-3.995-4.006-7.769-7.409-10.94c1.828,0.231,3.694,0.353,5.586,0.353
			c6.846,0,13.374-1.538,18.878-4.448c0.492-0.26,0.8-0.771,0.8-1.328S211.971,308.855,211.478,308.595z"/>
	</g>
	<g>
		<rect x="345.424" y="211.258" class="st7" width="35.455" height="14"/>
	</g>
</g>
</svg>
