<?xml version="1.0" encoding="utf-8"?>
<!-- Generator: Adobe Illustrator 22.0.0, SVG Export Plug-In . SVG Version: 6.00 Build 0)  -->
<svg version="1.1" id="Layer_1" xmlns="http://www.w3.org/2000/svg" xmlns:xlink="http://www.w3.org/1999/xlink" x="0px" y="0px"
	 viewBox="0 0 512 512" style="enable-background:new 0 0 512 512;" xml:space="preserve">
<style type="text/css">
	.st0{fill:#D6CD1E;}
	.st1{fill:#E56823;}
	.st2{fill:#FE8E46;}
	.st3{fill:#FEFE71;}
	.st4{fill:#463218;}
	.st5{fill:#7DAC51;}
	.st6{fill:#5B7C31;}
	.st7{fill:#FFFFFF;}
</style>
<g>
	<g>
		<rect x="140.128" y="91.544" class="st2" width="231.744" height="318.056"/>
	</g>
	<g>
		<rect x="140.128" y="91.544" class="st1" width="39.398" height="318.056"/>
	</g>
	<g>
		<polygon class="st1" points="102.4,409.6 140.128,409.6 140.128,153.6 		"/>
	</g>
	<g>
		<path class="st3" d="M371.872,214.946c-20.224-7.171-41.989-11.087-64.672-11.087c-71.248,0-133.491,38.515-167.072,95.854V409.6
			h231.744V214.946z"/>
	</g>
	<g>
		<path class="st0" d="M140.128,299.713V409.6h39.398V251.972C163.984,265.635,150.648,281.749,140.128,299.713z"/>
	</g>
	<g>
		<path class="st4" d="M371.872,416.6H140.128c-3.866,0-7-3.134-7-7V91.544c0-3.866,3.134-7,7-7h231.744c3.866,0,7,3.134,7,7V409.6
			C378.872,413.466,375.738,416.6,371.872,416.6z M147.128,402.6h217.744V98.544H147.128V402.6z"/>
	</g>
	<g>
		<rect x="140.128" y="91.544" class="st5" width="231.744" height="62.056"/>
	</g>
	<g>
		<rect x="140.128" y="91.544" class="st6" width="39.398" height="62.056"/>
	</g>
	<g>
		<path class="st4" d="M371.872,160.6H140.128c-3.866,0-7-3.134-7-7V91.544c0-3.866,3.134-7,7-7h231.744c3.866,0,7,3.134,7,7V153.6
			C378.872,157.466,375.738,160.6,371.872,160.6z M147.128,146.6h217.744V98.544H147.128V146.6z"/>
	</g>
	<g>
		<path class="st4" d="M140.128,416.6H102.4c-2.035,0-3.969-0.885-5.298-2.426c-1.33-1.54-1.923-3.582-1.627-5.595l37.728-256
			c0.564-3.825,4.121-6.471,7.946-5.904c3.825,0.563,6.468,4.121,5.905,7.945L110.507,402.6h29.621c3.866,0,7,3.134,7,7
			S143.994,416.6,140.128,416.6z"/>
	</g>
	<g>
		<path class="st1" d="M285.822,132.148h-59.644c-5.289,0-9.576-4.287-9.576-9.576v0c0-5.289,4.287-9.576,9.576-9.576h59.644
			c5.289,0,9.576,4.287,9.576,9.576v0C295.398,127.861,291.111,132.148,285.822,132.148z"/>
	</g>
	<g>
		<path class="st4" d="M285.822,139.147h-59.645c-9.14,0-16.576-7.436-16.576-16.575c0-9.141,7.436-16.576,16.576-16.576h59.645
			c9.14,0,16.576,7.436,16.576,16.576C302.398,131.712,294.962,139.147,285.822,139.147z M226.178,119.996
			c-1.42,0-2.576,1.155-2.576,2.576c0,1.42,1.155,2.575,2.576,2.575h59.645c1.421,0,2.576-1.155,2.576-2.575
			c0-1.421-1.155-2.576-2.576-2.576H226.178z"/>
	</g>
	<g>
		<path class="st4" d="M371.872,416.6H140.128c-3.866,0-7-3.134-7-7V299.713c0-1.243,0.331-2.465,0.959-3.537
			c17.379-29.676,42.247-54.549,71.913-71.933c30.575-17.915,65.569-27.385,101.2-27.385c22.964,0,45.509,3.865,67.011,11.489
			c2.794,0.99,4.661,3.634,4.661,6.598V409.6C378.872,413.466,375.738,416.6,371.872,416.6z M147.128,402.6h217.744V219.959
			c-18.584-6.041-37.96-9.101-57.672-9.101c-33.146,0-65.692,8.806-94.122,25.464c-27.062,15.857-49.83,38.411-65.95,65.309V402.6z"
			/>
	</g>
	<g>
		<rect x="320.146" y="170.888" class="st7" width="30.334" height="14"/>
	</g>
	<g>
		<path class="st6" d="M315.898,350.691c-8.814-4.659-19.267-7.122-30.229-7.122c-1.766,0-3.518,0.071-5.253,0.198
			c4.846-3.334,9.475-7.187,13.797-11.509c10.848-10.848,18.752-23.621,22.859-36.939c0.263-0.852,0.033-1.78-0.598-2.41
			c-0.63-0.63-1.558-0.861-2.41-0.598c-13.318,4.107-26.092,12.011-36.939,22.859c-3.496,3.496-6.685,7.194-9.541,11.044
			c1.899-8.672,2.873-17.757,2.873-27.048c0-19.878-4.458-38.674-12.894-54.63c-0.417-0.788-1.235-1.281-2.127-1.281
			c-0.892,0-1.71,0.493-2.127,1.281c-8.435,15.956-12.894,34.752-12.894,54.63c0,8.566,0.83,16.956,2.447,25.01
			c-2.446-3.12-5.112-6.131-7.987-9.006c-10.848-10.848-23.621-18.752-36.939-22.859c-0.851-0.262-1.779-0.033-2.41,0.598
			c-0.63,0.63-0.861,1.558-0.598,2.41c4.107,13.319,12.011,26.092,22.859,36.939v0c4.322,4.322,8.951,8.175,13.797,11.509
			c-1.735-0.127-3.486-0.198-5.253-0.198c-10.962,0-21.415,2.463-30.228,7.122c-0.788,0.417-1.281,1.235-1.281,2.127
			s0.493,1.71,1.281,2.127c8.814,4.659,19.266,7.122,30.228,7.122c3.029,0,6.017-0.195,8.944-0.565
			c-5.45,5.079-9.548,11.121-11.864,17.518c-0.304,0.838-0.118,1.776,0.481,2.436c0.462,0.509,1.112,0.789,1.781,0.789
			c0.199,0,0.399-0.025,0.597-0.075c6.786-1.739,13.383-5.391,19.077-10.561c2.972-2.698,5.551-5.682,7.681-8.853v17.084
			c0,1.329,1.077,2.406,2.406,2.406s2.406-1.077,2.406-2.406v-17.001c2.322,3.832,5.294,5.578,8.81,8.771l0,0
			c5.694,5.17,12.291,8.822,19.077,10.561c0.198,0.051,0.398,0.075,0.597,0.075c0.669,0,1.319-0.28,1.781-0.789
			c0.599-0.66,0.785-1.598,0.481-2.436c-2.316-6.397-6.414-12.439-11.864-17.518c2.927,0.37,5.915,0.565,8.944,0.565
			c10.962,0,21.415-2.463,30.229-7.122c0.788-0.417,1.281-1.235,1.281-2.127C317.179,351.927,316.686,351.108,315.898,350.691z"/>
	</g>
</g>
</svg>
