<?xml version="1.0" encoding="utf-8"?>
<!-- Generator: Adobe Illustrator 21.1.0, SVG Export Plug-In . SVG Version: 6.00 Build 0)  -->
<svg version="1.1" id="Layer_1" xmlns="http://www.w3.org/2000/svg" xmlns:xlink="http://www.w3.org/1999/xlink" x="0px" y="0px"
	 viewBox="0 0 512 512" style="enable-background:new 0 0 512 512;" xml:space="preserve">
<style type="text/css">
	.st0{fill:#D6CD1E;}
	.st1{fill:#E56823;}
	.st2{fill:#FE8E46;}
	.st3{fill:#FEFE71;}
	.st4{fill:#463218;}
	.st5{fill:#7DAC51;}
	.st6{fill:#5B7C31;}
	.st7{fill:#FFFFFF;}
</style>
<g>
	<g>
		<path class="st3" d="M206.684,225.64h-84.072c-10.897,0-19.73-8.834-19.73-19.73v-71.121c0-10.897,8.834-19.73,19.73-19.73h84.072
			c10.897,0,19.73,8.834,19.73,19.73v71.121C226.415,216.806,217.581,225.64,206.684,225.64z"/>
	</g>
	<g>
		<path class="st2" d="M433.979,402.527H206.845v-11.176c0-56.554,45.846-102.4,102.4-102.4h22.335
			c56.554,0,102.4,45.846,102.4,102.4V402.527z"/>
	</g>
	<g>
		<path class="st1" d="M331.579,288.951h-22.335c-56.554,0-102.4,45.846-102.4,102.4v11.176h2.559
			c10.377-45.562,51.137-79.565,99.841-79.565h22.335c48.704,0,89.464,34.003,99.841,79.565h2.559v-11.176
			C433.979,334.797,388.133,288.951,331.579,288.951z"/>
	</g>
	<g>
		<path class="st4" d="M433.979,409.527H206.845c-3.866,0-7-3.134-7-7v-11.176c0-60.323,49.076-109.4,109.399-109.4h22.335
			c60.323,0,109.4,49.077,109.4,109.4v11.176C440.979,406.394,437.846,409.527,433.979,409.527z M213.845,395.527h213.135v-4.176
			c0-52.604-42.797-95.4-95.4-95.4h-22.335c-52.604,0-95.399,42.796-95.399,95.4V395.527z"/>
	</g>
	<g>
		<path class="st5" d="M298.931,402.527h42.962l21.181-108.633c-9.923-3.205-20.505-4.943-31.494-4.943h-22.335
			c-10.989,0-21.571,1.738-31.494,4.943L298.931,402.527z"/>
	</g>
	<g>
		<path class="st6" d="M305.577,289.023c-0.269,0.01-0.538,0.019-0.807,0.031c-1.211,0.052-2.418,0.12-3.617,0.214
			c-0.092,0.007-0.183,0.017-0.275,0.024c-1.169,0.095-2.332,0.211-3.49,0.345c-0.175,0.021-0.35,0.039-0.524,0.06
			c-1.241,0.15-2.476,0.32-3.703,0.514c-0.065,0.01-0.13,0.022-0.195,0.032c-1.26,0.202-2.514,0.425-3.758,0.672
			c-0.015,0.003-0.029,0.005-0.044,0.008c-1.287,0.256-2.566,0.537-3.835,0.841c-0.015,0.003-0.029,0.007-0.044,0.011
			c-2.55,0.612-5.063,1.319-7.536,2.117l6.281,32.215c8.068-2.043,16.51-3.147,25.213-3.147h22.335
			c8.703,0,17.146,1.104,25.213,3.147l6.281-32.215c-2.472-0.798-4.986-1.505-7.536-2.118c-0.014-0.003-0.029-0.007-0.043-0.01
			c-1.27-0.304-2.548-0.585-3.836-0.841c-0.014-0.003-0.028-0.005-0.042-0.008c-1.245-0.247-2.499-0.47-3.759-0.672
			c-0.065-0.01-0.13-0.022-0.195-0.032c-1.227-0.194-2.462-0.364-3.703-0.514c-0.174-0.021-0.349-0.04-0.523-0.06
			c-1.158-0.134-2.321-0.25-3.491-0.345c-0.092-0.007-0.182-0.017-0.274-0.024c-1.2-0.094-2.407-0.162-3.618-0.214
			c-0.268-0.012-0.537-0.021-0.806-0.031c-1.218-0.043-2.439-0.072-3.667-0.072h0h-22.335h0
			C308.016,288.951,306.795,288.98,305.577,289.023z"/>
	</g>
	<g>
		<path class="st4" d="M341.893,409.527h-42.962c-3.35,0-6.229-2.373-6.871-5.66l-21.181-108.634c-0.678-3.477,1.349-6.912,4.72-8
			c10.852-3.505,22.172-5.282,33.646-5.282h22.335c11.473,0,22.793,1.777,33.646,5.282c3.371,1.088,5.397,4.524,4.72,8.001
			l-21.182,108.633C348.122,407.155,345.242,409.527,341.893,409.527z M304.697,395.527h31.429l18.851-96.681
			c-7.622-1.923-15.466-2.896-23.397-2.896h-22.335c-7.932,0-15.775,0.972-23.396,2.896L304.697,395.527z"/>
	</g>
	<g>
		<path class="st4" d="M206.684,232.64h-84.071c-14.739,0-26.73-11.991-26.73-26.73v-71.122c0-14.739,11.991-26.73,26.73-26.73
			h84.071c14.74,0,26.731,11.991,26.731,26.73v71.122C233.415,220.649,221.424,232.64,206.684,232.64z M122.612,122.058
			c-7.02,0-12.73,5.711-12.73,12.73v71.122c0,7.02,5.711,12.73,12.73,12.73h84.071c7.021,0,12.731-5.711,12.731-12.73v-71.122
			c0-7.02-5.711-12.73-12.731-12.73H122.612z"/>
	</g>
	<g>
		<path class="st4" d="M206.845,307.127h-42.196c-3.866,0-7-3.134-7-7V225.64c0-3.866,3.134-7,7-7s7,3.134,7,7v67.487h35.196
			c3.866,0,7,3.134,7,7S210.711,307.127,206.845,307.127z"/>
	</g>
	<g>
		<circle class="st3" cx="320.412" cy="234.646" r="71.304"/>
	</g>
	<g>
		<path class="st2" d="M320.412,163.342c-39.38,0-71.304,31.924-71.304,71.304c0,0.786,0.034,1.564,0.059,2.344h38.99
			c25.05,0,45.356-20.307,45.356-45.356c0,25.05,20.307,45.356,45.356,45.356h12.786c0.025-0.78,0.059-1.558,0.059-2.344
			C391.716,195.266,359.792,163.342,320.412,163.342z"/>
	</g>
	<g>
		<path class="st4" d="M320.412,312.95c-43.178,0-78.305-35.127-78.305-78.304c0-43.177,35.127-78.304,78.305-78.304
			c43.177,0,78.304,35.127,78.304,78.304C398.716,277.823,363.589,312.95,320.412,312.95z M320.412,170.342
			c-35.458,0-64.305,28.847-64.305,64.304c0,35.457,28.847,64.304,64.305,64.304c35.457,0,64.304-28.847,64.304-64.304
			C384.716,199.189,355.869,170.342,320.412,170.342z"/>
	</g>
	<g>
		<path class="st4" d="M391.656,243.99H378.87c-19.357,0-36.297-10.562-45.356-26.224c-9.06,15.662-25.999,26.224-45.356,26.224
			h-38.99c-3.777,0-6.873-2.997-6.996-6.772l-0.016-0.462c-0.024-0.701-0.048-1.403-0.048-2.11
			c0-43.177,35.127-78.304,78.305-78.304c43.177,0,78.304,35.127,78.304,78.304c0,0.707-0.023,1.409-0.048,2.11l-0.016,0.462
			C398.529,240.993,395.434,243.99,391.656,243.99z M333.514,184.634c3.866,0,7,3.134,7,7c0,21.15,17.207,38.356,38.356,38.356
			h5.679c-2.392-33.293-30.244-59.648-64.137-59.648s-61.746,26.354-64.138,59.648h31.883c21.149,0,38.356-17.207,38.356-38.356
			C326.514,187.768,329.647,184.634,333.514,184.634z"/>
	</g>
	<g>
		<path class="st6" d="M192.795,187.937c-4.26-2.252-9.312-3.442-14.61-3.442c-0.854,0-1.7,0.034-2.539,0.096
			c2.342-1.611,4.579-3.474,6.668-5.563c5.243-5.243,9.063-11.417,11.048-17.854c0.127-0.412,0.016-0.86-0.289-1.165
			c-0.305-0.305-0.753-0.416-1.165-0.289c-6.437,1.985-12.611,5.805-17.854,11.048c-1.69,1.69-3.231,3.477-4.612,5.338
			c0.918-4.191,1.389-8.583,1.389-13.073c0-9.608-2.155-18.763-6.232-26.475c-0.201-0.381-0.597-0.619-1.028-0.619
			c-0.431,0-0.827,0.238-1.028,0.619c-4.077,7.712-6.232,16.867-6.232,26.475c0,4.14,0.401,8.195,1.183,12.088
			c-1.182-1.508-2.471-2.963-3.86-4.353c-5.243-5.243-11.417-9.064-17.854-11.048c-0.411-0.127-0.86-0.016-1.165,0.289
			c-0.305,0.305-0.416,0.753-0.289,1.165c1.985,6.437,5.805,12.611,11.048,17.854v0c2.089,2.089,4.326,3.951,6.669,5.563
			c-0.839-0.061-1.685-0.096-2.539-0.096c-5.298,0-10.35,1.19-14.61,3.442c-0.381,0.201-0.619,0.597-0.619,1.028
			s0.238,0.827,0.619,1.028c4.26,2.252,9.312,3.442,14.61,3.442c1.464,0,2.908-0.094,4.323-0.273
			c-2.634,2.455-4.615,5.375-5.734,8.467c-0.147,0.405-0.057,0.858,0.232,1.177c0.223,0.246,0.537,0.381,0.861,0.381
			c0.096,0,0.193-0.012,0.289-0.036c3.28-0.841,6.468-2.606,9.221-5.104c1.436-1.304,2.683-2.746,3.713-4.279v8.257
			c0,0.642,0.521,1.163,1.163,1.163c0.642,0,1.163-0.521,1.163-1.163v-9.109c1.122,1.852,2.559,3.588,4.258,5.131l0,0
			c2.752,2.499,5.941,4.264,9.221,5.104c0.096,0.025,0.193,0.036,0.289,0.036c0.323,0,0.638-0.135,0.861-0.381
			c0.29-0.319,0.379-0.772,0.232-1.177c-1.119-3.092-3.1-6.012-5.734-8.467c1.415,0.179,2.859,0.273,4.323,0.273
			c5.298,0,10.35-1.19,14.61-3.442c0.381-0.201,0.619-0.597,0.619-1.028C193.414,188.534,193.176,188.138,192.795,187.937z"/>
	</g>
	<g>
		<path class="st7" d="M283.087,216.281l-12.557-6.191c4.273-8.667,10.773-16.113,18.798-21.534l7.836,11.602
			C291.154,204.217,286.286,209.793,283.087,216.281z"/>
	</g>
</g>
</svg>
