<?xml version="1.0" encoding="utf-8"?>
<!-- Generator: Adobe Illustrator 21.1.0, SVG Export Plug-In . SVG Version: 6.00 Build 0)  -->
<svg version="1.1" id="Layer_1" xmlns="http://www.w3.org/2000/svg" xmlns:xlink="http://www.w3.org/1999/xlink" x="0px" y="0px"
	 viewBox="0 0 512 512" style="enable-background:new 0 0 512 512;" xml:space="preserve">
<style type="text/css">
	.st0{fill:#D6CD1E;}
	.st1{fill:#E56823;}
	.st2{fill:#FE8E46;}
	.st3{fill:#FEFE71;}
	.st4{fill:#463218;}
	.st5{fill:#7DAC51;}
	.st6{fill:#5B7C31;}
	.st7{fill:#FFFFFF;}
</style>
<g>
	<g>
		<g>
			<rect x="135.209" y="374.145" class="st2" width="38.008" height="20.841"/>
		</g>
	</g>
	<g>
		<g>
			<rect x="339.396" y="374.145" class="st2" width="38.008" height="20.841"/>
		</g>
	</g>
	<g>
		<g>
			<path class="st3" d="M393.517,168.215H118.483c-9.125,0-16.522,7.396-16.522,16.521v171.757c0,9.124,7.397,16.521,16.522,16.521
				h275.034c9.125,0,16.522-7.397,16.522-16.521V184.736C410.039,175.611,402.642,168.215,393.517,168.215z"/>
		</g>
	</g>
	<g>
		<g>
			<path class="st0" d="M168.612,356.492V184.735c0-9.124,7.397-16.521,16.522-16.521h-66.65c-9.125,0-16.522,7.397-16.522,16.521
				v171.757c0,9.125,7.397,16.521,16.522,16.521h66.65C176.009,373.014,168.612,365.617,168.612,356.492z"/>
		</g>
	</g>
	<g>
		<g>
			<g>
				<g>
					<path class="st4" d="M393.517,161.215H118.483c-12.97,0-23.521,10.552-23.521,23.521v171.757
						c0,12.97,10.552,23.521,23.521,23.521h275.034c12.97,0,23.521-10.552,23.521-23.521V184.736
						C417.038,171.767,406.487,161.215,393.517,161.215z M403.038,356.493c0,5.25-4.271,9.521-9.521,9.521H118.483
						c-5.25,0-9.521-4.271-9.521-9.521V184.736c0-5.25,4.271-9.521,9.521-9.521h275.034c5.25,0,9.521,4.271,9.521,9.521V356.493z"/>
				</g>
			</g>
		</g>
	</g>
	<g>
		<g>
			<rect x="139.813" y="168.215" class="st2" width="28.798" height="37.735"/>
		</g>
	</g>
	<g>
		<g>
			<rect x="343.389" y="168.215" class="st2" width="28.798" height="37.735"/>
		</g>
	</g>
	<g>
		<g>
			<g>
				<g>
					<path class="st4" d="M168.612,161.215h-28.798c-3.866,0-7,3.134-7,7v37.735c0,3.866,3.134,7,7,7h28.798c3.866,0,7-3.134,7-7
						v-37.735C175.612,164.349,172.478,161.215,168.612,161.215z M161.612,198.95h-14.798v-23.735h14.798V198.95z"/>
				</g>
			</g>
		</g>
	</g>
	<g>
		<g>
			<g>
				<g>
					<path class="st4" d="M372.188,161.215h-28.799c-3.866,0-7,3.134-7,7v37.735c0,3.866,3.134,7,7,7h28.799c3.866,0,7-3.134,7-7
						v-37.735C379.188,164.349,376.054,161.215,372.188,161.215z M365.188,198.95h-14.799v-23.735h14.799V198.95z"/>
				</g>
			</g>
		</g>
	</g>
	<g>
		<g>
			<g>
				<g>
					<path class="st4" d="M173.216,367.145h-38.007c-3.866,0-7,3.134-7,7v20.841c0,3.866,3.134,7,7,7h38.007c3.866,0,7-3.134,7-7
						v-20.841C180.216,370.278,177.082,367.145,173.216,367.145z M166.216,387.985h-24.007v-6.841h24.007V387.985z"/>
				</g>
			</g>
		</g>
	</g>
	<g>
		<g>
			<g>
				<g>
					<path class="st4" d="M377.404,367.145h-38.007c-3.866,0-7,3.134-7,7v20.841c0,3.866,3.134,7,7,7h38.007c3.866,0,7-3.134,7-7
						v-20.841C384.404,370.278,381.27,367.145,377.404,367.145z M370.404,387.985h-24.007v-6.841h24.007V387.985z"/>
				</g>
			</g>
		</g>
	</g>
	<g>
		<g>
			<g>
				<g>
					<path class="st4" d="M268.645,110.015h-25.723c-24.88,0-45.122,20.241-45.122,45.121v12.966c0,3.866,3.134,7,7,7h101.966
						c3.866,0,7-3.134,7-7v-12.966C313.766,130.256,293.525,110.015,268.645,110.015z M299.766,161.102H211.8v-5.966
						c0-17.16,13.961-31.121,31.122-31.121h25.723c17.16,0,31.121,13.961,31.121,31.121V161.102z"/>
				</g>
			</g>
		</g>
	</g>
	<g>
		<g>
			<path class="st5" d="M311.227,301.482c-8.158-4.312-17.834-6.592-27.981-6.592c-1.635,0-3.256,0.065-4.862,0.183
				c4.486-3.086,8.77-6.652,12.771-10.653c10.041-10.041,17.358-21.864,21.16-34.193c0.243-0.788,0.03-1.646-0.553-2.23
				s-1.442-0.797-2.231-0.554c-12.328,3.802-24.152,11.119-34.193,21.16c-3.236,3.236-6.188,6.659-8.832,10.223
				c1.757-8.027,2.659-16.438,2.659-25.037c0-18.4-4.127-35.934-11.935-50.704c-0.386-0.729-1.144-1.186-1.969-1.186
				s-1.583,0.456-1.969,1.186c-7.808,14.771-11.935,32.304-11.935,50.704c0,7.929,0.768,15.696,2.265,23.15
				c-2.264-2.888-4.732-5.675-7.393-8.336c-10.041-10.041-21.865-17.358-34.193-21.16c-0.788-0.242-1.647-0.03-2.231,0.554
				c-0.584,0.584-0.797,1.442-0.553,2.23c3.802,12.329,11.118,24.152,21.16,34.193c4.001,4.001,8.285,7.567,12.771,10.653
				c-1.606-0.117-3.227-0.183-4.862-0.183c-10.147,0-19.823,2.279-27.981,6.592c-0.73,0.386-1.186,1.144-1.186,1.969
				c0,0.826,0.457,1.584,1.186,1.969c8.158,4.313,17.834,6.593,27.981,6.593c2.804,0,5.569-0.181,8.279-0.523
				c-5.044,4.701-8.838,10.295-10.982,16.216c-0.281,0.776-0.11,1.644,0.445,2.255c0.428,0.472,1.029,0.73,1.649,0.73
				c0.184,0,0.37-0.023,0.553-0.07c6.282-1.609,12.388-4.99,17.659-9.775c2.751-2.497,5.138-5.26,7.11-8.195v15.813
				c0,1.23,0.997,2.228,2.227,2.228s2.227-0.997,2.227-2.228v-17.445c2.149,3.547,4.9,6.872,8.156,9.827h0
				c5.271,4.785,11.377,8.166,17.659,9.775c0.183,0.047,0.369,0.07,0.553,0.07c0.62,0,1.221-0.259,1.649-0.73
				c0.555-0.611,0.726-1.479,0.445-2.255c-2.144-5.921-5.938-11.515-10.982-16.216c2.71,0.343,5.476,0.523,8.279,0.523
				c10.147,0,19.823-2.279,27.981-6.593c0.73-0.385,1.186-1.143,1.186-1.969C312.413,302.626,311.957,301.868,311.227,301.482z"/>
		</g>
	</g>
	<g>
		<g>
			<rect x="122.238" y="219.414" class="st7" width="14" height="23.909"/>
		</g>
	</g>
</g>
</svg>
