<?xml version="1.0" encoding="utf-8"?>
<!-- Generator: Adobe Illustrator 21.1.0, SVG Export Plug-In . SVG Version: 6.00 Build 0)  -->
<svg version="1.1" id="Layer_1" xmlns="http://www.w3.org/2000/svg" xmlns:xlink="http://www.w3.org/1999/xlink" x="0px" y="0px"
	 viewBox="0 0 512 512" style="enable-background:new 0 0 512 512;" xml:space="preserve">
<style type="text/css">
	.st0{fill:#D6CD1E;}
	.st1{fill:#E56823;}
	.st2{fill:#FE8E46;}
	.st3{fill:#FEFE71;}
	.st4{fill:#463218;}
	.st5{fill:#7DAC51;}
	.st6{fill:#5B7C31;}
	.st7{fill:#FFFFFF;}
</style>
<g>
	<g>
		<rect x="373.856" y="287.477" class="st5" width="35.744" height="124.26"/>
	</g>
	<g>
		<rect x="292.092" y="349.607" class="st5" width="35.744" height="62.13"/>
	</g>
	<g>
		<circle class="st2" cx="204.8" cy="178.636" r="76.236"/>
	</g>
	<g>
		<circle class="st1" cx="204.8" cy="178.636" r="51.2"/>
	</g>
	<g>
		<path class="st4" d="M128.564,365.02c-1.792,0-3.583-0.684-4.95-2.05c-2.733-2.733-2.733-7.166,0-9.899l75.84-75.841
			c1.313-1.313,3.094-2.05,4.95-2.05s3.637,0.737,4.95,2.05l46.25,46.25l149.045-149.046c2.734-2.733,7.166-2.733,9.9,0
			c2.733,2.733,2.733,7.166,0,9.899L260.555,338.329c-1.313,1.313-3.094,2.05-4.95,2.05s-3.637-0.737-4.95-2.05l-46.25-46.25
			l-70.89,70.891C132.147,364.336,130.355,365.02,128.564,365.02z"/>
	</g>
	<g>
		<g>
			<path class="st4" d="M409.6,186.383h-62.582c-3.866,0-7-3.134-7-7s3.134-7,7-7H409.6c3.866,0,7,3.134,7,7
				S413.466,186.383,409.6,186.383z"/>
		</g>
		<g>
			<path class="st4" d="M409.6,248.966c-3.866,0-7-3.134-7-7v-62.583c0-3.866,3.134-7,7-7s7,3.134,7,7v62.583
				C416.6,245.832,413.466,248.966,409.6,248.966z"/>
		</g>
	</g>
	<g>
		<path class="st4" d="M204.8,261.872c-45.896,0-83.235-37.339-83.235-83.236S158.903,95.4,204.8,95.4s83.236,37.339,83.236,83.236
			S250.696,261.872,204.8,261.872z M204.8,109.4c-38.177,0-69.235,31.059-69.235,69.236s31.059,69.236,69.235,69.236
			s69.236-31.059,69.236-69.236S242.977,109.4,204.8,109.4z"/>
	</g>
	<g>
		<path class="st3" d="M232.038,195.923c-4.008-2.119-8.761-3.239-13.746-3.239c-0.803,0-1.6,0.032-2.389,0.09
			c2.204-1.516,4.309-3.268,6.274-5.234c4.933-4.933,8.527-10.742,10.395-16.798c0.12-0.387,0.015-0.809-0.272-1.096
			c-0.287-0.287-0.708-0.391-1.096-0.272c-6.057,1.868-11.865,5.462-16.798,10.395c-1.59,1.59-3.04,3.271-4.339,5.022
			c0.863-3.944,1.306-8.075,1.306-12.3c0-9.04-2.027-17.653-5.863-24.909c-0.189-0.358-0.562-0.583-0.967-0.583
			c-0.405,0-0.778,0.224-0.967,0.583c-3.836,7.256-5.863,15.87-5.863,24.909c0,3.895,0.377,7.711,1.113,11.373
			c-1.112-1.419-2.324-2.788-3.632-4.096c-4.933-4.933-10.742-8.528-16.798-10.395c-0.387-0.119-0.809-0.015-1.096,0.272
			c-0.287,0.287-0.391,0.708-0.272,1.096c1.868,6.057,5.462,11.865,10.395,16.798v0c1.965,1.965,4.07,3.718,6.274,5.234
			c-0.789-0.058-1.585-0.09-2.389-0.09c-4.985,0-9.738,1.12-13.746,3.239c-0.358,0.189-0.583,0.562-0.583,0.967
			s0.224,0.778,0.583,0.967c4.008,2.119,8.761,3.239,13.746,3.239c1.377,0,2.736-0.089,4.067-0.257
			c-2.478,2.309-4.342,5.057-5.395,7.966c-0.138,0.381-0.054,0.808,0.219,1.108c0.21,0.231,0.506,0.359,0.81,0.359
			c0.09,0,0.182-0.011,0.272-0.034c3.086-0.791,6.086-2.452,8.675-4.802c1.351-1.227,2.524-2.584,3.493-4.026v7.769
			c0,0.604,0.49,1.094,1.094,1.094c0.604,0,1.094-0.49,1.094-1.094v-8.571c1.056,1.742,2.407,3.376,4.007,4.828l0,0
			c2.589,2.351,5.589,4.012,8.675,4.802c0.09,0.023,0.181,0.034,0.272,0.034c0.304,0,0.6-0.127,0.81-0.359
			c0.273-0.3,0.357-0.727,0.219-1.108c-1.053-2.909-2.917-5.657-5.395-7.966c1.331,0.168,2.69,0.257,4.067,0.257
			c4.985,0,9.738-1.12,13.746-3.239c0.358-0.189,0.583-0.562,0.583-0.967S232.396,196.113,232.038,195.923z"/>
	</g>
	<g>
		<path class="st4" d="M409.6,418.737h-35.743c-3.866,0-7-3.134-7-7v-124.26c0-3.866,3.134-7,7-7H409.6c3.866,0,7,3.134,7,7v124.26
			C416.6,415.604,413.466,418.737,409.6,418.737z M380.856,404.737H402.6v-110.26h-21.743V404.737z"/>
	</g>
	<g>
		<path class="st4" d="M327.836,418.737h-35.744c-3.866,0-7-3.134-7-7v-62.13c0-3.866,3.134-7,7-7h35.744c3.866,0,7,3.134,7,7v62.13
			C334.836,415.604,331.702,418.737,327.836,418.737z M299.092,404.737h21.744v-48.13h-21.744V404.737z"/>
	</g>
	<g>
		<g>
			<rect x="210.328" y="374.346" class="st5" width="35.744" height="37.392"/>
		</g>
		<g>
			<path class="st4" d="M246.072,418.737h-35.744c-3.866,0-7-3.134-7-7v-37.392c0-3.866,3.134-7,7-7h35.744c3.866,0,7,3.134,7,7
				v37.392C253.072,415.604,249.938,418.737,246.072,418.737z M217.328,404.737h21.744v-23.392h-21.744V404.737z"/>
		</g>
	</g>
	<g>
		<g>
			<rect x="128.564" y="390.274" class="st3" width="35.744" height="21.463"/>
		</g>
		<g>
			<rect x="128.564" y="390.274" class="st5" width="35.744" height="21.463"/>
		</g>
		<g>
			<path class="st4" d="M164.308,418.737h-35.743c-3.866,0-7-3.134-7-7v-21.463c0-3.866,3.134-7,7-7h35.743c3.866,0,7,3.134,7,7
				v21.463C171.308,415.604,168.174,418.737,164.308,418.737z M135.564,404.737h21.743v-7.463h-21.743V404.737z"/>
		</g>
	</g>
	<g>
		<path class="st7" d="M241.599,154.142c-3.948-5.919-9.326-10.855-15.552-14.275l6.74-12.271c8.19,4.5,15.265,10.992,20.458,18.776
			L241.599,154.142z"/>
	</g>
</g>
</svg>
