<?xml version="1.0" encoding="utf-8"?>
<!-- Generator: Adobe Illustrator 21.1.0, SVG Export Plug-In . SVG Version: 6.00 Build 0)  -->
<svg version="1.1" id="Layer_1" xmlns="http://www.w3.org/2000/svg" xmlns:xlink="http://www.w3.org/1999/xlink" x="0px" y="0px"
	 viewBox="0 0 512 512" style="enable-background:new 0 0 512 512;" xml:space="preserve">
<style type="text/css">
	.st0{fill:#D6CD1E;}
	.st1{fill:#E56823;}
	.st2{fill:#FE8E46;}
	.st3{fill:#FEFE71;}
	.st4{fill:#463218;}
	.st5{fill:#7DAC51;}
	.st6{fill:#5B7C31;}
	.st7{fill:#FFFFFF;}
</style>
<g>
	<g>
		<g>
			<circle class="st0" cx="335.727" cy="289.663" r="71.391"/>
		</g>
	</g>
	<g>
		<g>
			<circle class="st3" cx="335.727" cy="289.663" r="50.481"/>
		</g>
	</g>
	<g>
		<g>
			<path class="st4" d="M258.164,94.481c-46.629,0-84.563,37.935-84.563,84.563v77.562c0,3.866,3.134,7,7,7s7-3.134,7-7v-77.562
				c0-38.909,31.654-70.563,70.563-70.563c38.908,0,70.562,31.654,70.562,70.563v15.031c0,3.866,3.134,7,7,7s7-3.134,7-7v-15.031
				C342.727,132.416,304.792,94.481,258.164,94.481z"/>
		</g>
	</g>
	<g>
		<g>
			<path class="st2" d="M226.539,154.208H124.816c-11.009,0-19.934,8.925-19.934,19.935c0,11.009,8.925,19.934,19.934,19.934
				h101.723c11.01,0,19.934-8.925,19.934-19.934C246.473,163.132,237.548,154.208,226.539,154.208z"/>
		</g>
	</g>
	<g>
		<g>
			<path class="st1" d="M156.082,174.142c0-11.009,8.925-19.934,19.934-19.934h-51.2c-11.01,0-19.934,8.925-19.934,19.934
				c0,11.01,8.925,19.935,19.934,19.935h51.2C165.006,194.076,156.082,185.151,156.082,174.142z"/>
		</g>
	</g>
	<g>
		<g>
			<path class="st3" d="M136.098,194.076v176.862c0,21.859,17.72,39.58,39.58,39.58h0c21.859,0,39.58-17.72,39.58-39.58V194.076
				H136.098z"/>
		</g>
	</g>
	<g>
		<g>
			<path class="st0" d="M162.156,376.745V194.076h-26.059v176.862c0,21.859,17.72,39.58,39.58,39.58
				c1.668,0,3.309-0.115,4.923-0.316C169.52,403.188,162.156,390.83,162.156,376.745z"/>
		</g>
	</g>
	<g>
		<g>
			<path class="st5" d="M136.098,276.731v94.207c0,21.859,17.72,39.58,39.58,39.58s39.58-17.721,39.58-39.58v-94.207H136.098z"/>
		</g>
	</g>
	<g>
		<g>
			<path class="st6" d="M162.156,376.745V276.731h-26.059v94.207c0,21.859,17.72,39.58,39.58,39.58c0.814,0,1.62-0.029,2.421-0.081
				c0.065-0.004,0.128-0.01,0.193-0.015c0.775-0.054,1.546-0.126,2.309-0.221C169.52,403.188,162.156,390.83,162.156,376.745z"/>
		</g>
	</g>
	<g>
		<g>
			<g>
				<g>
					<path class="st4" d="M226.539,147.208H124.815c-14.852,0-26.934,12.082-26.934,26.934s12.082,26.935,26.934,26.935h101.724
						c14.852,0,26.935-12.083,26.935-26.935S241.391,147.208,226.539,147.208z M226.539,187.076H124.815
						c-7.132,0-12.934-5.803-12.934-12.935s5.802-12.934,12.934-12.934h101.724c7.132,0,12.935,5.802,12.935,12.934
						S233.671,187.076,226.539,187.076z"/>
				</g>
			</g>
		</g>
	</g>
	<g>
		<g>
			<g>
				<g>
					<path class="st4" d="M215.257,187.076h-79.159c-3.866,0-7,3.134-7,7v176.862c0,25.685,20.896,46.58,46.58,46.58
						c25.684,0,46.579-20.896,46.579-46.58V194.076C222.257,190.21,219.123,187.076,215.257,187.076z M208.257,370.938
						c0,17.965-14.615,32.58-32.579,32.58c-17.965,0-32.58-14.615-32.58-32.58V201.076h65.159V370.938z"/>
				</g>
			</g>
		</g>
	</g>
	<g>
		<g>
			<g>
				<g>
					<path class="st4" d="M335.727,211.271c-43.226,0-78.392,35.166-78.392,78.392c0,43.225,35.166,78.391,78.392,78.391
						s78.392-35.166,78.392-78.391C414.118,246.438,378.952,211.271,335.727,211.271z M335.727,354.054
						c-35.506,0-64.392-28.886-64.392-64.391c0-35.506,28.886-64.392,64.392-64.392s64.392,28.886,64.392,64.392
						C400.118,325.168,371.232,354.054,335.727,354.054z"/>
				</g>
			</g>
		</g>
	</g>
	<g>
		<g>
			<path class="st5" d="M364.611,307.995c-4.25-2.247-9.291-3.435-14.577-3.435c-0.852,0-1.696,0.034-2.533,0.095
				c2.337-1.607,4.569-3.466,6.653-5.55c5.231-5.231,9.043-11.391,11.023-17.814c0.127-0.411,0.016-0.858-0.288-1.162
				c-0.304-0.304-0.751-0.415-1.162-0.288c-6.423,1.98-12.583,5.792-17.814,11.023c-1.686,1.686-3.224,3.469-4.601,5.326
				c0.916-4.182,1.385-8.563,1.385-13.043c0-9.586-2.15-18.72-6.218-26.415c-0.201-0.38-0.596-0.618-1.025-0.618
				c-0.43,0-0.825,0.238-1.026,0.618c-4.068,7.695-6.218,16.829-6.218,26.415c0,4.131,0.4,8.177,1.18,12.061
				c-1.179-1.504-2.465-2.957-3.852-4.343c-5.231-5.231-11.391-9.043-17.813-11.023c-0.41-0.127-0.858-0.016-1.162,0.288
				s-0.415,0.751-0.288,1.162c1.98,6.423,5.792,12.583,11.023,17.814v0c2.084,2.084,4.316,3.943,6.654,5.55
				c-0.837-0.061-1.681-0.095-2.533-0.095c-5.286,0-10.327,1.188-14.577,3.435c-0.38,0.201-0.618,0.596-0.618,1.025
				c0,0.43,0.238,0.825,0.618,1.026c4.25,2.247,9.291,3.434,14.577,3.434c1.461,0,2.901-0.094,4.313-0.272
				c-2.628,2.449-4.604,5.363-5.721,8.448c-0.146,0.404-0.057,0.856,0.232,1.175c0.223,0.246,0.536,0.38,0.859,0.38
				c0.096,0,0.193-0.012,0.288-0.036c3.272-0.839,6.454-2.6,9.2-5.093c1.433-1.301,2.677-2.74,3.704-4.27v8.238
				c0,0.641,0.52,1.16,1.16,1.16c0.641,0,1.16-0.52,1.16-1.16v-9.089c1.12,1.848,2.553,3.58,4.249,5.12
				c2.746,2.493,5.927,4.254,9.2,5.093c0.095,0.024,0.192,0.036,0.288,0.036c0.323,0,0.636-0.135,0.859-0.38
				c0.289-0.318,0.378-0.771,0.232-1.175c-1.117-3.085-3.093-5.999-5.721-8.448c1.412,0.179,2.853,0.272,4.313,0.272
				c5.286,0,10.327-1.188,14.577-3.434c0.38-0.201,0.618-0.596,0.618-1.026S364.991,308.196,364.611,307.995z"/>
		</g>
	</g>
	<g>
		<g>
			<rect x="191.363" y="167.142" class="st7" width="23.894" height="14"/>
		</g>
	</g>
	<g>
		<g>
			<path class="st4" d="M340.677,189.126l-23.563-23.563c-2.734-2.732-7.166-2.732-9.9,0c-2.733,2.734-2.733,7.166,0,9.9
				l23.563,23.563c1.367,1.366,3.159,2.05,4.95,2.05s3.583-0.684,4.95-2.05C343.41,196.292,343.41,191.86,340.677,189.126z"/>
		</g>
	</g>
	<g>
		<g>
			<path class="st4" d="M364.24,165.562c-2.734-2.732-7.166-2.732-9.9,0l-23.563,23.563c-2.733,2.734-2.733,7.166,0,9.9
				c1.367,1.366,3.159,2.05,4.95,2.05s3.583-0.684,4.95-2.05l23.563-23.563C366.974,172.729,366.974,168.297,364.24,165.562z"/>
		</g>
	</g>
</g>
</svg>
