<?xml version="1.0" encoding="utf-8"?>
<!-- Generator: Adobe Illustrator 21.1.0, SVG Export Plug-In . SVG Version: 6.00 Build 0)  -->
<svg version="1.1" id="Layer_1" xmlns="http://www.w3.org/2000/svg" xmlns:xlink="http://www.w3.org/1999/xlink" x="0px" y="0px"
	 viewBox="0 0 512 512" style="enable-background:new 0 0 512 512;" xml:space="preserve">
<style type="text/css">
	.st0{fill:#D6CD1E;}
	.st1{fill:#E56823;}
	.st2{fill:#FE8E46;}
	.st3{fill:#FEFE71;}
	.st4{fill:#463218;}
	.st5{fill:#7DAC51;}
	.st6{fill:#5B7C31;}
	.st7{fill:#FFFFFF;}
</style>
<g>
	<g>
		<g>
			<path class="st2" d="M359.752,256H238.277v73.819c0,32.476-26.327,58.803-58.803,58.803h176.83
				c32.476,0,58.803-26.327,58.803-58.803v-18.464C415.107,280.783,390.324,256,359.752,256z"/>
		</g>
	</g>
	<g>
		<g>
			<path class="st1" d="M338.266,329.82V256h-99.989v73.82c0,32.476-26.327,58.803-58.803,58.803h176.83
				c7.167,0,14.031-1.286,20.382-3.633C354.258,376.7,338.266,355.129,338.266,329.82z"/>
		</g>
	</g>
	<g>
		<g>
			<g>
				<g>
					<path class="st4" d="M359.752,249H238.277c-3.866,0-7,3.134-7,7v73.82c0,28.564-23.238,51.803-51.803,51.803
						c-3.866,0-7,3.134-7,7s3.134,7,7,7h176.83c36.284,0,65.803-29.519,65.803-65.803v-18.465
						C422.107,276.972,394.135,249,359.752,249z M408.107,329.82c0,28.564-23.238,51.803-51.803,51.803H220.009
						c15.374-12.056,25.269-30.795,25.269-51.803V263h114.475c26.663,0,48.355,21.692,48.355,48.355V329.82z"/>
				</g>
			</g>
		</g>
	</g>
	<g>
		<g>
			<path class="st3" d="M303.124,329.819V123.377H96.893v206.442c0,32.476,26.327,58.803,58.803,58.803h206.231
				C329.451,388.622,303.124,362.295,303.124,329.819z"/>
		</g>
	</g>
	<g>
		<g>
			<path class="st0" d="M126.364,329.82V123.377H96.893V329.82c0,32.476,26.327,58.803,58.803,58.803h29.471
				C152.691,388.623,126.364,362.295,126.364,329.82z"/>
		</g>
	</g>
	<g>
		<g>
			<g>
				<g>
					<path class="st4" d="M361.927,381.623c-28.564,0-51.803-23.238-51.803-51.803V123.377c0-3.866-3.134-7-7-7H96.893
						c-3.866,0-7,3.134-7,7V329.82c0,36.284,29.519,65.803,65.803,65.803h206.231c3.866,0,7-3.134,7-7
						S365.793,381.623,361.927,381.623z M155.695,381.623c-28.564,0-51.803-23.238-51.803-51.803V130.377h192.231V329.82
						c0,21.008,9.895,39.747,25.269,51.803H155.695z"/>
				</g>
			</g>
		</g>
	</g>
	<g>
		<g>
			<rect x="126.364" y="153.288" class="st2" width="148.458" height="38.066"/>
		</g>
	</g>
	<g>
		<g>
			<rect x="126.364" y="153.288" class="st1" width="43.74" height="38.066"/>
		</g>
	</g>
	<g>
		<g>
			<g>
				<g>
					<path class="st4" d="M274.822,146.289H126.364c-3.866,0-7,3.134-7,7v38.066c0,3.866,3.134,7,7,7h148.458c3.866,0,7-3.134,7-7
						v-38.066C281.822,149.422,278.688,146.289,274.822,146.289z M267.822,184.355H133.364v-24.066h134.458V184.355z"/>
				</g>
			</g>
		</g>
	</g>
	<g>
		<g>
			<path class="st5" d="M249.109,329.416c-6.723-3.554-14.696-5.432-23.057-5.432c-1.347,0-2.683,0.054-4.007,0.15
				c3.697-2.542,7.227-5.481,10.524-8.778c8.274-8.274,14.303-18.017,17.436-28.175c0.2-0.65,0.025-1.357-0.456-1.838
				c-0.481-0.481-1.188-0.656-1.838-0.456c-10.159,3.133-19.902,9.162-28.176,17.436c-2.667,2.667-5.099,5.487-7.278,8.424
				c1.448-6.614,2.191-13.544,2.191-20.63c0-15.163-3.401-29.61-9.834-41.781c-0.318-0.601-0.942-0.978-1.622-0.978
				c-0.68,0-1.304,0.376-1.622,0.978c-6.434,12.171-9.834,26.619-9.834,41.781c0,6.533,0.633,12.933,1.866,19.076
				c-1.865-2.379-3.899-4.676-6.092-6.87c-8.274-8.274-18.017-14.303-28.176-17.436c-0.649-0.2-1.357-0.025-1.838,0.456
				c-0.481,0.481-0.656,1.188-0.456,1.838c3.133,10.159,9.162,19.902,17.436,28.175c3.297,3.297,6.827,6.236,10.524,8.778
				c-1.323-0.097-2.659-0.15-4.007-0.15c-8.361,0-16.334,1.878-23.057,5.432c-0.601,0.318-0.977,0.942-0.977,1.622
				s0.376,1.305,0.977,1.623c6.723,3.554,14.696,5.432,23.057,5.432c2.31,0,4.589-0.148,6.822-0.431
				c-4.157,3.874-7.283,8.482-9.049,13.362c-0.231,0.64-0.09,1.354,0.367,1.858c0.353,0.389,0.848,0.602,1.359,0.602
				c0.152,0,0.304-0.019,0.456-0.057c5.176-1.327,10.208-4.112,14.551-8.055c2.267-2.058,4.234-4.334,5.859-6.753v13.03
				c0,1.014,0.822,1.835,1.835,1.835s1.835-0.821,1.835-1.835v-14.375c1.771,2.923,4.038,5.663,6.72,8.098h0
				c4.343,3.943,9.375,6.729,14.551,8.055c0.151,0.039,0.304,0.057,0.456,0.057c0.51,0,1.006-0.213,1.359-0.602
				c0.457-0.503,0.598-1.218,0.367-1.858c-1.767-4.879-4.893-9.488-9.05-13.362c2.233,0.283,4.512,0.431,6.823,0.431
				c8.361,0,16.334-1.878,23.057-5.432c0.601-0.318,0.978-0.942,0.978-1.623S249.711,329.733,249.109,329.416z"/>
		</g>
	</g>
	<g>
		<g>
			<path class="st4" d="M274.822,211.048H160.598c-3.866,0-7,3.134-7,7s3.134,7,7,7h114.225c3.866,0,7-3.134,7-7
				S278.688,211.048,274.822,211.048z"/>
		</g>
	</g>
	<g>
		<g>
			<path class="st4" d="M274.822,236.073h-36.494c-3.866,0-7,3.134-7,7s3.134,7,7,7h36.494c3.866,0,7-3.134,7-7
				S278.688,236.073,274.822,236.073z"/>
		</g>
	</g>
	<g>
		<g>
			<rect x="331.266" y="281.146" class="st7" width="14" height="26.439"/>
		</g>
	</g>
</g>
</svg>
