<?xml version="1.0" encoding="utf-8"?>
<!-- Generator: Adobe Illustrator 21.1.0, SVG Export Plug-In . SVG Version: 6.00 Build 0)  -->
<svg version="1.1" id="Layer_1" xmlns="http://www.w3.org/2000/svg" xmlns:xlink="http://www.w3.org/1999/xlink" x="0px" y="0px"
	 viewBox="0 0 512 512" style="enable-background:new 0 0 512 512;" xml:space="preserve">
<style type="text/css">
	.st0{fill:#D6CD1E;}
	.st1{fill:#E56823;}
	.st2{fill:#FE8E46;}
	.st3{fill:#FEFE71;}
	.st4{fill:#463218;}
	.st5{fill:#7DAC51;}
	.st6{fill:#5B7C31;}
	.st7{fill:#FFFFFF;}
</style>
<g>
	<g>
		<g>
			<path class="st6" d="M213.718,187.288c0,17.054,13.825,30.878,30.878,30.878h22.807c17.054,0,30.878-13.824,30.878-30.878
				H213.718z"/>
		</g>
	</g>
	<g>
		<g>
			<path class="st5" d="M387.311,223.193c-22.99-22.99-54.171-35.906-86.684-35.906h-2.345c0,17.054-13.825,30.878-30.878,30.878
				h-22.807c-17.054,0-30.878-13.825-30.878-30.878h-2.345c-32.513,0-63.694,12.916-86.684,35.906l-10.885,10.886l51.2,51.2
				l20.436-18.998V412.72h141.12V266.281l20.436,18.998l51.2-51.2L387.311,223.193z"/>
		</g>
	</g>
	<g>
		<g>
			<path class="st6" d="M165.272,257.494l-0.268,0.249l-37.378-37.378c-0.991,0.927-1.974,1.865-2.937,2.829l-10.885,10.885
				l51.2,51.2l20.436-18.997C185.44,255.802,172.948,250.358,165.272,257.494z"/>
		</g>
	</g>
	<g>
		<g>
			<rect x="185.44" y="385.183" class="st6" width="141.12" height="27.537"/>
		</g>
	</g>
	<g>
		<g>
			<path class="st6" d="M387.311,223.194c-0.963-0.964-1.945-1.902-2.937-2.829l-37.378,37.378l-0.268-0.249
				c-7.676-7.136-20.168-1.692-20.168,8.788l20.436,18.997l51.2-51.2L387.311,223.194z"/>
		</g>
	</g>
	<g>
		<g>
			<g>
				<g>
					<path class="st4" d="M403.146,229.129l-10.886-10.887c-24.477-24.476-57.02-37.955-91.634-37.955h-2.345c-3.866,0-7,3.134-7,7
						c0,13.166-10.712,23.878-23.878,23.878h-22.808c-13.167,0-23.878-10.712-23.878-23.878c0-3.866-3.134-7-7-7h-2.345
						c-34.614,0-67.157,13.479-91.634,37.955l-10.886,10.886c-2.734,2.734-2.734,7.166,0,9.9l51.2,51.2
						c2.664,2.663,6.957,2.741,9.716,0.177l8.67-8.06V412.72c0,3.866,3.134,7,7,7h141.12c3.866,0,7-3.134,7-7V282.346l8.671,8.06
						c2.76,2.565,7.054,2.484,9.716-0.178l51.199-51.2C405.88,236.294,405.88,231.863,403.146,229.129z M346.819,275.557
						l-15.493-14.402c-2.039-1.896-5.006-2.405-7.562-1.29c-2.554,1.112-4.204,3.632-4.204,6.417V405.72H192.44V266.282
						c0-2.785-1.651-5.305-4.204-6.417c-2.552-1.113-5.522-0.604-7.562,1.29l-15.493,14.402l-41.478-41.479l5.936-5.936
						c20.889-20.889,48.362-32.798,77.74-33.788c3.32,17.521,18.746,30.811,37.217,30.811h22.808
						c18.472,0,33.897-13.29,37.217-30.811c29.378,0.99,56.852,12.899,77.74,33.787l5.936,5.937L346.819,275.557z"/>
				</g>
			</g>
		</g>
	</g>
	<g>
		<g>
			<g>
				<g>
					<path class="st4" d="M298.282,180.288h-84.564c-3.866,0-7,3.134-7,7c0,20.886,16.992,37.878,37.878,37.878h22.807
						c20.887,0,37.879-16.992,37.879-37.878C305.282,183.421,302.148,180.288,298.282,180.288z M267.403,211.166h-22.807
						c-10.731,0-19.833-7.117-22.832-16.878h68.471C287.236,204.048,278.135,211.166,267.403,211.166z"/>
				</g>
			</g>
		</g>
	</g>
	<g>
		<g>
			<path class="st4" d="M255.027,92.28c-15.159,0-27.492,12.333-27.492,27.492c0,3.866,3.134,7,7,7s7-3.134,7-7
				c0-7.439,6.052-13.492,13.492-13.492s13.492,6.053,13.492,13.492s-6.053,13.491-13.492,13.491c-3.866,0-7,3.134-7,7v16.146
				c0,3.866,3.134,7,7,7s7-3.134,7-7v-10.049c11.78-3.104,20.492-13.848,20.492-26.589C282.52,104.613,270.187,92.28,255.027,92.28z
				"/>
		</g>
	</g>
	<g>
		<g>
			<path class="st4" d="M260.634,152.218c-2.313-3.096-6.699-3.732-9.798-1.415l-41.309,30.878c-3.097,2.314-3.73,6.701-1.416,9.798
				c1.375,1.839,3.48,2.809,5.612,2.809c1.458,0,2.928-0.453,4.186-1.394l41.31-30.878
				C262.314,159.702,262.948,155.315,260.634,152.218z"/>
		</g>
	</g>
	<g>
		<g>
			<path class="st4" d="M300.365,181.681l-41.31-30.878c-3.098-2.316-7.485-1.68-9.798,1.415c-2.314,3.097-1.681,7.483,1.415,9.798
				l41.31,30.878c1.258,0.94,2.729,1.394,4.186,1.394c2.133,0,4.238-0.97,5.612-2.809
				C304.095,188.382,303.461,183.996,300.365,181.681z"/>
		</g>
	</g>
	<g>
		<g>
			<path class="st3" d="M291.468,322.514c-5.219-2.759-11.409-4.217-17.9-4.217c-1.046,0-2.083,0.042-3.11,0.117
				c2.87-1.974,5.611-4.256,8.17-6.815c6.423-6.423,11.104-13.987,13.536-21.874c0.156-0.505,0.019-1.054-0.354-1.427
				s-0.923-0.509-1.427-0.354c-7.886,2.432-15.45,7.112-21.874,13.536c-2.07,2.07-3.958,4.26-5.65,6.54
				c1.124-5.135,1.701-10.515,1.701-16.016c0-11.771-2.64-22.987-7.635-32.436c-0.247-0.466-0.731-0.759-1.259-0.759
				s-1.013,0.292-1.259,0.759c-4.995,9.448-7.635,20.665-7.635,32.436c0,5.072,0.491,10.041,1.449,14.81
				c-1.448-1.848-3.027-3.631-4.729-5.333c-6.424-6.424-13.987-11.104-21.874-13.536c-0.504-0.155-1.054-0.02-1.427,0.354
				c-0.373,0.374-0.51,0.922-0.354,1.427c2.432,7.886,7.112,15.45,13.536,21.874c2.559,2.559,5.3,4.841,8.17,6.815
				c-1.027-0.075-2.064-0.117-3.11-0.117c-6.491,0-12.681,1.458-17.9,4.217c-0.467,0.247-0.759,0.731-0.759,1.259
				c0,0.528,0.292,1.013,0.759,1.26c5.219,2.759,11.409,4.217,17.9,4.217c1.794,0,3.563-0.115,5.296-0.334
				c-3.227,3.007-5.654,6.585-7.025,10.373c-0.18,0.497-0.07,1.052,0.285,1.442c0.274,0.302,0.658,0.467,1.055,0.467
				c0.118,0,0.236-0.015,0.354-0.045c4.018-1.03,7.925-3.192,11.297-6.253c1.76-1.597,3.287-3.364,4.548-5.242v10.116
				c0,0.787,0.638,1.425,1.425,1.425s1.425-0.638,1.425-1.425v-11.16c1.375,2.269,3.135,4.396,5.217,6.287h0
				c3.372,3.062,7.278,5.224,11.297,6.253c0.117,0.03,0.236,0.045,0.354,0.045c0.396,0,0.781-0.166,1.055-0.467
				c0.355-0.391,0.465-0.946,0.285-1.442c-1.371-3.788-3.798-7.366-7.025-10.373c1.733,0.219,3.503,0.334,5.296,0.334
				c6.491,0,12.681-1.458,17.9-4.217c0.467-0.247,0.759-0.731,0.759-1.26C292.227,323.246,291.935,322.761,291.468,322.514z"/>
		</g>
	</g>
	<g>
		<g>
			<rect x="285.302" y="378.183" class="st7" width="17.469" height="14"/>
		</g>
	</g>
</g>
</svg>
