<?xml version="1.0" encoding="utf-8"?>
<!-- Generator: Adobe Illustrator 21.1.0, SVG Export Plug-In . SVG Version: 6.00 Build 0)  -->
<svg version="1.1" id="Layer_1" xmlns="http://www.w3.org/2000/svg" xmlns:xlink="http://www.w3.org/1999/xlink" x="0px" y="0px"
	 viewBox="0 0 512 512" style="enable-background:new 0 0 512 512;" xml:space="preserve">
<style type="text/css">
	.st0{fill:#D6CD1E;}
	.st1{fill:#E56823;}
	.st2{fill:#FE8E46;}
	.st3{fill:#FEFE71;}
	.st4{fill:#463218;}
	.st5{fill:#7DAC51;}
	.st6{fill:#5B7C31;}
	.st7{fill:#FFFFFF;}
</style>
<g>
	<g>
		<g>
			<rect x="157.094" y="274.645" class="st0" width="201.773" height="148.358"/>
		</g>
	</g>
	<g>
		<g>
			<rect x="205.858" y="352.636" class="st1" width="99.594" height="70.367"/>
		</g>
	</g>
	<g>
		<g>
			<rect x="151.456" y="274.645" class="st2" width="53.415" height="148.358"/>
		</g>
	</g>
	<g>
		<g>
			<rect x="151.456" y="274.645" class="st1" width="18.554" height="148.358"/>
		</g>
	</g>
	<g>
		<g>
			<rect x="305.452" y="274.645" class="st2" width="53.415" height="148.358"/>
		</g>
	</g>
	<g>
		<g>
			<path class="st3" d="M331.503,213.916H180.497c-16.039,0-29.041,13.002-29.041,29.041v31.688h209.087v-31.688
				C360.543,226.918,347.541,213.916,331.503,213.916z"/>
		</g>
	</g>
	<g>
		<g>
			<g>
				<g>
					<path class="st4" d="M331.502,206.916H180.497c-19.873,0-36.041,16.168-36.041,36.041v180.047c0,3.866,3.134,7,7,7h209.087
						c3.866,0,7-3.134,7-7V242.957C367.543,223.084,351.375,206.916,331.502,206.916z M353.543,416.003H158.456V242.957
						c0-12.153,9.887-22.041,22.041-22.041h151.006c12.153,0,22.041,9.887,22.041,22.041V416.003z"/>
				</g>
			</g>
		</g>
	</g>
	<g>
		<g>
			<g>
				<g>
					<path class="st4" d="M331.502,206.916H180.497c-19.873,0-36.041,16.168-36.041,36.041v31.688c0,3.866,3.134,7,7,7h209.087
						c3.866,0,7-3.134,7-7v-31.688C367.543,223.084,351.375,206.916,331.502,206.916z M353.543,267.645H158.456v-24.688
						c0-12.153,9.887-22.041,22.041-22.041h151.006c12.153,0,22.041,9.887,22.041,22.041V267.645z"/>
				</g>
			</g>
		</g>
	</g>
	<g>
		<g>
			<g>
				<g>
					<path class="st4" d="M204.872,267.645h-53.416c-3.866,0-7,3.134-7,7v148.358c0,3.866,3.134,7,7,7h53.416c3.866,0,7-3.134,7-7
						V274.645C211.872,270.779,208.738,267.645,204.872,267.645z M197.872,416.003h-39.416V281.645h39.416V416.003z"/>
				</g>
			</g>
		</g>
	</g>
	<g>
		<g>
			<rect x="306.184" y="274.645" class="st1" width="18.554" height="148.358"/>
		</g>
	</g>
	<g>
		<g>
			<g>
				<g>
					<path class="st4" d="M358.868,267.645h-53.416c-3.866,0-7,3.134-7,7v148.358c0,3.866,3.134,7,7,7h53.416c3.866,0,7-3.134,7-7
						V274.645C365.868,270.779,362.734,267.645,358.868,267.645z M351.868,416.003h-39.416V281.645h39.416V416.003z"/>
				</g>
			</g>
		</g>
	</g>
	<g>
		<g>
			<g>
				<g>
					<path class="st4" d="M305.452,345.636h-99.594c-3.866,0-7,3.134-7,7v70.367c0,3.866,3.134,7,7,7h99.594c3.866,0,7-3.134,7-7
						v-70.367C312.452,348.77,309.318,345.636,305.452,345.636z M298.452,416.003h-85.594v-56.367h85.594V416.003z"/>
				</g>
			</g>
		</g>
	</g>
	<g>
		<g>
			<rect x="185.412" y="352.636" class="st3" width="141.175" height="25.659"/>
		</g>
	</g>
	<g>
		<g>
			<rect x="185.412" y="352.636" class="st0" width="44.174" height="25.659"/>
		</g>
	</g>
	<g>
		<g>
			<g>
				<g>
					<path class="st4" d="M326.587,345.636H185.412c-3.866,0-7,3.134-7,7v25.659c0,3.866,3.134,7,7,7h141.175c3.866,0,7-3.134,7-7
						v-25.659C333.587,348.77,330.453,345.636,326.587,345.636z M319.587,371.295H192.412v-11.659h127.175V371.295z"/>
				</g>
			</g>
		</g>
	</g>
	<g>
		<g>
			<path class="st5" d="M254.869,46.21c-15.883,30.046-25.282,67.245-25.282,107.529c0,40.283,9.399,77.483,25.282,107.529
				c15.883-30.046,25.282-67.245,25.282-107.529C280.151,113.456,270.752,76.256,254.869,46.21z"/>
		</g>
	</g>
	<g>
		<g>
			<path class="st6" d="M254.869,46.21c-15.883,30.046-25.282,67.246-25.282,107.529c0,40.283,9.399,77.483,25.282,107.529
				C255.997,259.132,254.869,46.21,254.869,46.21z"/>
		</g>
	</g>
	<g>
		<g>
			<path class="st5" d="M210.253,189.223c-21.852-21.852-47.13-36.933-72.045-44.616c7.683,24.915,22.763,50.193,44.615,72.045
				s47.13,36.933,72.045,44.615C247.186,236.353,232.105,211.075,210.253,189.223z"/>
		</g>
	</g>
	<g>
		<g>
			<path class="st6" d="M254.657,260.62L138.209,144.607c7.683,24.915,22.763,50.193,44.615,72.045s47.13,36.933,72.045,44.615
				C254.802,261.052,254.725,260.836,254.657,260.62z"/>
		</g>
	</g>
	<g>
		<g>
			<path class="st5" d="M196.539,247.553c-21.852,0-42.031,5.099-58.33,13.715c16.299,8.616,36.478,13.715,58.33,13.715
				c21.852,0,42.031-5.099,58.33-13.715C238.57,252.651,218.391,247.553,196.539,247.553z"/>
		</g>
	</g>
	<g>
		<g>
			<path class="st6" d="M138.209,261.267c16.299,8.616,36.478,13.715,58.33,13.715s42.031-5.099,58.33-13.715H138.209z"/>
		</g>
	</g>
	<g>
		<g>
			<path class="st6" d="M218.678,281.332c-11.173,10.144-19.124,22.118-23.458,34.089c12.333-3.161,25.017-9.921,36.19-20.065
				c11.173-10.144,19.124-22.118,23.458-34.089C242.536,264.428,229.851,271.188,218.678,281.332z"/>
		</g>
	</g>
	<g>
		<g>
			<g>
				<g>
					<path class="st4" d="M261.057,42.939c-1.212-2.294-3.594-3.729-6.188-3.729s-4.976,1.435-6.188,3.729
						c-17.071,32.293-26.094,70.607-26.094,110.8c0,40.193,9.023,78.507,26.094,110.8c1.212,2.294,3.594,3.729,6.188,3.729
						s4.976-1.435,6.188-3.729c17.071-32.292,26.094-70.606,26.094-110.8C287.151,113.545,278.128,75.231,261.057,42.939z
						 M254.869,245.152c-11.992-27.416-18.282-58.72-18.282-91.413c0-32.693,6.29-63.997,18.282-91.413
						c11.993,27.415,18.282,58.72,18.282,91.413C273.151,186.432,266.861,217.736,254.869,245.152z"/>
				</g>
			</g>
		</g>
	</g>
	<g>
		<g>
			<g>
				<g>
					<path class="st4" d="M261.558,259.205c-8.335-27.03-24.364-52.941-46.354-74.932c-21.99-21.99-47.901-38.02-74.932-46.355
						c-2.477-0.764-5.178-0.095-7.012,1.739c-1.834,1.835-2.504,4.533-1.739,7.012c8.334,27.03,24.364,52.941,46.355,74.932
						c21.991,21.991,47.901,38.02,74.932,46.355c0.678,0.209,1.373,0.311,2.062,0.311c1.83,0,3.618-0.718,4.951-2.05
						C261.653,264.383,262.322,261.684,261.558,259.205z M187.774,211.702c-16.59-16.59-29.499-35.52-37.862-55.392
						c19.874,8.363,38.801,21.271,55.392,37.862c16.589,16.59,29.499,35.519,37.861,55.392
						C223.293,241.201,204.363,228.292,187.774,211.702z"/>
				</g>
			</g>
		</g>
	</g>
	<g>
		<g>
			<g>
				<g>
					<path class="st4" d="M258.14,255.079c-17.977-9.503-39.278-14.526-61.602-14.526s-43.625,5.023-61.602,14.526
						c-2.293,1.212-3.729,3.594-3.729,6.188s1.435,4.976,3.729,6.188c17.977,9.503,39.278,14.526,61.602,14.526
						s43.625-5.023,61.602-14.526c2.293-1.212,3.729-3.594,3.729-6.188S260.434,256.291,258.14,255.079z M196.539,267.982
						c-14.389,0-28.256-2.298-40.842-6.715c12.585-4.417,26.453-6.715,40.842-6.715s28.256,2.298,40.842,6.715
						C224.795,265.684,210.927,267.982,196.539,267.982z"/>
				</g>
			</g>
		</g>
	</g>
	<g>
		<g>
			<g>
				<g>
					<path class="st4" d="M260.051,256.562c-1.744-1.921-4.407-2.719-6.92-2.076c-13.943,3.573-27.483,11.064-39.158,21.663
						c-11.674,10.599-20.434,23.355-25.334,36.889c-0.883,2.44-0.345,5.167,1.399,7.088c1.345,1.481,3.235,2.295,5.183,2.295
						c0.579,0,1.162-0.072,1.738-0.219c13.943-3.573,27.484-11.064,39.158-21.663c11.674-10.599,20.435-23.355,25.334-36.889
						C262.334,261.211,261.795,258.483,260.051,256.562z M226.706,290.174c-5.292,4.804-11.003,8.855-16.949,12.05
						c3.753-5.61,8.335-10.905,13.626-15.709c5.292-4.804,11.002-8.854,16.948-12.049
						C236.579,280.076,231.997,285.37,226.706,290.174z"/>
				</g>
			</g>
		</g>
	</g>
	<g>
		<g>
			<path class="st5" d="M301.747,189.223c-21.852,21.852-36.933,47.13-44.616,72.045c24.915-7.683,50.193-22.763,72.045-44.615
				c21.852-21.852,36.933-47.13,44.615-72.045C348.877,152.29,323.599,167.371,301.747,189.223z"/>
		</g>
	</g>
	<g>
		<g>
			<path class="st6" d="M257.343,260.62c-0.068,0.216-0.145,0.432-0.211,0.647c24.915-7.683,50.193-22.763,72.045-44.615
				s36.933-47.13,44.616-72.045L257.343,260.62z"/>
		</g>
	</g>
	<g>
		<g>
			<path class="st5" d="M315.461,247.553c-21.852,0-42.031,5.099-58.33,13.715c16.299,8.616,36.478,13.715,58.33,13.715
				s42.031-5.099,58.33-13.715C357.493,252.651,337.313,247.553,315.461,247.553z"/>
		</g>
	</g>
	<g>
		<g>
			<path class="st6" d="M257.131,261.267c16.299,8.616,36.478,13.715,58.33,13.715s42.031-5.099,58.33-13.715H257.131z"/>
		</g>
	</g>
	<g>
		<g>
			<path class="st6" d="M293.322,281.332c-11.173-10.144-23.857-16.904-36.19-20.065c4.334,11.971,12.285,23.945,23.458,34.089
				c11.173,10.144,23.857,16.904,36.19,20.065C312.445,303.45,304.494,291.476,293.322,281.332z"/>
		</g>
	</g>
	<g>
		<g>
			<g>
				<g>
					<path class="st4" d="M378.741,139.657c-1.835-1.835-4.534-2.504-7.012-1.739c-27.031,8.335-52.942,24.365-74.932,46.355
						c-21.991,21.991-38.02,47.902-46.354,74.932c-0.765,2.479-0.095,5.178,1.739,7.012c1.333,1.333,3.121,2.05,4.951,2.05
						c0.688,0,1.383-0.102,2.062-0.311c27.03-8.335,52.941-24.364,74.932-46.355c21.991-21.991,38.021-47.902,46.355-74.932
						C381.245,144.191,380.576,141.492,378.741,139.657z M324.226,211.702c-16.589,16.589-35.519,29.499-55.391,37.862
						c8.363-19.872,21.272-38.802,37.861-55.392c16.591-16.591,35.518-29.499,55.392-37.862
						C353.725,176.183,340.816,195.112,324.226,211.702z"/>
				</g>
			</g>
		</g>
	</g>
	<g>
		<g>
			<g>
				<g>
					<path class="st4" d="M377.063,255.079c-17.977-9.503-39.278-14.526-61.602-14.526s-43.625,5.023-61.602,14.526
						c-2.293,1.212-3.729,3.594-3.729,6.188s1.435,4.976,3.729,6.188c17.977,9.503,39.278,14.526,61.602,14.526
						s43.625-5.023,61.602-14.526c2.293-1.212,3.729-3.594,3.729-6.188S379.356,256.291,377.063,255.079z M315.461,267.982
						c-14.389,0-28.256-2.298-40.842-6.715c12.585-4.417,26.453-6.715,40.842-6.715s28.256,2.298,40.842,6.715
						C343.718,265.684,329.85,267.982,315.461,267.982z"/>
				</g>
			</g>
		</g>
	</g>
	<g>
		<g>
			<g>
				<g>
					<path class="st4" d="M323.361,313.038c-4.9-13.534-13.66-26.29-25.334-36.889s-25.215-18.09-39.158-21.663
						c-2.515-0.644-5.177,0.155-6.92,2.076c-1.744,1.921-2.283,4.649-1.399,7.088c4.9,13.534,13.66,26.29,25.334,36.889
						c11.673,10.599,25.214,18.09,39.158,21.663c0.576,0.148,1.159,0.219,1.738,0.219c1.947,0,3.838-0.814,5.183-2.295
						C323.706,318.206,324.245,315.478,323.361,313.038z M285.294,290.174c-5.291-4.804-9.873-10.098-13.625-15.709
						c5.946,3.195,11.657,7.246,16.948,12.049c5.292,4.804,9.874,10.098,13.626,15.709
						C296.297,299.029,290.585,294.978,285.294,290.174z"/>
				</g>
			</g>
		</g>
	</g>
	<g>
		<g>
			<rect x="247.869" y="110.169" class="st7" width="14" height="26.817"/>
		</g>
	</g>
	<g>
		<g>
			<rect x="247.869" y="153.739" class="st7" width="14" height="26.817"/>
		</g>
	</g>
</g>
</svg>
