<?xml version="1.0" encoding="utf-8"?>
<!-- Generator: Adobe Illustrator 21.1.0, SVG Export Plug-In . SVG Version: 6.00 Build 0)  -->
<svg version="1.1" id="Layer_1" xmlns="http://www.w3.org/2000/svg" xmlns:xlink="http://www.w3.org/1999/xlink" x="0px" y="0px"
	 viewBox="0 0 512 512" style="enable-background:new 0 0 512 512;" xml:space="preserve">
<style type="text/css">
	.st0{fill:#D6CD1E;}
	.st1{fill:#E56823;}
	.st2{fill:#FE8E46;}
	.st3{fill:#FEFE71;}
	.st4{fill:#463218;}
	.st5{fill:#7DAC51;}
	.st6{fill:#5B7C31;}
	.st7{fill:#FFFFFF;}
</style>
<g>
	<g>
		<g>
			<rect x="102.4" y="307.2" class="st2" width="256" height="51.2"/>
		</g>
	</g>
	<g>
		<g>
			<rect x="102.4" y="332.8" class="st1" width="256" height="25.6"/>
		</g>
	</g>
	<g>
		<g>
			<g>
				<g>
					<path class="st4" d="M358.4,300.2h-256c-3.866,0-7,3.134-7,7v51.2c0,3.866,3.134,7,7,7h256c3.866,0,7-3.134,7-7v-51.2
						C365.4,303.333,362.266,300.2,358.4,300.2z M351.4,351.4h-242v-37.2h242V351.4z"/>
				</g>
			</g>
		</g>
	</g>
	<g>
		<g>
			<path class="st4" d="M152.944,300.366c-3.866,0-7,3.134-7,7v48.222c0,3.866,3.134,7,7,7s7-3.134,7-7v-48.222
				C159.944,303.5,156.81,300.366,152.944,300.366z"/>
		</g>
	</g>
	<g>
		<g>
			<path class="st4" d="M307.2,300.366c-3.866,0-7,3.134-7,7v48.222c0,3.866,3.134,7,7,7s7-3.134,7-7v-48.222
				C314.2,303.5,311.066,300.366,307.2,300.366z"/>
		</g>
	</g>
	<g>
		<g>
			<rect x="153.6" y="358.4" class="st2" width="256" height="51.2"/>
		</g>
	</g>
	<g>
		<g>
			<rect x="153.6" y="384" class="st1" width="256" height="25.6"/>
		</g>
	</g>
	<g>
		<g>
			<g>
				<g>
					<path class="st4" d="M409.6,351.4h-256c-3.866,0-7,3.134-7,7v51.2c0,3.866,3.134,7,7,7h256c3.866,0,7-3.134,7-7v-51.2
						C416.6,354.534,413.466,351.4,409.6,351.4z M402.6,402.6h-242v-37.2h242V402.6z"/>
				</g>
			</g>
		</g>
	</g>
	<g>
		<g>
			<path class="st4" d="M204.144,351.566c-3.866,0-7,3.134-7,7v48.222c0,3.866,3.134,7,7,7s7-3.134,7-7v-48.222
				C211.144,354.7,208.01,351.566,204.144,351.566z"/>
		</g>
	</g>
	<g>
		<g>
			<path class="st4" d="M358.4,351.566c-3.866,0-7,3.134-7,7v48.222c0,3.866,3.134,7,7,7s7-3.134,7-7v-48.222
				C365.4,354.7,362.267,351.566,358.4,351.566z"/>
		</g>
	</g>
	<g>
		<g>
			<path class="st1" d="M216.639,102.4c-56.554,0-102.4,45.846-102.4,102.4c0,56.554,45.846,102.4,102.4,102.4H256V102.4H216.639z"
				/>
		</g>
	</g>
	<g>
		<g>
			<g>
				<g>
					<path class="st4" d="M256,95.4h-39.361c-60.323,0-109.4,49.076-109.4,109.399s49.077,109.4,109.4,109.4H256
						c3.866,0,7-3.134,7-7V102.4C263,98.534,259.866,95.4,256,95.4z M249,300.2h-32.361c-52.604,0-95.4-42.797-95.4-95.4
						s42.796-95.399,95.4-95.399H249V300.2z"/>
				</g>
			</g>
		</g>
	</g>
	<g>
		<g>
			<circle class="st2" cx="256" cy="204.8" r="102.4"/>
		</g>
	</g>
	<g>
		<g>
			<g>
				<g>
					<path class="st4" d="M256,95.4c-60.324,0-109.4,49.076-109.4,109.399S195.676,314.2,256,314.2
						c60.323,0,109.4-49.077,109.4-109.4S316.323,95.4,256,95.4z M256,300.2c-52.604,0-95.4-42.797-95.4-95.4
						S203.396,109.4,256,109.4c52.604,0,95.4,42.796,95.4,95.399S308.604,300.2,256,300.2z"/>
				</g>
			</g>
		</g>
	</g>
	<g>
		<g>
			<circle class="st3" cx="256" cy="204.8" r="72.836"/>
		</g>
	</g>
	<g>
		<g>
			<g>
				<g>
					<path class="st4" d="M256,124.964c-44.021,0-79.836,35.813-79.836,79.835s35.814,79.836,79.836,79.836
						s79.835-35.814,79.835-79.836S300.021,124.964,256,124.964z M256,270.635c-36.302,0-65.836-29.534-65.836-65.836
						s29.534-65.835,65.836-65.835c36.302,0,65.835,29.533,65.835,65.835S292.302,270.635,256,270.635z"/>
				</g>
			</g>
		</g>
	</g>
	<g>
		<g>
			<path class="st6" d="M291.113,223.36c-5.167-2.731-11.294-4.175-17.72-4.175c-1.035,0-2.062,0.042-3.079,0.116
				c2.841-1.954,5.554-4.213,8.088-6.747c6.359-6.359,10.993-13.847,13.4-21.654c0.154-0.5,0.019-1.043-0.35-1.413
				c-0.37-0.37-0.913-0.504-1.413-0.351c-7.807,2.407-15.295,7.041-21.654,13.4c-2.05,2.049-3.919,4.217-5.593,6.474
				c1.113-5.083,1.684-10.409,1.684-15.855c0-11.653-2.614-22.757-7.558-32.11c-0.244-0.462-0.724-0.751-1.247-0.751
				c-0.523,0-1.003,0.289-1.247,0.751c-4.945,9.354-7.558,20.458-7.558,32.11c0,5.021,0.487,9.94,1.434,14.661
				c-1.434-1.829-2.996-3.594-4.682-5.279c-6.359-6.359-13.847-10.993-21.654-13.4c-0.499-0.154-1.043-0.02-1.413,0.351
				c-0.37,0.37-0.504,0.913-0.35,1.413c2.408,7.808,7.041,15.295,13.4,21.654c2.534,2.534,5.247,4.792,8.088,6.747
				c-1.017-0.074-2.044-0.116-3.079-0.116c-6.426,0-12.554,1.443-17.72,4.175c-0.462,0.244-0.751,0.724-0.751,1.247
				c0,0.523,0.289,1.003,0.751,1.247c5.167,2.731,11.294,4.175,17.72,4.175c1.776,0,3.527-0.114,5.243-0.332
				c-3.195,2.978-5.597,6.52-6.955,10.27c-0.178,0.491-0.069,1.041,0.282,1.428c0.271,0.298,0.652,0.462,1.044,0.462
				c0.116,0,0.234-0.014,0.35-0.044c3.978-1.02,7.845-3.16,11.183-6.191c1.742-1.582,3.254-3.331,4.503-5.19v10.015
				c0,0.779,0.631,1.41,1.41,1.41s1.41-0.631,1.41-1.41v-11.048c1.361,2.246,3.103,4.352,5.165,6.224h0
				c3.338,3.031,7.205,5.171,11.183,6.191c0.116,0.03,0.234,0.044,0.35,0.044c0.392,0,0.773-0.164,1.044-0.462
				c0.351-0.387,0.46-0.937,0.282-1.428c-1.358-3.75-3.76-7.292-6.955-10.27c1.716,0.217,3.468,0.332,5.243,0.332
				c6.426,0,12.554-1.443,17.72-4.175c0.462-0.244,0.751-0.724,0.751-1.247C291.864,224.084,291.575,223.604,291.113,223.36z"/>
		</g>
	</g>
	<g>
		<g>
			<path class="st4" d="M163.753,153.293h-39.361c-3.866,0-7,3.134-7,7s3.134,7,7,7h39.361c3.866,0,7-3.134,7-7
				S167.619,153.293,163.753,153.293z"/>
		</g>
	</g>
	<g>
		<g>
			<path class="st4" d="M165.407,249h-35.795c-3.866,0-7,3.134-7,7s3.134,7,7,7h35.795c3.866,0,7-3.134,7-7S169.273,249,165.407,249
				z"/>
		</g>
	</g>
	<g>
		<g>
			<rect x="307.2" y="375.676" class="st7" width="27.242" height="14"/>
		</g>
	</g>
</g>
</svg>
