<?xml version="1.0" encoding="utf-8"?>
<!-- Generator: Adobe Illustrator 21.1.0, SVG Export Plug-In . SVG Version: 6.00 Build 0)  -->
<svg version="1.1" id="Layer_1" xmlns="http://www.w3.org/2000/svg" xmlns:xlink="http://www.w3.org/1999/xlink" x="0px" y="0px"
	 viewBox="0 0 512 512" style="enable-background:new 0 0 512 512;" xml:space="preserve">
<style type="text/css">
	.st0{fill:#D6CD1E;}
	.st1{fill:#E56823;}
	.st2{fill:#FE8E46;}
	.st3{fill:#FEFE71;}
	.st4{fill:#463218;}
	.st5{fill:#7DAC51;}
	.st6{fill:#5B7C31;}
	.st7{fill:#FFFFFF;}
</style>
<g>
	<g>
		<g>
			<path class="st5" d="M399.016,154.695H112.985c-10.197,0-18.463,8.266-18.463,18.463v165.685
				c0,10.197,8.266,18.463,18.463,18.463h286.031c10.197,0,18.463-8.266,18.463-18.463V173.157
				C417.478,162.961,409.212,154.695,399.016,154.695z"/>
		</g>
	</g>
	<g>
		<g>
			<path class="st6" d="M399.016,327.86H112.985c-10.197,0-18.463-8.266-18.463-18.463v29.445c0,10.197,8.266,18.463,18.463,18.463
				h286.031c10.197,0,18.463-8.266,18.463-18.463v-29.445C417.478,319.594,409.212,327.86,399.016,327.86z"/>
		</g>
	</g>
	<g>
		<g>
			<g>
				<g>
					<path class="st4" d="M399.016,147.695H112.984c-14.04,0-25.463,11.422-25.463,25.463v165.685
						c0,14.041,11.423,25.463,25.463,25.463h286.031c14.04,0,25.463-11.422,25.463-25.463V173.158
						C424.479,159.117,413.056,147.695,399.016,147.695z M410.479,338.842c0,6.321-5.142,11.463-11.463,11.463H112.984
						c-6.321,0-11.463-5.142-11.463-11.463V173.158c0-6.321,5.142-11.463,11.463-11.463h286.031c6.321,0,11.463,5.142,11.463,11.463
						V338.842z"/>
				</g>
			</g>
		</g>
	</g>
	<g>
		<g>
			<rect x="124.84" y="226.555" class="st2" width="72.318" height="102.454"/>
		</g>
	</g>
	<g>
		<g>
			<g>
				<g>
					<path class="st4" d="M197.158,219.555H124.84c-3.866,0-7,3.134-7,7v102.454c0,3.866,3.134,7,7,7h72.318c3.866,0,7-3.134,7-7
						V226.555C204.158,222.688,201.024,219.555,197.158,219.555z M190.158,322.009H131.84v-88.454h58.318V322.009z"/>
				</g>
			</g>
		</g>
	</g>
	<g>
		<g>
			<path class="st2" d="M399.016,154.695H112.985c-10.197,0-18.463,8.266-18.463,18.463v26.033h322.957v-26.033
				C417.478,162.961,409.212,154.695,399.016,154.695z"/>
		</g>
	</g>
	<g>
		<g>
			<g>
				<g>
					<path class="st4" d="M399.016,147.695H112.984c-14.04,0-25.463,11.423-25.463,25.463v26.033c0,3.866,3.134,7,7,7h322.957
						c3.866,0,7-3.134,7-7v-26.033C424.479,159.118,413.056,147.695,399.016,147.695z M410.479,192.19H101.521v-19.033
						c0-6.321,5.142-11.463,11.463-11.463h286.031c6.321,0,11.463,5.142,11.463,11.463V192.19z"/>
				</g>
			</g>
		</g>
	</g>
	<g>
		<g>
			<rect x="228.688" y="226.555" class="st2" width="149.336" height="22.604"/>
		</g>
	</g>
	<g>
		<g>
			<rect x="228.688" y="270.167" class="st2" width="74.668" height="22.604"/>
		</g>
	</g>
	<g>
		<g>
			<g>
				<g>
					<path class="st4" d="M378.024,219.555H228.688c-3.866,0-7,3.134-7,7v22.604c0,3.866,3.134,7,7,7h149.336c3.866,0,7-3.134,7-7
						v-22.604C385.024,222.688,381.891,219.555,378.024,219.555z M371.024,242.159H235.688v-8.604h135.336V242.159z"/>
				</g>
			</g>
		</g>
	</g>
	<g>
		<g>
			<g>
				<g>
					<path class="st4" d="M303.356,263.167h-74.668c-3.866,0-7,3.134-7,7v22.604c0,3.866,3.134,7,7,7h74.668c3.866,0,7-3.134,7-7
						v-22.604C310.356,266.3,307.223,263.167,303.356,263.167z M296.356,285.771h-60.668v-8.604h60.668V285.771z"/>
				</g>
			</g>
		</g>
	</g>
	<g>
		<g>
			<path class="st3" d="M372.174,306.057c-3.08-1.628-6.734-2.489-10.565-2.489c-0.617,0-1.229,0.025-1.836,0.069
				c1.694-1.165,3.311-2.512,4.822-4.022c3.791-3.791,6.554-8.255,7.989-12.91c0.092-0.298,0.011-0.622-0.209-0.842
				c-0.22-0.22-0.544-0.301-0.842-0.209c-4.655,1.436-9.119,4.198-12.91,7.989c-1.222,1.222-2.336,2.514-3.335,3.86
				c0.664-3.031,1.004-6.206,1.004-9.453c0-6.948-1.558-13.567-4.506-19.144c-0.146-0.275-0.432-0.448-0.743-0.448
				c-0.312,0-0.598,0.172-0.743,0.448c-2.948,5.577-4.506,12.197-4.506,19.144c0,2.994,0.29,5.926,0.855,8.741
				c-0.855-1.09-1.786-2.143-2.791-3.147c-3.791-3.791-8.255-6.554-12.91-7.989c-0.297-0.092-0.622-0.011-0.842,0.209
				c-0.22,0.22-0.301,0.544-0.209,0.842c1.435,4.655,4.198,9.119,7.989,12.91c1.511,1.51,3.128,2.857,4.822,4.022
				c-0.606-0.044-1.219-0.069-1.836-0.069c-3.831,0-7.484,0.861-10.565,2.489c-0.275,0.146-0.448,0.432-0.448,0.743
				c0,0.312,0.172,0.598,0.448,0.743c3.08,1.628,6.733,2.489,10.565,2.489c1.059,0,2.103-0.068,3.126-0.198
				c-1.905,1.775-3.337,3.887-4.146,6.122c-0.106,0.293-0.041,0.621,0.168,0.852c0.162,0.178,0.389,0.276,0.623,0.276
				c0.069,0,0.14-0.009,0.209-0.026c2.372-0.608,4.677-1.884,6.667-3.691c1.039-0.943,1.94-1.986,2.685-3.094v5.971
				c0,0.464,0.376,0.841,0.841,0.841c0.464,0,0.841-0.376,0.841-0.841v-6.587c0.811,1.339,1.85,2.594,3.079,3.71h0
				c1.99,1.807,4.296,3.083,6.667,3.691c0.069,0.018,0.139,0.026,0.209,0.026c0.234,0,0.461-0.098,0.622-0.276
				c0.21-0.231,0.274-0.558,0.168-0.852c-0.809-2.236-2.242-4.347-4.146-6.122c1.023,0.129,2.067,0.198,3.126,0.198
				c3.831,0,7.484-0.861,10.565-2.489c0.275-0.146,0.448-0.432,0.448-0.743C372.622,306.489,372.45,306.202,372.174,306.057z"/>
		</g>
	</g>
	<g>
		<g>
			<rect x="351.241" y="169.943" class="st7" width="41.274" height="14"/>
		</g>
	</g>
</g>
</svg>
