<?xml version="1.0" encoding="utf-8"?>
<!-- Generator: Adobe Illustrator 21.1.0, SVG Export Plug-In . SVG Version: 6.00 Build 0)  -->
<svg version="1.1" id="Layer_1" xmlns="http://www.w3.org/2000/svg" xmlns:xlink="http://www.w3.org/1999/xlink" x="0px" y="0px"
	 viewBox="0 0 512 512" style="enable-background:new 0 0 512 512;" xml:space="preserve">
<style type="text/css">
	.st0{fill:#D6CD1E;}
	.st1{fill:#E56823;}
	.st2{fill:#FE8E46;}
	.st3{fill:#FEFE71;}
	.st4{fill:#463218;}
	.st5{fill:#7DAC51;}
	.st6{fill:#5B7C31;}
	.st7{fill:#FFFFFF;}
</style>
<g>
	<g>
		<g>
			<rect x="179.813" y="161.795" class="st5" width="152.374" height="25.461"/>
		</g>
	</g>
	<g>
		<g>
			<rect x="179.813" y="161.795" class="st6" width="42.812" height="25.461"/>
		</g>
	</g>
	<g>
		<g>
			<rect x="202.844" y="114.692" class="st2" width="106.313" height="42.619"/>
		</g>
	</g>
	<g>
		<g>
			<rect x="202.844" y="114.692" class="st1" width="39.563" height="42.619"/>
		</g>
	</g>
	<g>
		<g>
			<rect x="202.844" y="187.256" class="st2" width="106.313" height="210.052"/>
		</g>
	</g>
	<g>
		<g>
			<rect x="202.844" y="187.256" class="st1" width="53.157" height="210.052"/>
		</g>
	</g>
	<g>
		<g>
			<g>
				<g>
					<path class="st4" d="M309.156,180.256H202.844c-3.866,0-7,3.134-7,7v210.052c0,3.866,3.134,7,7,7h106.312c3.866,0,7-3.134,7-7
						V187.256C316.156,183.39,313.022,180.256,309.156,180.256z M302.156,390.308h-92.312V194.256h92.312V390.308z"/>
				</g>
			</g>
		</g>
	</g>
	<g>
		<g>
			<g>
				<g>
					<path class="st4" d="M332.187,154.795H179.813c-3.866,0-7,3.134-7,7v25.461c0,3.866,3.134,7,7,7h152.374c3.866,0,7-3.134,7-7
						v-25.461C339.187,157.929,336.053,154.795,332.187,154.795z M325.187,180.256H186.813v-11.461h138.374V180.256z"/>
				</g>
			</g>
		</g>
	</g>
	<g>
		<g>
			<g>
				<g>
					<path class="st4" d="M309.156,107.692H202.844c-3.866,0-7,3.134-7,7v42.619c0,3.866,3.134,7,7,7h106.312c3.866,0,7-3.134,7-7
						v-42.619C316.156,110.826,313.022,107.692,309.156,107.692z M302.156,150.311h-92.312v-28.619h92.312V150.311z"/>
				</g>
			</g>
		</g>
	</g>
	<g>
		<g>
			<rect x="228.625" y="208.897" class="st5" width="80.532" height="161.77"/>
		</g>
	</g>
	<g>
		<g>
			<rect x="228.625" y="208.897" class="st6" width="23.376" height="161.77"/>
		</g>
	</g>
	<g>
		<g>
			<g>
				<g>
					<path class="st4" d="M309.156,201.897h-80.532c-3.866,0-7,3.134-7,7v161.77c0,3.866,3.134,7,7,7h80.532c3.866,0,7-3.134,7-7
						v-161.77C316.156,205.031,313.022,201.897,309.156,201.897z M302.156,363.667h-66.532v-147.77h66.532V363.667z"/>
				</g>
			</g>
		</g>
	</g>
	<g>
		<g>
			<rect x="268.891" y="224.194" class="st7" width="23.74" height="14"/>
		</g>
	</g>
	<g>
		<g>
			<path class="st3" d="M292.134,304.534c-3.42-1.808-7.477-2.764-11.73-2.764c-0.685,0-1.365,0.028-2.038,0.077
				c1.881-1.294,3.677-2.789,5.354-4.466c4.209-4.209,7.277-9.166,8.87-14.334c0.102-0.331,0.013-0.69-0.232-0.935
				c-0.245-0.245-0.605-0.334-0.935-0.232c-5.168,1.594-10.125,4.661-14.334,8.87c-1.357,1.357-2.594,2.792-3.703,4.286
				c0.737-3.365,1.115-6.891,1.115-10.496c0-7.714-1.73-15.064-5.003-21.256c-0.162-0.306-0.479-0.497-0.825-0.497
				s-0.664,0.191-0.825,0.497c-3.273,6.192-5.003,13.542-5.003,21.256c0,3.324,0.322,6.58,0.95,9.705
				c-0.949-1.211-1.984-2.379-3.099-3.495c-4.209-4.209-9.166-7.277-14.334-8.87c-0.33-0.102-0.69-0.013-0.935,0.232
				c-0.245,0.245-0.334,0.604-0.232,0.935c1.594,5.168,4.661,10.125,8.87,14.334c1.677,1.677,3.473,3.172,5.354,4.466
				c-0.673-0.049-1.353-0.077-2.038-0.077c-4.254,0-8.31,0.956-11.73,2.764c-0.306,0.162-0.497,0.479-0.497,0.825
				c0,0.346,0.191,0.664,0.497,0.825c3.42,1.808,7.476,2.764,11.73,2.764c1.175,0,2.335-0.076,3.471-0.219
				c-2.115,1.971-3.705,4.315-4.604,6.798c-0.118,0.325-0.046,0.689,0.187,0.945c0.179,0.198,0.431,0.306,0.691,0.306
				c0.077,0,0.155-0.01,0.232-0.029c2.633-0.675,5.193-2.092,7.403-4.098c1.153-1.047,2.154-2.205,2.981-3.436v6.629
				c0,0.515,0.418,0.934,0.934,0.934s0.934-0.418,0.934-0.934v-7.314c0.901,1.487,2.054,2.881,3.419,4.12h0
				c2.21,2.006,4.77,3.423,7.403,4.098c0.077,0.02,0.155,0.029,0.232,0.029c0.26,0,0.512-0.109,0.691-0.306
				c0.233-0.256,0.304-0.62,0.187-0.945c-0.899-2.482-2.489-4.827-4.604-6.798c1.136,0.144,2.295,0.219,3.471,0.219
				c4.254,0,8.31-0.956,11.73-2.764c0.306-0.162,0.497-0.479,0.497-0.825C292.631,305.013,292.44,304.696,292.134,304.534z"/>
		</g>
	</g>
</g>
</svg>
