<?xml version="1.0" encoding="utf-8"?>
<!-- Generator: Adobe Illustrator 21.1.0, SVG Export Plug-In . SVG Version: 6.00 Build 0)  -->
<svg version="1.1" id="Layer_1" xmlns="http://www.w3.org/2000/svg" xmlns:xlink="http://www.w3.org/1999/xlink" x="0px" y="0px"
	 viewBox="0 0 512 512" style="enable-background:new 0 0 512 512;" xml:space="preserve">
<style type="text/css">
	.st0{fill:#D6CD1E;}
	.st1{fill:#E56823;}
	.st2{fill:#FE8E46;}
	.st3{fill:#FEFE71;}
	.st4{fill:#463218;}
	.st5{fill:#7DAC51;}
	.st6{fill:#5B7C31;}
	.st7{fill:#FFFFFF;}
</style>
<g>
	<g>
		<g>
			<g>
				<path class="st2" d="M312.343,427.444h17.691h19.406v-38.377c0-4.553,3.691-8.244,8.244-8.244l0,0l7.405-0.79
					c8.069-0.86,14.2-7.651,14.233-15.766l0,0c0,0,0.447-15.484-7.316-21.335c17.82-8.333,30.171-26.411,30.171-47.382
					c0-23.43-15.411-43.259-36.649-49.908c-1.195-21.903-19.331-39.297-41.533-39.297c-11.371,0-21.672,4.567-29.181,11.961
					c-6.01-15.58-21.117-26.637-38.815-26.637c-14.468,0-27.205,7.389-34.658,18.596c-5.354-2.51-11.327-3.92-17.632-3.92
					c-21.393,0-39.005,16.15-41.33,36.922c-0.09,0-0.179-0.007-0.269-0.007c-28.879,0-52.29,23.411-52.29,52.29
					c0,28.878,23.411,52.29,52.29,52.29c3.068,0,6.069-0.279,8.993-0.787c7.62,9.611,19.389,15.783,32.606,15.783
					c8.392,0,16.198-2.493,22.733-6.768c7.539,7.613,17.995,12.333,29.557,12.333l12.968,3.29
					C294.479,378.163,312.343,401.125,312.343,427.444L312.343,427.444"/>
			</g>
		</g>
	</g>
	<g>
		<g>
			<g>
				<path class="st1" d="M234.747,360.949c-0.425,0.278-0.868,0.53-1.306,0.79c1.948,1.261,4.003,2.371,6.157,3.297
					C237.863,363.816,236.236,362.453,234.747,360.949z"/>
			</g>
		</g>
		<g>
			<g>
				<path class="st1" d="M187.496,353.252c-2.496,0.433-5.059,0.672-7.678,0.672c-0.626,0-1.247-0.022-1.867-0.047
					c5.82,4.603,12.893,7.686,20.631,8.639C194.283,360.207,190.507,357.049,187.496,353.252z"/>
			</g>
		</g>
		<g>
			<g>
				<path class="st1" d="M365.529,245.641c-1.195-21.903-19.331-39.297-41.533-39.297c-11.371,0-21.672,4.567-29.181,11.961
					c-6.01-15.58-21.117-26.637-38.815-26.637c-14.468,0-27.205,7.389-34.658,18.596c-5.354-2.51-11.327-3.92-17.632-3.92
					c-21.393,0-39.005,16.15-41.33,36.922c-0.09,0-0.179-0.007-0.269-0.007c-28.879,0-52.29,23.411-52.29,52.29
					c0,27.109,20.631,49.398,47.048,52.028c-12.999-7.805-18.117-22.035-18.117-38.301c0-24.658,16.406-39.654,41.064-39.654
					c0.077,0,0.153,0,0.229,0c1.985-17.736,17.024-36.514,35.29-36.514c5.383,0,10.483,1.204,15.055,3.347
					c6.364-9.569,17.24-15.878,29.593-15.878c15.112,0,28.011,9.441,33.142,22.744c6.412-6.314,15.207-10.213,24.916-10.213
					c18.957,0,34.442,14.852,35.463,33.553c18.134,5.678,31.293,22.608,31.293,42.614c0,10.473-3.612,20.097-9.651,27.709h6.614
					c12.413-9.558,20.418-24.558,20.418-41.437C402.178,272.119,386.767,252.291,365.529,245.641z"/>
			</g>
		</g>
	</g>
	<g>
		<g>
			<g>
				<g>
					<path class="st4" d="M409.178,295.549c0-24.491-14.746-46.049-37.148-55.019c-3.58-23.446-23.832-41.187-48.034-41.187
						c-9.685,0-18.956,2.826-26.855,8.085c-8.79-13.903-24.356-22.761-41.142-22.761c-14.376,0-27.843,6.312-37.028,17.126
						c-4.902-1.628-10.015-2.45-15.262-2.45c-22.729,0-42.078,15.612-47.245,37.183c-30.055,2.852-53.644,28.234-53.644,59.022
						c0,32.692,26.597,59.29,59.29,59.29c2.044,0,4.114-0.111,6.187-0.331c9.174,9.788,21.867,15.327,35.412,15.327
						c7.628,0,15.074-1.775,21.817-5.172c8.376,6.771,18.671,10.53,29.566,10.729l12.153,3.084
						c22.431,5.691,38.096,25.828,38.096,48.969c0,3.866,3.134,7,7,7h37.098c3.866,0,7-3.134,7-7v-38.378
						c0-0.686,0.558-1.244,1.244-1.244c0.248,0,0.496-0.013,0.742-0.039l7.405-0.789c11.605-1.237,20.399-10.951,20.491-22.612
						c0.042-1.706,0.082-11.26-3.893-19.281C398.908,334.239,409.178,315.595,409.178,295.549z M369.042,336.591
						c-2.225,1.04-3.741,3.17-3.997,5.612s0.788,4.841,2.749,6.318c3.283,2.475,4.645,10.749,4.532,15.543
						c-0.001,0.058-0.002,0.115-0.003,0.173c-0.019,4.555-3.448,8.353-7.975,8.835l-7.09,0.756
						c-8.209,0.227-14.817,6.976-14.817,15.238v31.378h-23.475c-2.873-26.545-21.917-48.851-48.276-55.539l-12.968-3.291
						c-0.562-0.143-1.141-0.215-1.722-0.215c-9.302,0-18.033-3.643-24.583-10.258c-2.341-2.362-6.022-2.752-8.806-0.933
						c-5.627,3.681-12.163,5.626-18.901,5.626c-10.619,0-20.504-4.786-27.121-13.132c-1.592-2.009-4.156-2.984-6.684-2.548
						c-2.611,0.453-5.234,0.684-7.794,0.684c-24.973,0-45.29-20.317-45.29-45.29c0-24.951,20.284-45.254,45.228-45.289l0.254,0.007
						h0.078c3.56,0,6.558-2.676,6.955-6.222c1.959-17.502,16.737-30.701,34.374-30.701c5.116,0,10.048,1.097,14.66,3.258
						c3.137,1.47,6.88,0.424,8.8-2.461c6.443-9.688,17.221-15.473,28.83-15.473c14.198,0,27.172,8.904,32.284,22.157
						c0.849,2.2,2.749,3.825,5.055,4.323c2.305,0.496,4.708-0.199,6.388-1.855c6.516-6.416,15.135-9.949,24.27-9.949
						c18.37,0,33.543,14.354,34.543,32.679c0.159,2.915,2.111,5.426,4.898,6.299c18.985,5.943,31.741,23.315,31.741,43.228
						C395.178,313.057,384.919,329.166,369.042,336.591z"/>
				</g>
			</g>
		</g>
	</g>
	<g>
		<g>
			<path class="st4" d="M366.618,305.309c-13.332,0-26.133,6.316-34.242,16.896l-0.439,0.571c-5.742,7.49-8.904,16.812-8.904,26.25
				v78.418c0,3.866,3.134,7,7,7s7-3.134,7-7v-78.418c0-6.375,2.136-12.673,6.015-17.732l0.438-0.571
				c5.479-7.147,14.125-11.414,23.131-11.414c3.866,0,7-3.134,7-7S370.484,305.309,366.618,305.309z"/>
		</g>
	</g>
	<g>
		<g>
			<path class="st4" d="M339.302,320.272l-2.667-0.713c-27.813-7.434-47.238-32.732-47.238-61.521c0-3.866-3.134-7-7-7s-7,3.134-7,7
				c0,35.118,23.695,65.979,57.622,75.047l2.666,0.713c0.606,0.162,1.214,0.239,1.813,0.239c3.092,0,5.921-2.064,6.758-5.193
				C345.254,325.109,343.037,321.271,339.302,320.272z"/>
		</g>
	</g>
	<g>
		<g>
			<path class="st4" d="M348.326,266.515c-19.128,0-37.335,8.245-49.955,22.62l-4.483,5.108C268.94,295.402,249,316.062,249,341.292
				c0,3.866,3.134,7,7,7s7-3.134,7-7c0-18.252,14.849-33.101,33.101-33.101h1.002c2.015,0,3.932-0.868,5.261-2.382l6.529-7.438
				c9.961-11.348,24.334-17.856,39.433-17.856c3.866,0,7-3.134,7-7S352.192,266.515,348.326,266.515z"/>
		</g>
	</g>
	<g>
		<g>
			<path class="st4" d="M274.084,308.219l-3.329-4.624c-11.201-15.554-29.33-24.839-48.497-24.839h-33.586c-3.866,0-7,3.134-7,7
				s3.134,7,7,7h33.586c14.677,0,28.56,7.11,37.136,19.02l3.329,4.623c1.368,1.9,3.511,2.911,5.687,2.911
				c1.417,0,2.847-0.43,4.084-1.32C275.631,315.73,276.343,311.355,274.084,308.219z"/>
		</g>
	</g>
	<g>
		<g>
			<path class="st4" d="M235.429,280.946c-3.079-2.337-7.471-1.734-9.808,1.345l-7.395,9.745
				c-6.307,8.311-16.302,13.272-26.735,13.272h-14.924c-3.866,0-7,3.134-7,7s3.134,7,7,7h14.924c14.785,0,28.948-7.031,37.887-18.81
				l7.395-9.745C239.111,287.674,238.509,283.283,235.429,280.946z"/>
		</g>
	</g>
	<g>
		<g>
			<path class="st4" d="M255.664,237.475c-17.35,0-31.466,14.115-31.466,31.466v17.582c0,3.866,3.134,7,7,7s7-3.134,7-7V268.94
				c0-9.631,7.835-17.466,17.466-17.466c3.866,0,7-3.134,7-7S259.53,237.475,255.664,237.475z"/>
		</g>
	</g>
	<g>
		<g>
			<path class="st7" d="M150.322,257.872c-23.431,10.229-26.814,30.946-26.947,31.822l13.843,2.094
				c0.021-0.139,2.281-13.915,18.706-21.086L150.322,257.872z"/>
		</g>
	</g>
	<g>
		<g>
			<path class="st4" d="M291.521,107.109c-1.088-2.605-3.635-4.303-6.459-4.303H265.11l13.613-13.231
				c2.772-2.694,2.835-7.126,0.141-9.898c-2.695-2.772-7.127-2.835-9.898-0.141l-25.979,25.251
				c-2.043,1.986-2.679,5.012-1.607,7.652c1.071,2.64,3.637,4.367,6.486,4.367h20.43L242.887,142.5
				c-2.718,2.749-2.693,7.181,0.056,9.899c1.364,1.349,3.143,2.022,4.922,2.022c1.804,0,3.608-0.693,4.978-2.078l37.196-37.615
				C292.024,112.721,292.609,109.716,291.521,107.109z"/>
		</g>
	</g>
	<g>
		<g>
			<path class="st4" d="M216.402,149.037c-1.088-2.605-3.635-4.303-6.459-4.303h-9.574l6.366-6.188
				c2.772-2.694,2.835-7.126,0.141-9.898c-2.696-2.773-7.126-2.836-9.898-0.141l-18.731,18.207
				c-2.043,1.986-2.679,5.013-1.607,7.652c1.071,2.64,3.637,4.367,6.486,4.367h10.052l-15.03,15.199
				c-2.718,2.749-2.693,7.181,0.056,9.899c1.364,1.349,3.143,2.022,4.921,2.022c1.805,0,3.609-0.693,4.978-2.078l26.819-27.121
				C216.906,154.648,217.491,151.644,216.402,149.037z"/>
		</g>
	</g>
	<g>
		<g>
			<path class="st4" d="M335.335,149.037c-1.088-2.605-3.635-4.303-6.459-4.303h-9.574l6.366-6.188
				c2.772-2.694,2.835-7.126,0.141-9.898c-2.696-2.773-7.127-2.836-9.898-0.141l-18.731,18.207
				c-2.043,1.986-2.679,5.013-1.607,7.652c1.071,2.64,3.637,4.367,6.486,4.367h10.052l-15.03,15.199
				c-2.718,2.749-2.693,7.181,0.056,9.899c1.364,1.349,3.143,2.022,4.921,2.022c1.805,0,3.609-0.693,4.978-2.078l26.819-27.121
				C335.839,154.648,336.424,151.644,335.335,149.037z"/>
		</g>
	</g>
</g>
</svg>
