<?xml version="1.0" encoding="utf-8"?>
<!-- Generator: Adobe Illustrator 21.1.0, SVG Export Plug-In . SVG Version: 6.00 Build 0)  -->
<svg version="1.1" id="Layer_1" xmlns="http://www.w3.org/2000/svg" xmlns:xlink="http://www.w3.org/1999/xlink" x="0px" y="0px"
	 viewBox="0 0 512 512" style="enable-background:new 0 0 512 512;" xml:space="preserve">
<style type="text/css">
	.st0{fill:#D6CD1E;}
	.st1{fill:#E56823;}
	.st2{fill:#FE8E46;}
	.st3{fill:#FEFE71;}
	.st4{fill:#463218;}
	.st5{fill:#7DAC51;}
	.st6{fill:#5B7C31;}
	.st7{fill:#FFFFFF;}
</style>
<g>
	<g>
		<g>
			<polygon class="st2" points="256,117.334 135.912,186.667 135.912,325.333 256,394.667 376.089,325.333 376.089,186.667 			"/>
		</g>
	</g>
	<g>
		<g>
			<polygon class="st1" points="135.912,186.667 135.912,325.333 256,394.667 256,117.334 			"/>
		</g>
	</g>
	<g>
		<g>
			<g>
				<g>
					<path class="st4" d="M379.588,180.605L259.5,111.271c-2.166-1.251-4.834-1.251-7,0l-120.089,69.333
						c-2.166,1.25-3.5,3.561-3.5,6.062v138.666c0,2.501,1.334,4.812,3.5,6.062L252.5,400.729c1.083,0.625,2.291,0.938,3.5,0.938
						s2.417-0.312,3.5-0.938l120.088-69.333c2.166-1.25,3.5-3.561,3.5-6.062V186.667
						C383.088,184.166,381.754,181.855,379.588,180.605z M369.088,321.292L256,386.583l-113.089-65.292V190.708L256,125.417
						l113.088,65.292V321.292z"/>
				</g>
			</g>
		</g>
	</g>
	<g>
		<g>
			<rect x="344" y="204.971" class="st7" width="14" height="34.641"/>
		</g>
	</g>
	<g>
		<g>
			<path class="st3" d="M289.125,251.91c-6.116,0-13.31-6.823-16.082-9.712c-0.311-0.346-0.631-0.684-0.952-1.021
				c-0.143-0.158-0.221-0.249-0.221-0.249l-0.006,0.011c-8.559-8.877-20.565-14.408-33.87-14.408
				c-25.988,0-47.055,21.067-47.055,47.055s21.067,47.055,47.055,47.055h51.13c18.979,0,34.365-15.386,34.365-34.365
				S308.105,251.91,289.125,251.91z"/>
		</g>
	</g>
	<g>
		<g>
			<path class="st0" d="M303.76,255.179c1.635,4.006,2.544,8.386,2.544,12.98c0,18.979-15.386,34.365-34.365,34.365h-51.13
				c-8.901,0-17.223-2.473-24.321-6.767c7.926,14.807,23.538,24.883,41.508,24.883h51.13c18.979,0,34.365-15.386,34.365-34.365
				C323.491,272.53,315.419,260.676,303.76,255.179z"/>
		</g>
	</g>
	<g>
		<g>
			<path class="st4" d="M237.996,242.333c-17.232,0-31.252,14.02-31.252,31.252c0,3.866,3.134,7,7,7s7-3.134,7-7
				c0-9.513,7.739-17.252,17.252-17.252c3.866,0,7-3.134,7-7S241.862,242.333,237.996,242.333z"/>
		</g>
	</g>
	<g>
		<g>
			<g>
				<g>
					<path class="st4" d="M289.125,244.91c-1.867,0-6.223-2.569-10.956-7.48c-0.305-0.337-0.616-0.667-0.929-0.997l-0.092-0.103
						c-0.173-0.198-0.355-0.385-0.547-0.561c-10.257-10.475-23.949-16.239-38.606-16.239c-29.806,0-54.055,24.249-54.055,54.055
						c0,29.806,24.249,54.055,54.055,54.055h51.13c22.809,0,41.365-18.556,41.365-41.365S311.934,244.91,289.125,244.91z
						 M289.125,313.64h-51.13c-22.086,0-40.055-17.968-40.055-40.055s17.969-40.055,40.055-40.055
						c10.965,0,21.203,4.356,28.83,12.267c0.03,0.032,0.061,0.063,0.092,0.094c0.033,0.037,0.067,0.073,0.102,0.109
						c0.272,0.287,0.546,0.573,0.811,0.868c0.054,0.06,0.108,0.119,0.164,0.177c5.194,5.413,13.077,11.865,21.132,11.865
						c15.089,0,27.365,12.276,27.365,27.365S304.214,313.64,289.125,313.64z"/>
				</g>
			</g>
		</g>
	</g>
	<g>
		<g>
			<path class="st5" d="M275.257,182.059c-12.729-6.153-28.339-5.322-40.627,3.509c-12.288,8.831-18.052,23.362-16.277,37.389
				c12.729,6.153,28.339,5.322,40.627-3.509C271.267,210.616,277.031,196.085,275.257,182.059z"/>
		</g>
	</g>
	<g>
		<g>
			<g>
				<g>
					<path class="st4" d="M282.201,181.18c-0.297-2.351-1.764-4.392-3.897-5.424c-15.494-7.49-33.794-5.909-47.76,4.127
						c-13.963,10.037-21.296,26.878-19.136,43.951c0.297,2.352,1.764,4.393,3.897,5.424c6.49,3.137,13.471,4.683,20.42,4.683
						c9.644,0,19.225-2.977,27.34-8.81C277.029,215.096,284.361,198.254,282.201,181.18z M254.895,213.763
						c-8.721,6.268-19.854,7.831-29.859,4.389c-0.071-10.583,4.96-20.634,13.679-26.901c8.72-6.266,19.852-7.831,29.858-4.389
						C268.645,197.445,263.613,207.497,254.895,213.763z"/>
				</g>
			</g>
		</g>
	</g>
	<g>
		<g>
			<path class="st4" d="M247.708,201.857c-2.258-3.14-6.632-3.854-9.77-1.599l-23.672,17.014c-3.14,2.256-3.855,6.63-1.6,9.77
				c1.368,1.903,3.514,2.915,5.69,2.915c1.415,0,2.843-0.428,4.079-1.316l23.672-17.014
				C249.249,209.371,249.964,204.997,247.708,201.857z"/>
		</g>
	</g>
</g>
</svg>
