<?xml version="1.0" encoding="utf-8"?>
<!-- Generator: Adobe Illustrator 21.1.0, SVG Export Plug-In . SVG Version: 6.00 Build 0)  -->
<svg version="1.1" id="Layer_1" xmlns="http://www.w3.org/2000/svg" xmlns:xlink="http://www.w3.org/1999/xlink" x="0px" y="0px"
	 viewBox="0 0 512 512" style="enable-background:new 0 0 512 512;" xml:space="preserve">
<style type="text/css">
	.st0{fill:#D6CD1E;}
	.st1{fill:#E56823;}
	.st2{fill:#FE8E46;}
	.st3{fill:#FEFE71;}
	.st4{fill:#463218;}
	.st5{fill:#7DAC51;}
	.st6{fill:#5B7C31;}
	.st7{fill:#FFFFFF;}
</style>
<g>
	<g>
		<g>
			<rect x="216.735" y="116.392" class="st3" width="78.529" height="41.559"/>
		</g>
	</g>
	<g>
		<g>
			<rect x="216.735" y="116.392" class="st0" width="26.065" height="41.559"/>
		</g>
	</g>
	<g>
		<g>
			<rect x="227.575" y="157.951" class="st1" width="56.849" height="27.512"/>
		</g>
	</g>
	<g>
		<g>
			<path class="st2" d="M302.807,185.463h-93.615c-16.564,0-29.992,13.428-29.992,29.992v150.159
				c0,16.564,13.428,29.993,29.992,29.993h93.615c16.564,0,29.992-13.428,29.992-29.993V215.456
				C332.8,198.891,319.372,185.463,302.807,185.463z"/>
		</g>
	</g>
	<g>
		<g>
			<path class="st7" d="M302.807,198.463h-7.543v14h7.543c1.65,0,2.992,1.342,2.992,2.992v8.749h14v-8.749
				C319.8,206.086,312.177,198.463,302.807,198.463z"/>
		</g>
	</g>
	<g>
		<g>
			<path class="st1" d="M230.4,365.615V215.456c0-16.564,13.428-29.992,29.992-29.992h-51.2c-16.564,0-29.992,13.428-29.992,29.992
				v150.159c0,16.564,13.428,29.993,29.992,29.993h51.2C243.828,395.607,230.4,382.179,230.4,365.615z"/>
		</g>
	</g>
	<g>
		<g>
			<g>
				<g>
					<path class="st4" d="M302.807,178.463h-93.615c-20.397,0-36.992,16.595-36.992,36.992v150.159
						c0,20.398,16.595,36.993,36.992,36.993h93.615c20.397,0,36.992-16.595,36.992-36.993V215.456
						C339.8,195.058,323.205,178.463,302.807,178.463z M325.8,365.615c0,12.678-10.314,22.993-22.992,22.993h-93.615
						c-12.678,0-22.992-10.314-22.992-22.993V215.456c0-12.678,10.314-22.992,22.992-22.992h93.615
						c12.678,0,22.992,10.314,22.992,22.992V365.615z"/>
				</g>
			</g>
		</g>
	</g>
	<g>
		<g>
			<g>
				<g>
					<path class="st4" d="M284.425,150.951h-56.85c-3.866,0-7,3.134-7,7v27.512c0,3.866,3.134,7,7,7h56.85c3.866,0,7-3.134,7-7
						v-27.512C291.425,154.085,288.291,150.951,284.425,150.951z M277.425,178.463h-42.85v-13.512h42.85V178.463z"/>
				</g>
			</g>
		</g>
	</g>
	<g>
		<g>
			<g>
				<g>
					<path class="st4" d="M295.264,109.393h-78.529c-3.866,0-7,3.134-7,7v41.559c0,3.866,3.134,7,7,7h78.529c3.866,0,7-3.134,7-7
						v-41.559C302.264,112.526,299.131,109.393,295.264,109.393z M288.264,150.951h-64.529v-27.559h64.529V150.951z"/>
				</g>
			</g>
		</g>
	</g>
	<g>
		<g>
			<rect x="179.2" y="242.007" class="st5" width="153.6" height="102.4"/>
		</g>
	</g>
	<g>
		<g>
			<rect x="179.2" y="242.007" class="st6" width="51.2" height="102.4"/>
		</g>
	</g>
	<g>
		<g>
			<g>
				<g>
					<path class="st4" d="M332.8,235.007H179.2c-3.866,0-7,3.134-7,7v102.4c0,3.866,3.134,7,7,7h153.6c3.866,0,7-3.134,7-7v-102.4
						C339.8,238.141,336.666,235.007,332.8,235.007z M325.8,337.407H186.2v-88.4h139.6V337.407z"/>
				</g>
			</g>
		</g>
	</g>
	<g>
		<g>
			<path class="st3" d="M312.829,303.341c-2.969-1.569-6.49-2.399-10.183-2.399c-0.595,0-1.185,0.024-1.769,0.067
				c1.633-1.123,3.192-2.421,4.648-3.877c3.654-3.654,6.317-7.957,7.7-12.443c0.089-0.287,0.011-0.6-0.201-0.812
				c-0.212-0.212-0.525-0.29-0.812-0.201c-4.486,1.383-8.789,4.046-12.443,7.7c-1.178,1.178-2.252,2.423-3.214,3.72
				c0.64-2.921,0.968-5.982,0.968-9.111c0-6.696-1.502-13.077-4.343-18.452c-0.14-0.266-0.416-0.432-0.716-0.432
				s-0.576,0.166-0.716,0.432c-2.841,5.375-4.343,11.756-4.343,18.452c0,2.885,0.28,5.712,0.824,8.425
				c-0.824-1.051-1.722-2.065-2.69-3.034c-3.654-3.654-7.957-6.317-12.443-7.7c-0.287-0.089-0.599-0.011-0.812,0.201
				c-0.212,0.212-0.29,0.525-0.201,0.812c1.383,4.486,4.046,8.789,7.7,12.443c1.456,1.456,3.015,2.754,4.648,3.877
				c-0.585-0.043-1.174-0.067-1.77-0.067c-3.693,0-7.214,0.83-10.183,2.399c-0.266,0.14-0.432,0.416-0.432,0.716
				c0,0.3,0.166,0.576,0.432,0.717c2.969,1.569,6.49,2.399,10.183,2.399c1.02,0,2.027-0.066,3.013-0.19
				c-1.836,1.711-3.216,3.746-3.996,5.901c-0.102,0.282-0.04,0.598,0.162,0.821c0.156,0.171,0.375,0.266,0.6,0.266
				c0.067,0,0.135-0.008,0.201-0.025c2.286-0.586,4.508-1.816,6.426-3.557c1.001-0.909,1.87-1.914,2.588-2.982v5.755
				c0,0.448,0.363,0.81,0.81,0.81c0.448,0,0.81-0.363,0.81-0.81v-6.349c0.782,1.291,1.783,2.501,2.968,3.576l0,0
				c1.918,1.742,4.14,2.972,6.426,3.557c0.067,0.017,0.134,0.025,0.201,0.025c0.225,0,0.444-0.094,0.6-0.266
				c0.202-0.222,0.264-0.538,0.162-0.821c-0.78-2.155-2.161-4.19-3.997-5.901c0.986,0.125,1.993,0.19,3.013,0.19
				c3.693,0,7.214-0.83,10.183-2.399c0.266-0.14,0.432-0.416,0.432-0.717C313.261,303.757,313.094,303.481,312.829,303.341z"/>
		</g>
	</g>
	<g>
		<g>
			<path class="st4" d="M256,260.607c-3.866,0-7,3.134-7,7v34.3l-39.25-39.25c-2.002-2.002-5.014-2.6-7.628-1.518
				c-2.616,1.083-4.321,3.636-4.321,6.467v51.2c0,3.866,3.134,7,7,7s7-3.134,7-7v-34.3l39.25,39.25
				c1.339,1.339,3.129,2.051,4.951,2.05c0.902,0,1.812-0.174,2.677-0.533c2.616-1.083,4.321-3.636,4.321-6.467v-51.2
				C263,263.741,259.866,260.607,256,260.607z"/>
		</g>
	</g>
</g>
</svg>
