<?xml version="1.0" encoding="utf-8"?>
<!-- Generator: Adobe Illustrator 21.1.0, SVG Export Plug-In . SVG Version: 6.00 Build 0)  -->
<svg version="1.1" id="Layer_1" xmlns="http://www.w3.org/2000/svg" xmlns:xlink="http://www.w3.org/1999/xlink" x="0px" y="0px"
	 viewBox="0 0 512 512" style="enable-background:new 0 0 512 512;" xml:space="preserve">
<style type="text/css">
	.st0{fill:#D6CD1E;}
	.st1{fill:#E56823;}
	.st2{fill:#FE8E46;}
	.st3{fill:#FEFE71;}
	.st4{fill:#463218;}
	.st5{fill:#7DAC51;}
	.st6{fill:#5B7C31;}
	.st7{fill:#FFFFFF;}
</style>
<g>
	<g>
		<g>
			<path class="st5" d="M255.131,176.761c-12.201,23.081-19.422,51.658-19.422,82.604c0,30.946,7.221,59.523,19.422,82.604
				c12.201-23.081,19.422-51.658,19.422-82.604C274.553,228.419,267.333,199.843,255.131,176.761z"/>
		</g>
	</g>
	<g>
		<g>
			<path class="st6" d="M255.131,176.761c-12.201,23.081-19.422,51.658-19.422,82.604c0,30.946,7.221,59.523,19.422,82.604
				C255.998,340.329,255.131,176.761,255.131,176.761z"/>
		</g>
	</g>
	<g>
		<g>
			<path class="st5" d="M220.857,286.624c-16.787-16.787-36.205-28.372-55.345-34.274c5.902,19.14,17.487,38.558,34.274,55.345
				s36.206,28.372,55.345,34.274C249.229,322.829,237.644,303.411,220.857,286.624z"/>
		</g>
	</g>
	<g>
		<g>
			<path class="st6" d="M254.969,341.472l-89.456-89.122c5.902,19.14,17.487,38.558,34.274,55.345
				c16.787,16.787,36.205,28.372,55.345,34.274C255.08,341.803,255.021,341.637,254.969,341.472z"/>
		</g>
	</g>
	<g>
		<g>
			<g>
				<g>
					<path class="st4" d="M261.319,173.49c-1.213-2.293-3.594-3.729-6.188-3.729s-4.976,1.435-6.188,3.729
						c-13.237,25.04-20.233,54.735-20.233,85.875c0,31.14,6.996,60.835,20.233,85.875c1.213,2.293,3.594,3.729,6.188,3.729
						s4.976-1.435,6.188-3.729c13.237-25.04,20.233-54.735,20.233-85.875C281.553,228.225,274.557,198.53,261.319,173.49z
						 M255.131,325.42c-8.156-20-12.422-42.552-12.422-66.055s4.266-46.055,12.422-66.055c8.156,20,12.422,42.552,12.422,66.055
						S263.287,305.42,255.131,325.42z"/>
				</g>
			</g>
		</g>
	</g>
	<g>
		<g>
			<g>
				<g>
					<path class="st4" d="M261.82,339.906c-6.479-21.015-18.933-41.151-36.013-58.232c-17.08-17.079-37.216-29.533-58.232-36.013
						c-2.478-0.765-5.178-0.095-7.012,1.739c-1.835,1.834-2.505,4.533-1.74,7.012c6.48,21.016,18.934,41.153,36.013,58.232
						c17.08,17.08,37.217,29.533,58.232,36.013c0.678,0.209,1.373,0.311,2.062,0.311c1.829,0,3.618-0.718,4.95-2.05
						C261.915,345.084,262.585,342.385,261.82,339.906z M204.736,302.745L204.736,302.745
						c-11.533-11.532-20.719-24.544-27.056-38.227c13.683,6.337,26.695,15.523,38.227,27.055
						c11.532,11.532,20.719,24.546,27.056,38.227C229.28,323.463,216.269,314.277,204.736,302.745z"/>
				</g>
			</g>
		</g>
	</g>
	<g>
		<g>
			<path class="st5" d="M291.143,286.624c-16.787,16.787-28.372,36.205-34.274,55.345c19.139-5.902,38.558-17.487,55.345-34.274
				s28.372-36.205,34.274-55.345C327.348,258.252,307.93,269.837,291.143,286.624z"/>
		</g>
	</g>
	<g>
		<g>
			<path class="st6" d="M257.031,341.472c-0.052,0.166-0.112,0.332-0.163,0.497c19.14-5.902,38.558-17.487,55.345-34.274
				c16.787-16.787,28.372-36.205,34.274-55.345L257.031,341.472z"/>
		</g>
	</g>
	<g>
		<g>
			<g>
				<g>
					<path class="st4" d="M351.437,247.4c-1.834-1.834-4.534-2.506-7.012-1.739c-21.017,6.48-41.152,18.934-58.232,36.013
						c-17.08,17.081-29.533,37.217-36.013,58.232c-0.765,2.479-0.095,5.178,1.74,7.012c1.332,1.333,3.121,2.05,4.95,2.05
						c0.688,0,1.384-0.102,2.062-0.311c21.016-6.48,41.152-18.934,58.231-36.013c17.08-17.079,29.533-37.216,36.014-58.232
						C353.941,251.934,353.271,249.235,351.437,247.4z M307.265,302.745L307.265,302.745
						c-11.533,11.532-24.545,20.718-38.228,27.055c6.337-13.681,15.523-26.694,27.056-38.227
						c11.531-11.532,24.544-20.718,38.227-27.055C327.982,278.201,318.797,291.213,307.265,302.745z"/>
				</g>
			</g>
		</g>
	</g>
	<g>
		<g>
			<polygon class="st2" points="195.848,338.268 217.577,437.639 296.161,437.639 317.89,338.268 			"/>
		</g>
	</g>
	<g>
		<g>
			<polygon class="st1" points="231.706,338.268 195.848,338.268 217.577,437.639 253.435,437.639 			"/>
		</g>
	</g>
	<g>
		<g>
			<g>
				<g>
					<path class="st4" d="M323.343,333.878c-1.329-1.651-3.334-2.611-5.453-2.611H195.848c-2.119,0-4.124,0.96-5.453,2.611
						c-1.328,1.65-1.838,3.814-1.386,5.885l21.729,99.371c0.703,3.213,3.549,5.504,6.839,5.504h78.584
						c3.29,0,6.136-2.291,6.839-5.505l21.729-99.371C325.181,337.693,324.671,335.529,323.343,333.878z M290.526,430.638h-67.314
						l-18.668-85.371h104.649L290.526,430.638z"/>
				</g>
			</g>
		</g>
	</g>
	<g>
		<g>
			<rect x="183.294" y="338.268" class="st3" width="147.151" height="26.174"/>
		</g>
	</g>
	<g>
		<g>
			<rect x="183.294" y="338.268" class="st0" width="51.43" height="26.174"/>
		</g>
	</g>
	<g>
		<g>
			<g>
				<g>
					<path class="st4" d="M330.444,331.268h-147.15c-3.866,0-7,3.134-7,7v26.174c0,3.866,3.134,7,7,7h147.15c3.866,0,7-3.134,7-7
						v-26.174C337.444,334.401,334.311,331.268,330.444,331.268z M323.444,357.441h-133.15v-12.174h133.15V357.441z"/>
				</g>
			</g>
		</g>
	</g>
	<g>
		<g>
			
				<rect x="265.33" y="392.541" transform="matrix(0.2261 -0.9741 0.9741 0.2261 -172.0506 582.5309)" class="st7" width="30.489" height="13.999"/>
		</g>
	</g>
	<g>
		<g>
			<path class="st4" d="M260.467,107.711c-7.83-7.83-7.83-20.57,0-28.4c2.733-2.733,2.733-7.166,0-9.899
				c-2.734-2.733-7.166-2.733-9.9,0c-13.288,13.289-13.288,34.911,0,48.199c7.83,7.83,7.83,20.571,0,28.401
				c-2.733,2.733-2.733,7.166,0,9.899c1.367,1.367,3.159,2.05,4.95,2.05s3.583-0.684,4.95-2.05
				C273.755,142.623,273.755,121,260.467,107.711z"/>
		</g>
	</g>
	<g>
		<g>
			<path class="st4" d="M183.93,181.731c9.848-9.848,9.848-25.872,0-35.72c-2.732-2.732-7.165-2.734-9.899,0
				c-2.734,2.733-2.734,7.166-0.001,9.899c4.39,4.39,4.39,11.532,0,15.921c-9.848,9.848-9.848,25.872,0,35.72
				c1.367,1.367,3.159,2.05,4.95,2.05s3.583-0.684,4.95-2.05c2.733-2.733,2.733-7.166,0-9.899
				C179.54,193.263,179.54,186.121,183.93,181.731z"/>
		</g>
	</g>
	<g>
		<g>
			<path class="st4" d="M332.139,189.692c0-3.007,1.171-5.834,3.298-7.96c9.848-9.848,9.848-25.872,0-35.72
				c-2.732-2.732-7.165-2.734-9.899,0c-2.734,2.733-2.734,7.166-0.001,9.899c4.39,4.39,4.39,11.532,0.001,15.921
				c-4.771,4.771-7.398,11.113-7.398,17.86c0,6.747,2.627,13.09,7.398,17.86c1.367,1.367,3.158,2.05,4.949,2.05
				s3.583-0.684,4.95-2.051c2.733-2.734,2.733-7.166-0.001-9.899C333.31,195.526,332.139,192.699,332.139,189.692z"/>
		</g>
	</g>
</g>
</svg>
