<?xml version="1.0" encoding="utf-8"?>
<!-- Generator: Adobe Illustrator 21.1.0, SVG Export Plug-In . SVG Version: 6.00 Build 0)  -->
<svg version="1.1" id="Layer_1" xmlns="http://www.w3.org/2000/svg" xmlns:xlink="http://www.w3.org/1999/xlink" x="0px" y="0px"
	 viewBox="0 0 512 512" style="enable-background:new 0 0 512 512;" xml:space="preserve">
<style type="text/css">
	.st0{fill:#D6CD1E;}
	.st1{fill:#E56823;}
	.st2{fill:#FE8E46;}
	.st3{fill:#FEFE71;}
	.st4{fill:#463218;}
	.st5{fill:#7DAC51;}
	.st6{fill:#5B7C31;}
	.st7{fill:#FFFFFF;}
</style>
<g>
	<g>
		<g>
			<path class="st2" d="M380.871,128.635H131.129c-15.867,0-28.729,12.862-28.729,28.729v178.602h307.2V157.364
				C409.6,141.497,396.738,128.635,380.871,128.635z"/>
		</g>
	</g>
	<g>
		<g>
			<path class="st3" d="M448.627,335.966H63.373c-6.723,0-12.173,5.45-12.173,12.174v23.053c0,6.723,5.45,12.173,12.173,12.173
				h385.253c6.723,0,12.173-5.45,12.173-12.173V348.14C460.8,341.416,455.35,335.966,448.627,335.966z"/>
		</g>
	</g>
	<g>
		<g>
			<path class="st0" d="M460.784,347.816c-0.173,6.571-5.543,11.85-12.157,11.85H63.373c-6.614,0-11.984-5.278-12.157-11.85
				c-0.003,0.108-0.016,0.214-0.016,0.323v23.053c0,6.723,5.45,12.173,12.173,12.173h385.253c6.723,0,12.173-5.45,12.173-12.173
				V348.14C460.8,348.03,460.787,347.925,460.784,347.816z"/>
		</g>
	</g>
	<g>
		<g>
			<g>
				<g>
					<path class="st4" d="M380.871,121.635H131.129c-19.701,0-35.729,16.028-35.729,35.729v178.602c0,3.866,3.134,7,7,7h307.2
						c3.866,0,7-3.134,7-7V157.364C416.6,137.663,400.572,121.635,380.871,121.635z M402.6,328.966H109.4V157.364
						c0-11.981,9.748-21.729,21.729-21.729h249.742c11.981,0,21.729,9.748,21.729,21.729V328.966z"/>
				</g>
			</g>
		</g>
	</g>
	<g>
		<g>
			<path class="st3" d="M380.871,154.635H131.129c-1.505,0-2.729,1.225-2.729,2.729v152.602h255.2V157.364
				C383.6,155.859,382.376,154.635,380.871,154.635z"/>
		</g>
	</g>
	<g>
		<g>
			<path class="st0" d="M380.871,154.635H131.129c-1.505,0-2.729,1.225-2.729,2.729v152.602l255.2-152.602
				C383.6,155.859,382.376,154.635,380.871,154.635z"/>
		</g>
	</g>
	<g>
		<g>
			<g>
				<g>
					<path class="st4" d="M380.871,147.635H131.129c-5.365,0-9.729,4.364-9.729,9.729v152.602c0,3.866,3.134,7,7,7h255.2
						c3.866,0,7-3.134,7-7V157.364C390.6,151.999,386.235,147.635,380.871,147.635z M376.6,302.966H135.4V161.635h241.2V302.966z"/>
				</g>
			</g>
		</g>
	</g>
	<g>
		<g>
			<g>
				<g>
					<path class="st4" d="M448.627,328.966H63.374c-10.572,0-19.173,8.602-19.173,19.174v23.053
						c0,10.572,8.601,19.173,19.173,19.173h385.253c10.572,0,19.173-8.601,19.173-19.173V348.14
						C467.8,337.567,459.199,328.966,448.627,328.966z M453.8,371.192c0,2.853-2.32,5.173-5.173,5.173H63.374
						c-2.853,0-5.173-2.32-5.173-5.173V348.14c0-2.853,2.321-5.174,5.173-5.174h385.253c2.853,0,5.173,2.321,5.173,5.174V371.192z"
						/>
				</g>
			</g>
		</g>
	</g>
	<g>
		<g>
			<path class="st6" d="M304.273,259.622c-7.104-3.755-15.528-5.74-24.363-5.74c-1.424,0-2.835,0.057-4.234,0.159
				c3.906-2.687,7.636-5.792,11.12-9.275c8.743-8.742,15.113-19.037,18.423-29.771c0.212-0.687,0.026-1.434-0.482-1.942
				c-0.508-0.508-1.256-0.693-1.942-0.482c-10.734,3.31-21.029,9.681-29.771,18.423c-2.818,2.818-5.388,5.798-7.69,8.901
				c1.53-6.989,2.315-14.312,2.315-21.799c0-16.021-3.593-31.287-10.392-44.147c-0.336-0.635-0.995-1.033-1.714-1.033
				s-1.378,0.397-1.714,1.033c-6.798,12.86-10.391,28.126-10.391,44.147c0,6.903,0.669,13.666,1.972,20.156
				c-1.971-2.514-4.12-4.941-6.437-7.258c-8.743-8.743-19.037-15.113-29.771-18.423c-0.686-0.211-1.434-0.026-1.942,0.482
				c-0.508,0.508-0.694,1.256-0.482,1.942c3.31,10.734,9.68,21.029,18.423,29.771c3.483,3.483,7.214,6.589,11.12,9.275
				c-1.398-0.102-2.81-0.159-4.233-0.159c-8.835,0-17.259,1.985-24.363,5.74c-0.635,0.336-1.033,0.996-1.033,1.714
				s0.397,1.378,1.033,1.714c7.103,3.755,15.528,5.74,24.363,5.74c2.441,0,4.849-0.157,7.208-0.456
				c-4.392,4.093-7.695,8.963-9.562,14.118c-0.245,0.676-0.095,1.432,0.388,1.963c0.373,0.41,0.896,0.636,1.436,0.636
				c0.16,0,0.322-0.02,0.481-0.061c5.469-1.402,10.786-4.345,15.375-8.512c2.395-2.174,4.474-4.579,6.191-7.135v13.769
				c0,1.071,0.868,1.939,1.939,1.939s1.939-0.868,1.939-1.939v-15.189c1.871,3.088,4.266,5.983,7.101,8.556h0
				c4.589,4.167,9.906,7.11,15.375,8.512c0.16,0.041,0.321,0.061,0.481,0.061c0.539,0,1.063-0.226,1.436-0.636
				c0.483-0.532,0.632-1.288,0.388-1.963c-1.867-5.155-5.17-10.025-9.562-14.118c2.359,0.298,4.767,0.456,7.209,0.456
				c8.835,0,17.259-1.985,24.363-5.74c0.635-0.336,1.033-0.996,1.033-1.714S304.909,259.958,304.273,259.622z"/>
		</g>
	</g>
	<g>
		<g>
			<rect x="152.35" y="170.224" class="st7" width="32.486" height="14"/>
		</g>
	</g>
</g>
</svg>
