<?xml version="1.0" encoding="utf-8"?>
<!-- Generator: Adobe Illustrator 21.1.0, SVG Export Plug-In . SVG Version: 6.00 Build 0)  -->
<svg version="1.1" id="Layer_1" xmlns="http://www.w3.org/2000/svg" xmlns:xlink="http://www.w3.org/1999/xlink" x="0px" y="0px"
	 viewBox="0 0 512 512" style="enable-background:new 0 0 512 512;" xml:space="preserve">
<style type="text/css">
	.st0{fill:#D6CD1E;}
	.st1{fill:#E56823;}
	.st2{fill:#FE8E46;}
	.st3{fill:#FEFE71;}
	.st4{fill:#463218;}
	.st5{fill:#7DAC51;}
	.st6{fill:#5B7C31;}
	.st7{fill:#FFFFFF;}
</style>
<g>
	<g>
		<g>
			<polygon class="st1" points="176.151,148.036 96.982,227.206 96.982,368.183 256.662,368.183 256.662,227.206 			"/>
		</g>
	</g>
	<g>
		<g>
			<g>
				<g>
					<path class="st4" d="M261.57,222.215l-80.51-79.169c-2.74-2.694-7.14-2.676-9.858,0.042l-79.169,79.169
						c-1.313,1.312-2.05,3.093-2.05,4.95v140.977c0,3.866,3.134,7,7,7h159.68c3.866,0,7-3.134,7-7V227.206
						C263.662,225.329,262.908,223.531,261.57,222.215z M249.662,361.183h-145.68V230.105l72.211-72.211l73.469,72.246V361.183z"/>
				</g>
			</g>
		</g>
	</g>
	<g>
		<g>
			<polygon class="st3" points="176.187,143.823 176.175,143.835 176.157,143.817 65.309,254.665 84.978,274.334 176.169,183.829 
				267.997,273.708 287.035,254.67 			"/>
		</g>
	</g>
	<g>
		<g>
			<g>
				<g>
					<path class="st4" d="M291.984,249.721L181.137,138.873c-0.856-0.856-1.881-1.444-2.97-1.762
						c-2.384-0.714-5.076-0.127-6.959,1.757L60.36,249.716c-2.734,2.733-2.734,7.166,0,9.899l19.668,19.669
						c1.367,1.367,3.158,2.05,4.95,2.05c1.783,0,3.566-0.677,4.931-2.032l86.294-85.645l86.897,85.053
						c2.741,2.684,7.133,2.66,9.847-0.053l19.037-19.038C294.718,256.886,294.718,252.454,291.984,249.721z M267.944,263.862
						l-86.878-85.035c-2.735-2.677-7.111-2.662-9.828,0.034l-86.242,85.592l-9.788-9.788l100.96-100.96l100.965,100.966
						L267.944,263.862z"/>
				</g>
			</g>
		</g>
	</g>
	<g>
		<g>
			<path class="st5" d="M176.172,264.351c-15.512,0-28.088,12.575-28.088,28.088v75.744h56.176v-75.744
				C204.26,276.926,191.684,264.351,176.172,264.351z"/>
		</g>
	</g>
	<g>
		<g>
			<g>
				<g>
					<path class="st4" d="M176.172,257.351c-19.348,0-35.088,15.74-35.088,35.088v75.744c0,3.866,3.134,7,7,7h56.176
						c3.866,0,7-3.134,7-7v-75.744C211.26,273.091,195.52,257.351,176.172,257.351z M197.26,361.183h-42.176v-68.744
						c0-11.628,9.46-21.088,21.088-21.088s21.088,9.46,21.088,21.088V361.183z"/>
				</g>
			</g>
		</g>
	</g>
	<g>
		<g>
			<path class="st4" d="M446.69,330.323c-3.866,0-7,3.134-7,7v23.859H256.662c-3.866,0-7,3.134-7,7s3.134,7,7,7H446.69
				c3.866,0,7-3.134,7-7v-30.859C453.69,333.457,450.557,330.323,446.69,330.323z"/>
		</g>
	</g>
	<g>
		<g>
			<path class="st5" d="M374.607,186.319c-8.495,16.069-13.521,35.964-13.521,57.508c0,21.544,5.027,41.439,13.521,57.508
				c8.495-16.069,13.521-35.964,13.521-57.508C388.128,222.282,383.102,202.388,374.607,186.319z"/>
		</g>
	</g>
	<g>
		<g>
			<path class="st6" d="M374.607,186.319c-8.495,16.069-13.521,35.964-13.521,57.508c0,21.544,5.027,41.439,13.521,57.508
				C375.211,300.193,374.607,186.319,374.607,186.319z"/>
		</g>
	</g>
	<g>
		<g>
			<path class="st5" d="M350.746,262.804c-11.687-11.687-25.206-19.752-38.531-23.861c4.109,13.325,12.174,26.844,23.861,38.531
				c11.687,11.687,25.206,19.752,38.531,23.861C370.498,288.01,362.433,274.491,350.746,262.804z"/>
		</g>
	</g>
	<g>
		<g>
			<path class="st6" d="M374.494,300.988l-62.279-62.045c4.109,13.325,12.174,26.844,23.861,38.531
				c11.687,11.687,25.206,19.752,38.531,23.861C374.571,301.219,374.53,301.104,374.494,300.988z"/>
		</g>
	</g>
	<g>
		<g>
			<g>
				<g>
					<path class="st4" d="M380.795,183.047c-1.213-2.294-3.595-3.729-6.188-3.729c-2.595,0-4.977,1.435-6.188,3.729
						c-9.376,17.737-14.332,38.754-14.332,60.779c0,22.024,4.956,43.042,14.332,60.78c1.212,2.293,3.594,3.729,6.188,3.729
						s4.976-1.435,6.188-3.729c9.377-17.737,14.333-38.754,14.333-60.78C395.128,221.801,390.172,200.783,380.795,183.047z
						 M374.606,283.794c-4.289-12.327-6.521-25.894-6.521-39.967s2.231-27.641,6.521-39.967c4.29,12.326,6.521,25.894,6.521,39.967
						S378.896,271.468,374.606,283.794z"/>
				</g>
			</g>
		</g>
	</g>
	<g>
		<g>
			<g>
				<g>
					<path class="st4" d="M381.296,299.272c-4.613-14.96-13.465-29.283-25.601-41.418c-12.135-12.135-26.457-20.988-41.418-25.601
						c-2.48-0.764-5.178-0.095-7.013,1.74c-1.834,1.834-2.504,4.533-1.739,7.013c4.614,14.961,13.467,29.283,25.601,41.417
						s26.456,20.987,41.418,25.601c0.678,0.209,1.373,0.311,2.062,0.311c1.829,0,3.618-0.718,4.95-2.05
						C381.391,304.45,382.061,301.751,381.296,299.272z M341.026,272.524c-6.206-6.205-11.411-13.036-15.447-20.217
						c7.181,4.036,14.012,9.242,20.217,15.447c6.206,6.206,11.411,13.036,15.447,20.217
						C354.062,283.935,347.231,278.73,341.026,272.524z"/>
				</g>
			</g>
		</g>
	</g>
	<g>
		<g>
			<path class="st5" d="M399.678,262.804c-11.687,11.687-19.752,25.206-23.861,38.531c13.325-4.109,26.844-12.174,38.531-23.861
				c11.687-11.687,19.752-25.206,23.861-38.531C424.884,243.052,411.365,251.117,399.678,262.804z"/>
		</g>
	</g>
	<g>
		<g>
			<path class="st6" d="M375.93,300.988c-0.036,0.115-0.078,0.231-0.113,0.346c13.325-4.109,26.844-12.174,38.531-23.861
				c11.687-11.687,19.752-25.206,23.861-38.531L375.93,300.988z"/>
		</g>
	</g>
	<g>
		<g>
			<g>
				<g>
					<path class="st4" d="M443.159,233.993c-1.834-1.834-4.534-2.505-7.013-1.74c-14.961,4.613-29.283,13.466-41.419,25.601
						c-12.135,12.135-20.986,26.458-25.6,41.418c-0.765,2.479-0.095,5.178,1.74,7.012c1.332,1.333,3.121,2.05,4.95,2.05
						c0.688,0,1.384-0.102,2.062-0.311c14.962-4.614,29.284-13.466,41.418-25.601s20.986-26.456,25.601-41.417
						C445.663,238.526,444.993,235.827,443.159,233.993z M409.397,272.524c-6.205,6.206-13.035,11.411-20.217,15.447
						c4.036-7.181,9.241-14.011,15.446-20.217c6.206-6.206,13.036-11.411,20.218-15.447
						C420.809,259.488,415.604,266.319,409.397,272.524z"/>
				</g>
			</g>
		</g>
	</g>
	<g>
		<g>
			<polygon class="st2" points="333.335,298.758 348.462,367.939 403.172,367.939 418.299,298.758 			"/>
		</g>
	</g>
	<g>
		<g>
			<polygon class="st1" points="358.299,298.758 333.335,298.758 348.462,367.939 373.426,367.939 			"/>
		</g>
	</g>
	<g>
		<g>
			<g>
				<g>
					<path class="st4" d="M423.752,294.369c-1.329-1.651-3.334-2.611-5.453-2.611h-84.964c-2.119,0-4.124,0.96-5.453,2.611
						c-1.328,1.65-1.838,3.814-1.386,5.884l15.127,69.181c0.703,3.214,3.549,5.505,6.839,5.505h54.71
						c3.29,0,6.136-2.291,6.839-5.505l15.127-69.181C425.59,298.183,425.08,296.019,423.752,294.369z M397.537,360.939h-43.44
						l-12.065-55.181h67.571L397.537,360.939z"/>
				</g>
			</g>
		</g>
	</g>
	<g>
		<g>
			<rect x="324.595" y="298.758" class="st3" width="102.445" height="18.222"/>
		</g>
	</g>
	<g>
		<g>
			<rect x="324.595" y="298.758" class="st0" width="35.805" height="18.222"/>
		</g>
	</g>
	<g>
		<g>
			<g>
				<g>
					<path class="st4" d="M427.039,291.758H324.595c-3.866,0-7,3.134-7,7v18.222c0,3.866,3.134,7,7,7h102.444c3.866,0,7-3.134,7-7
						v-18.222C434.039,294.892,430.905,291.758,427.039,291.758z M420.039,309.98h-88.444v-4.222h88.444V309.98z"/>
				</g>
			</g>
		</g>
	</g>
	<g>
		<g>
			
				<rect x="180.926" y="212.309" transform="matrix(0.7071 -0.7071 0.7071 0.7071 -106.8371 199.9366)" class="st7" width="14" height="33.247"/>
		</g>
	</g>
</g>
</svg>
