<?xml version="1.0" encoding="utf-8"?>
<!-- Generator: Adobe Illustrator 21.1.0, SVG Export Plug-In . SVG Version: 6.00 Build 0)  -->
<svg version="1.1" id="Layer_1" xmlns="http://www.w3.org/2000/svg" xmlns:xlink="http://www.w3.org/1999/xlink" x="0px" y="0px"
	 viewBox="0 0 512 512" style="enable-background:new 0 0 512 512;" xml:space="preserve">
<style type="text/css">
	.st0{fill:#D6CD1E;}
	.st1{fill:#E56823;}
	.st2{fill:#FE8E46;}
	.st3{fill:#FEFE71;}
	.st4{fill:#463218;}
	.st5{fill:#7DAC51;}
	.st6{fill:#5B7C31;}
	.st7{fill:#FFFFFF;}
</style>
<g>
	<g>
		<g>
			<path class="st3" d="M220.966,153.6v220.966c0,19.349,15.685,35.034,35.034,35.034h0c19.349,0,35.034-15.685,35.034-35.034V153.6
				H220.966z"/>
		</g>
	</g>
	<g>
		<g>
			<path class="st0" d="M252,374.566V153.6h-31.035v220.966c0,19.349,15.685,35.034,35.034,35.034h0
				c5.573,0,10.839-1.307,15.517-3.623C259.954,400.254,252,388.341,252,374.566z"/>
		</g>
	</g>
	<g>
		<g>
			<g>
				<g>
					<path class="st4" d="M291.034,146.6h-70.068c-3.866,0-7,3.134-7,7v220.966c0,23.178,18.856,42.034,42.034,42.034
						s42.034-18.856,42.034-42.034V153.6C298.034,149.734,294.9,146.6,291.034,146.6z M284.034,374.566
						c0,15.458-12.576,28.034-28.034,28.034s-28.034-12.576-28.034-28.034V160.6h56.068V374.566z"/>
				</g>
			</g>
		</g>
	</g>
	<g>
		<g>
			<rect x="204.8" y="117.547" class="st2" width="102.4" height="70.343"/>
		</g>
	</g>
	<g>
		<g>
			<rect x="204.8" y="117.547" class="st1" width="33.175" height="70.343"/>
		</g>
	</g>
	<g>
		<g>
			<g>
				<g>
					<path class="st4" d="M307.2,110.547H204.8c-3.866,0-7,3.134-7,7v70.343c0,3.866,3.134,7,7,7h102.4c3.866,0,7-3.134,7-7v-70.343
						C314.2,113.681,311.066,110.547,307.2,110.547z M300.2,180.89h-88.4v-56.343h88.4V180.89z"/>
				</g>
			</g>
		</g>
	</g>
	<g>
		<g>
			<path class="st6" d="M279.366,284.132c-3.438-1.818-7.516-2.778-11.792-2.778c-0.689,0-1.372,0.028-2.049,0.077
				c1.891-1.3,3.696-2.804,5.382-4.49c4.232-4.232,7.315-9.214,8.917-14.41c0.102-0.332,0.013-0.694-0.233-0.94
				s-0.608-0.336-0.94-0.233c-5.195,1.602-10.178,4.686-14.41,8.917c-1.364,1.364-2.608,2.806-3.722,4.308
				c0.741-3.383,1.121-6.927,1.121-10.551c0-7.755-1.739-15.143-5.03-21.368c-0.163-0.307-0.482-0.5-0.83-0.5
				c-0.348,0-0.667,0.192-0.83,0.5c-3.29,6.225-5.03,13.614-5.03,21.368c0,3.341,0.324,6.615,0.955,9.756
				c-0.954-1.217-1.994-2.392-3.115-3.513c-4.232-4.232-9.215-7.315-14.41-8.917c-0.332-0.102-0.694-0.013-0.94,0.233
				c-0.246,0.246-0.336,0.608-0.233,0.94c1.602,5.195,4.686,10.178,8.917,14.41v0c1.686,1.686,3.492,3.189,5.382,4.49
				c-0.677-0.049-1.36-0.077-2.049-0.077c-4.276,0-8.354,0.961-11.792,2.778c-0.307,0.163-0.5,0.482-0.5,0.83
				c0,0.348,0.192,0.667,0.5,0.83c3.438,1.818,7.516,2.778,11.792,2.778c1.182,0,2.347-0.076,3.489-0.221
				c-2.126,1.981-3.725,4.338-4.628,6.834c-0.118,0.327-0.046,0.693,0.188,0.95c0.18,0.199,0.434,0.308,0.695,0.308
				c0.078,0,0.156-0.01,0.233-0.029c2.647-0.678,5.221-2.103,7.442-4.12c1.159-1.052,2.165-2.217,2.996-3.454v6.664
				c0,0.518,0.42,0.938,0.938,0.938c0.518,0,0.939-0.42,0.939-0.938v-7.352c0.906,1.495,2.065,2.896,3.437,4.142h0
				c2.221,2.017,4.795,3.441,7.442,4.12c0.077,0.02,0.155,0.029,0.233,0.029c0.261,0,0.515-0.109,0.695-0.308
				c0.234-0.258,0.306-0.623,0.188-0.95c-0.903-2.495-2.502-4.853-4.628-6.834c1.142,0.145,2.308,0.221,3.489,0.221
				c4.276,0,8.354-0.961,11.792-2.778c0.307-0.163,0.5-0.482,0.5-0.83S279.674,284.294,279.366,284.132z"/>
		</g>
	</g>
	<g>
		<g>
			<rect x="272.866" y="136.076" class="st7" width="14" height="31.885"/>
		</g>
	</g>
	<g>
		<g>
			<path class="st4" d="M221.981,103.909c-3.866,0-7,3.134-7,7v6.638c0,3.866,3.134,7,7,7s7-3.134,7-7v-6.638
				C228.981,107.043,225.847,103.909,221.981,103.909z"/>
		</g>
	</g>
	<g>
		<g>
			<path class="st4" d="M238.991,103.909c-3.866,0-7,3.134-7,7v6.638c0,3.866,3.134,7,7,7s7-3.134,7-7v-6.638
				C245.991,107.043,242.857,103.909,238.991,103.909z"/>
		</g>
	</g>
	<g>
		<g>
			<path class="st4" d="M256,103.909c-3.866,0-7,3.134-7,7v6.638c0,3.866,3.134,7,7,7s7-3.134,7-7v-6.638
				C263,107.043,259.866,103.909,256,103.909z"/>
		</g>
	</g>
	<g>
		<g>
			<path class="st4" d="M273.009,103.909c-3.866,0-7,3.134-7,7v6.638c0,3.866,3.134,7,7,7s7-3.134,7-7v-6.638
				C280.009,107.043,276.875,103.909,273.009,103.909z"/>
		</g>
	</g>
	<g>
		<g>
			<path class="st4" d="M290.019,103.909c-3.866,0-7,3.134-7,7v6.638c0,3.866,3.134,7,7,7s7-3.134,7-7v-6.638
				C297.019,107.043,293.885,103.909,290.019,103.909z"/>
		</g>
	</g>
</g>
</svg>
