<?xml version="1.0" encoding="utf-8"?>
<!-- Generator: Adobe Illustrator 21.1.0, SVG Export Plug-In . SVG Version: 6.00 Build 0)  -->
<svg version="1.1" id="Layer_1" xmlns="http://www.w3.org/2000/svg" xmlns:xlink="http://www.w3.org/1999/xlink" x="0px" y="0px"
	 viewBox="0 0 512 512" style="enable-background:new 0 0 512 512;" xml:space="preserve">
<style type="text/css">
	.st0{fill:#D6CD1E;}
	.st1{fill:#E56823;}
	.st2{fill:#FE8E46;}
	.st3{fill:#FEFE71;}
	.st4{fill:#463218;}
	.st5{fill:#7DAC51;}
	.st6{fill:#5B7C31;}
	.st7{fill:#FFFFFF;}
</style>
<g>
	<g>
		<g>
			<circle class="st3" cx="256" cy="256" r="97.625"/>
		</g>
	</g>
	<g>
		<g>
			<path class="st6" d="M312.88,287.739c-8.37-4.424-18.296-6.763-28.706-6.763c-1.677,0-3.34,0.067-4.988,0.188
				c4.602-3.166,8.998-6.825,13.102-10.93c10.301-10.301,17.808-22.431,21.708-35.079c0.25-0.809,0.031-1.689-0.568-2.289
				c-0.599-0.599-1.48-0.817-2.289-0.568c-12.648,3.9-24.778,11.407-35.079,21.708c-3.32,3.32-6.348,6.832-9.061,10.488
				c1.803-8.235,2.728-16.863,2.728-25.686c0-18.877-4.234-36.865-12.244-52.018c-0.396-0.749-1.173-1.217-2.02-1.217
				c-0.847,0-1.624,0.469-2.02,1.217c-8.01,15.153-12.244,33.14-12.244,52.018c0,8.134,0.788,16.102,2.324,23.75
				c-2.323-2.963-4.854-5.822-7.584-8.553c-10.301-10.301-22.432-17.808-35.079-21.708c-0.808-0.249-1.69-0.031-2.289,0.568
				c-0.599,0.599-0.817,1.479-0.568,2.289c3.9,12.648,11.406,24.778,21.708,35.079c4.104,4.104,8.5,7.764,13.102,10.93
				c-1.648-0.121-3.311-0.188-4.988-0.188c-10.41,0-20.336,2.339-28.706,6.763c-0.749,0.396-1.217,1.173-1.217,2.02
				s0.468,1.624,1.217,2.02c8.37,4.425,18.296,6.763,28.706,6.763c2.876,0,5.714-0.185,8.494-0.537
				c-5.175,4.823-9.067,10.561-11.266,16.636c-0.288,0.796-0.112,1.687,0.457,2.313c0.439,0.483,1.056,0.749,1.692,0.749
				c0.189,0,0.379-0.023,0.567-0.072c6.445-1.651,12.709-5.119,18.116-10.029c2.822-2.562,5.271-5.396,7.295-8.408v16.224
				c0,1.262,1.023,2.285,2.285,2.285s2.285-1.023,2.285-2.285v-17.898c2.205,3.639,5.027,7.05,8.367,10.082h0
				c5.407,4.91,11.672,8.377,18.117,10.029c0.188,0.048,0.378,0.072,0.567,0.072c0.636,0,1.253-0.266,1.691-0.749
				c0.569-0.627,0.745-1.517,0.457-2.313c-2.199-6.075-6.091-11.813-11.267-16.636c2.78,0.352,5.617,0.537,8.494,0.537
				c10.41,0,20.336-2.338,28.706-6.763c0.748-0.396,1.217-1.173,1.217-2.02S313.629,288.135,312.88,287.739z"/>
		</g>
	</g>
	<g>
		<g>
			<g>
				<g>
					<path class="st1" d="M256,117.938c-76.25,0-138.062,61.813-138.062,138.062S179.75,394.062,256,394.062
						c76.25,0,138.062-61.813,138.062-138.062S332.25,117.938,256,117.938z M158.375,256c0-53.917,43.708-97.625,97.625-97.625
						c22.704,0,43.598,7.751,60.18,20.751L179.127,316.18C166.127,299.598,158.375,278.704,158.375,256z M256,353.625
						c-22.705,0-43.598-7.751-60.181-20.752l137.054-137.054c13,16.583,20.752,37.477,20.752,60.181
						C353.625,309.917,309.917,353.625,256,353.625z"/>
				</g>
			</g>
		</g>
	</g>
	<g>
		<g>
			<path class="st4" d="M338.1,191.72c-1.236-1.576-3.088-2.548-5.087-2.668c-1.991-0.12-3.955,0.621-5.371,2.038L191.09,327.642
				c-1.417,1.417-2.158,3.372-2.038,5.371s1.092,3.852,2.668,5.087c18.498,14.502,40.726,22.167,64.28,22.167
				c57.493,0,104.267-46.774,104.267-104.267C360.267,232.446,352.602,210.219,338.1,191.72z M256,346.267
				c-17.719,0-34.567-5.008-49.183-14.555l124.895-124.895c9.547,14.616,14.555,31.464,14.555,49.183
				C346.267,305.773,305.774,346.267,256,346.267z M322.948,178.987c-0.121-2-1.092-3.852-2.668-5.087
				c-18.499-14.501-40.726-22.167-64.279-22.167c-57.493,0-104.268,46.774-104.268,104.267c0,23.553,7.665,45.78,22.167,64.279
				c1.236,1.576,3.088,2.548,5.087,2.668c0.141,0.008,0.281,0.013,0.422,0.013c1.85,0,3.633-0.734,4.949-2.05L320.91,184.358
				C322.326,182.941,323.068,180.986,322.948,178.987z M180.287,305.182c-9.547-14.616-14.555-31.464-14.555-49.182
				c0-49.773,40.494-90.267,90.268-90.267c17.718,0,34.566,5.008,49.182,14.554L180.287,305.182z M256,110.938
				c-79.988,0-145.062,65.075-145.062,145.062S176.012,401.062,256,401.062c79.987,0,145.062-65.075,145.062-145.062
				S335.988,110.938,256,110.938z M256,387.062c-72.268,0-131.062-58.794-131.062-131.062S183.732,124.938,256,124.938
				S387.062,183.732,387.062,256S328.268,387.062,256,387.062z"/>
		</g>
	</g>
	<g>
		<g>
			<path class="st7" d="M369.906,206.798c-4.389-10.067-10.124-19.523-17.044-28.104l-10.897,8.789
				c6.136,7.607,11.219,15.988,15.109,24.91c2.966,6.801,5.237,13.934,6.752,21.199l13.705-2.857
				C375.82,222.531,373.254,214.478,369.906,206.798z"/>
		</g>
	</g>
</g>
</svg>
