<?xml version="1.0" encoding="utf-8"?>
<!-- Generator: Adobe Illustrator 21.1.0, SVG Export Plug-In . SVG Version: 6.00 Build 0)  -->
<svg version="1.1" id="Layer_1" xmlns="http://www.w3.org/2000/svg" xmlns:xlink="http://www.w3.org/1999/xlink" x="0px" y="0px"
	 viewBox="0 0 512 512" style="enable-background:new 0 0 512 512;" xml:space="preserve">
<style type="text/css">
	.st0{fill:#D6CD1E;}
	.st1{fill:#E56823;}
	.st2{fill:#FE8E46;}
	.st3{fill:#FEFE71;}
	.st4{fill:#463218;}
	.st5{fill:#7DAC51;}
	.st6{fill:#5B7C31;}
	.st7{fill:#FFFFFF;}
</style>
<g>
	<g>
		<g>
			<rect x="149.707" y="212.279" class="st5" width="212.585" height="188.476"/>
		</g>
	</g>
	<g>
		<g>
			<rect x="149.707" y="212.279" class="st6" width="37.729" height="188.476"/>
		</g>
	</g>
	<g>
		<g>
			<g>
				<g>
					<path class="st4" d="M362.293,205.279H149.707c-3.866,0-7,3.134-7,7v188.476c0,3.866,3.134,7,7,7h212.586c3.866,0,7-3.134,7-7
						V212.279C369.293,208.413,366.159,205.279,362.293,205.279z M355.293,393.755H156.707V219.279h198.586V393.755z"/>
				</g>
			</g>
		</g>
	</g>
	<g>
		<g>
			<rect x="120.139" y="375.5" class="st3" width="271.722" height="25.254"/>
		</g>
	</g>
	<g>
		<g>
			<rect x="120.139" y="375.5" class="st0" width="84.661" height="25.254"/>
		</g>
	</g>
	<g>
		<g>
			<g>
				<g>
					<path class="st4" d="M391.861,368.5H120.139c-3.866,0-7,3.134-7,7v25.255c0,3.866,3.134,7,7,7h271.723c3.866,0,7-3.134,7-7
						V375.5C398.861,371.634,395.728,368.5,391.861,368.5z M384.861,393.755H127.139V382.5h257.723V393.755z"/>
				</g>
			</g>
		</g>
	</g>
	<g>
		<g>
			<circle class="st3" cx="209.561" cy="302.372" r="37.123"/>
		</g>
	</g>
	<g>
		<g>
			<g>
				<g>
					<path class="st4" d="M209.561,258.249c-24.33,0-44.124,19.794-44.124,44.123c0,24.33,19.794,44.124,44.124,44.124
						s44.124-19.794,44.124-44.124C253.685,278.043,233.891,258.249,209.561,258.249z M209.561,332.496
						c-16.61,0-30.124-13.514-30.124-30.124c0-16.609,13.513-30.123,30.124-30.123s30.124,13.514,30.124,30.123
						C239.685,318.982,226.171,332.496,209.561,332.496z"/>
				</g>
			</g>
		</g>
	</g>
	<g>
		<g>
			<rect x="271.225" y="261.411" class="st2" width="64.889" height="114.09"/>
		</g>
	</g>
	<g>
		<g>
			<rect x="271.225" y="261.411" class="st1" width="18.846" height="114.09"/>
		</g>
	</g>
	<g>
		<g>
			<g>
				<g>
					<path class="st4" d="M336.114,254.411h-64.889c-3.866,0-7,3.134-7,7V375.5c0,3.866,3.134,7,7,7h64.889c3.866,0,7-3.134,7-7
						V261.411C343.114,257.545,339.98,254.411,336.114,254.411z M329.114,368.5h-50.889V268.411h50.889V368.5z"/>
				</g>
			</g>
		</g>
	</g>
	<g>
		<g>
			<path class="st2" d="M120.139,177.888v27.399c0,18.584,15.065,33.648,33.649,33.648h0c18.584,0,33.649-15.064,33.649-33.648
				v-27.399H120.139z"/>
		</g>
	</g>
	<g>
		<g>
			<path class="st1" d="M188.281,177.888v27.399c0,18.584,15.065,33.648,33.649,33.648h0c18.584,0,33.649-15.064,33.649-33.648
				v-27.399H188.281z"/>
		</g>
	</g>
	<g>
		<g>
			<path class="st2" d="M256.422,177.888v27.399c0,18.584,15.065,33.648,33.649,33.648h0c18.584,0,33.649-15.064,33.649-33.648
				v-27.399H256.422z"/>
		</g>
	</g>
	<g>
		<g>
			<path class="st1" d="M324.564,177.888v27.399c0,18.584,15.065,33.648,33.649,33.648h0c18.584,0,33.649-15.064,33.649-33.648
				v-27.399H324.564z"/>
		</g>
	</g>
	<g>
		<g>
			<rect x="135.829" y="111.245" class="st3" width="240.342" height="21.356"/>
		</g>
	</g>
	<g>
		<g>
			<rect x="135.829" y="111.245" class="st0" width="69.395" height="21.356"/>
		</g>
	</g>
	<g>
		<g>
			<polygon class="st2" points="376.343,132.601 135.657,132.601 120.139,177.888 391.861,177.888 			"/>
		</g>
	</g>
	<g>
		<g>
			<polygon class="st1" points="135.657,132.601 120.139,177.888 188.703,177.888 204.221,132.601 			"/>
		</g>
	</g>
	<g>
		<g>
			<g>
				<g>
					<path class="st4" d="M398.483,175.618l-15.519-45.287c-0.97-2.83-3.631-4.73-6.622-4.73H135.657c-2.991,0-5.652,1.9-6.622,4.73
						l-15.519,45.287c-0.733,2.139-0.388,4.499,0.926,6.339c1.314,1.839,3.436,2.931,5.696,2.931h271.723
						c2.26,0,4.382-1.092,5.696-2.931C398.871,180.117,399.216,177.757,398.483,175.618z M129.937,170.888l10.721-31.287h230.684
						l10.721,31.287H129.937z"/>
				</g>
			</g>
		</g>
	</g>
	<g>
		<g>
			<g>
				<g>
					<path class="st4" d="M376.171,104.245H135.829c-3.866,0-7,3.134-7,7v21.355c0,3.866,3.134,7,7,7h240.342c3.866,0,7-3.134,7-7
						v-21.355C383.171,107.379,380.037,104.245,376.171,104.245z M369.171,125.601H142.829v-7.355h226.342V125.601z"/>
				</g>
			</g>
		</g>
	</g>
	<g>
		<g>
			<g>
				<g>
					<path class="st4" d="M187.436,170.888h-67.297c-3.866,0-7,3.134-7,7v27.399c0,22.414,18.235,40.648,40.649,40.648
						c22.414,0,40.648-18.234,40.648-40.648v-27.399C194.436,174.021,191.302,170.888,187.436,170.888z M180.436,205.287
						c0,14.694-11.955,26.648-26.648,26.648c-14.694,0-26.649-11.954-26.649-26.648v-20.399h53.297V205.287z"/>
				</g>
			</g>
		</g>
	</g>
	<g>
		<g>
			<g>
				<g>
					<path class="st4" d="M255.578,170.888h-67.297c-3.866,0-7,3.134-7,7v27.399c0,22.414,18.235,40.648,40.648,40.648
						s40.648-18.234,40.648-40.648v-27.399C262.578,174.021,259.444,170.888,255.578,170.888z M248.578,205.287
						c0,14.694-11.955,26.648-26.648,26.648s-26.648-11.954-26.648-26.648v-20.399h53.297V205.287z"/>
				</g>
			</g>
		</g>
	</g>
	<g>
		<g>
			<g>
				<g>
					<path class="st4" d="M323.719,170.888h-67.297c-3.866,0-7,3.134-7,7v27.399c0,22.414,18.235,40.648,40.648,40.648
						s40.648-18.234,40.648-40.648v-27.399C330.719,174.021,327.585,170.888,323.719,170.888z M316.719,205.287
						c0,14.694-11.955,26.648-26.648,26.648s-26.648-11.954-26.648-26.648v-20.399h53.297V205.287z"/>
				</g>
			</g>
		</g>
	</g>
	<g>
		<g>
			<g>
				<g>
					<path class="st4" d="M391.861,170.888h-67.297c-3.866,0-7,3.134-7,7v27.399c0,22.414,18.235,40.648,40.648,40.648
						c22.414,0,40.649-18.234,40.649-40.648v-27.399C398.861,174.021,395.728,170.888,391.861,170.888z M384.861,205.287
						c0,14.694-11.955,26.648-26.649,26.648c-14.694,0-26.648-11.954-26.648-26.648v-20.399h53.297V205.287z"/>
				</g>
			</g>
		</g>
	</g>
	<g>
		<g>
			<path class="st6" d="M227.951,311.654c-2.706-1.43-5.915-2.187-9.281-2.187c-0.542,0-1.08,0.022-1.613,0.061
				c1.488-1.024,2.909-2.207,4.236-3.534c3.331-3.331,5.757-7.252,7.018-11.341c0.081-0.262,0.01-0.546-0.184-0.74
				c-0.194-0.194-0.478-0.264-0.74-0.184c-4.089,1.261-8.011,3.688-11.341,7.018c-1.073,1.073-2.052,2.208-2.929,3.391
				c0.583-2.662,0.882-5.452,0.882-8.304c0-6.103-1.369-11.918-3.959-16.817c-0.128-0.242-0.379-0.394-0.653-0.394
				s-0.525,0.151-0.653,0.394c-2.59,4.899-3.959,10.714-3.959,16.817c0,2.63,0.255,5.206,0.751,7.679
				c-0.751-0.958-1.569-1.882-2.452-2.765c-3.331-3.331-7.252-5.757-11.341-7.018c-0.261-0.081-0.546-0.01-0.74,0.184
				c-0.194,0.193-0.264,0.478-0.184,0.74c1.261,4.089,3.688,8.011,7.018,11.341c1.327,1.327,2.748,2.51,4.236,3.534
				c-0.533-0.039-1.07-0.061-1.613-0.061c-3.366,0-6.575,0.756-9.281,2.187c-0.242,0.128-0.393,0.379-0.393,0.653
				c0,0.273,0.151,0.525,0.393,0.653c2.706,1.431,5.915,2.187,9.281,2.187c0.93,0,1.847-0.06,2.746-0.173
				c-1.673,1.559-2.931,3.415-3.643,5.378c-0.093,0.257-0.036,0.545,0.148,0.748c0.142,0.156,0.341,0.242,0.547,0.242
				c0.061,0,0.123-0.008,0.183-0.023c2.084-0.534,4.109-1.655,5.857-3.242c0.912-0.829,1.704-1.745,2.358-2.718v5.245
				c0,0.408,0.331,0.739,0.739,0.739s0.739-0.331,0.739-0.739v-5.787c0.713,1.176,1.625,2.279,2.705,3.26h0
				c1.748,1.587,3.774,2.708,5.857,3.242c0.061,0.016,0.122,0.023,0.183,0.023c0.205,0,0.405-0.086,0.547-0.242
				c0.184-0.203,0.241-0.491,0.148-0.748c-0.711-1.964-1.969-3.819-3.643-5.378c0.899,0.114,1.816,0.173,2.746,0.173
				c3.366,0,6.575-0.756,9.281-2.187c0.242-0.128,0.393-0.379,0.393-0.653C228.344,312.033,228.193,311.782,227.951,311.654z"/>
		</g>
	</g>
	<g>
		<g>
			<rect x="340.506" y="145.4" class="st7" width="25.6" height="14"/>
		</g>
	</g>
</g>
</svg>
