<?xml version="1.0" encoding="utf-8"?>
<!-- Generator: Adobe Illustrator 21.1.0, SVG Export Plug-In . SVG Version: 6.00 Build 0)  -->
<svg version="1.1" id="Layer_1" xmlns="http://www.w3.org/2000/svg" xmlns:xlink="http://www.w3.org/1999/xlink" x="0px" y="0px"
	 viewBox="0 0 512 512" style="enable-background:new 0 0 512 512;" xml:space="preserve">
<style type="text/css">
	.st0{fill:#D6CD1E;}
	.st1{fill:#E56823;}
	.st2{fill:#FE8E46;}
	.st3{fill:#FEFE71;}
	.st4{fill:#463218;}
	.st5{fill:#7DAC51;}
	.st6{fill:#5B7C31;}
	.st7{fill:#FFFFFF;}
</style>
<g>
	<g>
		<g>
			<path class="st5" d="M402.919,368.53L271.322,236.934l-32.294,32.294l131.597,131.597c8.918,8.918,23.377,8.918,32.294,0
				C411.837,391.908,411.837,377.449,402.919,368.53z"/>
		</g>
	</g>
	<g>
		<g>
			<path class="st6" d="M255.175,253.081l-0.825,31.47l116.274,116.274c8.918,8.918,23.377,8.918,32.294,0L255.175,253.081z"/>
		</g>
	</g>
	<g>
		<g>
			<g>
				<g>
					<path class="st4" d="M407.869,363.581L407.869,363.581L276.271,231.983c-1.312-1.312-3.093-2.05-4.95-2.05
						s-3.637,0.737-4.95,2.051l-32.294,32.295c-2.734,2.733-2.734,7.165,0,9.899l131.597,131.597
						c5.816,5.816,13.457,8.725,21.097,8.725c7.64,0,15.28-2.908,21.097-8.725C419.501,394.143,419.501,375.214,407.869,363.581z
						 M397.969,395.875c-6.174,6.176-16.22,6.176-22.395,0L248.927,269.229l22.395-22.396l126.647,126.646
						C404.143,379.654,404.143,389.701,397.969,395.875z"/>
				</g>
			</g>
		</g>
	</g>
	<g>
		<g>
			<circle class="st2" cx="224.935" cy="227.028" r="122.528"/>
		</g>
	</g>
	<g>
		<g>
			<circle class="st1" cx="224.935" cy="227.028" r="93.27"/>
		</g>
	</g>
	<g>
		<g>
			<path class="st7" d="M254.713,155.869l-5.409,12.912c14.232,5.963,25.773,16.905,32.496,30.812l12.604-6.094
				C286.193,176.516,272.098,163.151,254.713,155.869z"/>
		</g>
	</g>
	<g>
		<g>
			<g>
				<g>
					<path class="st4" d="M224.935,97.5c-71.422,0-129.528,58.106-129.528,129.528s58.106,129.528,129.528,129.528
						s129.528-58.106,129.528-129.528S296.358,97.5,224.935,97.5z M224.935,342.557c-63.703,0-115.528-51.826-115.528-115.528
						S161.233,111.5,224.935,111.5s115.528,51.826,115.528,115.528S288.638,342.557,224.935,342.557z"/>
				</g>
			</g>
		</g>
	</g>
	<g>
		<g>
			<g>
				<g>
					<path class="st4" d="M224.935,126.758c-55.29,0-100.271,44.981-100.271,100.271s44.981,100.271,100.271,100.271
						c55.289,0,100.27-44.981,100.27-100.271S280.225,126.758,224.935,126.758z M224.935,313.299
						c-47.57,0-86.271-38.701-86.271-86.271s38.701-86.271,86.271-86.271s86.27,38.701,86.27,86.271
						S272.505,313.299,224.935,313.299z"/>
				</g>
			</g>
		</g>
	</g>
	<g>
		<g>
			<path class="st3" d="M269.181,246.044c-6.015-3.179-13.148-4.86-20.629-4.86c-1.205,0-2.401,0.048-3.585,0.135
				c3.307-2.275,6.466-4.904,9.415-7.854c7.403-7.403,12.797-16.12,15.6-25.208c0.179-0.582,0.022-1.214-0.408-1.645
				c-0.43-0.43-1.063-0.587-1.645-0.408c-9.089,2.803-17.806,8.197-25.209,15.6c-2.386,2.386-4.562,4.909-6.511,7.537
				c1.296-5.918,1.961-12.118,1.961-18.458c0-13.566-3.043-26.492-8.799-37.381c-0.284-0.538-0.843-0.875-1.451-0.875
				s-1.167,0.337-1.451,0.875c-5.756,10.889-8.799,23.815-8.799,37.381c0,5.845,0.566,11.571,1.67,17.067
				c-1.669-2.129-3.488-4.184-5.45-6.146c-7.403-7.403-16.12-12.797-25.209-15.6c-0.581-0.179-1.214-0.022-1.645,0.408
				c-0.43,0.431-0.587,1.063-0.408,1.645c2.803,9.089,8.197,17.806,15.6,25.208c2.95,2.95,6.108,5.579,9.416,7.854
				c-1.184-0.086-2.379-0.135-3.585-0.135c-7.481,0-14.614,1.681-20.629,4.86c-0.538,0.285-0.875,0.843-0.875,1.452
				s0.337,1.167,0.875,1.452c6.015,3.179,13.148,4.86,20.629,4.86c2.067,0,4.106-0.133,6.104-0.386
				c-3.719,3.466-6.516,7.589-8.096,11.955c-0.207,0.572-0.081,1.212,0.328,1.663c0.315,0.347,0.759,0.538,1.216,0.538
				c0.136,0,0.272-0.017,0.407-0.052c4.631-1.187,9.133-3.679,13.019-7.207c2.028-1.841,3.788-3.878,5.242-6.042v11.658
				c0,0.907,0.735,1.642,1.642,1.642s1.642-0.735,1.642-1.642v-12.862c1.584,2.615,3.612,5.066,6.013,7.246h0
				c3.886,3.528,8.388,6.02,13.019,7.207c0.135,0.035,0.272,0.052,0.408,0.052c0.457,0,0.9-0.191,1.216-0.538
				c0.409-0.451,0.535-1.091,0.328-1.663c-1.581-4.366-4.377-8.489-8.096-11.955c1.998,0.253,4.037,0.386,6.104,0.386
				c7.481,0,14.614-1.681,20.629-4.86c0.538-0.285,0.875-0.843,0.875-1.452S269.718,246.329,269.181,246.044z"/>
		</g>
	</g>
</g>
</svg>
