<?xml version="1.0" encoding="utf-8"?>
<!-- Generator: Adobe Illustrator 21.1.0, SVG Export Plug-In . SVG Version: 6.00 Build 0)  -->
<svg version="1.1" id="Layer_1" xmlns="http://www.w3.org/2000/svg" xmlns:xlink="http://www.w3.org/1999/xlink" x="0px" y="0px"
	 viewBox="0 0 512 512" style="enable-background:new 0 0 512 512;" xml:space="preserve">
<style type="text/css">
	.st0{fill:#D6CD1E;}
	.st1{fill:#E56823;}
	.st2{fill:#FE8E46;}
	.st3{fill:#FEFE71;}
	.st4{fill:#463218;}
	.st5{fill:#7DAC51;}
	.st6{fill:#5B7C31;}
	.st7{fill:#FFFFFF;}
</style>
<g>
	<g>
		<g>
			<path class="st5" d="M256,107.081c-15.901,36.176-25.349,81.335-25.349,130.326s9.448,94.149,25.349,130.326
				c15.901-36.176,25.349-81.335,25.349-130.326S271.901,143.257,256,107.081z"/>
		</g>
	</g>
	<g>
		<g>
			<path class="st6" d="M230.651,237.407c0,48.991,9.448,94.149,25.349,130.326V107.081
				C240.099,143.257,230.651,188.416,230.651,237.407z"/>
		</g>
	</g>
	<g>
		<g>
			<path class="st5" d="M207.249,276.458c-25.375-27.899-55.755-47.259-86.257-57.162c6.975,31.301,23.376,63.375,48.752,91.274
				c25.375,27.899,55.755,47.26,86.257,57.162C249.025,336.431,232.624,304.357,207.249,276.458z"/>
		</g>
	</g>
	<g>
		<g>
			<path class="st5" d="M304.751,276.458c-25.375,27.899-41.776,59.974-48.751,91.275c30.501-9.903,60.881-29.263,86.257-57.162
				c25.375-27.899,41.777-59.974,48.752-91.274C360.507,229.198,330.127,248.558,304.751,276.458z"/>
		</g>
	</g>
	<g>
		<g>
			<path class="st6" d="M120.992,219.295c6.975,31.301,23.376,63.375,48.752,91.274c25.375,27.899,55.755,47.26,86.257,57.162
				L120.992,219.295z"/>
		</g>
	</g>
	<g>
		<g>
			<path class="st6" d="M304.751,276.458c-25.375,27.899-41.776,59.974-48.751,91.275l135.008-148.437
				C360.507,229.198,330.127,248.558,304.751,276.458z"/>
		</g>
	</g>
	<g>
		<g>
			<path class="st5" d="M210.418,375.967c-15.407,6.838-27.896,17.001-36.39,28.546c14.26,1.447,30.175-0.997,45.582-7.835
				c15.407-6.838,27.896-17.001,36.39-28.546C241.74,366.686,225.825,369.129,210.418,375.967z"/>
		</g>
	</g>
	<g>
		<g>
			<path class="st5" d="M301.582,375.967c-15.407-6.838-31.322-9.281-45.582-7.834c8.494,11.545,20.983,21.708,36.39,28.546
				s31.322,9.281,45.582,7.835C329.477,392.968,316.989,382.805,301.582,375.967z"/>
		</g>
	</g>
	<g>
		<g>
			<g>
				<g>
					<path class="st4" d="M262.409,104.264c-1.117-2.542-3.632-4.183-6.408-4.183c-2.777,0-5.291,1.641-6.408,4.183
						c-16.971,38.61-25.941,84.65-25.941,133.142c0,48.492,8.97,94.532,25.941,133.142c1.117,2.542,3.631,4.183,6.408,4.183
						c2.776,0,5.291-1.641,6.408-4.183c16.971-38.611,25.94-84.65,25.94-133.142C288.349,188.915,279.379,142.875,262.409,104.264z
						 M256,348.867c-12.038-33.316-18.349-71.475-18.349-111.461c0-39.985,6.312-78.144,18.349-111.461
						c12.037,33.317,18.349,71.476,18.349,111.461C274.349,277.392,268.037,315.551,256,348.867z"/>
				</g>
			</g>
		</g>
	</g>
	<g>
		<g>
			<g>
				<g>
					<path class="st4" d="M262.832,366.21c-7.539-33.831-24.968-66.496-50.405-94.462c-25.437-27.967-56.307-48.407-89.273-59.11
						c-2.391-0.776-5.013-0.211-6.872,1.479c-1.859,1.691-2.669,4.248-2.123,6.701c7.539,33.831,24.969,66.495,50.406,94.462
						c25.437,27.967,56.307,48.407,89.273,59.11c0.708,0.23,1.438,0.342,2.161,0.342c1.717,0,3.403-0.632,4.711-1.822
						C262.57,371.22,263.379,368.662,262.832,366.21z M174.922,305.86c-20.576-22.623-35.536-48.453-43.741-75.363
						c26.013,10.712,50.313,28.047,70.89,50.67c20.576,22.623,35.536,48.453,43.741,75.363
						C219.799,345.818,195.498,328.483,174.922,305.86z"/>
				</g>
			</g>
		</g>
	</g>
	<g>
		<g>
			<g>
				<g>
					<path class="st4" d="M395.718,214.117c-1.858-1.691-4.48-2.255-6.871-1.479c-32.967,10.703-63.837,31.143-89.274,59.11
						c-25.437,27.968-42.867,60.632-50.405,94.462c-0.546,2.453,0.264,5.01,2.123,6.701c1.308,1.19,2.994,1.822,4.711,1.822
						c0.723,0,1.452-0.112,2.16-0.342c32.966-10.703,63.837-31.143,89.274-59.11c25.437-27.968,42.866-60.632,50.404-94.462
						C398.387,218.365,397.578,215.808,395.718,214.117z M337.078,305.86c-20.577,22.623-44.877,39.958-70.89,50.67
						c8.205-26.909,23.164-52.739,43.741-75.363c20.576-22.623,44.877-39.958,70.89-50.67
						C372.615,257.406,357.656,283.236,337.078,305.86z"/>
				</g>
			</g>
		</g>
	</g>
	<g>
		<g>
			<g>
				<g>
					<path class="st4" d="M262.399,365.293c-1.02-2.297-3.191-3.871-5.692-4.125c-16.082-1.632-33.069,1.273-49.128,8.401
						c-16.058,7.127-29.609,17.776-39.188,30.796c-1.489,2.024-1.779,4.691-0.76,6.988c1.019,2.297,3.191,3.871,5.691,4.125
						c2.91,0.295,5.849,0.442,8.807,0.442c13.391,0,27.168-3.005,40.321-8.843h0c16.058-7.127,29.609-17.776,39.188-30.796
						C263.128,370.257,263.418,367.59,262.399,365.293z M216.771,390.28L216.771,390.28c-8.866,3.935-18.016,6.38-27.042,7.265
						c6.711-6.099,14.664-11.245,23.529-15.18s18.017-6.38,27.042-7.265C233.589,381.2,225.636,386.346,216.771,390.28z"/>
				</g>
			</g>
		</g>
	</g>
	<g>
		<g>
			<g>
				<g>
					<path class="st4" d="M343.61,400.365c-9.578-13.02-23.129-23.669-39.188-30.796c-16.057-7.127-33.044-10.032-49.127-8.401
						c-2.5,0.254-4.672,1.828-5.692,4.125c-1.019,2.297-0.729,4.964,0.76,6.988c9.579,13.02,23.13,23.669,39.188,30.796
						c13.153,5.838,26.929,8.843,40.32,8.843c2.957,0,5.897-0.147,8.807-0.442c2.5-0.254,4.673-1.828,5.692-4.125
						C345.389,405.056,345.099,402.389,343.61,400.365z M295.23,390.28c-8.865-3.934-16.818-9.08-23.529-15.18
						c9.024,0.885,18.177,3.331,27.041,7.265c8.866,3.935,16.819,9.081,23.53,15.18C313.246,396.66,304.094,394.215,295.23,390.28z"
						/>
				</g>
			</g>
		</g>
	</g>
	<g>
		<g>
			
				<rect x="303.48" y="296.081" transform="matrix(0.6609 -0.7504 0.7504 0.6609 -120.4581 339.5558)" class="st7" width="24.112" height="14"/>
		</g>
	</g>
</g>
</svg>
