<?xml version="1.0" encoding="utf-8"?>
<!-- Generator: Adobe Illustrator 21.1.0, SVG Export Plug-In . SVG Version: 6.00 Build 0)  -->
<svg version="1.1" id="Layer_1" xmlns="http://www.w3.org/2000/svg" xmlns:xlink="http://www.w3.org/1999/xlink" x="0px" y="0px"
	 viewBox="0 0 512 512" style="enable-background:new 0 0 512 512;" xml:space="preserve">
<style type="text/css">
	.st0{fill:#D6CD1E;}
	.st1{fill:#E56823;}
	.st2{fill:#FE8E46;}
	.st3{fill:#FEFE71;}
	.st4{fill:#463218;}
	.st5{fill:#7DAC51;}
	.st6{fill:#5B7C31;}
	.st7{fill:#FFFFFF;}
</style>
<g>
	<g>
		<g>
			<path class="st5" d="M254.615,91.208c-19.445,36.784-30.952,82.326-30.952,131.643c0,49.317,11.507,94.859,30.952,131.643
				c19.445-36.784,30.952-82.326,30.952-131.643C285.567,173.534,274.06,127.992,254.615,91.208z"/>
		</g>
	</g>
	<g>
		<g>
			<path class="st6" d="M254.615,91.208c-19.445,36.784-30.952,82.326-30.952,131.643c0,49.317,11.507,94.859,30.952,131.643
				C255.997,351.88,254.615,91.208,254.615,91.208z"/>
		</g>
	</g>
	<g>
		<g>
			<path class="st5" d="M199.994,266.292c-26.753-26.753-57.699-45.215-88.201-54.621c9.406,30.502,27.868,61.449,54.621,88.202
				c26.753,26.753,57.699,45.215,88.202,54.621C245.209,323.992,226.747,293.045,199.994,266.292z"/>
		</g>
	</g>
	<g>
		<g>
			<path class="st6" d="M254.356,353.701l-142.564-142.03c9.406,30.502,27.868,61.449,54.621,88.202
				c26.753,26.753,57.699,45.215,88.201,54.621C254.534,354.23,254.439,353.965,254.356,353.701z"/>
		</g>
	</g>
	<g>
		<g>
			<path class="st5" d="M183.204,337.703c-26.753,0-51.457,6.242-71.411,16.79c19.954,10.548,44.659,16.79,71.411,16.79
				c26.753,0,51.457-6.242,71.411-16.79C234.661,343.946,209.956,337.703,183.204,337.703z"/>
		</g>
	</g>
	<g>
		<g>
			<path class="st6" d="M111.793,354.494c19.954,10.548,44.659,16.79,71.411,16.79c26.753,0,51.457-6.242,71.411-16.79H111.793z"/>
		</g>
	</g>
	<g>
		<g>
			<path class="st6" d="M210.309,379.058c-13.678,12.419-23.412,27.078-28.718,41.734c15.099-3.869,30.628-12.146,44.306-24.564
				c13.679-12.419,23.412-27.078,28.718-41.734C239.516,358.363,223.987,366.64,210.309,379.058z"/>
		</g>
	</g>
	<g>
		<g>
			<g>
				<g>
					<path class="st4" d="M260.804,87.936c-1.212-2.293-3.594-3.729-6.188-3.729s-4.976,1.435-6.188,3.729
						c-20.78,39.309-31.764,85.962-31.764,134.915c0,48.953,10.984,95.606,31.764,134.915c1.212,2.294,3.594,3.729,6.188,3.729
						s4.976-1.435,6.188-3.729c20.78-39.309,31.763-85.962,31.763-134.915C292.567,173.898,281.583,127.245,260.804,87.936z
						 M254.615,338.617c-15.703-34.522-23.952-74.24-23.952-115.767c0-41.527,8.25-81.244,23.952-115.766
						c15.703,34.523,23.952,74.24,23.952,115.766C278.567,264.378,270.318,304.095,254.615,338.617z"/>
				</g>
			</g>
		</g>
	</g>
	<g>
		<g>
			<g>
				<g>
					<path class="st4" d="M261.304,352.431c-10.129-32.848-29.618-64.346-56.36-91.089c-26.742-26.742-58.24-46.231-91.089-56.36
						c-2.478-0.764-5.177-0.095-7.012,1.74c-1.834,1.834-2.504,4.533-1.739,7.012c10.129,32.848,29.618,64.346,56.36,91.088
						c26.742,26.742,58.24,46.231,91.089,56.361c0.678,0.209,1.373,0.311,2.062,0.311c1.829,0,3.618-0.718,4.95-2.051
						C261.399,357.609,262.069,354.91,261.304,352.431z M171.363,294.923c-21.418-21.418-37.864-46.009-48.113-71.794
						c25.785,10.249,50.375,26.694,71.794,48.113c21.418,21.419,37.864,46.009,48.113,71.794
						C217.372,332.787,192.781,316.341,171.363,294.923z"/>
				</g>
			</g>
		</g>
	</g>
	<g>
		<g>
			<g>
				<g>
					<path class="st4" d="M257.887,348.305c-21.783-11.515-47.608-17.602-74.683-17.602c-27.075,0-52.899,6.087-74.683,17.602
						c-2.293,1.212-3.729,3.594-3.729,6.188s1.435,4.976,3.729,6.188c21.784,11.515,47.608,17.602,74.683,17.602
						c27.075,0,52.899-6.087,74.683-17.602c2.293-1.212,3.729-3.594,3.729-6.188S260.18,349.518,257.887,348.305z M183.204,364.284
						c-19.334,0-37.916-3.358-54.537-9.79c16.621-6.432,35.202-9.79,54.537-9.79s37.917,3.358,54.537,9.79
						C221.12,360.926,202.539,364.284,183.204,364.284z"/>
				</g>
			</g>
		</g>
	</g>
	<g>
		<g>
			<g>
				<g>
					<path class="st4" d="M259.798,349.788c-1.744-1.921-4.408-2.72-6.92-2.075c-16.823,4.311-33.17,13.358-47.274,26.163
						c-14.103,12.804-24.683,28.204-30.595,44.533c-0.883,2.439-0.345,5.167,1.399,7.088c1.344,1.481,3.235,2.295,5.183,2.295
						c0.579,0,1.162-0.072,1.738-0.219c16.823-4.311,33.17-13.358,47.274-26.162h0c14.103-12.804,24.682-28.204,30.595-44.534
						C262.081,354.437,261.542,351.709,259.798,349.788z M221.191,391.045L221.191,391.045
						c-8.055,7.313-16.899,13.224-26.109,17.498c5.141-8.756,11.875-16.988,19.931-24.302c8.056-7.313,16.9-13.224,26.109-17.498
						C235.982,375.498,229.247,383.732,221.191,391.045z"/>
				</g>
			</g>
		</g>
	</g>
	<g>
		<g>
			<path class="st5" d="M312.006,266.292c-26.753,26.753-45.215,57.699-54.621,88.201c30.502-9.406,61.449-27.868,88.202-54.621
				c26.753-26.753,45.215-57.699,54.621-88.202C369.705,221.077,338.758,239.54,312.006,266.292z"/>
		</g>
	</g>
	<g>
		<g>
			<path class="st6" d="M257.644,353.701c-0.083,0.264-0.177,0.529-0.259,0.793c30.502-9.406,61.449-27.868,88.202-54.621
				c26.753-26.753,45.215-57.699,54.621-88.202L257.644,353.701z"/>
		</g>
	</g>
	<g>
		<g>
			<path class="st5" d="M328.796,337.703c-26.753,0-51.457,6.242-71.411,16.79c19.954,10.548,44.659,16.79,71.411,16.79
				s51.457-6.242,71.411-16.79C380.253,343.946,355.549,337.703,328.796,337.703z"/>
		</g>
	</g>
	<g>
		<g>
			<path class="st6" d="M257.385,354.494c19.954,10.548,44.659,16.79,71.411,16.79c26.753,0,51.457-6.242,71.411-16.79H257.385z"/>
		</g>
	</g>
	<g>
		<g>
			<path class="st6" d="M301.691,379.058c-13.679-12.418-29.208-20.695-44.306-24.564c5.306,14.656,15.04,29.315,28.718,41.734
				c13.679,12.419,29.208,20.695,44.306,24.564C325.104,406.136,315.37,391.477,301.691,379.058z"/>
		</g>
	</g>
	<g>
		<g>
			<g>
				<g>
					<path class="st4" d="M405.157,206.722c-1.834-1.835-4.534-2.504-7.012-1.74c-32.849,10.129-64.347,29.618-91.089,56.36
						c-26.742,26.742-46.231,58.24-56.36,91.089c-0.765,2.479-0.095,5.178,1.739,7.012c1.333,1.333,3.121,2.051,4.95,2.051
						c0.689,0,1.384-0.102,2.062-0.311c32.849-10.129,64.347-29.618,91.089-56.361c26.742-26.742,46.231-58.24,56.36-91.088
						C407.661,211.255,406.992,208.556,405.157,206.722z M340.637,294.923c-21.418,21.418-46.009,37.864-71.794,48.113
						c10.249-25.785,26.694-50.375,48.113-71.794c21.418-21.418,46.009-37.864,71.794-48.113
						C378.501,248.914,362.055,273.505,340.637,294.923z"/>
				</g>
			</g>
		</g>
	</g>
	<g>
		<g>
			<g>
				<g>
					<path class="st4" d="M403.479,348.305c-21.783-11.515-47.608-17.602-74.683-17.602c-27.075,0-52.9,6.087-74.683,17.602
						c-2.293,1.212-3.729,3.594-3.729,6.188s1.435,4.976,3.729,6.188c21.784,11.515,47.608,17.602,74.683,17.602
						c27.074,0,52.899-6.087,74.683-17.602c2.293-1.212,3.729-3.594,3.729-6.188S405.772,349.518,403.479,348.305z M328.796,364.284
						c-19.335,0-37.917-3.358-54.537-9.79c16.621-6.432,35.202-9.79,54.537-9.79s37.916,3.358,54.537,9.79
						C366.712,360.926,348.131,364.284,328.796,364.284z"/>
				</g>
			</g>
		</g>
	</g>
	<g>
		<g>
			<g>
				<g>
					<path class="st4" d="M336.992,418.409c-5.913-16.33-16.492-31.729-30.595-44.533c-14.104-12.804-30.451-21.852-47.274-26.163
						c-2.515-0.646-5.177,0.155-6.92,2.075c-1.744,1.921-2.283,4.649-1.399,7.088c5.913,16.33,16.492,31.729,30.595,44.534h0
						c14.104,12.804,30.451,21.851,47.274,26.162c0.576,0.148,1.159,0.219,1.738,0.219c1.947,0,3.838-0.814,5.183-2.295
						C337.336,423.577,337.875,420.849,336.992,418.409z M290.808,391.045L290.808,391.045
						c-8.055-7.313-14.791-15.547-19.931-24.302c9.209,4.273,18.054,10.185,26.109,17.498c8.056,7.314,14.791,15.546,19.932,24.302
						C307.708,404.269,298.864,398.359,290.808,391.045z"/>
				</g>
			</g>
		</g>
	</g>
	<g>
		<g>
			
				<rect x="314.729" y="270.501" transform="matrix(0.7084 -0.7058 0.7058 0.7084 -98.4321 316.7339)" class="st7" width="38.802" height="14"/>
		</g>
	</g>
</g>
</svg>
