<?xml version="1.0" encoding="utf-8"?>
<!-- Generator: Adobe Illustrator 21.1.0, SVG Export Plug-In . SVG Version: 6.00 Build 0)  -->
<svg version="1.1" id="Layer_1" xmlns="http://www.w3.org/2000/svg" xmlns:xlink="http://www.w3.org/1999/xlink" x="0px" y="0px"
	 viewBox="0 0 512 512" style="enable-background:new 0 0 512 512;" xml:space="preserve">
<style type="text/css">
	.st0{fill:#D6CD1E;}
	.st1{fill:#E56823;}
	.st2{fill:#FE8E46;}
	.st3{fill:#FEFE71;}
	.st4{fill:#463218;}
	.st5{fill:#7DAC51;}
	.st6{fill:#5B7C31;}
	.st7{fill:#FFFFFF;}
</style>
<g>
	<g>
		<g>
			<rect x="162.256" y="136.076" class="st2" width="133.073" height="73.368"/>
		</g>
	</g>
	<g>
		<g>
			<rect x="162.256" y="136.076" class="st1" width="38.431" height="73.368"/>
		</g>
	</g>
	<g>
		<g>
			<path class="st3" d="M274.991,239.78c-4.638,0-8.398-3.76-8.398-8.398v-21.938h-75.602v21.938c0,4.638-3.76,8.398-8.397,8.398
				c-11.233,0-20.339,9.106-20.339,20.339V363.73c0,18.765,15.212,33.977,33.977,33.977h65.119
				c18.765,0,33.978-15.212,33.978-33.978V260.118C295.329,248.885,286.223,239.78,274.991,239.78z"/>
		</g>
	</g>
	<g>
		<g>
			<path class="st0" d="M205.141,363.73V260.118c0-11.233,9.106-20.339,20.339-20.339c4.638,0,8.398-3.76,8.398-8.398v-21.938
				h-42.886v21.938c0,4.638-3.76,8.398-8.397,8.398c-11.233,0-20.339,9.106-20.339,20.339V363.73
				c0,18.765,15.212,33.977,33.977,33.977h42.886C220.353,397.707,205.141,382.495,205.141,363.73z"/>
		</g>
	</g>
	<g>
		<g>
			<g>
				<g>
					<path class="st4" d="M274.991,232.78L274.991,232.78c-0.771,0-1.398-0.627-1.398-1.397v-21.938c0-3.866-3.134-7-7-7h-75.602
						c-3.866,0-7,3.134-7,7v21.938c0,0.771-0.627,1.397-1.397,1.397c-15.075,0-27.339,12.264-27.339,27.339V363.73
						c0,22.595,18.382,40.977,40.978,40.977h65.119c22.595,0,40.978-18.382,40.978-40.978V260.118
						C302.329,245.044,290.065,232.78,274.991,232.78z M288.329,363.729c0,14.875-12.103,26.978-26.978,26.978h-65.119
						c-14.875,0-26.978-12.102-26.978-26.977V260.118c0-7.355,5.984-13.339,13.339-13.339c8.49,0,15.397-6.907,15.397-15.397
						v-14.938h61.602v14.938c0,8.49,6.908,15.397,15.398,15.397c7.354,0,13.338,5.984,13.338,13.339V363.729z"/>
				</g>
			</g>
		</g>
	</g>
	<g>
		<g>
			<g>
				<g>
					<path class="st4" d="M295.329,129.076H162.255c-3.866,0-7,3.134-7,7v73.368c0,3.866,3.134,7,7,7h133.074c3.866,0,7-3.134,7-7
						v-73.368C302.329,132.21,299.195,129.076,295.329,129.076z M288.329,202.444H169.255v-59.368h119.074V202.444z"/>
				</g>
			</g>
		</g>
	</g>
	<g>
		<g>
			<rect x="222.049" y="165.76" class="st7" width="54.119" height="14"/>
		</g>
	</g>
	<g>
		<g>
			<path class="st6" d="M268.004,335.064c-5.77-3.05-12.613-4.662-19.79-4.662c-1.156,0-2.303,0.046-3.439,0.129
				c3.173-2.182,6.203-4.705,9.032-7.534c7.102-7.102,12.276-15.464,14.965-24.183c0.172-0.558,0.021-1.165-0.391-1.578
				c-0.413-0.413-1.02-0.563-1.578-0.391c-8.719,2.689-17.081,7.863-24.183,14.965c-2.289,2.289-4.376,4.709-6.246,7.23
				c1.243-5.677,1.881-11.625,1.881-17.707c0-13.014-2.919-25.414-8.441-35.86c-0.273-0.516-0.809-0.839-1.392-0.839
				c-0.584,0-1.12,0.323-1.392,0.839c-5.522,10.446-8.441,22.846-8.441,35.86c0,5.608,0.543,11.101,1.602,16.373
				c-1.601-2.042-3.346-4.014-5.229-5.896c-7.102-7.102-15.464-12.276-24.183-14.965c-0.557-0.172-1.165-0.021-1.578,0.391
				c-0.413,0.413-0.563,1.02-0.391,1.578c2.689,8.719,7.863,17.081,14.965,24.183v0c2.83,2.83,5.86,5.352,9.032,7.534
				c-1.136-0.083-2.282-0.129-3.439-0.129c-7.176,0-14.019,1.612-19.789,4.662c-0.516,0.273-0.839,0.809-0.839,1.392
				c0,0.584,0.323,1.12,0.839,1.392c5.77,3.05,12.613,4.662,19.789,4.662c1.983,0,3.939-0.128,5.855-0.37
				c-3.568,3.325-6.251,7.281-7.767,11.468c-0.199,0.549-0.078,1.163,0.315,1.595c0.302,0.333,0.728,0.516,1.166,0.516
				c0.13,0,0.261-0.016,0.391-0.049c4.443-1.139,8.761-3.529,12.489-6.914c1.945-1.766,3.634-3.72,5.029-5.796v11.184
				c0,0.87,0.705,1.575,1.575,1.575c0.87,0,1.575-0.705,1.575-1.575v-12.338c1.52,2.508,3.465,4.86,5.768,6.95h0
				c3.728,3.384,8.046,5.775,12.489,6.914c0.13,0.033,0.261,0.049,0.391,0.049c0.438,0,0.864-0.183,1.166-0.516
				c0.392-0.432,0.514-1.046,0.315-1.595c-1.516-4.188-4.199-8.144-7.767-11.468c1.917,0.243,3.873,0.37,5.855,0.37
				c7.177,0,14.02-1.612,19.79-4.662c0.516-0.273,0.839-0.809,0.839-1.392S268.52,335.337,268.004,335.064z"/>
		</g>
	</g>
	<g>
		<g>
			<rect x="181.843" y="165.76" class="st7" width="18.844" height="14"/>
		</g>
	</g>
	<g>
		<g>
			<circle class="st6" cx="295.329" cy="369.087" r="28.62"/>
		</g>
	</g>
	<g>
		<g>
			<path class="st5" d="M301.565,341.158c-7.34,2.1-12.719,8.846-12.719,16.862c0,9.693,7.858,17.551,17.551,17.551
				c8.015,0,14.761-5.379,16.862-12.719C320.859,352.054,312.363,343.558,301.565,341.158z"/>
		</g>
	</g>
	<g>
		<g>
			<g>
				<g>
					<path class="st4" d="M295.329,333.468c-19.641,0-35.619,15.979-35.619,35.619s15.979,35.62,35.619,35.62
						s35.62-15.979,35.62-35.62S314.97,333.468,295.329,333.468z M295.329,390.707c-11.921,0-21.619-9.698-21.619-21.62
						c0-11.921,9.698-21.619,21.619-21.619s21.62,9.698,21.62,21.619C316.949,381.009,307.25,390.707,295.329,390.707z"/>
				</g>
			</g>
		</g>
	</g>
	<g>
		<g>
			<circle class="st6" cx="351.879" cy="369.087" r="28.62"/>
		</g>
	</g>
	<g>
		<g>
			<path class="st5" d="M358.115,341.158c-7.34,2.1-12.719,8.846-12.719,16.862c0,9.693,7.858,17.551,17.551,17.551
				c8.015,0,14.761-5.379,16.862-12.719C377.408,352.054,368.913,343.558,358.115,341.158z"/>
		</g>
	</g>
	<g>
		<g>
			<g>
				<g>
					<path class="st4" d="M351.879,333.468c-19.641,0-35.619,15.979-35.619,35.619s15.979,35.62,35.619,35.62
						s35.619-15.979,35.619-35.62S371.52,333.468,351.879,333.468z M351.879,390.707c-11.921,0-21.619-9.698-21.619-21.62
						c0-11.921,9.698-21.619,21.619-21.619s21.619,9.698,21.619,21.619C373.498,381.009,363.8,390.707,351.879,390.707z"/>
				</g>
			</g>
		</g>
	</g>
	<g>
		<g>
			<circle class="st6" cx="160.121" cy="369.087" r="28.62"/>
		</g>
	</g>
	<g>
		<g>
			<path class="st5" d="M166.357,341.158c-7.34,2.1-12.719,8.846-12.719,16.862c0,9.693,7.858,17.551,17.551,17.551
				c8.015,0,14.761-5.379,16.862-12.719C185.65,352.054,177.155,343.558,166.357,341.158z"/>
		</g>
	</g>
	<g>
		<g>
			<g>
				<g>
					<path class="st4" d="M160.121,333.468c-19.641,0-35.62,15.979-35.62,35.619s15.979,35.62,35.62,35.62s35.62-15.979,35.62-35.62
						S179.762,333.468,160.121,333.468z M160.121,390.707c-11.921,0-21.62-9.698-21.62-21.62c0-11.921,9.699-21.619,21.62-21.619
						s21.62,9.698,21.62,21.619C181.741,381.009,172.042,390.707,160.121,390.707z"/>
				</g>
			</g>
		</g>
	</g>
</g>
</svg>
