<?xml version="1.0" encoding="utf-8"?>
<!-- Generator: Adobe Illustrator 22.0.0, SVG Export Plug-In . SVG Version: 6.00 Build 0)  -->
<svg version="1.1" id="Layer_1" xmlns="http://www.w3.org/2000/svg" xmlns:xlink="http://www.w3.org/1999/xlink" x="0px" y="0px"
	 viewBox="0 0 512 512" style="enable-background:new 0 0 512 512;" xml:space="preserve">
<style type="text/css">
	.st0{fill:#D6CD1E;}
	.st1{fill:#E56823;}
	.st2{fill:#FE8E46;}
	.st3{fill:#FEFE71;}
	.st4{fill:#463218;}
	.st5{fill:#7DAC51;}
	.st6{fill:#5B7C31;}
	.st7{fill:#FFFFFF;}
</style>
<g>
	<g>
		<g>
			<path class="st2" d="M255.948,99.954c0.018,0,0.035,0.001,0.052,0.001s0.035-0.001,0.052-0.001H255.948z"/>
		</g>
		<g>
			<path class="st2" d="M348.502,186.35c-3.274-48.245-43.433-86.367-92.502-86.395c-49.069,0.027-89.228,38.149-92.502,86.395
				c-0.266,3.922,0.33,7.857,1.686,11.547l14.042,38.213c4.091,11.133,14.692,18.532,26.553,18.532h0
				c3.02,0,5.469,2.448,5.469,5.469v12.515c0,6.881,5.578,12.46,12.46,12.46h22.61h19.365h22.61c6.881,0,12.46-5.579,12.46-12.46
				v-12.515c0-3.021,2.449-5.469,5.469-5.469h0c11.861,0,22.462-7.399,26.553-18.532l14.042-38.213
				C348.172,194.207,348.768,190.272,348.502,186.35z"/>
		</g>
	</g>
	<g>
		<path class="st1" d="M212.733,259.951l-19.092-51.959c-1.844-5.018-2.654-10.369-2.292-15.702
			c2.504-36.906,20.883-69.456,48.362-90.876c-41.399,7.362-73.309,42.158-76.212,84.936c-0.266,3.922,0.33,7.857,1.686,11.548
			l14.042,38.213c4.091,11.133,14.692,18.532,26.553,18.532h0c3.02,0,5.469,2.449,5.469,5.469v12.515
			C211.247,272.626,218.056,274.437,212.733,259.951z"/>
	</g>
	<g>
		<path class="st4" d="M288.292,292.086h-64.585c-10.73,0-19.46-8.729-19.46-19.46v-11.018
			c-14.115-0.618-26.688-9.737-31.592-23.083l-14.042-38.214c-1.725-4.692-2.431-9.549-2.099-14.435
			c3.532-52.059,47.178-92.848,99.395-92.922c0.013,0,0.025,0,0.038,0h0.104c0.013,0,0.025,0,0.038,0
			c52.217,0.075,95.863,40.864,99.395,92.922c0.332,4.886-0.375,9.743-2.099,14.436l-14.042,38.213
			c-4.904,13.347-17.477,22.466-31.592,23.084v11.018C307.752,283.357,299.023,292.086,288.292,292.086z M246.317,278.086h41.975
			c3.011,0,5.46-2.449,5.46-5.46v-12.515c0-6.875,5.594-12.469,12.469-12.469c8.887,0,16.917-5.604,19.982-13.946l14.042-38.213
			c1.042-2.835,1.469-5.748,1.272-8.66c-3.038-44.77-40.595-79.844-85.518-79.87c-44.922,0.026-82.48,35.1-85.518,79.87
			c-0.197,2.912,0.23,5.825,1.272,8.659l14.042,38.214c3.065,8.341,11.096,13.946,19.982,13.946c6.875,0,12.469,5.594,12.469,12.469
			v12.515c0,3.011,2.449,5.46,5.46,5.46H246.317z"/>
	</g>
	<g>
		<circle class="st5" cx="224.364" cy="180.358" r="20.322"/>
	</g>
	<g>
		<circle class="st5" cx="287.636" cy="180.358" r="20.322"/>
	</g>
	<g>
		<path class="st4" d="M224.364,207.68c-15.065,0-27.322-12.256-27.322-27.322s12.256-27.322,27.322-27.322
			s27.322,12.256,27.322,27.322S239.429,207.68,224.364,207.68z M224.364,167.036c-7.346,0-13.322,5.976-13.322,13.322
			s5.976,13.322,13.322,13.322s13.322-5.976,13.322-13.322S231.709,167.036,224.364,167.036z"/>
	</g>
	<g>
		<path class="st4" d="M287.636,207.68c-15.065,0-27.322-12.256-27.322-27.322s12.256-27.322,27.322-27.322
			s27.322,12.256,27.322,27.322S302.702,207.68,287.636,207.68z M287.636,167.036c-7.346,0-13.322,5.976-13.322,13.322
			s5.976,13.322,13.322,13.322s13.322-5.976,13.322-13.322S294.982,167.036,287.636,167.036z"/>
	</g>
	<g>
		<polygon class="st5" points="256,212.749 239.598,250.651 272.402,250.651 		"/>
	</g>
	<g>
		<path class="st4" d="M272.402,257.651h-32.804c-2.357,0-4.557-1.187-5.851-3.157c-1.294-1.97-1.51-4.46-0.574-6.624l16.402-37.902
			c1.108-2.562,3.633-4.22,6.424-4.22s5.316,1.658,6.424,4.22l16.402,37.902c0.936,2.164,0.721,4.653-0.574,6.624
			C276.958,256.464,274.759,257.651,272.402,257.651z M250.255,243.651h11.49L256,230.375L250.255,243.651z"/>
	</g>
	<g>
		<path class="st0" d="M360.176,289.281c3.304-5.148,4.031-11.805,1.329-17.798c-4.245-9.415-15.319-13.606-24.735-9.36
			c-9.415,4.245-13.606,15.319-9.36,24.734c0.53,1.176,1.17,2.267,1.897,3.273l-156.41,70.528c-0.273-1.211-0.666-2.413-1.196-3.589
			c-4.245-9.415-15.319-13.606-24.735-9.36c-9.415,4.245-13.606,15.319-9.36,24.734c2.702,5.992,8.172,9.856,14.218,10.787
			c-3.304,5.148-4.03,11.805-1.328,17.797c4.245,9.415,15.319,13.606,24.734,9.36s13.606-15.319,9.361-24.734
			c-0.53-1.176-1.17-2.267-1.897-3.273l156.41-70.528c0.273,1.211,0.666,2.413,1.196,3.589c4.245,9.415,15.319,13.606,24.734,9.36
			c9.415-4.245,13.606-15.319,9.361-24.734C371.692,294.076,366.221,290.213,360.176,289.281z"/>
	</g>
	<g>
		<path class="st4" d="M167.553,419.056c-3.071,0-6.148-0.558-9.107-1.677c-6.42-2.43-11.51-7.215-14.332-13.473
			c-2.373-5.261-2.878-11.042-1.58-16.485c-4.938-2.63-8.937-6.837-11.31-12.099c-5.825-12.918-0.054-28.168,12.864-33.993
			c6.257-2.822,13.239-3.038,19.661-0.608c5.4,2.043,9.859,5.753,12.819,10.604l143.314-64.623
			c-3.744-12.188,2.09-25.584,14.01-30.959c6.258-2.822,13.239-3.038,19.661-0.608c6.42,2.43,11.51,7.214,14.332,13.472
			c2.373,5.261,2.877,11.043,1.58,16.486c4.938,2.63,8.938,6.837,11.31,12.099c2.822,6.258,3.038,13.241,0.608,19.661
			c-2.43,6.42-7.215,11.51-13.473,14.332c-6.258,2.821-13.24,3.038-19.661,0.608c-5.4-2.043-9.859-5.753-12.819-10.604
			l-143.314,64.623c3.745,12.188-2.09,25.584-14.01,30.959C174.733,418.292,171.147,419.056,167.553,419.056z M154.648,353.05
			c-1.636,0-3.268,0.348-4.805,1.041c-5.881,2.652-8.508,9.594-5.856,15.476c1.631,3.617,4.959,6.139,8.902,6.746
			c2.341,0.361,4.341,1.881,5.315,4.041c0.974,2.159,0.789,4.665-0.49,6.659c-2.156,3.358-2.469,7.522-0.838,11.139
			c1.285,2.85,3.602,5.027,6.524,6.134c2.924,1.106,6.102,1.007,8.951-0.277c5.881-2.652,8.509-9.594,5.857-15.476
			c-0.321-0.712-0.721-1.402-1.189-2.049c-1.232-1.705-1.632-3.873-1.09-5.905c0.542-2.032,1.969-3.712,3.886-4.577l156.41-70.528
			c1.917-0.864,4.122-0.821,6.003,0.118c1.882,0.939,3.242,2.675,3.703,4.727c0.175,0.779,0.427,1.535,0.748,2.247
			c1.285,2.85,3.603,5.028,6.525,6.134c2.923,1.105,6.101,1.007,8.951-0.277c2.849-1.285,5.028-3.602,6.134-6.525
			c1.106-2.923,1.008-6.102-0.277-8.951c-1.631-3.617-4.959-6.139-8.903-6.746c-2.341-0.361-4.341-1.881-5.315-4.041
			c-0.974-2.16-0.789-4.665,0.491-6.659c2.155-3.358,2.469-7.522,0.838-11.139c-1.285-2.849-3.602-5.027-6.525-6.133
			c-2.923-1.106-6.101-1.008-8.951,0.277c-5.881,2.652-8.508,9.594-5.856,15.476c0.321,0.712,0.721,1.402,1.189,2.049
			c1.232,1.705,1.632,3.873,1.09,5.905c-0.542,2.032-1.969,3.712-3.886,4.577l-156.41,70.528c-1.917,0.864-4.122,0.821-6.003-0.118
			c-1.882-0.939-3.242-2.675-3.703-4.727c-0.175-0.779-0.427-1.535-0.748-2.247c-1.285-2.85-3.603-5.028-6.525-6.134
			C157.448,353.304,156.046,353.05,154.648,353.05z"/>
	</g>
	<g>
		<path class="st3" d="M151.824,289.281c-3.304-5.148-4.031-11.805-1.329-17.798c4.245-9.415,15.319-13.606,24.735-9.36
			c9.415,4.245,13.606,15.319,9.36,24.734c-0.53,1.176-1.17,2.267-1.897,3.273l156.41,70.528c0.273-1.211,0.666-2.413,1.196-3.589
			c4.245-9.415,15.319-13.606,24.735-9.36s13.606,15.319,9.36,24.734c-2.702,5.992-8.172,9.856-14.218,10.787
			c3.304,5.148,4.03,11.805,1.328,17.797c-4.245,9.415-15.319,13.606-24.734,9.36s-13.606-15.319-9.361-24.734
			c0.53-1.176,1.17-2.267,1.897-3.273l-156.41-70.528c-0.273,1.211-0.666,2.413-1.196,3.589c-4.245,9.415-15.319,13.606-24.734,9.36
			c-9.415-4.245-13.606-15.319-9.361-24.734C140.308,294.076,145.779,290.213,151.824,289.281z"/>
	</g>
	<g>
		<path class="st4" d="M344.447,419.056c-3.594,0-7.179-0.764-10.554-2.286c-11.92-5.375-17.754-18.772-14.01-30.959
			l-143.314-64.623c-2.959,4.851-7.419,8.561-12.819,10.604c-6.42,2.429-13.403,2.213-19.661-0.608
			c-6.258-2.822-11.042-7.912-13.473-14.332c-2.43-6.42-2.214-13.403,0.608-19.661c2.373-5.261,6.372-9.468,11.31-12.099
			c-1.298-5.442-0.792-11.225,1.58-16.486c2.822-6.258,7.912-11.042,14.332-13.472c6.421-2.43,13.404-2.213,19.661,0.608
			c11.919,5.375,17.754,18.772,14.01,30.959l143.314,64.623c2.96-4.85,7.419-8.56,12.819-10.604
			c6.421-2.43,13.404-2.213,19.661,0.608c12.918,5.825,18.689,21.075,12.864,33.993c-2.373,5.261-6.372,9.468-11.31,12.099
			c1.298,5.443,0.792,11.225-1.58,16.486c-2.822,6.258-7.912,11.043-14.332,13.473C350.596,418.498,347.518,419.056,344.447,419.056
			z M172.897,304.854c0.98,0,1.961,0.206,2.877,0.619L332.185,376c1.917,0.865,3.344,2.545,3.886,4.577
			c0.542,2.032,0.142,4.2-1.09,5.905c-0.468,0.647-0.868,1.337-1.19,2.05c-2.651,5.881-0.024,12.823,5.857,15.475
			c2.85,1.285,6.027,1.382,8.951,0.277c2.923-1.106,5.24-3.284,6.524-6.133c1.631-3.617,1.318-7.781-0.838-11.139
			c-1.279-1.994-1.464-4.5-0.49-6.659c0.974-2.16,2.974-3.68,5.315-4.041c3.943-0.607,7.271-3.129,8.902-6.746
			c2.652-5.881,0.024-12.824-5.856-15.476c-2.85-1.286-6.029-1.384-8.951-0.277c-2.923,1.106-5.24,3.284-6.525,6.133
			c-0.321,0.712-0.573,1.468-0.749,2.248c-0.461,2.052-1.821,3.788-3.703,4.727c-1.882,0.939-4.086,0.983-6.003,0.118
			l-156.41-70.528c-1.917-0.865-3.344-2.545-3.886-4.577c-0.542-2.032-0.142-4.2,1.09-5.905c0.468-0.647,0.868-1.337,1.19-2.05
			c2.651-5.881,0.024-12.823-5.857-15.475c-2.85-1.285-6.029-1.383-8.951-0.277c-2.923,1.106-5.24,3.284-6.525,6.133
			c-1.631,3.617-1.317,7.78,0.838,11.139c1.28,1.994,1.464,4.499,0.491,6.659c-0.974,2.16-2.974,3.68-5.315,4.041
			c-3.944,0.607-7.272,3.129-8.903,6.746c-1.285,2.849-1.383,6.028-0.277,8.951c1.106,2.923,3.285,5.24,6.134,6.525
			c2.849,1.285,6.028,1.383,8.951,0.277c2.923-1.106,5.24-3.285,6.525-6.134c0.321-0.712,0.573-1.468,0.749-2.248
			c0.461-2.052,1.821-3.788,3.703-4.727C170.754,305.1,171.826,304.854,172.897,304.854z"/>
	</g>
	<g>
		<path class="st7" d="M298.893,142.981c-9.321-8.048-20.619-13.312-32.673-15.222l2.191-13.827
			c14.631,2.318,28.335,8.699,39.631,18.452L298.893,142.981z"/>
	</g>
</g>
</svg>
