<?xml version="1.0" encoding="utf-8"?>
<!-- Generator: Adobe Illustrator 21.1.0, SVG Export Plug-In . SVG Version: 6.00 Build 0)  -->
<svg version="1.1" id="Layer_1" xmlns="http://www.w3.org/2000/svg" xmlns:xlink="http://www.w3.org/1999/xlink" x="0px" y="0px"
	 viewBox="0 0 512 512" style="enable-background:new 0 0 512 512;" xml:space="preserve">
<style type="text/css">
	.st0{fill:#D6CD1E;}
	.st1{fill:#E56823;}
	.st2{fill:#FE8E46;}
	.st3{fill:#FEFE71;}
	.st4{fill:#463218;}
	.st5{fill:#7DAC51;}
	.st6{fill:#5B7C31;}
	.st7{fill:#FFFFFF;}
</style>
<g>
	<g>
		<g>
			<path class="st3" d="M368.231,180.168l-20.225-6.741c-59.722-19.907-124.29-19.907-184.012,0l-20.225,6.741
				c-24.705,8.235-41.369,31.355-41.369,57.397V354.12c0,24.652,19.985,44.638,44.638,44.638h217.924
				c24.653,0,44.638-19.985,44.638-44.638V237.565C409.6,211.523,392.936,188.403,368.231,180.168z"/>
		</g>
	</g>
	<g>
		<g>
			<rect x="102.4" y="296.358" class="st0" width="307.2" height="51.199"/>
		</g>
	</g>
	<g>
		<g>
			<path class="st6" d="M306.128,344.998c-7.376-3.898-16.124-5.96-25.298-5.96c-1.478,0-2.944,0.06-4.396,0.165
				c4.056-2.789,7.93-6.015,11.547-9.632c9.078-9.078,15.694-19.769,19.131-30.914c0.22-0.713,0.027-1.489-0.5-2.018
				c-0.528-0.527-1.304-0.72-2.017-0.5c-11.146,3.438-21.836,10.053-30.915,19.131c-2.926,2.926-5.595,6.021-7.985,9.243
				c1.589-7.258,2.404-14.861,2.404-22.637c0-16.637-3.731-32.488-10.791-45.843c-0.349-0.659-1.034-1.072-1.78-1.072
				c-0.746,0-1.431,0.413-1.78,1.072c-7.059,13.354-10.791,29.206-10.791,45.843c0,7.168,0.695,14.19,2.048,20.931
				c-2.047-2.61-4.278-5.131-6.684-7.537c-9.078-9.078-19.769-15.694-30.915-19.131c-0.712-0.22-1.489-0.027-2.017,0.5
				c-0.528,0.528-0.72,1.305-0.5,2.018c3.437,11.146,10.052,21.836,19.131,30.914c3.617,3.617,7.491,6.843,11.547,9.632
				c-1.452-0.105-2.918-0.165-4.396-0.165c-9.174,0-17.922,2.062-25.298,5.96c-0.66,0.349-1.072,1.034-1.072,1.78
				s0.413,1.432,1.072,1.78c7.376,3.899,16.124,5.96,25.298,5.96c2.535,0,5.035-0.163,7.485-0.473
				c-4.561,4.25-7.991,9.307-9.929,14.66c-0.254,0.702-0.099,1.486,0.403,2.039c0.387,0.426,0.931,0.66,1.491,0.66
				c0.166,0,0.334-0.021,0.5-0.063c5.679-1.455,11.2-4.512,15.966-8.838c2.487-2.258,4.646-4.755,6.429-7.409v14.297
				c0,1.112,0.901,2.014,2.013,2.014c1.112,0,2.013-0.901,2.013-2.014v-15.772c1.943,3.206,4.43,6.213,7.373,8.885h0
				c4.765,4.326,10.286,7.383,15.966,8.838c0.166,0.043,0.333,0.063,0.5,0.063c0.56,0,1.104-0.234,1.491-0.66
				c0.502-0.553,0.657-1.337,0.402-2.039c-1.938-5.354-5.368-10.41-9.929-14.66c2.45,0.31,4.951,0.473,7.486,0.473
				c9.174,0,17.922-2.061,25.298-5.96c0.66-0.349,1.072-1.034,1.072-1.78S306.787,345.347,306.128,344.998z"/>
		</g>
	</g>
	<g>
		<g>
			<g>
				<g>
					<path class="st4" d="M370.444,173.527L370.444,173.527l-20.225-6.742c-30.437-10.145-62.136-15.289-94.219-15.289
						s-63.783,5.145-94.219,15.289l-20.225,6.742c-27.607,9.201-46.156,34.938-46.156,64.037v116.555
						c0,28.473,23.165,51.639,51.638,51.639h217.924c28.473,0,51.638-23.166,51.638-51.639V237.564
						C416.6,208.465,398.051,182.729,370.444,173.527z M402.6,354.119c0,20.754-16.884,37.639-37.638,37.639H147.038
						c-20.754,0-37.638-16.885-37.638-37.639V237.564c0-23.064,14.702-43.463,36.583-50.756l20.225-6.742
						c28.952-9.65,59.372-14.475,89.792-14.475s60.841,4.824,89.792,14.475l20.225,6.742h0
						c21.882,7.293,36.583,27.691,36.583,50.756V354.119z"/>
				</g>
			</g>
		</g>
	</g>
	<g>
		<g>
			<path class="st5" d="M368.231,180.168l-20.225-6.741c-59.722-19.907-124.29-19.907-184.012,0l-20.225,6.741
				c-23.484,7.828-39.69,29.108-41.237,53.56c10.525,10.386,27.474,10.346,37.945-0.126c10.515-10.515,27.563-10.515,38.078,0
				s27.563,10.515,38.078,0s27.563-10.515,38.078,0c10.515,10.515,27.563,10.515,38.078,0c10.515-10.515,27.563-10.515,38.078,0
				s27.563,10.515,38.078,0s27.563-10.515,38.078,0l2.144-3.284C406.4,207.313,390.616,187.63,368.231,180.168z"/>
		</g>
	</g>
	<g>
		<g>
			<path class="st6" d="M402.149,208.487c-10.384-6.437-24.192-5.156-33.204,3.855c-10.515,10.515-27.563,10.515-38.078,0
				s-27.563-10.515-38.078,0c-10.515,10.515-27.563,10.515-38.078,0c-10.515-10.515-27.563-10.515-38.078,0s-27.563,10.515-38.078,0
				s-27.563-10.515-38.078,0c-9.237,9.238-23.513,10.353-33.975,3.358c-2.204,5.685-3.573,11.75-3.97,18.026
				c10.525,10.386,27.474,10.346,37.945-0.126c10.515-10.515,27.563-10.515,38.078,0s27.563,10.515,38.078,0s27.563-10.515,38.078,0
				c10.515,10.515,27.563,10.515,38.078,0c10.515-10.515,27.563-10.515,38.078,0s27.563,10.515,38.078,0s27.563-10.515,38.078,0
				l2.144-3.284C408.232,222.546,405.807,215.157,402.149,208.487z"/>
		</g>
	</g>
	<g>
		<g>
			<g>
				<g>
					<path class="st4" d="M416.116,229.48c-3.099-25.775-21.026-47.738-45.672-55.953l-20.225-6.742
						c-30.437-10.145-62.136-15.289-94.219-15.289s-63.783,5.145-94.219,15.289l-20.225,6.742
						c-26.206,8.734-44.266,32.191-46.009,59.758c-0.128,2.023,0.627,4.002,2.069,5.424c13.227,13.053,34.675,12.98,47.811-0.158
						c7.769-7.77,20.41-7.77,28.179,0c13.227,13.227,34.75,13.227,47.977,0c3.763-3.764,8.767-5.836,14.089-5.836
						c5.323,0,10.326,2.072,14.089,5.836c6.407,6.408,14.927,9.936,23.989,9.936c9.062,0,17.581-3.527,23.988-9.936
						c7.768-7.768,20.409-7.768,28.178,0c13.228,13.227,34.75,13.227,47.978,0c7.769-7.77,20.41-7.77,28.178,0
						c1.492,1.492,3.579,2.23,5.673,2.014c2.097-0.219,3.985-1.371,5.138-3.137l2.144-3.285
						C415.927,232.766,416.312,231.115,416.116,229.48z M363.995,228.65c-7.769,7.77-20.411,7.768-28.179,0
						c-13.227-13.227-34.75-13.225-47.977,0c-7.769,7.771-20.41,7.77-28.178,0c-6.407-6.406-14.927-9.936-23.989-9.936
						c-9.062,0-17.581,3.529-23.988,9.936c-7.769,7.77-20.41,7.77-28.178,0c-13.228-13.227-34.75-13.227-47.978,0.002
						c-6.966,6.963-17.909,7.676-25.686,2.107c2.577-20.355,16.461-37.391,36.141-43.951l20.225-6.742
						c57.904-19.301,121.682-19.301,179.585,0l20.225,6.742c16.163,5.387,28.681,18.234,33.911,34.08
						C387.85,216.363,373.694,218.953,363.995,228.65z"/>
				</g>
			</g>
		</g>
	</g>
	<g>
		<g>
			<circle class="st2" cx="254.711" cy="152.712" r="39.47"/>
		</g>
	</g>
	<g>
		<g>
			<path class="st7" d="M254.711,125.723v14c7.162,0,12.989,5.828,12.989,12.99h14C281.7,137.83,269.593,125.723,254.711,125.723z"
				/>
		</g>
	</g>
	<g>
		<g>
			<path class="st1" d="M270,172.63c-19.027,0-34.452-15.425-34.452-34.452c0-9.204,3.616-17.558,9.496-23.737
				c-17.124,4.312-29.803,19.81-29.803,38.272c0,21.798,17.671,39.47,39.47,39.47c17.766,0,32.787-11.739,37.738-27.883
				C286.418,169.487,278.578,172.63,270,172.63z"/>
		</g>
	</g>
	<g>
		<g>
			<g>
				<g>
					<path class="st4" d="M254.711,106.242c-25.624,0-46.47,20.848-46.47,46.471s20.846,46.469,46.47,46.469
						s46.47-20.846,46.47-46.469S280.334,106.242,254.711,106.242z M254.711,185.182c-17.904,0-32.47-14.564-32.47-32.469
						s14.566-32.471,32.47-32.471s32.47,14.566,32.47,32.471S272.615,185.182,254.711,185.182z"/>
				</g>
			</g>
		</g>
	</g>
</g>
</svg>
