<?xml version="1.0" encoding="utf-8"?>
<!-- Generator: Adobe Illustrator 21.1.0, SVG Export Plug-In . SVG Version: 6.00 Build 0)  -->
<svg version="1.1" id="Layer_1" xmlns="http://www.w3.org/2000/svg" xmlns:xlink="http://www.w3.org/1999/xlink" x="0px" y="0px"
	 viewBox="0 0 512 512" style="enable-background:new 0 0 512 512;" xml:space="preserve">
<style type="text/css">
	.st0{fill:#D6CD1E;}
	.st1{fill:#E56823;}
	.st2{fill:#FE8E46;}
	.st3{fill:#FEFE71;}
	.st4{fill:#463218;}
	.st5{fill:#7DAC51;}
	.st6{fill:#5B7C31;}
	.st7{fill:#FFFFFF;}
</style>
<g>
	<g>
		<g>
			<path class="st0" d="M130.082,275.269c0,11.061,8.966,20.027,20.027,20.027v-40.054
				C139.048,255.242,130.082,264.209,130.082,275.269z"/>
		</g>
	</g>
	<g>
		<g>
			<path class="st0" d="M330.37,255.242v40.054c11.061,0,20.027-8.966,20.027-20.027S341.431,255.242,330.37,255.242z"/>
		</g>
	</g>
	<g>
		<g>
			<path class="st3" d="M150.109,203.002v94.458c0,49.778,40.353,90.13,90.131,90.13c49.778,0,90.131-40.353,90.131-90.13v-94.458
				H150.109z"/>
		</g>
	</g>
	<g>
		<g>
			<path class="st0" d="M177.551,297.459v-94.458h-27.442v94.458c0,49.778,40.353,90.131,90.131,90.131
				c4.665,0,9.247-0.354,13.721-1.038C210.695,379.944,177.551,342.573,177.551,297.459z"/>
		</g>
	</g>
	<g>
		<g>
			<path class="st2" d="M263.402,124.41h-46.325c-36.986,0-66.968,29.983-66.968,66.968v11.624H330.37v-11.624
				C330.37,154.392,300.388,124.41,263.402,124.41z"/>
		</g>
	</g>
	<g>
		<g>
			<path class="st1" d="M263.402,124.41h-46.325c-36.986,0-66.969,29.983-66.969,66.968v11.624h57.656v-11.624
				c0-35.075,26.971-63.833,61.303-66.712C267.198,124.509,265.312,124.41,263.402,124.41z"/>
		</g>
	</g>
	<g>
		<g>
			<g>
				<g>
					<path class="st4" d="M330.371,196.002H150.109c-3.866,0-7,3.134-7,7v94.457c0,53.558,43.573,97.131,97.131,97.131
						c53.559,0,97.131-43.573,97.131-97.131v-94.457C337.371,199.136,334.237,196.002,330.371,196.002z M323.371,297.459
						c0,45.838-37.292,83.131-83.131,83.131c-45.838,0-83.131-37.292-83.131-83.131v-87.457h166.262V297.459z"/>
				</g>
			</g>
		</g>
	</g>
	<g>
		<g>
			<rect x="136.603" y="203.002" class="st2" width="207.274" height="40.948"/>
		</g>
	</g>
	<g>
		<g>
			<rect x="136.603" y="203.002" class="st1" width="40.948" height="40.948"/>
		</g>
	</g>
	<g>
		<g>
			<g>
				<g>
					<path class="st4" d="M343.876,196.002H136.603c-3.866,0-7,3.134-7,7v40.948c0,3.866,3.134,7,7,7h207.273c3.866,0,7-3.134,7-7
						v-40.948C350.876,199.136,347.743,196.002,343.876,196.002z M336.876,236.95H143.603v-26.948h193.273V236.95z"/>
				</g>
			</g>
		</g>
	</g>
	<g>
		<g>
			<g>
				<g>
					<path class="st4" d="M263.402,117.41h-46.325c-40.786,0-73.968,33.182-73.968,73.968v11.625c0,3.866,3.134,7,7,7h180.262
						c3.866,0,7-3.134,7-7v-11.625C337.371,150.592,304.188,117.41,263.402,117.41z M323.371,196.002H157.109v-4.625
						c0-33.066,26.902-59.968,59.968-59.968h46.325c33.066,0,59.969,26.902,59.969,59.968V196.002z"/>
				</g>
			</g>
		</g>
	</g>
	<g>
		<g>
			<g>
				<g>
					<path class="st4" d="M150.109,248.242c-14.903,0-27.027,12.125-27.027,27.027s12.124,27.027,27.027,27.027c3.866,0,7-3.134,7-7
						v-40.054C157.109,251.376,153.975,248.242,150.109,248.242z M143.109,286.251c-3.622-2.316-6.027-6.374-6.027-10.982
						c0-4.609,2.405-8.666,6.027-10.982V286.251z"/>
				</g>
			</g>
		</g>
	</g>
	<g>
		<g>
			<g>
				<g>
					<path class="st4" d="M330.371,248.242c-3.866,0-7,3.134-7,7v40.054c0,3.866,3.134,7,7,7c14.902,0,27.026-12.124,27.026-27.027
						S345.273,248.242,330.371,248.242z M337.371,286.251v-21.964c3.621,2.316,6.026,6.374,6.026,10.982
						S340.992,283.935,337.371,286.251z"/>
				</g>
			</g>
		</g>
	</g>
	<g>
		<g>
			<path class="st5" d="M226.549,270.137H183.56c-1.708,3.314-2.679,7.071-2.679,11.057c0,17.782,10.823,24.174,24.174,24.174
				c13.351,0,24.174-10.823,24.174-24.174C229.228,277.208,228.257,273.452,226.549,270.137z"/>
		</g>
	</g>
	<g>
		<g>
			<path class="st5" d="M295.217,270.137h-42.989c-1.709,3.314-2.679,7.071-2.679,11.057c0,13.351,10.823,24.174,24.174,24.174
				c13.351,0,24.174-6.392,24.174-24.174C297.896,277.208,296.926,273.452,295.217,270.137z"/>
		</g>
	</g>
	<g>
		<g>
			<g>
				<g>
					<path class="st4" d="M232.771,266.93c-1.201-2.33-3.602-3.793-6.222-3.793H183.56c-2.621,0-5.021,1.463-6.222,3.793
						c-2.261,4.387-3.457,9.319-3.457,14.264c0,19.52,11.654,31.174,31.173,31.174c17.189,0,31.174-13.984,31.174-31.174
						C236.228,276.25,235.033,271.317,232.771,266.93z M205.054,298.368c-11.716,0-17.173-5.457-17.173-17.174
						c0-1.386,0.161-2.741,0.481-4.057h33.385c0.32,1.316,0.481,2.671,0.481,4.057C222.228,290.664,214.524,298.368,205.054,298.368
						z"/>
				</g>
			</g>
		</g>
	</g>
	<g>
		<g>
			<g>
				<g>
					<path class="st4" d="M301.44,266.931c-1.201-2.33-3.602-3.793-6.223-3.793h-42.989c-2.62,0-5.021,1.463-6.222,3.792
						c-2.263,4.388-3.458,9.32-3.458,14.265c0,17.189,13.984,31.174,31.174,31.174c19.521,0,31.174-11.654,31.174-31.174
						C304.896,276.251,303.701,271.318,301.44,266.931z M273.722,298.368c-9.47,0-17.174-7.704-17.174-17.174
						c0-1.386,0.161-2.741,0.481-4.057h33.385c0.32,1.316,0.481,2.671,0.481,4.057C290.896,292.911,285.439,298.368,273.722,298.368
						z"/>
				</g>
			</g>
		</g>
	</g>
	<g>
		<g>
			<path class="st4" d="M249.548,274.194h-20.32c-3.866,0-7,3.134-7,7s3.134,7,7,7h20.32c3.866,0,7-3.134,7-7
				S253.415,274.194,249.548,274.194z"/>
		</g>
	</g>
	<g>
		<g>
			<path class="st4" d="M269.222,334.389c-1.523-3.553-5.642-5.196-9.192-3.673c-13.146,5.639-28.255,5.72-41.456,0.226
				l-0.608-0.253c-3.569-1.489-7.667,0.2-9.154,3.768c-1.488,3.568,0.199,7.667,3.768,9.154l0.611,0.255
				c8.224,3.423,17.032,5.133,25.84,5.133c9.053,0,18.105-1.807,26.519-5.416C269.102,342.058,270.747,337.942,269.222,334.389z"/>
		</g>
	</g>
	<g>
		<g>
			<path class="st4" d="M269.222,334.389c-1.523-3.553-5.642-5.196-9.192-3.673c-13.146,5.639-28.255,5.72-41.456,0.226
				l-0.608-0.253c-3.569-1.489-7.667,0.2-9.154,3.768c-1.488,3.568,0.199,7.667,3.768,9.154l0.611,0.255
				c8.224,3.423,17.032,5.133,25.84,5.133c9.053,0,18.105-1.807,26.519-5.416C269.102,342.058,270.747,337.942,269.222,334.389z"/>
		</g>
	</g>
	<g>
		<g>
			<path class="st5" d="M263.777,336.349l-0.987,0.8c-6.843,2.936-14.096,4.532-21.391,4.818l70.428,40.662l8.027-13.904
				L263.777,336.349z"/>
		</g>
	</g>
	<g>
		<g>
			<g>
				<g>
					<path class="st4" d="M326.616,366.913c-0.48-1.793-1.654-3.322-3.262-4.25l-56.077-32.376c-2.511-1.45-5.654-1.202-7.908,0.624
						l-0.208,0.169c-5.729,2.338-11.791,3.647-18.036,3.892c-3.115,0.122-5.773,2.29-6.521,5.316
						c-0.748,3.026,0.596,6.182,3.296,7.741l70.428,40.662c1.073,0.62,2.282,0.938,3.5,0.938c0.606,0,1.216-0.079,1.812-0.239
						c1.794-0.48,3.322-1.653,4.251-3.261l8.027-13.904C326.844,370.617,327.096,368.706,326.616,366.913z M309.264,373.066
						l-48.111-27.778c0.839-0.292,1.673-0.602,2.502-0.928l46.637,26.926L309.264,373.066z"/>
				</g>
			</g>
		</g>
	</g>
	<g>
		<g>
			<path class="st4" d="M359.088,336.253c7.708-7.709,7.708-20.253,0-27.961c-2.734-2.733-7.166-2.733-9.9,0
				c-2.733,2.733-2.733,7.166,0,9.899c2.251,2.25,2.251,5.912,0,8.163c-7.708,7.709-7.708,20.252,0,27.961
				c1.367,1.367,3.158,2.05,4.95,2.05c1.791,0,3.583-0.684,4.949-2.05c2.734-2.734,2.734-7.166,0.001-9.9
				C356.837,342.165,356.837,338.503,359.088,336.253z"/>
		</g>
	</g>
	<g>
		<g>
			<path class="st4" d="M383.136,296.192c-1.09-1.09-1.69-2.539-1.69-4.081c0-1.542,0.601-2.991,1.69-4.081
				c2.734-2.734,2.734-7.166,0.001-9.9c-2.733-2.732-7.166-2.733-9.899,0c-3.735,3.735-5.792,8.7-5.792,13.981
				c0,5.281,2.057,10.246,5.791,13.98c2.251,2.25,2.251,5.912,0,8.163c-2.733,2.734-2.733,7.166,0.001,9.9
				c1.366,1.367,3.158,2.05,4.949,2.05s3.583-0.684,4.95-2.05C390.845,316.445,390.845,303.902,383.136,296.192z"/>
		</g>
	</g>
	<g>
		<g>
			<path class="st7" d="M263.402,140.41v14c10.214,0,20.076,4.304,27.06,11.81l10.25-9.537
				C291.088,146.341,277.49,140.41,263.402,140.41z"/>
		</g>
	</g>
</g>
</svg>
