<?xml version="1.0" encoding="utf-8"?>
<!-- Generator: Adobe Illustrator 21.1.0, SVG Export Plug-In . SVG Version: 6.00 Build 0)  -->
<svg version="1.1" id="Layer_1" xmlns="http://www.w3.org/2000/svg" xmlns:xlink="http://www.w3.org/1999/xlink" x="0px" y="0px"
	 viewBox="0 0 512 512" style="enable-background:new 0 0 512 512;" xml:space="preserve">
<style type="text/css">
	.st0{fill:#D6CD1E;}
	.st1{fill:#E56823;}
	.st2{fill:#FE8E46;}
	.st3{fill:#FEFE71;}
	.st4{fill:#463218;}
	.st5{fill:#7DAC51;}
	.st6{fill:#5B7C31;}
	.st7{fill:#FFFFFF;}
</style>
<g>
	<g>
		<g>
			<circle class="st2" cx="256" cy="256" r="102.4"/>
		</g>
	</g>
	<g>
		<g>
			<rect x="207.976" y="160.313" class="st1" width="11.381" height="187.626"/>
		</g>
	</g>
	<g>
		<g>
			<rect x="187.567" y="178.208" class="st1" width="11.381" height="160.522"/>
		</g>
	</g>
	<g>
		<g>
			<rect x="243.031" y="157.119" class="st1" width="11.381" height="198.481"/>
		</g>
	</g>
	<g>
		<g>
			<rect x="259.176" y="157.119" class="st1" width="11.381" height="198.481"/>
		</g>
	</g>
	<g>
		<g>
			<rect x="292.642" y="157.119" class="st1" width="11.381" height="198.481"/>
		</g>
	</g>
	<g>
		<g>
			<rect x="312.856" y="171.355" class="st1" width="11.381" height="167.374"/>
		</g>
	</g>
	<g>
		<g>
			<path class="st4" d="M256,146.599c-3.866,0-7,3.134-7,7v204.801c0,3.866,3.134,7,7,7s7-3.134,7-7V153.599
				C263,149.734,259.866,146.599,256,146.599z"/>
		</g>
	</g>
	<g>
		<g>
			<path class="st4" d="M358.4,249H153.599c-3.866,0-7,3.134-7,7s3.134,7,7,7H358.4c3.866,0,7-3.134,7-7S362.267,249,358.4,249z"/>
		</g>
	</g>
	<g>
		<g>
			<path class="st4" d="M358.4,192.57H153.599c-3.866,0-7,3.134-7,7s3.134,7,7,7H358.4c3.866,0,7-3.134,7-7
				S362.267,192.57,358.4,192.57z"/>
		</g>
	</g>
	<g>
		<g>
			<path class="st4" d="M358.4,300.2H153.599c-3.866,0-7,3.134-7,7s3.134,7,7,7H358.4c3.866,0,7-3.134,7-7
				S362.267,300.2,358.4,300.2z"/>
		</g>
	</g>
	<g>
		<g>
			<path class="st4" d="M204.8,146.599c-3.866,0-7,3.134-7,7v204.801c0,3.866,3.134,7,7,7s7-3.134,7-7V153.599
				C211.8,149.734,208.666,146.599,204.8,146.599z"/>
		</g>
	</g>
	<g>
		<g>
			<path class="st4" d="M307.2,146.599c-3.866,0-7,3.134-7,7v204.801c0,3.866,3.134,7,7,7s7-3.134,7-7V153.599
				C314.2,149.734,311.066,146.599,307.2,146.599z"/>
		</g>
	</g>
	<g>
		<g>
			<rect x="219.357" y="216.743" class="st3" width="23.673" height="22.085"/>
		</g>
	</g>
	<g>
		<g>
			<rect x="270.557" y="216.743" class="st3" width="22.085" height="22.085"/>
		</g>
	</g>
	<g>
		<g>
			<rect x="165.482" y="216.743" class="st3" width="22.085" height="22.085"/>
		</g>
	</g>
	<g>
		<g>
			<rect x="324.237" y="216.743" class="st3" width="22.085" height="22.085"/>
		</g>
	</g>
	<g>
		<g>
			<rect x="219.357" y="160.313" class="st3" width="23.673" height="22.085"/>
		</g>
	</g>
	<g>
		<g>
			<rect x="270.557" y="160.313" class="st3" width="22.085" height="22.085"/>
		</g>
	</g>
	<g>
		<g>
			<rect x="219.357" y="270.557" class="st3" width="23.673" height="22.085"/>
		</g>
	</g>
	<g>
		<g>
			<rect x="270.557" y="270.557" class="st3" width="22.085" height="22.085"/>
		</g>
	</g>
	<g>
		<g>
			<rect x="165.482" y="270.557" class="st3" width="22.085" height="22.085"/>
		</g>
	</g>
	<g>
		<g>
			<rect x="324.237" y="270.557" class="st3" width="22.085" height="22.085"/>
		</g>
	</g>
	<g>
		<g>
			<rect x="219.357" y="321.757" class="st3" width="23.673" height="22.085"/>
		</g>
	</g>
	<g>
		<g>
			<rect x="270.557" y="321.757" class="st3" width="22.085" height="22.085"/>
		</g>
	</g>
	<g>
		<g>
			<g>
				<g>
					<path class="st4" d="M256,146.599c-60.324,0-109.401,49.077-109.401,109.401S195.676,365.401,256,365.401
						c60.323,0,109.4-49.077,109.4-109.401S316.323,146.599,256,146.599z M256,351.401c-52.604,0-95.401-42.797-95.401-95.401
						s42.797-95.401,95.401-95.401c52.604,0,95.4,42.797,95.4,95.401S308.604,351.401,256,351.401z"/>
				</g>
			</g>
		</g>
	</g>
</g>
</svg>
