<?xml version="1.0" encoding="utf-8"?>
<!-- Generator: Adobe Illustrator 21.1.0, SVG Export Plug-In . SVG Version: 6.00 Build 0)  -->
<svg version="1.1" id="Layer_1" xmlns="http://www.w3.org/2000/svg" xmlns:xlink="http://www.w3.org/1999/xlink" x="0px" y="0px"
	 viewBox="0 0 512 512" style="enable-background:new 0 0 512 512;" xml:space="preserve">
<style type="text/css">
	.st0{fill:#D6CD1E;}
	.st1{fill:#E56823;}
	.st2{fill:#FE8E46;}
	.st3{fill:#FEFE71;}
	.st4{fill:#463218;}
	.st5{fill:#7DAC51;}
	.st6{fill:#5B7C31;}
	.st7{fill:#FFFFFF;}
</style>
<g>
	<g>
		<g>
			<polygon class="st5" points="345.441,238.349 285.814,272.774 285.814,341.626 345.441,376.052 405.069,341.626 405.069,272.774 
							"/>
		</g>
	</g>
	<g>
		<g>
			<polygon class="st3" points="226.186,238.349 166.559,272.774 166.559,341.626 226.186,376.052 285.814,341.626 285.814,272.774 
							"/>
		</g>
	</g>
	<g>
		<g>
			<polygon class="st2" points="166.559,135.949 106.931,170.375 106.931,239.227 166.559,273.652 226.186,239.227 226.186,170.375 
							"/>
		</g>
	</g>
	<g>
		<g>
			<polygon class="st1" points="128.418,229.54 128.418,160.688 168.913,137.308 166.559,135.948 106.931,170.375 106.931,239.227 
				166.559,273.652 185.691,262.606 			"/>
		</g>
	</g>
	<g>
		<g>
			<polygon class="st0" points="188.315,331.94 188.315,263.088 228.81,239.708 226.456,238.349 166.828,272.775 166.828,341.626 
				226.456,376.053 245.588,365.007 			"/>
		</g>
	</g>
	<g>
		<g>
			<polygon class="st6" points="308.233,331.94 308.233,263.088 348.728,239.708 346.374,238.349 286.746,272.775 286.746,341.626 
				346.374,376.053 365.506,365.007 			"/>
		</g>
	</g>
	<g>
		<g>
			<g>
				<g>
					<path class="st4" d="M289.314,266.713l-59.627-34.426c-2.166-1.251-4.834-1.251-7,0l-59.628,34.426
						c-2.166,1.25-3.5,3.561-3.5,6.062v68.853c0,2.501,1.334,4.812,3.5,6.062l59.628,34.426c1.083,0.626,2.292,0.938,3.5,0.938
						s2.417-0.312,3.5-0.938l59.627-34.426c2.166-1.25,3.5-3.561,3.5-6.062v-68.853C292.814,270.273,291.48,267.963,289.314,266.713
						z M278.814,337.585l-52.627,30.385l-52.628-30.385v-60.769l52.628-30.385l52.627,30.385V337.585z"/>
				</g>
			</g>
		</g>
	</g>
	<g>
		<g>
			<g>
				<g>
					<path class="st4" d="M229.686,164.312l-59.627-34.426c-2.166-1.251-4.834-1.251-7,0l-59.627,34.426
						c-2.166,1.251-3.5,3.562-3.5,6.062v68.852c0,2.501,1.334,4.812,3.5,6.062l59.627,34.427c1.083,0.625,2.292,0.938,3.5,0.938
						s2.417-0.312,3.5-0.938l59.627-34.427c2.166-1.25,3.5-3.561,3.5-6.062v-68.852
						C233.186,167.874,231.852,165.563,229.686,164.312z M219.186,235.185l-52.627,30.385l-52.627-30.385v-60.769l52.627-30.385
						l52.627,30.385V235.185z"/>
				</g>
			</g>
		</g>
	</g>
	<g>
		<g>
			<path class="st4" d="M291.875,132.448c-1.933-3.348-6.214-4.495-9.562-2.562l-59.627,34.426c-2.166,1.251-3.5,3.562-3.5,6.062
				v68.852c0,3.866,3.134,7,7,7s7-3.134,7-7v-64.811l56.127-32.405C292.662,140.077,293.809,135.797,291.875,132.448z"/>
		</g>
	</g>
	<g>
		<g>
			<g>
				<g>
					<path class="st4" d="M408.569,266.713l-59.627-34.426c-2.166-1.251-4.834-1.251-7,0l-59.627,34.426
						c-2.166,1.25-3.5,3.561-3.5,6.062v68.853c0,2.501,1.334,4.812,3.5,6.062l59.627,34.426c1.083,0.626,2.292,0.938,3.5,0.938
						s2.417-0.312,3.5-0.938l59.627-34.426c2.166-1.25,3.5-3.561,3.5-6.062v-68.853
						C412.069,270.273,410.735,267.963,408.569,266.713z M398.069,337.585l-52.627,30.385l-52.627-30.385v-60.769l52.627-30.385
						l52.627,30.385V337.585z"/>
				</g>
			</g>
		</g>
	</g>
	<g>
		<g>
			<g>
				<path class="st4" d="M188.045,176.439h-42.973c-3.866,0-7,3.134-7,7s3.134,7,7,7h42.973c3.866,0,7-3.134,7-7
					S191.912,176.439,188.045,176.439z"/>
			</g>
		</g>
		<g>
			<g>
				<path class="st4" d="M166.559,176.439c-3.866,0-7,3.134-7,7v51.2c0,3.866,3.134,7,7,7s7-3.134,7-7v-51.2
					C173.559,179.573,170.425,176.439,166.559,176.439z"/>
			</g>
		</g>
	</g>
	<g>
		<g>
			<g>
				<path class="st4" d="M206.208,274.601c-3.866,0-7,3.134-7,7v51.2c0,3.866,3.134,7,7,7s7-3.134,7-7v-51.2
					C213.208,277.734,210.074,274.601,206.208,274.601z"/>
			</g>
		</g>
		<g>
			<g>
				<path class="st4" d="M246.165,274.601c-3.866,0-7,3.134-7,7v51.2c0,3.866,3.134,7,7,7s7-3.134,7-7v-51.2
					C253.165,277.734,250.031,274.601,246.165,274.601z"/>
			</g>
		</g>
		<g>
			<g>
				<path class="st4" d="M246.165,300.2h-39.957c-3.866,0-7,3.134-7,7s3.134,7,7,7h39.957c3.866,0,7-3.134,7-7
					S250.031,300.2,246.165,300.2z"/>
			</g>
		</g>
	</g>
	<g>
		<g>
			<path class="st4" d="M359.317,325.801h-7.591c-10.256,0-18.6-8.344-18.6-18.601c0-10.256,8.344-18.6,18.6-18.6h7.591
				c3.866,0,7-3.134,7-7s-3.134-7-7-7h-7.591c-17.976,0-32.6,14.624-32.6,32.6s14.625,32.601,32.6,32.601h7.591c3.866,0,7-3.134,7-7
				S363.184,325.801,359.317,325.801z"/>
		</g>
	</g>
	<g>
		<g>
			<rect x="376.306" y="281.601" class="st7" width="14" height="25.6"/>
		</g>
	</g>
</g>
</svg>
