<?xml version="1.0" encoding="utf-8"?>
<!-- Generator: Adobe Illustrator 22.0.0, SVG Export Plug-In . SVG Version: 6.00 Build 0)  -->
<svg version="1.1" id="Layer_1" xmlns="http://www.w3.org/2000/svg" xmlns:xlink="http://www.w3.org/1999/xlink" x="0px" y="0px"
	 viewBox="0 0 512 512" style="enable-background:new 0 0 512 512;" xml:space="preserve">
<style type="text/css">
	.st0{fill:#D6CD1E;}
	.st1{fill:#E56823;}
	.st2{fill:#FE8E46;}
	.st3{fill:#FEFE71;}
	.st4{fill:#463218;}
	.st5{fill:#7DAC51;}
	.st6{fill:#5B7C31;}
	.st7{fill:#FFFFFF;}
</style>
<g>
	<g>
		<path class="st6" d="M320.403,324.44c55.27-55.27,77.744-130.915,67.426-202.755c-75.416-10.821-154.7,14.59-210.027,75.025
			c-50.228,54.866-69.964,126.859-60.14,195.157C189.499,402.18,265.138,379.706,320.403,324.44z"/>
	</g>
	<g>
		<path class="st5" d="M320.403,324.44c55.27-55.27,77.744-130.915,67.426-202.755c0,0-90.499,38.584-168.483,116.568
			c-71.717,71.717-101.683,153.614-101.683,153.614C189.499,402.18,265.138,379.706,320.403,324.44z"/>
	</g>
	<g>
		<path class="st4" d="M151.569,401.277c-11.68,0-23.352-0.823-34.901-2.481c-3.075-0.441-5.491-2.857-5.934-5.932
			c-10.527-73.188,12.036-146.407,61.905-200.882c54.847-59.911,135.669-88.782,216.184-77.227c3.076,0.441,5.493,2.857,5.935,5.934
			c5.312,36.982,2.066,75.275-9.385,110.738c-12.008,37.185-32.201,70.144-60.02,97.963c-27.817,27.816-60.774,48.009-97.955,60.017
			C203.014,397.282,177.284,401.277,151.569,401.277z M123.897,385.629c33.246,3.99,67.428,0.716,99.198-9.544
			c35.051-11.319,66.124-30.36,92.357-56.595c26.236-26.235,45.278-57.312,56.598-92.364c10.26-31.773,13.535-65.956,9.541-99.204
			c-74.192-8.938-148.098,18.319-198.626,73.514C137.132,251.503,115.759,318.366,123.897,385.629z"/>
	</g>
	<g>
		<path class="st4" d="M151.569,401.277c-11.68,0-23.352-0.823-34.901-2.481c-2.089-0.3-3.931-1.526-5.014-3.338
			c-1.082-1.812-1.29-4.015-0.565-5.996c1.246-3.403,31.326-84.177,103.307-156.159c78.046-78.045,166.942-116.46,170.688-118.058
			c1.999-0.854,4.283-0.728,6.178,0.339c1.896,1.066,3.188,2.953,3.496,5.105c5.312,36.982,2.066,75.275-9.385,110.738
			c-12.008,37.185-32.201,70.144-60.02,97.963c-27.817,27.816-60.774,48.009-97.955,60.017
			C203.014,397.282,177.284,401.277,151.569,401.277z M127.586,386.041c32.083,3.332,64.913-0.074,95.51-9.956
			c35.051-11.319,66.124-30.36,92.357-56.595c26.236-26.235,45.278-57.312,56.598-92.364c9.834-30.455,13.25-63.126,10-95.063
			c-24.174,11.606-95.426,48.811-157.755,111.141C167.549,299.949,137.141,363.723,127.586,386.041z"/>
	</g>
	<g>
		<path class="st7" d="M305.79,266.812l-10.6-9.146c15.185-17.599,29.835-36.729,43.545-56.855l11.57,7.881
			C336.298,229.257,321.321,248.812,305.79,266.812z"/>
	</g>
	<g>
		<path class="st2" d="M222.506,167.729c3.802-3.706,1.704-10.162-3.549-10.924l-22.691-3.298c-2.086-0.302-3.889-1.612-4.823-3.503
			l-10.147-20.562c-2.349-4.76-9.137-4.76-11.487,0l-10.147,20.562c-0.933,1.891-2.736,3.201-4.822,3.503l-22.691,3.298
			c-5.253,0.763-7.351,7.218-3.55,10.924l16.419,16.004c1.51,1.471,2.199,3.591,1.843,5.67l-3.876,22.599
			c-0.897,5.232,4.594,9.222,9.293,6.752l20.295-10.67c1.866-0.982,4.095-0.982,5.961,0l20.295,10.67
			c4.699,2.47,10.191-1.52,9.293-6.752l-3.876-22.599c-0.356-2.078,0.332-4.199,1.842-5.67L222.506,167.729z"/>
	</g>
	<g>
		<path class="st4" d="M149.284,226.504c-2.769,0-5.518-0.867-7.867-2.574c-4.158-3.021-6.202-8.045-5.333-13.111l3.823-22.291
			l-16.194-15.786c-3.682-3.589-4.98-8.855-3.392-13.743s5.735-8.382,10.821-9.121l22.38-3.253l10.009-20.28
			c2.275-4.609,6.881-7.473,12.021-7.473c5.141,0,9.746,2.863,12.021,7.473l10.009,20.28l22.381,3.254
			c5.086,0.738,9.232,4.233,10.821,9.121s0.289,10.153-3.392,13.742c-0.001,0-0.001,0-0.001,0l-16.194,15.786l3.823,22.291
			c0.869,5.066-1.175,10.091-5.334,13.112c-4.158,3.021-9.569,3.411-14.116,1.019l-20.018-10.523l-20.018,10.524
			C153.556,225.99,151.414,226.504,149.284,226.504z M134.349,163.559l15.555,15.162c3.16,3.078,4.602,7.514,3.855,11.865
			l-3.673,21.411l19.229-10.109c3.904-2.053,8.57-2.054,12.477,0.001l19.227,10.108l-3.672-21.41
			c-0.746-4.353,0.695-8.788,3.856-11.868l15.554-15.16l-21.497-3.126c-4.363-0.631-8.139-3.372-10.093-7.332l-9.613-19.48
			l-9.614,19.48c-1.952,3.959-5.727,6.701-10.098,7.333L134.349,163.559z M222.506,167.729h0.01H222.506z M217.619,162.716
			c0,0.001-0.001,0.002-0.002,0.002L217.619,162.716L217.619,162.716z"/>
	</g>
	<g>
		<path class="st3" d="M385.759,365.055V228.801h-33.817c-4.587,26.44-38.752,72.569-38.752,72.569h36.284
			c0,0-0.46,31.946-0.355,63.685h-26.844v36.853H409.6v-36.853H385.759z"/>
	</g>
	<g>
		<path class="st4" d="M409.6,408.907h-87.323c-3.866,0-7-3.134-7-7v-36.853c0-3.866,3.134-7,7-7h20.198v-49.686H313.19
			c-2.698,0-5.156-1.551-6.317-3.985c-1.162-2.436-0.821-5.321,0.876-7.418c0.298-0.369,29.988-37.367,37.369-69.722
			c0.726-3.185,3.558-5.443,6.824-5.443h33.817c3.866,0,7,3.134,7,7v129.254h16.84c3.866,0,7,3.134,7,7v36.853
			C416.6,405.773,413.466,408.907,409.6,408.907z M329.276,394.907H402.6v-22.853h-16.84c-3.866,0-7-3.134-7-7V235.801H357.36
			c-6.483,22.537-20.912,45.353-30.223,58.568h22.337c3.866,0,7,3.134,7,7v63.686c0,3.866-3.134,7-7,7h-20.198V394.907z"/>
	</g>
</g>
</svg>
