<?xml version="1.0" encoding="utf-8"?>
<!-- Generator: Adobe Illustrator 21.1.0, SVG Export Plug-In . SVG Version: 6.00 Build 0)  -->
<svg version="1.1" id="Layer_1" xmlns="http://www.w3.org/2000/svg" xmlns:xlink="http://www.w3.org/1999/xlink" x="0px" y="0px"
	 viewBox="0 0 512 512" style="enable-background:new 0 0 512 512;" xml:space="preserve">
<style type="text/css">
	.st0{fill:#D6CD1E;}
	.st1{fill:#E56823;}
	.st2{fill:#FE8E46;}
	.st3{fill:#FEFE71;}
	.st4{fill:#463218;}
	.st5{fill:#7DAC51;}
	.st6{fill:#5B7C31;}
	.st7{fill:#FFFFFF;}
</style>
<g>
	<g>
		<g>
			<polygon class="st3" points="225.033,284.392 126.846,406.792 136.189,416.136 258.59,317.949 			"/>
		</g>
	</g>
	<g>
		<g>
			<polygon class="st0" points="225.033,284.392 126.846,406.792 131.343,411.289 241.636,300.995 			"/>
		</g>
	</g>
	<g>
		<g>
			<path class="st5" d="M265.501,277.48l-0.001-0.001c0,0-46.17-33.787-63.669-16.288l79.958,79.958
				C299.289,323.65,265.501,277.48,265.501,277.48z"/>
		</g>
	</g>
	<g>
		<g>
			<path class="st6" d="M265.501,277.48l-0.001-0.001c0,0-46.17-33.787-63.669-16.288l29.627,29.627
				c10.276-10.276,30.435-2.866,45.33,5.001C271.258,285.35,265.501,277.48,265.501,277.48z"/>
		</g>
	</g>
	<g>
		<g>
			<path class="st5" d="M265.5,206.565c-19.583,19.583-19.583,51.332,0,70.914c19.582,19.583,51.332,19.583,70.914,0
				c19.582-19.583,48.74-119.653,48.74-119.653S285.083,186.982,265.5,206.565z"/>
		</g>
	</g>
	<g>
		<g>
			<path class="st6" d="M383.558,163.173c1.028-3.399,1.596-5.348,1.596-5.348s-100.072,29.158-119.654,48.74
				c-19.583,19.583-19.583,51.332,0,70.914c17.912,17.912,45.996,19.429,65.645,4.574c-8.585-2.112-16.722-6.521-23.431-13.229
				c-19.582-19.582-19.582-51.332,0-70.914C318.55,187.074,354.025,173.31,383.558,163.173z"/>
		</g>
	</g>
	<g>
		<g>
			<g>
				<g>
					<path class="st4" d="M390.104,152.875c-1.808-1.807-4.453-2.486-6.908-1.771c-10.419,3.036-102.379,30.245-122.646,50.511
						c-22.279,22.28-22.279,58.533,0,80.813c10.793,10.793,25.144,16.737,40.407,16.737s29.614-5.944,40.407-16.737
						c20.266-20.266,47.474-112.226,50.51-122.646C392.589,157.33,391.911,154.682,390.104,152.875z M331.464,272.529
						c-8.148,8.149-18.982,12.637-30.507,12.637s-22.358-4.488-30.507-12.637c-16.821-16.822-16.821-44.193,0-61.015
						c13.117-13.118,71.455-33.072,104.239-43.225C364.54,201.072,344.587,259.407,331.464,272.529z"/>
				</g>
			</g>
		</g>
	</g>
	<g>
		<g>
			<path class="st2" d="M333.208,174.663l35.109,35.109c9.642-27.253,16.837-51.947,16.837-51.947S360.461,165.021,333.208,174.663z
				"/>
		</g>
	</g>
	<g>
		<g>
			<g>
				<g>
					<path class="st4" d="M390.103,152.875c-1.806-1.807-4.456-2.486-6.907-1.771c-0.249,0.073-25.197,7.362-52.323,16.959
						c-2.266,0.801-3.962,2.709-4.492,5.053c-0.531,2.344,0.178,4.796,1.877,6.496l35.109,35.109c1.328,1.328,3.114,2.05,4.95,2.05
						c0.515,0,1.033-0.057,1.546-0.173c2.344-0.531,4.252-2.227,5.054-4.493c9.596-27.126,16.886-52.074,16.958-52.323
						C392.589,157.33,391.911,154.682,390.103,152.875z M365.365,196.92l-19.306-19.306c11.057-3.762,21.172-6.986,28.597-9.291
						C372.351,175.747,369.127,185.861,365.365,196.92z"/>
				</g>
			</g>
		</g>
	</g>
	<g>
		<g>
			<g>
				<g>
					<path class="st4" d="M270.451,272.529c-0.254-0.254-0.526-0.487-0.816-0.699c-5.222-3.821-51.626-36.718-72.752-15.589
						c-1.313,1.312-2.051,3.093-2.051,4.95s0.737,3.637,2.05,4.95l79.96,79.958c1.312,1.313,3.093,2.05,4.949,2.05
						s3.637-0.737,4.95-2.05C309.179,323.659,270.9,272.979,270.451,272.529z M279.777,329.236l-66.032-66.032
						c13.006-1.267,35.305,11.129,46.742,19.29C268.648,293.931,281.035,316.221,279.777,329.236z"/>
				</g>
			</g>
		</g>
	</g>
	<g>
		<g>
			<g>
				<g>
					<path class="st4" d="M263.54,312.999l-33.557-33.557c-1.406-1.407-3.334-2.149-5.333-2.04c-1.986,0.109-3.833,1.058-5.077,2.61
						l-98.187,122.401c-2.234,2.785-2.015,6.805,0.51,9.33l9.343,9.343c1.359,1.359,3.151,2.05,4.952,2.05
						c1.543,0,3.093-0.508,4.378-1.54l122.401-98.187c1.552-1.245,2.501-3.091,2.609-5.078
						C265.689,316.345,264.947,314.406,263.54,312.999z M136.703,406.75l-0.471-0.471l89.374-111.415l22.512,22.511L136.703,406.75z
						"/>
				</g>
			</g>
		</g>
	</g>
	<g>
		<g>
			
				<rect x="324.293" y="217.014" transform="matrix(0.3519 -0.936 0.936 0.3519 9.5356 461.7986)" class="st7" width="27.925" height="13.999"/>
		</g>
	</g>
	<g>
		<g>
			<path class="st4" d="M254.157,163.736c9.227-9.228,9.227-24.241,0-33.467c-2.734-2.733-7.166-2.733-9.9,0
				c-2.733,2.733-2.733,7.166,0,9.899c3.769,3.768,3.769,9.9,0,13.668c-9.226,9.227-9.226,24.241,0,33.468
				c1.367,1.367,3.158,2.05,4.95,2.05c1.791,0,3.583-0.684,4.949-2.05c2.734-2.733,2.734-7.166,0.001-9.899
				C250.388,173.636,250.388,167.504,254.157,163.736z"/>
		</g>
	</g>
	<g>
		<g>
			<path class="st4" d="M285.536,114.482c-3.769-3.769-3.769-9.9,0-13.668c2.733-2.733,2.733-7.166,0-9.899
				c-2.734-2.733-7.166-2.733-9.9,0c-9.227,9.227-9.227,24.24,0,33.467c3.769,3.769,3.769,9.9,0,13.669
				c-2.733,2.734-2.733,7.166,0.001,9.899c1.366,1.367,3.158,2.05,4.949,2.05s3.583-0.684,4.95-2.05
				C294.761,138.723,294.761,123.709,285.536,114.482z"/>
		</g>
	</g>
</g>
</svg>
