<?xml version="1.0" encoding="utf-8"?>
<!-- Generator: Adobe Illustrator 21.1.0, SVG Export Plug-In . SVG Version: 6.00 Build 0)  -->
<svg version="1.1" id="Layer_1" xmlns="http://www.w3.org/2000/svg" xmlns:xlink="http://www.w3.org/1999/xlink" x="0px" y="0px"
	 viewBox="0 0 512 512" style="enable-background:new 0 0 512 512;" xml:space="preserve">
<style type="text/css">
	.st0{fill:#D6CD1E;}
	.st1{fill:#E56823;}
	.st2{fill:#FE8E46;}
	.st3{fill:#FEFE71;}
	.st4{fill:#463218;}
	.st5{fill:#7DAC51;}
	.st6{fill:#5B7C31;}
	.st7{fill:#FFFFFF;}
</style>
<g>
	<g>
		<g>
			
				<rect x="387.034" y="97.076" transform="matrix(0.7071 -0.7071 0.7071 0.7071 37.7847 315.5697)" class="st2" width="25.583" height="30.196"/>
		</g>
	</g>
	<g>
		<g>
			
				<rect x="153.836" y="266.949" transform="matrix(0.7071 -0.7071 0.7071 0.7071 -147.8095 198.4489)" class="st5" width="23.621" height="21.399"/>
		</g>
	</g>
	<g>
		<g>
			
				<rect x="347.079" y="113.721" transform="matrix(0.7071 -0.7071 0.7071 0.7071 10.6414 304.3324)" class="st5" width="51.2" height="51.2"/>
		</g>
	</g>
	<g>
		<g>
			
				<rect x="336.359" y="118.161" transform="matrix(0.7071 -0.7071 0.7071 0.7071 15.0816 293.6125)" class="st6" width="51.2" height="20.88"/>
		</g>
	</g>
	<g>
		<g>
			
				<rect x="70.505" y="237.221" transform="matrix(0.7071 -0.7071 0.7071 0.7071 -125.1416 248.0871)" class="st2" width="332.784" height="75.765"/>
		</g>
	</g>
	<g>
		<g>
			
				<rect x="51.305" y="245.173" transform="matrix(0.7071 -0.7071 0.7071 0.7071 -117.1887 228.8872)" class="st1" width="332.784" height="21.459"/>
		</g>
	</g>
	<g>
		<g>
			<g>
				<g>
					<path class="st4" d="M386.29,179.282l-53.573-53.573c-2.734-2.732-7.166-2.732-9.9,0L87.503,361.022
						c-2.733,2.734-2.733,7.166,0,9.9l53.573,53.573c1.367,1.366,3.159,2.05,4.95,2.05s3.583-0.684,4.95-2.05L386.29,189.183
						C389.023,186.448,389.023,182.017,386.29,179.282z M146.026,409.646l-43.674-43.674l225.414-225.414l43.674,43.674
						L146.026,409.646z"/>
				</g>
			</g>
		</g>
	</g>
	<g>
		<g>
			
				<rect x="210.322" y="203.986" transform="matrix(0.7071 -0.7071 0.7071 0.7071 -91.9066 261.8546)" class="st5" width="119.619" height="75.765"/>
		</g>
	</g>
	<g>
		<g>
			<g>
				<g>
					<path class="st4" d="M344.16,221.414l-53.573-53.574c-1.313-1.313-3.094-2.051-4.95-2.051s-3.637,0.737-4.95,2.05
						l-84.583,84.584c-2.733,2.734-2.733,7.166,0,9.9l53.573,53.573c1.367,1.366,3.159,2.05,4.95,2.05s3.583-0.684,4.95-2.05
						l84.583-84.583C346.894,228.579,346.894,224.147,344.16,221.414z M254.627,301.047l-43.674-43.674l74.684-74.685l43.674,43.675
						L254.627,301.047z"/>
				</g>
			</g>
		</g>
	</g>
	<g>
		<g>
			<g>
				<g>
					<path class="st4" d="M413.833,134.371l-36.204-36.204c-2.734-2.732-7.166-2.732-9.9,0l-36.204,36.204
						c-1.312,1.313-2.05,3.094-2.05,4.95s0.737,3.637,2.051,4.95l36.204,36.203c1.366,1.366,3.158,2.05,4.949,2.05
						s3.583-0.684,4.949-2.05l36.204-36.203c1.313-1.313,2.051-3.094,2.051-4.95S415.146,135.685,413.833,134.371z M372.679,165.625
						l-26.305-26.304l26.305-26.305l26.305,26.305L372.679,165.625z"/>
				</g>
			</g>
		</g>
	</g>
	<g>
		<g>
			
				<rect x="210.322" y="225.445" transform="matrix(0.7071 -0.7071 0.7071 0.7071 -91.9068 261.8542)" class="st3" width="119.62" height="32.847"/>
		</g>
	</g>
	<g>
		<g>
			<g>
				<g>
					<path class="st4" d="M328.987,206.239l-23.227-23.227c-2.732-2.731-7.164-2.732-9.9,0l-84.584,84.583
						c-1.312,1.313-2.05,3.094-2.05,4.95s0.737,3.637,2.05,4.95l23.227,23.227c1.367,1.366,3.158,2.05,4.95,2.05
						c1.791,0,3.583-0.684,4.95-2.05l84.584-84.583c1.312-1.313,2.05-3.094,2.05-4.95S330.3,207.553,328.987,206.239z
						 M239.453,285.873l-13.327-13.327l74.685-74.684l13.327,13.327L239.453,285.873z"/>
				</g>
			</g>
		</g>
	</g>
	<g>
		<g>
			<g>
				<g>
					<path class="st4" d="M186.514,271.912l-15.131-15.131c-2.733-2.73-7.166-2.732-9.899,0l-16.703,16.702
						c-1.313,1.313-2.051,3.094-2.051,4.95s0.737,3.637,2.05,4.95l15.132,15.132c1.313,1.312,3.094,2.05,4.95,2.05
						s3.637-0.737,4.95-2.051l16.702-16.703C189.247,279.078,189.247,274.646,186.514,271.912z M164.861,283.666l-5.232-5.232
						l6.804-6.803l5.231,5.231L164.861,283.666z"/>
				</g>
			</g>
		</g>
	</g>
	<g>
		<g>
			
				<rect x="197.927" y="314.739" transform="matrix(0.7071 -0.7071 0.7071 0.7071 -166.0707 242.5308)" class="st7" width="23.621" height="14"/>
		</g>
	</g>
	<g>
		<g>
			<g>
				<g>
					<path class="st4" d="M424.497,108.854l-21.352-21.352c-2.732-2.731-7.165-2.732-9.899,0l-18.091,18.09
						c-1.313,1.313-2.051,3.094-2.051,4.95s0.737,3.637,2.05,4.95l21.352,21.352c1.367,1.366,3.158,2.05,4.95,2.05
						c1.791,0,3.583-0.684,4.949-2.05l18.091-18.09c1.313-1.313,2.051-3.094,2.051-4.95S425.81,110.168,424.497,108.854z
						 M401.456,121.995l-11.452-11.452l8.191-8.19l11.452,11.452L401.456,121.995z"/>
				</g>
			</g>
		</g>
	</g>
</g>
</svg>
