<?xml version="1.0" encoding="utf-8"?>
<!-- Generator: Adobe Illustrator 21.1.0, SVG Export Plug-In . SVG Version: 6.00 Build 0)  -->
<svg version="1.1" id="Layer_1" xmlns="http://www.w3.org/2000/svg" xmlns:xlink="http://www.w3.org/1999/xlink" x="0px" y="0px"
	 viewBox="0 0 512 512" style="enable-background:new 0 0 512 512;" xml:space="preserve">
<style type="text/css">
	.st0{fill:#D6CD1E;}
	.st1{fill:#E56823;}
	.st2{fill:#FE8E46;}
	.st3{fill:#FEFE71;}
	.st4{fill:#463218;}
	.st5{fill:#7DAC51;}
	.st6{fill:#5B7C31;}
	.st7{fill:#FFFFFF;}
</style>
<g>
	<g>
		<g>
			<rect x="279.672" y="87.121" class="st2" width="53.831" height="55.672"/>
		</g>
	</g>
	<g>
		<g>
			<rect x="279.672" y="87.121" class="st1" width="25.681" height="55.672"/>
		</g>
	</g>
	<g>
		<g>
			<rect x="267.687" y="142.793" class="st3" width="76.8" height="105.303"/>
		</g>
	</g>
	<g>
		<g>
			<rect x="267.687" y="142.793" class="st2" width="76.8" height="26.086"/>
		</g>
	</g>
	<g>
		<g>
			<rect x="167.513" y="271.279" class="st1" width="23.374" height="51.2"/>
		</g>
	</g>
	<g>
		<g>
			<rect x="167.513" y="344.451" class="st1" width="23.374" height="51.199"/>
		</g>
	</g>
	<g>
		<g>
			<path class="st3" d="M217.772,248.096c-14.848,0-26.885,12.037-26.885,26.886v149.897h153.6V248.096H217.772z"/>
		</g>
	</g>
	<g>
		<g>
			<path class="st0" d="M304.515,307.26c-14.848,0-26.885,12.037-26.885,26.885v90.734h66.857V307.26H304.515z"/>
		</g>
	</g>
	<g>
		<g>
			<path class="st0" d="M217.772,248.096c-14.848,0-26.885,12.037-26.885,26.886v149.897h29.819V298.165
				c0-14.849,12.037-26.886,26.885-26.886h96.896v-23.184H217.772z"/>
		</g>
	</g>
	<g>
		<g>
			<g>
				<g>
					<path class="st4" d="M344.487,135.793h-76.8c-3.866,0-7,3.135-7,7v105.303c0,3.867,3.134,7,7,7h76.8c3.866,0,7-3.133,7-7
						V142.793C351.487,138.928,348.353,135.793,344.487,135.793z M337.487,241.096h-62.8v-91.303h62.8V241.096z"/>
				</g>
			</g>
		</g>
	</g>
	<g>
		<g>
			<g>
				<g>
					<path class="st4" d="M344.487,135.793h-76.8c-3.866,0-7,3.135-7,7v26.086c0,3.867,3.134,7,7,7h76.8c3.866,0,7-3.133,7-7
						v-26.086C351.487,138.928,348.353,135.793,344.487,135.793z M337.487,161.879h-62.8v-12.086h62.8V161.879z"/>
				</g>
			</g>
		</g>
	</g>
	<g>
		<g>
			<rect x="289.202" y="168.879" class="st5" width="32.302" height="79.217"/>
		</g>
	</g>
	<g>
		<g>
			<g>
				<g>
					<path class="st4" d="M321.504,161.879h-32.302c-3.866,0-7,3.135-7,7v79.217c0,3.867,3.134,7,7,7h32.302c3.866,0,7-3.133,7-7
						v-79.217C328.504,165.014,325.37,161.879,321.504,161.879z M314.504,241.096h-18.302v-65.217h18.302V241.096z"/>
				</g>
			</g>
		</g>
	</g>
	<g>
		<g>
			<g>
				<g>
					<path class="st4" d="M333.503,80.121h-53.831c-3.866,0-7,3.133-7,7v55.672c0,3.867,3.134,7,7,7h53.831c3.866,0,7-3.133,7-7
						V87.121C340.503,83.254,337.369,80.121,333.503,80.121z M326.503,135.793h-39.831V94.121h39.831V135.793z"/>
				</g>
			</g>
		</g>
	</g>
	<g>
		<g>
			<g>
				<g>
					<path class="st4" d="M344.487,241.096H217.772c-18.685,0-33.886,15.201-33.886,33.887v149.896c0,3.867,3.134,7,7,7h153.6
						c3.866,0,7-3.133,7-7V248.096C351.487,244.23,348.353,241.096,344.487,241.096z M337.487,417.879h-139.6V274.982
						c0-10.965,8.921-19.887,19.886-19.887h119.714V417.879z"/>
				</g>
			</g>
		</g>
	</g>
	<g>
		<g>
			<g>
				<g>
					<path class="st4" d="M190.887,264.279h-23.374c-3.866,0-7,3.133-7,7v51.199c0,3.867,3.134,7,7,7h23.374c3.866,0,7-3.133,7-7
						v-51.199C197.887,267.412,194.753,264.279,190.887,264.279z M183.887,315.479h-9.374v-37.199h9.374V315.479z"/>
				</g>
			</g>
		</g>
	</g>
	<g>
		<g>
			<g>
				<g>
					<path class="st4" d="M190.887,337.451h-23.374c-3.866,0-7,3.133-7,7v51.199c0,3.867,3.134,7,7,7h23.374c3.866,0,7-3.133,7-7
						v-51.199C197.887,340.584,194.753,337.451,190.887,337.451z M183.887,388.65h-9.374v-37.199h9.374V388.65z"/>
				</g>
			</g>
		</g>
	</g>
	<g>
		<g>
			<rect x="309.703" y="104.352" class="st7" width="14" height="16.395"/>
		</g>
	</g>
</g>
</svg>
