<?xml version="1.0" encoding="utf-8"?>
<!-- Generator: Adobe Illustrator 21.1.0, SVG Export Plug-In . SVG Version: 6.00 Build 0)  -->
<svg version="1.1" id="Layer_1" xmlns="http://www.w3.org/2000/svg" xmlns:xlink="http://www.w3.org/1999/xlink" x="0px" y="0px"
	 viewBox="0 0 512 512" style="enable-background:new 0 0 512 512;" xml:space="preserve">
<style type="text/css">
	.st0{fill:#D6CD1E;}
	.st1{fill:#E56823;}
	.st2{fill:#FE8E46;}
	.st3{fill:#FEFE71;}
	.st4{fill:#463218;}
	.st5{fill:#7DAC51;}
	.st6{fill:#5B7C31;}
	.st7{fill:#FFFFFF;}
</style>
<g>
	<g>
		<g>
			<path class="st5" d="M342.229,116.413c-14.25,26.956-22.682,60.33-22.682,96.471c0,36.141,8.433,69.515,22.682,96.471
				c14.25-26.956,22.682-60.33,22.682-96.471C364.911,176.743,356.479,143.369,342.229,116.413z"/>
		</g>
	</g>
	<g>
		<g>
			<path class="st6" d="M342.229,116.413c-14.25,26.956-22.682,60.33-22.682,96.471c0,36.141,8.433,69.515,22.682,96.471
				C343.242,307.439,342.229,116.413,342.229,116.413z"/>
		</g>
	</g>
	<g>
		<g>
			<path class="st5" d="M302.202,244.719c-19.605-19.605-42.283-33.135-64.636-40.027c6.893,22.353,20.422,45.031,40.027,64.636
				c19.605,19.605,42.283,33.135,64.636,40.027C335.336,287.002,321.807,264.324,302.202,244.719z"/>
		</g>
	</g>
	<g>
		<g>
			<path class="st6" d="M342.04,308.774L237.566,204.691c6.893,22.353,20.422,45.031,40.027,64.636
				c19.605,19.605,42.283,33.135,64.636,40.027C342.17,309.161,342.1,308.967,342.04,308.774z"/>
		</g>
	</g>
	<g>
		<g>
			<path class="st5" d="M289.897,297.051c-19.605,0-37.709,4.574-52.332,12.304c14.623,7.73,32.727,12.304,52.332,12.304
				c19.605,0,37.709-4.574,52.332-12.304C327.607,301.625,309.502,297.051,289.897,297.051z"/>
		</g>
	</g>
	<g>
		<g>
			<path class="st6" d="M237.566,309.355c14.623,7.73,32.727,12.304,52.332,12.304c19.605,0,37.709-4.574,52.332-12.304H237.566z"/>
		</g>
	</g>
	<g>
		<g>
			<g>
				<g>
					<path class="st4" d="M348.417,113.142c-1.213-2.293-3.594-3.729-6.188-3.729s-4.977,1.435-6.188,3.729
						c-15.369,29.076-23.493,63.566-23.493,99.742s8.124,70.667,23.493,99.742c1.212,2.293,3.594,3.729,6.188,3.729
						s4.976-1.435,6.188-3.729c15.37-29.075,23.494-63.565,23.494-99.742S363.787,142.217,348.417,113.142z M342.229,293.081
						c-10.29-24.138-15.682-51.571-15.682-80.197s5.392-56.059,15.682-80.197c10.29,24.138,15.683,51.571,15.683,80.197
						S352.519,268.943,342.229,293.081z"/>
				</g>
			</g>
		</g>
	</g>
	<g>
		<g>
			<g>
				<g>
					<path class="st4" d="M348.918,307.292c-7.513-24.364-21.956-47.712-41.767-67.523c-19.812-19.812-43.16-34.254-67.523-41.767
						c-2.478-0.765-5.178-0.095-7.013,1.739c-1.834,1.834-2.504,4.533-1.74,7.012c7.512,24.362,21.955,47.711,41.767,67.523
						c0,0,0,0,0.001,0c19.812,19.812,43.161,34.255,67.522,41.767c0.678,0.209,1.373,0.311,2.062,0.311
						c1.829,0,3.618-0.718,4.951-2.05C349.013,312.47,349.683,309.771,348.918,307.292z M282.542,264.378L282.542,264.378
						c-14.358-14.359-25.628-30.675-33.106-47.816c17.142,7.479,33.458,18.749,47.816,33.107
						c14.357,14.357,25.628,30.674,33.106,47.816C313.218,290.006,296.902,278.736,282.542,264.378z"/>
				</g>
			</g>
		</g>
	</g>
	<g>
		<g>
			<g>
				<g>
					<path class="st4" d="M345.5,303.166c-16.23-8.581-35.458-13.116-55.603-13.116s-39.372,4.535-55.604,13.116
						c-2.293,1.212-3.729,3.594-3.729,6.188s1.435,4.976,3.729,6.188c16.231,8.581,35.459,13.116,55.604,13.116
						s39.372-4.535,55.603-13.116c2.294-1.212,3.729-3.594,3.729-6.188S347.794,304.379,345.5,303.166z M289.898,314.659
						c-12.069,0-23.724-1.812-34.4-5.304c10.677-3.492,22.331-5.304,34.4-5.304s23.724,1.812,34.399,5.304
						C313.621,312.847,301.967,314.659,289.898,314.659z"/>
				</g>
			</g>
		</g>
	</g>
	<g>
		<g>
			<path class="st5" d="M384.286,244.719c-19.605,19.605-33.135,42.283-40.027,64.636c22.353-6.893,45.031-20.422,64.636-40.027
				c19.605-19.605,33.135-42.283,40.027-64.636C426.57,211.584,403.891,225.114,384.286,244.719z"/>
		</g>
	</g>
	<g>
		<g>
			<path class="st6" d="M344.449,308.774c-0.061,0.193-0.13,0.387-0.19,0.581c22.353-6.893,45.031-20.423,64.636-40.027
				c19.605-19.605,33.135-42.283,40.027-64.636L344.449,308.774z"/>
		</g>
	</g>
	<g>
		<g>
			<path class="st5" d="M396.591,297.051c-19.605,0-37.709,4.574-52.332,12.304c14.623,7.73,32.727,12.304,52.332,12.304
				s37.709-4.574,52.332-12.304C434.3,301.625,416.196,297.051,396.591,297.051z"/>
		</g>
	</g>
	<g>
		<g>
			<path class="st6" d="M344.259,309.355c14.623,7.73,32.727,12.304,52.332,12.304s37.709-4.574,52.332-12.304H344.259z"/>
		</g>
	</g>
	<g>
		<g>
			<g>
				<g>
					<path class="st4" d="M453.871,199.741c-1.834-1.834-4.533-2.506-7.012-1.739c-24.363,7.513-47.712,21.956-67.523,41.767
						c-19.812,19.812-34.254,43.161-41.767,67.523c-0.765,2.479-0.095,5.178,1.739,7.012c1.333,1.333,3.122,2.05,4.951,2.05
						c0.688,0,1.384-0.102,2.062-0.311c24.363-7.512,47.712-21.955,67.522-41.767c19.812-19.811,34.255-43.161,41.768-67.523
						C456.376,204.275,455.706,201.576,453.871,199.741z M403.946,264.378C403.945,264.378,403.945,264.378,403.946,264.378
						c-14.358,14.358-30.675,25.628-47.816,33.107c7.479-17.141,18.748-33.458,33.107-47.816
						c14.357-14.358,30.674-25.628,47.815-33.107C429.573,233.703,418.304,250.02,403.946,264.378z"/>
				</g>
			</g>
		</g>
	</g>
	<g>
		<g>
			<g>
				<g>
					<path class="st4" d="M452.194,303.166c-16.23-8.581-35.458-13.116-55.603-13.116c-20.146,0-39.373,4.535-55.604,13.116
						c-2.294,1.212-3.729,3.594-3.729,6.188s1.435,4.976,3.729,6.188c16.23,8.581,35.458,13.116,55.604,13.116
						c20.145,0,39.372-4.535,55.603-13.116c2.294-1.212,3.729-3.594,3.729-6.188S454.488,304.379,452.194,303.166z M396.591,314.659
						c-12.07,0-23.725-1.812-34.4-5.304c10.676-3.492,22.33-5.304,34.4-5.304c12.069,0,23.724,1.812,34.399,5.304
						C420.315,312.847,408.66,314.659,396.591,314.659z"/>
				</g>
			</g>
		</g>
	</g>
	<g>
		<g>
			<polygon class="st2" points="266.444,321.436 293.792,423.836 392.696,423.836 420.044,321.436 			"/>
		</g>
	</g>
	<g>
		<g>
			<polygon class="st1" points="311.574,321.436 266.444,321.436 293.792,423.836 338.922,423.836 			"/>
		</g>
	</g>
	<g>
		<g>
			<g>
				<g>
					<path class="st4" d="M425.596,317.173c-1.325-1.725-3.377-2.736-5.552-2.736H266.444c-2.175,0-4.227,1.011-5.552,2.736
						s-1.772,3.968-1.211,6.07l27.349,102.4c0.817,3.063,3.593,5.194,6.763,5.194h98.904c3.17,0,5.945-2.131,6.763-5.194
						l27.348-102.4C427.368,321.141,426.921,318.898,425.596,317.173z M387.321,416.836h-88.152l-23.609-88.4h135.37
						L387.321,416.836z"/>
				</g>
			</g>
		</g>
	</g>
	<g>
		<g>
			<rect x="250.643" y="321.436" class="st3" width="185.201" height="32.942"/>
		</g>
	</g>
	<g>
		<g>
			<rect x="250.643" y="321.436" class="st0" width="64.729" height="32.942"/>
		</g>
	</g>
	<g>
		<g>
			<g>
				<g>
					<path class="st4" d="M435.845,314.436H250.644c-3.866,0-7,3.134-7,7v32.941c0,3.866,3.134,7,7,7h185.201c3.866,0,7-3.134,7-7
						v-32.941C442.845,317.57,439.711,314.436,435.845,314.436z M428.845,347.378H257.644v-18.941h171.201V347.378z"/>
				</g>
			</g>
		</g>
	</g>
	<g>
		<g>
			
				<rect x="322.12" y="372.128" transform="matrix(0.9661 -0.258 0.258 0.9661 -88.747 98.0329)" class="st7" width="13.999" height="30.007"/>
		</g>
	</g>
	<g>
		<g>
			<path class="st5" d="M139.585,216.5c-10.417,19.705-16.581,44.101-16.581,70.519c0,26.418,6.164,50.814,16.581,70.519
				c10.416-19.705,16.58-44.101,16.58-70.519C156.166,260.6,150.002,236.204,139.585,216.5z"/>
		</g>
	</g>
	<g>
		<g>
			<path class="st6" d="M139.585,216.5c-10.417,19.705-16.581,44.101-16.581,70.519c0,26.418,6.164,50.814,16.581,70.519
				C140.326,356.137,139.585,216.5,139.585,216.5z"/>
		</g>
	</g>
	<g>
		<g>
			<path class="st5" d="M110.326,310.289c-14.331-14.331-30.909-24.221-47.248-29.26c5.039,16.34,14.929,32.917,29.26,47.248
				s30.909,24.221,47.248,29.26C134.547,341.198,124.657,324.62,110.326,310.289z"/>
		</g>
	</g>
	<g>
		<g>
			<path class="st6" d="M139.447,357.113L63.078,281.03c5.039,16.34,14.929,32.917,29.26,47.248s30.909,24.221,47.248,29.26
				C139.542,357.396,139.491,357.254,139.447,357.113z"/>
		</g>
	</g>
	<g>
		<g>
			<g>
				<g>
					<path class="st4" d="M145.774,213.228c-1.212-2.293-3.594-3.729-6.188-3.729s-4.976,1.435-6.188,3.729
						c-11.378,21.523-17.392,47.04-17.392,73.791s6.014,52.267,17.392,73.791c1.212,2.293,3.594,3.729,6.188,3.729
						s4.976-1.435,6.188-3.729c11.378-21.523,17.392-47.04,17.392-73.791S157.152,234.751,145.774,213.228z M139.585,340.631
						c-6.295-16.35-9.581-34.611-9.581-53.613s3.285-37.263,9.581-53.613c6.295,16.35,9.581,34.611,9.581,53.613
						S145.881,324.281,139.585,340.631z"/>
				</g>
			</g>
		</g>
	</g>
	<g>
		<g>
			<g>
				<g>
					<path class="st4" d="M146.275,355.475c-5.581-18.1-16.3-35.436-30.999-50.135c-14.699-14.699-32.036-25.418-50.136-30.999
						c-2.476-0.763-5.177-0.095-7.012,1.74c-1.834,1.834-2.504,4.533-1.739,7.012c5.582,18.101,16.301,35.437,30.999,50.135
						c14.699,14.699,32.035,25.418,50.135,30.999c0.678,0.209,1.373,0.311,2.062,0.311c1.829,0,3.618-0.718,4.95-2.05
						C146.369,360.653,147.039,357.954,146.275,355.475z M97.287,323.328c-9.021-9.021-16.344-19.109-21.634-29.723
						c10.613,5.289,20.702,12.612,29.723,21.633c9.021,9.021,16.345,19.11,21.633,29.723
						C116.396,339.673,106.308,332.35,97.287,323.328z"/>
				</g>
			</g>
		</g>
	</g>
	<g>
		<g>
			<path class="st5" d="M170.329,310.289c-14.331,14.331-24.221,30.909-29.26,47.248c16.34-5.039,32.917-14.929,47.248-29.26
				c14.331-14.331,24.221-30.909,29.26-47.248C201.237,286.068,184.66,295.958,170.329,310.289z"/>
		</g>
	</g>
	<g>
		<g>
			<path class="st6" d="M141.208,357.113c-0.044,0.141-0.095,0.283-0.139,0.425c16.34-5.039,32.917-14.929,47.248-29.26
				s24.221-30.909,29.26-47.248L141.208,357.113z"/>
		</g>
	</g>
	<g>
		<g>
			<g>
				<g>
					<path class="st4" d="M222.527,276.08c-1.835-1.834-4.534-2.504-7.012-1.74c-18.1,5.581-35.437,16.3-50.135,30.999
						c-14.698,14.698-25.417,32.035-30.999,50.135c-0.765,2.479-0.095,5.178,1.739,7.013c1.333,1.333,3.121,2.05,4.95,2.05
						c0.689,0,1.384-0.102,2.062-0.311c18.1-5.581,35.437-16.3,50.135-30.999c14.698-14.698,25.417-32.035,30.999-50.135
						C225.031,280.614,224.361,277.915,222.527,276.08z M183.367,323.328c-9.021,9.021-19.11,16.344-29.723,21.633
						c5.29-10.614,12.612-20.701,21.634-29.723c9.021-9.021,19.11-16.344,29.723-21.633
						C199.712,304.219,192.389,314.307,183.367,323.328z"/>
				</g>
			</g>
		</g>
	</g>
	<g>
		<g>
			<polygon class="st2" points="88.975,354.378 107.526,423.836 174.613,423.836 193.163,354.378 			"/>
		</g>
	</g>
	<g>
		<g>
			<polygon class="st1" points="119.587,354.378 88.975,354.378 107.526,423.836 138.137,423.836 			"/>
		</g>
	</g>
	<g>
		<g>
			<g>
				<g>
					<path class="st4" d="M198.715,350.114c-1.325-1.725-3.376-2.736-5.552-2.736H88.975c-2.175,0-4.227,1.011-5.552,2.736
						s-1.772,3.968-1.211,6.07l18.55,69.458c0.818,3.063,3.593,5.194,6.763,5.194h67.087c3.17,0,5.945-2.131,6.763-5.194
						l18.55-69.458C200.487,354.082,200.039,351.839,198.715,350.114z M169.237,416.836h-56.335L98.09,361.378h85.958
						L169.237,416.836z"/>
				</g>
			</g>
		</g>
	</g>
	<g>
		<g>
			<rect x="78.258" y="354.378" class="st3" width="125.623" height="22.344"/>
		</g>
	</g>
	<g>
		<g>
			<rect x="78.258" y="354.378" class="st0" width="43.906" height="22.344"/>
		</g>
	</g>
	<g>
		<g>
			<g>
				<g>
					<path class="st4" d="M203.881,347.378H78.258c-3.866,0-7,3.134-7,7v22.345c0,3.866,3.134,7,7,7h125.623c3.866,0,7-3.134,7-7
						v-22.345C210.881,350.511,207.747,347.378,203.881,347.378z M196.881,369.722H85.258v-8.345h111.623V369.722z"/>
				</g>
			</g>
		</g>
	</g>
	<g>
		<g>
			<path class="st4" d="M323.522,96.501c-1.729-3.458-5.932-4.86-9.391-3.132l-177.346,88.628c-3.458,1.729-4.86,5.933-3.132,9.391
				c1.227,2.454,3.699,3.872,6.267,3.872c1.051,0,2.119-0.238,3.124-0.74l177.345-88.628
				C323.848,104.164,325.25,99.96,323.522,96.501z"/>
		</g>
	</g>
	<g>
		<g>
			<path class="st4" d="M319.647,93.039l-31.574-11.454c-3.631-1.317-7.648,0.559-8.967,4.193s0.559,7.649,4.193,8.968
				l31.574,11.454c0.788,0.286,1.594,0.421,2.387,0.421c2.861,0,5.548-1.769,6.58-4.615
				C325.158,98.372,323.281,94.357,319.647,93.039z"/>
		</g>
	</g>
	<g>
		<g>
			<path class="st4" d="M319.647,93.039c-3.633-1.316-7.648,0.559-8.967,4.193l-11.453,31.574c-1.318,3.634,0.559,7.649,4.193,8.968
				c0.788,0.286,1.594,0.421,2.387,0.421c2.861,0,5.548-1.769,6.58-4.615l11.453-31.574
				C325.158,98.372,323.281,94.357,319.647,93.039z"/>
		</g>
	</g>
</g>
</svg>
