<?xml version="1.0" encoding="utf-8"?>
<!-- Generator: Adobe Illustrator 21.1.0, SVG Export Plug-In . SVG Version: 6.00 Build 0)  -->
<svg version="1.1" id="Layer_1" xmlns="http://www.w3.org/2000/svg" xmlns:xlink="http://www.w3.org/1999/xlink" x="0px" y="0px"
	 viewBox="0 0 512 512" style="enable-background:new 0 0 512 512;" xml:space="preserve">
<style type="text/css">
	.st0{fill:#D6CD1E;}
	.st1{fill:#E56823;}
	.st2{fill:#FE8E46;}
	.st3{fill:#FEFE71;}
	.st4{fill:#463218;}
	.st5{fill:#7DAC51;}
	.st6{fill:#5B7C31;}
	.st7{fill:#FFFFFF;}
</style>
<g>
	<g>
		<g>
			<path class="st3" d="M256,75.374c0,0-28.56,46.505-28.56,62.278c0,15.773,12.787,28.56,28.56,28.56s28.56-12.787,28.56-28.56
				C284.56,121.879,256,75.374,256,75.374z"/>
		</g>
	</g>
	<g>
		<g>
			<path class="st3" d="M149.727,190.477c0,0-15.397,25.071-15.397,33.574s6.893,15.397,15.397,15.397s15.397-6.894,15.397-15.397
				S149.727,190.477,149.727,190.477z"/>
		</g>
	</g>
	<g>
		<g>
			<path class="st3" d="M362.272,190.477c0,0-15.397,25.071-15.397,33.574s6.893,15.397,15.397,15.397s15.397-6.894,15.397-15.397
				S362.272,190.477,362.272,190.477z"/>
		</g>
	</g>
	<g>
		<g>
			<path class="st5" d="M255.23,205.492c-10.81,20.45-17.208,45.769-17.208,73.186c0,27.417,6.397,52.736,17.208,73.186
				c10.81-20.45,17.208-45.769,17.208-73.186C272.438,251.261,266.04,225.942,255.23,205.492z"/>
		</g>
	</g>
	<g>
		<g>
			<path class="st6" d="M255.23,205.492c-10.81,20.45-17.208,45.769-17.208,73.186c0,27.417,6.397,52.736,17.208,73.186
				C255.998,350.411,255.23,205.492,255.23,205.492z"/>
		</g>
	</g>
	<g>
		<g>
			<path class="st5" d="M224.864,302.829c-14.873-14.873-32.078-25.137-49.035-30.366c5.229,16.957,15.493,34.162,30.366,49.035
				c14.873,14.873,32.078,25.137,49.035,30.366C250.001,334.907,239.737,317.702,224.864,302.829z"/>
		</g>
	</g>
	<g>
		<g>
			<path class="st6" d="M255.086,351.424l-79.257-78.961c5.229,16.958,15.493,34.162,30.366,49.035
				c14.873,14.873,32.078,25.137,49.035,30.366C255.185,351.718,255.132,351.571,255.086,351.424z"/>
		</g>
	</g>
	<g>
		<g>
			<g>
				<g>
					<path class="st4" d="M261.419,202.221c-1.213-2.293-3.594-3.729-6.188-3.729s-4.976,1.435-6.188,3.729
						c-11.789,22.3-18.02,48.738-18.02,76.458s6.231,54.158,18.02,76.458c1.212,2.293,3.594,3.729,6.188,3.729
						s4.976-1.435,6.188-3.729c11.788-22.298,18.019-48.737,18.019-76.458S273.207,224.519,261.419,202.221z M255.23,335.051
						c-6.706-17.16-10.208-36.374-10.208-56.373s3.502-39.212,10.208-56.373c6.706,17.159,10.207,36.373,10.207,56.373
						S261.936,317.892,255.23,335.051z"/>
				</g>
			</g>
		</g>
	</g>
	<g>
		<g>
			<g>
				<g>
					<path class="st4" d="M261.92,349.802c-5.781-18.744-16.883-36.698-32.106-51.922c-15.223-15.224-33.177-26.326-51.922-32.105
						c-2.478-0.765-5.177-0.096-7.012,1.739c-1.834,1.834-2.504,4.533-1.739,7.012c5.78,18.744,16.882,36.699,32.105,51.922
						c15.223,15.224,33.177,26.326,51.922,32.105c0.678,0.209,1.373,0.311,2.062,0.311c1.829,0,3.618-0.718,4.951-2.05
						C262.014,354.98,262.684,352.281,261.92,349.802z M211.145,316.549c-9.581-9.581-17.321-20.321-22.848-31.617
						c11.296,5.527,22.037,13.267,31.617,22.848s17.321,20.32,22.848,31.617C231.465,333.869,220.725,326.129,211.145,316.549z"/>
				</g>
			</g>
		</g>
	</g>
	<g>
		<g>
			<path class="st5" d="M287.136,302.829c-14.873,14.873-25.137,32.078-30.366,49.035c16.957-5.229,34.162-15.493,49.035-30.366
				c14.873-14.873,25.137-32.078,30.366-49.035C319.214,277.692,302.009,287.957,287.136,302.829z"/>
		</g>
	</g>
	<g>
		<g>
			<path class="st6" d="M256.914,351.424c-0.046,0.147-0.099,0.294-0.144,0.44c16.957-5.229,34.162-15.493,49.035-30.366
				c14.873-14.873,25.137-32.078,30.366-49.035L256.914,351.424z"/>
		</g>
	</g>
	<g>
		<g>
			<g>
				<g>
					<path class="st4" d="M341.12,267.513c-1.834-1.834-4.533-2.506-7.012-1.739c-18.744,5.78-36.699,16.882-51.923,32.105
						c-15.223,15.225-26.325,33.179-32.105,51.922c-0.765,2.479-0.095,5.178,1.739,7.013c1.333,1.333,3.121,2.05,4.951,2.05
						c0.688,0,1.384-0.102,2.062-0.311c18.744-5.779,36.698-16.881,51.923-32.105c15.225-15.225,26.326-33.179,32.105-51.922
						C343.625,272.047,342.955,269.348,341.12,267.513z M300.854,316.549c-9.58,9.581-20.319,17.321-31.616,22.848
						c5.526-11.297,13.267-22.036,22.848-31.617c9.58-9.581,20.32-17.321,31.617-22.848
						C318.177,296.228,310.435,306.968,300.854,316.549z"/>
				</g>
			</g>
		</g>
	</g>
	<g>
		<g>
			<polygon class="st2" points="202.706,348.585 221.958,436.626 291.582,436.626 310.833,348.585 			"/>
		</g>
	</g>
	<g>
		<g>
			<polygon class="st1" points="234.475,348.585 202.706,348.585 221.958,436.626 253.727,436.626 			"/>
		</g>
	</g>
	<g>
		<g>
			<g>
				<g>
					<path class="st4" d="M316.287,344.196c-1.329-1.651-3.334-2.611-5.453-2.611H202.706c-2.119,0-4.124,0.96-5.453,2.611
						c-1.329,1.65-1.838,3.814-1.386,5.884l19.252,88.042c0.703,3.213,3.549,5.504,6.838,5.504h69.624
						c3.29,0,6.136-2.291,6.839-5.504l19.252-88.042C318.125,348.01,317.615,345.846,316.287,344.196z M285.947,429.626h-58.354
						l-16.19-74.041h90.735L285.947,429.626z"/>
				</g>
			</g>
		</g>
	</g>
	<g>
		<g>
			<rect x="191.583" y="348.585" class="st3" width="130.374" height="23.189"/>
		</g>
	</g>
	<g>
		<g>
			<rect x="191.583" y="348.585" class="st0" width="45.567" height="23.189"/>
		</g>
	</g>
	<g>
		<g>
			<g>
				<g>
					<path class="st4" d="M321.957,341.585H191.583c-3.866,0-7,3.134-7,7v23.189c0,3.866,3.134,7,7,7h130.374c3.866,0,7-3.134,7-7
						v-23.189C328.957,344.719,325.823,341.585,321.957,341.585z M314.957,364.775H198.583v-9.189h116.374V364.775z"/>
				</g>
			</g>
		</g>
	</g>
	<g>
		<g>
			
				<rect x="264.266" y="395.873" transform="matrix(0.2261 -0.9741 0.9741 0.2261 -177.469 582.3685)" class="st7" width="27.013" height="13.999"/>
		</g>
	</g>
	<g>
		<g>
			<g>
				<g>
					<path class="st4" d="M261.965,71.711c-1.273-2.074-3.532-3.337-5.965-3.337c-2.434,0-4.691,1.263-5.965,3.337
						c-4.942,8.047-29.595,49.046-29.595,65.941c0,19.608,15.952,35.56,35.56,35.56c19.608,0,35.561-15.952,35.561-35.56
						C291.56,120.757,266.907,79.758,261.965,71.711z M256,159.212c-11.888,0-21.56-9.672-21.56-21.56
						c0-4.761,5.965-21.732,21.537-48.587c10.358,18.067,21.584,40.641,21.584,48.587C277.56,149.54,267.888,159.212,256,159.212z"
						/>
				</g>
			</g>
		</g>
	</g>
	<g>
		<g>
			<g>
				<g>
					<path class="st4" d="M155.692,186.813c-1.273-2.073-3.532-3.337-5.965-3.337s-4.691,1.263-5.965,3.337
						c-3.855,6.277-16.432,27.512-16.432,37.238c0,12.35,10.047,22.396,22.397,22.396s22.396-10.047,22.396-22.396
						C172.124,214.325,159.547,193.09,155.692,186.813z M149.727,232.448c-4.63,0-8.397-3.767-8.397-8.396
						c0-2.518,3.534-10.569,8.397-19.56c4.862,8.991,8.396,17.042,8.396,19.56C158.124,228.681,154.357,232.448,149.727,232.448z"/>
				</g>
			</g>
		</g>
	</g>
	<g>
		<g>
			<g>
				<g>
					<path class="st4" d="M368.237,186.813c-1.273-2.074-3.532-3.337-5.965-3.337c-2.434,0-4.691,1.264-5.965,3.337
						c-3.854,6.277-16.432,27.512-16.432,37.238c0,12.35,10.047,22.396,22.396,22.396s22.397-10.047,22.397-22.396
						C384.67,214.325,372.092,193.09,368.237,186.813z M362.272,232.448c-4.63,0-8.396-3.767-8.396-8.396
						c0-2.518,3.534-10.57,8.396-19.561c4.863,8.991,8.397,17.042,8.397,19.561C370.67,228.681,366.903,232.448,362.272,232.448z"/>
				</g>
			</g>
		</g>
	</g>
</g>
</svg>
