<?xml version="1.0" encoding="utf-8"?>
<!-- Generator: Adobe Illustrator 21.1.0, SVG Export Plug-In . SVG Version: 6.00 Build 0)  -->
<svg version="1.1" id="Layer_1" xmlns="http://www.w3.org/2000/svg" xmlns:xlink="http://www.w3.org/1999/xlink" x="0px" y="0px"
	 viewBox="0 0 512 512" style="enable-background:new 0 0 512 512;" xml:space="preserve">
<style type="text/css">
	.st0{fill:#D6CD1E;}
	.st1{fill:#E56823;}
	.st2{fill:#FE8E46;}
	.st3{fill:#FEFE71;}
	.st4{fill:#463218;}
	.st5{fill:#7DAC51;}
	.st6{fill:#5B7C31;}
	.st7{fill:#FFFFFF;}
</style>
<g>
	<g>
		<g>
			<rect x="134.741" y="175.742" class="st3" width="242.518" height="233.858"/>
		</g>
	</g>
	<g>
		<g>
			<rect x="134.741" y="175.742" class="st0" width="46.885" height="233.858"/>
		</g>
	</g>
	<g>
		<g>
			<rect x="134.741" y="102.4" class="st2" width="242.518" height="73.342"/>
		</g>
	</g>
	<g>
		<g>
			<rect x="134.741" y="102.4" class="st1" width="46.885" height="73.342"/>
		</g>
	</g>
	<g>
		<g>
			<g>
				<g>
					<path class="st4" d="M377.259,95.4H134.741c-3.866,0-7,3.134-7,7v73.342c0,3.866,3.134,7,7,7h242.518c3.866,0,7-3.134,7-7
						V102.4C384.259,98.534,381.125,95.4,377.259,95.4z M370.259,168.742H141.741V109.4h228.518V168.742z"/>
				</g>
			</g>
		</g>
	</g>
	<g>
		<g>
			<g>
				<g>
					<path class="st4" d="M377.259,168.742H134.741c-3.866,0-7,3.134-7,7V409.6c0,3.866,3.134,7,7,7h242.518c3.866,0,7-3.134,7-7
						V175.742C384.259,171.876,381.125,168.742,377.259,168.742z M370.259,402.6H141.741V182.742h228.518V402.6z"/>
				</g>
			</g>
		</g>
	</g>
	<g>
		<g>
			<rect x="134.741" y="127.712" class="st5" width="242.518" height="18.952"/>
		</g>
	</g>
	<g>
		<g>
			<rect x="134.741" y="127.712" class="st6" width="46.885" height="18.952"/>
		</g>
	</g>
	<g>
		<g>
			<g>
				<g>
					<path class="st4" d="M377.259,123.356H134.741c-3.866,0-7,3.134-7,7v18.953c0,3.866,3.134,7,7,7h242.518c3.866,0,7-3.134,7-7
						v-18.953C384.259,126.49,381.125,123.356,377.259,123.356z M370.259,142.309H141.741v-4.953h228.518V142.309z"/>
				</g>
			</g>
		</g>
	</g>
	<g>
		<g>
			<rect x="155.168" y="204.24" class="st7" width="14" height="48.403"/>
		</g>
	</g>
	<g>
		<g>
			<rect x="305.338" y="119.479" class="st3" width="50.962" height="38.858"/>
		</g>
	</g>
	<g>
		<g>
			<rect x="305.338" y="139.832" class="st0" width="50.962" height="18.505"/>
		</g>
	</g>
	<g>
		<g>
			<g>
				<g>
					<path class="st4" d="M356.3,112.479h-50.962c-3.866,0-7,3.134-7,7v38.858c0,3.866,3.134,7,7,7H356.3c3.866,0,7-3.134,7-7
						v-38.858C363.3,115.613,360.166,112.479,356.3,112.479z M349.3,151.337h-36.962v-24.858H349.3V151.337z"/>
				</g>
			</g>
		</g>
	</g>
	<g>
		<g>
			<path class="st6" d="M316.367,320.941c-8.883-4.695-19.418-7.178-30.466-7.178c-1.78,0-3.545,0.071-5.294,0.199
				c4.884-3.36,9.549-7.243,13.905-11.599c10.933-10.933,18.899-23.806,23.038-37.229c0.265-0.859,0.033-1.794-0.603-2.429
				c-0.635-0.635-1.57-0.867-2.429-0.603c-13.423,4.139-26.296,12.106-37.229,23.039c-3.524,3.523-6.737,7.25-9.616,11.13
				c1.913-8.74,2.895-17.896,2.895-27.26c0-20.035-4.494-39.125-12.995-55.206c-0.42-0.794-1.245-1.292-2.144-1.292
				s-1.724,0.497-2.144,1.292c-8.501,16.082-12.995,35.172-12.995,55.206c0,8.633,0.836,17.089,2.466,25.206
				c-2.465-3.144-5.152-6.179-8.049-9.077c-10.933-10.933-23.806-18.899-37.229-23.039c-0.858-0.264-1.793-0.033-2.429,0.603
				c-0.635,0.635-0.867,1.57-0.603,2.429c4.139,13.423,12.106,26.296,23.038,37.229c4.356,4.356,9.021,8.239,13.905,11.599
				c-1.749-0.128-3.514-0.199-5.294-0.199c-11.048,0-21.583,2.482-30.466,7.178c-0.794,0.42-1.292,1.245-1.292,2.144
				c0,0.899,0.497,1.724,1.292,2.144c8.883,4.696,19.417,7.178,30.466,7.178c3.053,0,6.064-0.196,9.014-0.569
				c-5.492,5.118-9.623,11.208-11.957,17.655c-0.306,0.845-0.119,1.79,0.485,2.455c0.466,0.513,1.121,0.795,1.795,0.795
				c0.2,0,0.402-0.025,0.602-0.076c6.84-1.752,13.488-5.433,19.227-10.643c2.995-2.719,5.595-5.727,7.742-8.923v17.218
				c0,1.339,1.085,2.425,2.425,2.425s2.425-1.085,2.425-2.425v-18.995c2.34,3.862,5.335,7.482,8.88,10.7l0,0
				c5.739,5.21,12.387,8.891,19.227,10.644c0.199,0.051,0.401,0.076,0.602,0.076c0.675,0,1.33-0.282,1.795-0.795
				c0.604-0.665,0.791-1.61,0.485-2.455c-2.334-6.447-6.465-12.537-11.957-17.655c2.95,0.373,5.962,0.569,9.015,0.569
				c11.048,0,21.583-2.482,30.466-7.178c0.794-0.42,1.292-1.245,1.292-2.144C317.659,322.187,317.162,321.361,316.367,320.941z"/>
		</g>
	</g>
</g>
</svg>
